solid OpenSCAD_Model
  facet normal 0 0 -1
    outer loop
      vertex 8.84 -6.84 0
      vertex -8.84 -6.84 0
      vertex -8.84 6.84 0
    endloop
  endfacet
  facet normal 1 0 0
    outer loop
      vertex 8.84 6.84 2.5
      vertex 8.84 -6.84 2.5
      vertex 8.84 6.84 0
    endloop
  endfacet
  facet normal 0 0 1
    outer loop
      vertex 8.84 6.84 2.5
      vertex -8.84 6.84 2.5
      vertex 8.84 -6.84 2.5
    endloop
  endfacet
  facet normal 0 1 0
    outer loop
      vertex 8 6.84 0.4
      vertex 8.84 6.84 2.5
      vertex 8.84 6.84 0
    endloop
  endfacet
  facet normal 0 1 0
    outer loop
      vertex 8 6.84 0.4
      vertex 8.84 6.84 0
      vertex 8 6.84 0
    endloop
  endfacet
  facet normal 0 0 -1
    outer loop
      vertex 8.84 -6.84 0
      vertex 8 6.84 0
      vertex 8.84 6.84 0
    endloop
  endfacet
  facet normal 0 1 0
    outer loop
      vertex 8 6.84 0.4
      vertex -8 6.84 0.4
      vertex 8.84 6.84 2.5
    endloop
  endfacet
  facet normal 0 0 -1
    outer loop
      vertex 8.84 -6.84 0
      vertex -8 6.84 0
      vertex 8 6.84 0
    endloop
  endfacet
  facet normal 0 -1 0
    outer loop
      vertex 8.84 -6.84 2.5
      vertex -8.84 -6.84 2.5
      vertex 8.84 -6.84 0
    endloop
  endfacet
  facet normal 1 0 0
    outer loop
      vertex 8.84 -6.84 0
      vertex 8.84 6.84 0
      vertex 8.84 -6.84 2.5
    endloop
  endfacet
  facet normal 0 1 0
    outer loop
      vertex -8 6.84 0.4
      vertex -8.84 6.84 2.5
      vertex 8.84 6.84 2.5
    endloop
  endfacet
  facet normal 0 0 -1
    outer loop
      vertex 8.84 -6.84 0
      vertex -8.84 6.84 0
      vertex -8 6.84 0
    endloop
  endfacet
  facet normal 0 -1 0
    outer loop
      vertex -8.84 -6.84 0
      vertex 8.84 -6.84 0
      vertex -8.84 -6.84 2.5
    endloop
  endfacet
  facet normal -1 0 0
    outer loop
      vertex -8.84 -6.84 0
      vertex -8.84 -6.84 2.5
      vertex -8.84 6.84 2.5
    endloop
  endfacet
  facet normal 0 1 0
    outer loop
      vertex -8 6.84 0.4
      vertex -8.84 6.84 0
      vertex -8.84 6.84 2.5
    endloop
  endfacet
  facet normal 0 0 1
    outer loop
      vertex -8.84 6.84 2.5
      vertex -8.84 -6.84 2.5
      vertex 8.84 -6.84 2.5
    endloop
  endfacet
  facet normal -1 0 0
    outer loop
      vertex -8.84 6.84 0
      vertex -8.84 -6.84 0
      vertex -8.84 6.84 2.5
    endloop
  endfacet
  facet normal 0 1 0
    outer loop
      vertex -8 6.84 0.4
      vertex -8 6.84 0
      vertex -8.84 6.84 0
    endloop
  endfacet
  facet normal 0 0 -1
    outer loop
      vertex 10.5 8.84 0
      vertex -10.5 10.84 0
      vertex 10.5 10.84 0
    endloop
  endfacet
  facet normal 1 0 0
    outer loop
      vertex 10.5 8.84 2.5
      vertex 10.5 10.84 0
      vertex 10.5 10.84 2.5
    endloop
  endfacet
  facet normal 0 0 1
    outer loop
      vertex 10.5 10.84 2.5
      vertex -10.5 10.84 2.5
      vertex 10.5 8.84 2.5
    endloop
  endfacet
  facet normal 0 -1 0
    outer loop
      vertex 8 8.84 0.4
      vertex 10.5 8.84 2.5
      vertex -10.5 8.84 2.5
    endloop
  endfacet
  facet normal 0 -1 0
    outer loop
      vertex 8 8.84 0.4
      vertex 8 8.84 0
      vertex 10.5 8.84 2.5
    endloop
  endfacet
  facet normal 1 0 0
    outer loop
      vertex 10.5 10.84 0
      vertex 10.5 8.84 2.5
      vertex 10.5 8.84 0
    endloop
  endfacet
  facet normal 0 -1 0
    outer loop
      vertex 8 8.84 0
      vertex 10.5 8.84 0
      vertex 10.5 8.84 2.5
    endloop
  endfacet
  facet normal 0 1 0
    outer loop
      vertex 10.5 10.84 0
      vertex -10.5 10.84 0
      vertex 10.5 10.84 2.5
    endloop
  endfacet
  facet normal 0 -1 0
    outer loop
      vertex -8 8.84 0.4
      vertex -10.5 8.84 2.5
      vertex -10.5 8.84 0
    endloop
  endfacet
  facet normal 0 -1 0
    outer loop
      vertex -8 8.84 0.4
      vertex -10.5 8.84 0
      vertex -8 8.84 0
    endloop
  endfacet
  facet normal -1 0 0
    outer loop
      vertex -10.5 8.84 0
      vertex -10.5 10.84 2.5
      vertex -10.5 10.84 0
    endloop
  endfacet
  facet normal 0 0 -1
    outer loop
      vertex -10.5 10.84 0
      vertex 8 8.84 0
      vertex -8 8.84 0
    endloop
  endfacet
  facet normal 0 -1 0
    outer loop
      vertex -8 8.84 0.4
      vertex 8 8.84 0.4
      vertex -10.5 8.84 2.5
    endloop
  endfacet
  facet normal -1 0 0
    outer loop
      vertex -10.5 10.84 2.5
      vertex -10.5 8.84 0
      vertex -10.5 8.84 2.5
    endloop
  endfacet
  facet normal 0 1 0
    outer loop
      vertex -10.5 10.84 0
      vertex -10.5 10.84 2.5
      vertex 10.5 10.84 2.5
    endloop
  endfacet
  facet normal 0 0 1
    outer loop
      vertex -10.5 10.84 2.5
      vertex -10.5 8.84 2.5
      vertex 10.5 8.84 2.5
    endloop
  endfacet
  facet normal 0 0 -1
    outer loop
      vertex -10.5 10.84 0
      vertex 10.5 8.84 0
      vertex 8 8.84 0
    endloop
  endfacet
  facet normal 0 0 -1
    outer loop
      vertex -10.5 8.84 0
      vertex -10.5 10.84 0
      vertex -8 8.84 0
    endloop
  endfacet
  facet normal 1 0 0
    outer loop
      vertex 8 8.84 0
      vertex 8 8.84 0.4
      vertex 8 6.84 0.4
    endloop
  endfacet
  facet normal 1 0 0
    outer loop
      vertex 8 8.84 0
      vertex 8 6.84 0.4
      vertex 8 6.84 0
    endloop
  endfacet
  facet normal -1 0 0
    outer loop
      vertex -8 6.84 0
      vertex -8 8.84 0.4
      vertex -8 8.84 0
    endloop
  endfacet
  facet normal 0 0 -1
    outer loop
      vertex 8 6.84 0
      vertex -8 8.84 0
      vertex 8 8.84 0
    endloop
  endfacet
  facet normal -1 0 0
    outer loop
      vertex -8 6.84 0
      vertex -8 6.84 0.4
      vertex -8 8.84 0.4
    endloop
  endfacet
  facet normal 0 0 1
    outer loop
      vertex -8 6.84 0.4
      vertex 8 6.84 0.4
      vertex -8 8.84 0.4
    endloop
  endfacet
  facet normal 0 0 -1
    outer loop
      vertex -8 8.84 0
      vertex 8 6.84 0
      vertex -8 6.84 0
    endloop
  endfacet
  facet normal 0 0 1
    outer loop
      vertex -8 8.84 0.4
      vertex 8 6.84 0.4
      vertex 8 8.84 0.4
    endloop
  endfacet
endsolid OpenSCAD_Model
