solid OpenSCAD_Model
  facet normal 0 0.27070037 0.96266365
    outer loop
      vertex -7.7524886 2.0642483 3.5203772
      vertex -7.695163 1.7560039 3.6070552
      vertex 7.695224 1.7560039 3.6070552
    endloop
  endfacet
  facet normal 0 0.11677383 0.9931585
    outer loop
      vertex 8 4.8930073 2.9855735
      vertex -8 4.8930073 2.9855735
      vertex 8 4.5749984 3.0229642
    endloop
  endfacet
  facet normal -8.969491e-17 0.13408905 0.9909693
    outer loop
      vertex -8 4.5749984 3.0229642
      vertex 7.998735 4.257691 3.0658996
      vertex 8 4.288812 3.0616884
    endloop
  endfacet
  facet normal 0 0.13408905 0.9909693
    outer loop
      vertex 8 4.5749984 3.0229642
      vertex -8 4.5749984 3.0229642
      vertex 8 4.288812 3.0616884
    endloop
  endfacet
  facet normal 0 0.18576862 0.98259354
    outer loop
      vertex 7.9561915 3.6255643 3.168349
      vertex -7.9561825 3.6255643 3.168349
      vertex 7.937165 3.4235368 3.2065444
    endloop
  endfacet
  facet normal 0 0.20288894 0.97920173
    outer loop
      vertex 7.9139657 3.1987288 3.2510817
      vertex -7.9139485 3.1987288 3.2510817
      vertex 7.891368 2.9973986 3.292797
    endloop
  endfacet
  facet normal 0 0.28745994 0.95779264
    outer loop
      vertex -7.695163 1.7560039 3.6070552
      vertex -7.6323457 1.4493191 3.6990998
      vertex 7.632419 1.4493191 3.6990998
    endloop
  endfacet
  facet normal -9.79971e-18 0.3207113 0.947177
    outer loop
      vertex -7.564055 1.1442876 3.7964826
      vertex -7.509772 0.9321868 3.8682992
      vertex 7.50987 0.9321868 3.8682992
    endloop
  endfacet
  facet normal 0 0.30413195 0.9526299
    outer loop
      vertex -7.6323457 1.4493191 3.6990998
      vertex -7.564055 1.1442876 3.7964826
      vertex 7.564142 1.1442876 3.7964826
    endloop
  endfacet
  facet normal 0 0.099423036 0.99504524
    outer loop
      vertex 8 5.2116203 2.9537382
      vertex -8 5.2116203 2.9537382
      vertex 8 4.8930073 2.9855735
    endloop
  endfacet
  facet normal 0 0.28745994 0.95779264
    outer loop
      vertex 7.695224 1.7560039 3.6070552
      vertex -7.695163 1.7560039 3.6070552
      vertex 7.632419 1.4493191 3.6990998
    endloop
  endfacet
  facet normal 0 0.27070037 0.96266365
    outer loop
      vertex 7.7525377 2.0642483 3.5203772
      vertex -7.7524886 2.0642483 3.5203772
      vertex 7.695224 1.7560039 3.6070552
    endloop
  endfacet
  facet normal 0 0.30413195 0.9526299
    outer loop
      vertex 7.632419 1.4493191 3.6990998
      vertex -7.6323457 1.4493191 3.6990998
      vertex 7.564142 1.1442876 3.7964826
    endloop
  endfacet
  facet normal 0 0.3207113 0.947177
    outer loop
      vertex 7.564142 1.1442876 3.7964826
      vertex -7.564055 1.1442876 3.7964826
      vertex 7.521487 0.96882087 3.8558953
    endloop
  endfacet
  facet normal 3.5914618e-16 0.3207113 0.947177
    outer loop
      vertex -7.564055 1.1442876 3.7964826
      vertex 7.50987 0.9321868 3.8682992
      vertex 7.51485 0.94152534 3.8651373
    endloop
  endfacet
  facet normal -2.785354e-17 0.3207113 0.947177
    outer loop
      vertex -7.564055 1.1442876 3.7964826
      vertex 7.51485 0.94152534 3.8651373
      vertex 7.521487 0.96882087 3.8558953
    endloop
  endfacet
  facet normal -9.7699196e-11 0.3207113 0.947177
    outer loop
      vertex -7.5213914 0.96882087 3.8558953
      vertex -7.514753 0.94152534 3.8651373
      vertex -7.564055 1.1442876 3.7964826
    endloop
  endfacet
  facet normal 2.4294023e-15 0.3207113 0.947177
    outer loop
      vertex -7.514753 0.94152534 3.8651373
      vertex -7.509772 0.9321868 3.8682992
      vertex -7.564055 1.1442876 3.7964826
    endloop
  endfacet
  facet normal 0 0.15136343 0.9884782
    outer loop
      vertex -7.9987345 4.257691 3.0658996
      vertex -7.980248 3.9411805 3.114366
      vertex 7.980252 3.9411805 3.114366
    endloop
  endfacet
  facet normal 0 0.064635895 0.9979089
    outer loop
      vertex -8 5.8502703 2.9067721
      vertex -8 5.5307407 2.9274683
      vertex 8 5.5307407 2.9274683
    endloop
  endfacet
  facet normal 0 0.04721014 0.998885
    outer loop
      vertex -8 5.993555 2.9
      vertex -8 5.8502703 2.9067721
      vertex 8 5.8502703 2.9067721
    endloop
  endfacet
  facet normal 0 0.04721014 0.998885
    outer loop
      vertex -8 5.993555 2.9
      vertex 8 5.8502703 2.9067721
      vertex 8 5.993555 2.9
    endloop
  endfacet
  facet normal 0 0.064635895 0.9979089
    outer loop
      vertex 8 5.8502703 2.9067721
      vertex -8 5.8502703 2.9067721
      vertex 8 5.5307407 2.9274683
    endloop
  endfacet
  facet normal 0 0.20288894 0.97920173
    outer loop
      vertex -7.9139485 3.1987288 3.2510817
      vertex -7.891346 2.9973986 3.292797
      vertex 7.891368 2.9973986 3.292797
    endloop
  endfacet
  facet normal 1.2223085e-13 0.13408905 0.9909693
    outer loop
      vertex -8 4.288812 3.0616884
      vertex -7.9987345 4.257691 3.0658996
      vertex -8 4.5749984 3.0229642
    endloop
  endfacet
  facet normal 0 0.21994747 0.9755117
    outer loop
      vertex -7.891346 2.9973986 3.292797
      vertex -7.850595 2.6850402 3.363224
      vertex 7.850625 2.6850402 3.363224
    endloop
  endfacet
  facet normal 0 0.1685917 0.98568594
    outer loop
      vertex -7.980248 3.9411805 3.114366
      vertex -7.9561825 3.6255643 3.168349
      vertex 7.9561915 3.6255643 3.168349
    endloop
  endfacet
  facet normal 0 0.236939 0.97152454
    outer loop
      vertex 7.850625 2.6850402 3.363224
      vertex -7.850595 2.6850402 3.363224
      vertex 7.804343 2.3739586 3.439092
    endloop
  endfacet
  facet normal 0 0.18576862 0.98259354
    outer loop
      vertex -7.9561825 3.6255643 3.168349
      vertex -7.937152 3.4235368 3.2065444
      vertex 7.937165 3.4235368 3.2065444
    endloop
  endfacet
  facet normal 0 0.11677383 0.9931585
    outer loop
      vertex -8 4.8930073 2.9855735
      vertex -8 4.5749984 3.0229642
      vertex 8 4.5749984 3.0229642
    endloop
  endfacet
  facet normal 0 0.13408905 0.9909693
    outer loop
      vertex -8 4.5749984 3.0229642
      vertex -7.9987345 4.257691 3.0658996
      vertex 7.998735 4.257691 3.0658996
    endloop
  endfacet
  facet normal 0 0.099423036 0.99504524
    outer loop
      vertex -8 5.2116203 2.9537382
      vertex -8 4.8930073 2.9855735
      vertex 8 4.8930073 2.9855735
    endloop
  endfacet
  facet normal 0 0.082041964 0.9966289
    outer loop
      vertex -8 5.5307407 2.9274683
      vertex -8 5.2116203 2.9537382
      vertex 8 5.2116203 2.9537382
    endloop
  endfacet
  facet normal 0 0.25385836 0.9672414
    outer loop
      vertex -7.804304 2.3739586 3.439092
      vertex -7.7524886 2.0642483 3.5203772
      vertex 7.7525377 2.0642483 3.5203772
    endloop
  endfacet
  facet normal 0 0.236939 0.97152454
    outer loop
      vertex -7.850595 2.6850402 3.363224
      vertex -7.804304 2.3739586 3.439092
      vertex 7.804343 2.3739586 3.439092
    endloop
  endfacet
  facet normal 0 0.082041964 0.9966289
    outer loop
      vertex 8 5.5307407 2.9274683
      vertex -8 5.5307407 2.9274683
      vertex 8 5.2116203 2.9537382
    endloop
  endfacet
  facet normal 0 0.21994747 0.9755117
    outer loop
      vertex 7.891368 2.9973986 3.292797
      vertex -7.891346 2.9973986 3.292797
      vertex 7.850625 2.6850402 3.363224
    endloop
  endfacet
  facet normal 0 0.25385836 0.9672414
    outer loop
      vertex 7.804343 2.3739586 3.439092
      vertex -7.804304 2.3739586 3.439092
      vertex 7.7525377 2.0642483 3.5203772
    endloop
  endfacet
  facet normal 0 0.1685917 0.98568594
    outer loop
      vertex 7.980252 3.9411805 3.114366
      vertex -7.980248 3.9411805 3.114366
      vertex 7.9561915 3.6255643 3.168349
    endloop
  endfacet
  facet normal 0 0.15136343 0.9884782
    outer loop
      vertex 7.998735 4.257691 3.0658996
      vertex -7.9987345 4.257691 3.0658996
      vertex 7.980252 3.9411805 3.114366
    endloop
  endfacet
  facet normal 0 0.19433618 0.980935
    outer loop
      vertex -7.937152 3.4235368 3.2065444
      vertex -7.9139485 3.1987288 3.2510817
      vertex 7.9139657 3.1987288 3.2510817
    endloop
  endfacet
  facet normal 0 0.19433618 0.980935
    outer loop
      vertex 7.937165 3.4235368 3.2065444
      vertex -7.937152 3.4235368 3.2065444
      vertex 7.9139657 3.1987288 3.2510817
    endloop
  endfacet
  facet normal 0 -0.66131186 0.75011104
    outer loop
      vertex -7.5 -5.646197 3.7393594
      vertex 7.5001 -5.679183 3.710278
      vertex 7.5001 -5.646197 3.7393594
    endloop
  endfacet
  facet normal 0 -0.9602937 0.2789911
    outer loop
      vertex -7.5 -5.8657393 3.416312
      vertex 7.5001 -5.8780084 3.3740828
      vertex 7.5001 -5.8657393 3.416312
    endloop
  endfacet
  facet normal 0 -0.9408808 0.33873793
    outer loop
      vertex 7.5001 -5.8508434 3.4576871
      vertex -7.5 -5.8657393 3.416312
      vertex 7.5001 -5.8657393 3.416312
    endloop
  endfacet
  facet normal 0 -0.91775465 0.3971479
    outer loop
      vertex 7.5001 -5.833379 3.4980454
      vertex -7.5 -5.8508434 3.4576871
      vertex 7.5001 -5.8508434 3.4576871
    endloop
  endfacet
  facet normal 0 -0.8910065 0.4539905
    outer loop
      vertex -7.5 -5.8134146 3.5372276
      vertex 7.5001 -5.833379 3.4980454
      vertex 7.5001 -5.8134146 3.5372276
    endloop
  endfacet
  facet normal 0 -0.86074203 0.5090414
    outer loop
      vertex 7.5001 -5.7910295 3.5750787
      vertex -7.5 -5.8134146 3.5372276
      vertex 7.5001 -5.8134146 3.5372276
    endloop
  endfacet
  facet normal 0 -0.82708055 0.56208336
    outer loop
      vertex -7.5 -5.766312 3.6114497
      vertex 7.5001 -5.7910295 3.5750787
      vertex 7.5001 -5.766312 3.6114497
    endloop
  endfacet
  facet normal 1 0 0
    outer loop
      vertex 8 -5.2 3.4
      vertex 8 -5.285156 3.3809655
      vertex 8 0.7 3.4
    endloop
  endfacet
  facet normal 1 0 0
    outer loop
      vertex 8 -5.2125583 3.3996053
      vertex 8 -5.285156 3.3809655
      vertex 8 -5.2 3.4
    endloop
  endfacet
  facet normal 1 0 0
    outer loop
      vertex 8 -5.2250667 3.398423
      vertex 8 -5.285156 3.3809655
      vertex 8 -5.2125583 3.3996053
    endloop
  endfacet
  facet normal 0 -0.790155 0.61290705
    outer loop
      vertex 7.5001 -5.7393594 3.6461968
      vertex -7.5 -5.766312 3.6114497
      vertex 7.5001 -5.766312 3.6114497
    endloop
  endfacet
  facet normal 0 -0.75011104 0.66131186
    outer loop
      vertex 7.5001 -5.710278 3.679183
      vertex -7.5 -5.7393594 3.6461968
      vertex 7.5001 -5.7393594 3.6461968
    endloop
  endfacet
  facet normal 0 -0.70710677 0.70710677
    outer loop
      vertex 7.5001 -5.679183 3.710278
      vertex -7.5 -5.679183 3.710278
      vertex 7.5001 -5.710278 3.679183
    endloop
  endfacet
  facet normal 1 0 0
    outer loop
      vertex 8 -5.285156 3.3809655
      vertex 8 -6 2.5
      vertex 8 6 2.5
    endloop
  endfacet
  facet normal 0 -0.61290705 0.790155
    outer loop
      vertex 7.5001 -5.6114497 3.766312
      vertex -7.5 -5.646197 3.7393594
      vertex 7.5001 -5.646197 3.7393594
    endloop
  endfacet
  facet normal 0 -0.56208336 0.82708055
    outer loop
      vertex 7.5001 -5.575079 3.7910295
      vertex -7.5 -5.575079 3.7910295
      vertex 7.5001 -5.6114497 3.766312
    endloop
  endfacet
  facet normal 0 -0.5090414 0.86074203
    outer loop
      vertex -7.5 -5.5372276 3.8134146
      vertex 7.5001 -5.575079 3.7910295
      vertex 7.5001 -5.5372276 3.8134146
    endloop
  endfacet
  facet normal 0 -0.4539905 0.8910065
    outer loop
      vertex 7.5001 -5.4980454 3.833379
      vertex -7.5 -5.5372276 3.8134146
      vertex 7.5001 -5.5372276 3.8134146
    endloop
  endfacet
  facet normal 0 -0.3971479 0.91775465
    outer loop
      vertex 7.5001 -5.4576874 3.8508434
      vertex -7.5 -5.4980454 3.833379
      vertex 7.5001 -5.4980454 3.833379
    endloop
  endfacet
  facet normal 0 -0.33873793 0.9408808
    outer loop
      vertex -7.5 -5.4163117 3.8657396
      vertex 7.5001 -5.4576874 3.8508434
      vertex 7.5001 -5.4163117 3.8657396
    endloop
  endfacet
  facet normal 0 -0.2789911 0.9602937
    outer loop
      vertex 7.5001 -5.374083 3.8780081
      vertex -7.5 -5.4163117 3.8657396
      vertex 7.5001 -5.4163117 3.8657396
    endloop
  endfacet
  facet normal 0.7070034 0.066527285 0.7040741
    outer loop
      vertex 7.632419 1.4493191 3.6990998
      vertex 7.564142 1.1442876 3.7964826
      vertex 8 0.7125581 3.3996053
    endloop
  endfacet
  facet normal 1 0 0
    outer loop
      vertex 8 6 2.5
      vertex 8 6 2.9
      vertex 8 5.9999404 2.8996983
    endloop
  endfacet
  facet normal 0.7070034 0.066527285 0.7040741
    outer loop
      vertex 7.804343 2.3739586 3.439092
      vertex 8 0.7125581 3.3996053
      vertex 7.850625 2.6850402 3.363224
    endloop
  endfacet
  facet normal 1 0 0
    outer loop
      vertex 8 5.2116203 2.9537382
      vertex 8 -5.285156 3.3809655
      vertex 8 5.5307407 2.9274683
    endloop
  endfacet
  facet normal 1 0 0
    outer loop
      vertex 8 -5.285156 3.3809655
      vertex 8 5.2116203 2.9537382
      vertex 8 0.7125581 3.3996053
    endloop
  endfacet
  facet normal 1 0 0
    outer loop
      vertex 8 0.7 3.4
      vertex 8 -5.285156 3.3809655
      vertex 8 0.7125581 3.3996053
    endloop
  endfacet
  facet normal 0.7068585 0.06656799 0.7042157
    outer loop
      vertex 7.521487 0.96882087 3.8558953
      vertex 7.51485 0.94152534 3.8651373
      vertex 7.5001 0.78773326 3.8944802
    endloop
  endfacet
  facet normal 0.7070034 0.066527285 0.7040741
    outer loop
      vertex 8 0.7125581 3.3996053
      vertex 7.564142 1.1442876 3.7964826
      vertex 7.521487 0.96882087 3.8558953
    endloop
  endfacet
  facet normal 0.7070034 0.066527285 0.7040741
    outer loop
      vertex 7.695224 1.7560039 3.6070552
      vertex 8 0.7125581 3.3996053
      vertex 7.7525377 2.0642483 3.5203772
    endloop
  endfacet
  facet normal 0.7070034 0.066527285 0.7040741
    outer loop
      vertex 7.804343 2.3739586 3.439092
      vertex 7.7525377 2.0642483 3.5203772
      vertex 8 0.7125581 3.3996053
    endloop
  endfacet
  facet normal 0.7070034 0.066527285 0.7040741
    outer loop
      vertex 7.695224 1.7560039 3.6070552
      vertex 7.632419 1.4493191 3.6990998
      vertex 8 0.7125581 3.3996053
    endloop
  endfacet
  facet normal 0 -0.96845114 0.24920343
    outer loop
      vertex 7.5001 -5.8780084 3.3740828
      vertex -8 -6 2.9
      vertex 8 -6 2.9
    endloop
  endfacet
  facet normal 0.31661215 0.1483867 0.9368768
    outer loop
      vertex 7.51485 0.94152534 3.8651373
      vertex 7.50987 0.9321868 3.8682992
      vertex 7.5001 0.78773326 3.8944802
    endloop
  endfacet
  facet normal 0.7068585 0.06656799 0.7042157
    outer loop
      vertex 7.5001 0.78773326 3.8944802
      vertex 7.5001 0.74395335 3.8986187
      vertex 7.521487 0.96882087 3.8558953
    endloop
  endfacet
  facet normal 0.31661215 0.1483867 0.9368768
    outer loop
      vertex 7.50987 0.9321868 3.8682992
      vertex 7.5001 0.8311669 3.8876011
      vertex 7.5001 0.78773326 3.8944802
    endloop
  endfacet
  facet normal 0.7070034 0.066527285 0.7040741
    outer loop
      vertex 7.5001 0.74395335 3.8986187
      vertex 8 0.7125581 3.3996053
      vertex 7.521487 0.96882087 3.8558953
    endloop
  endfacet
  facet normal 0.707003 0.02221402 0.7068616
    outer loop
      vertex 7.5001 0.74395335 3.8986187
      vertex 7.5001 0.7 3.9
      vertex 8 0.7 3.4
    endloop
  endfacet
  facet normal 0.707003 0.02221402 0.7068616
    outer loop
      vertex 8 0.7125581 3.3996053
      vertex 7.5001 0.74395335 3.8986187
      vertex 8 0.7 3.4
    endloop
  endfacet
  facet normal 0.7071775 0 0.7070361
    outer loop
      vertex 7.5001 0.7 3.9
      vertex 7.5001 -5.2 3.9
      vertex 8 0.7 3.4
    endloop
  endfacet
  facet normal 0 -0.21814324 0.97591674
    outer loop
      vertex -7.5 -5.3311667 3.8876011
      vertex 7.5001 -5.374083 3.8780081
      vertex 7.5001 -5.3311667 3.8876011
    endloop
  endfacet
  facet normal 0 -1 0
    outer loop
      vertex -8 -6 2.5
      vertex 8 -6 2.5
      vertex 8 -6 2.9
    endloop
  endfacet
  facet normal 0.707003 -0.1542732 0.69017863
    outer loop
      vertex 8 -5.2497377 3.3937166
      vertex 8 -5.2374763 3.3964574
      vertex 7.5001 -5.3311667 3.8876011
    endloop
  endfacet
  facet normal 0.511991 -0.64433855 0.5680608
    outer loop
      vertex 7.5001 -5.710278 3.679183
      vertex 7.5001 -5.7393594 3.6461968
      vertex 8 -6 2.9
    endloop
  endfacet
  facet normal 0.7070241 -0.3963512 0.5856814
    outer loop
      vertex 8 -6 2.9
      vertex 8 -5.307165 3.3688655
      vertex 7.5001 -5.575079 3.7910295
    endloop
  endfacet
  facet normal 0.5692284 -0.5813686 0.5813686
    outer loop
      vertex 7.5001 -5.679183 3.710278
      vertex 7.5001 -5.710278 3.679183
      vertex 8 -6 2.9
    endloop
  endfacet
  facet normal 0.62059134 -0.51855725 0.5881877
    outer loop
      vertex 7.5001 -5.646197 3.7393594
      vertex 7.5001 -5.679183 3.710278
      vertex 8 -6 2.9
    endloop
  endfacet
  facet normal 0.6660458 -0.45717403 0.5893852
    outer loop
      vertex 7.5001 -5.6114497 3.766312
      vertex 7.5001 -5.646197 3.7393594
      vertex 8 -6 2.9
    endloop
  endfacet
  facet normal 0.70583886 -0.39816436 0.58588105
    outer loop
      vertex 7.5001 -5.575079 3.7910295
      vertex 7.5001 -5.6114497 3.766312
      vertex 8 -6 2.9
    endloop
  endfacet
  facet normal 0.707003 -0.35999945 0.60872585
    outer loop
      vertex 7.5001 -5.575079 3.7910295
      vertex 8 -5.307165 3.3688655
      vertex 8 -5.296351 3.3752613
    endloop
  endfacet
  facet normal 0.707003 -0.3210669 0.6301292
    outer loop
      vertex 8 -5.296351 3.3752613
      vertex 8 -5.285156 3.3809655
      vertex 7.5001 -5.4980454 3.833379
    endloop
  endfacet
  facet normal 0.707003 -0.2808672 0.64904577
    outer loop
      vertex 7.5001 -5.4980454 3.833379
      vertex 8 -5.285156 3.3809655
      vertex 8 -5.273625 3.3859553
    endloop
  endfacet
  facet normal 0.707003 -0.23955904 0.6654008
    outer loop
      vertex 8 -5.273625 3.3859553
      vertex 8 -5.2618036 3.3902113
      vertex 7.5001 -5.4163117 3.8657396
    endloop
  endfacet
  facet normal 0.707003 -0.19730546 0.67912984
    outer loop
      vertex 7.5001 -5.4163117 3.8657396
      vertex 8 -5.2618036 3.3902113
      vertex 8 -5.2497377 3.3937166
    endloop
  endfacet
  facet normal 0.44928932 -0.70591366 0.5475628
    outer loop
      vertex 7.5001 -5.7393594 3.6461968
      vertex 7.5001 -5.766312 3.6114497
      vertex 8 -6 2.9
    endloop
  endfacet
  facet normal 0.707003 -0.11063211 0.6985036
    outer loop
      vertex 8 -5.2374763 3.3964574
      vertex 8 -5.2250667 3.398423
      vertex 7.5001 -5.287733 3.8944802
    endloop
  endfacet
  facet normal 0.707003 -0.06655439 0.70407194
    outer loop
      vertex 8 -5.2250667 3.398423
      vertex 8 -5.2125583 3.3996053
      vertex 7.5001 -5.243953 3.8986187
    endloop
  endfacet
  facet normal 0.707003 -0.02221402 0.7068616
    outer loop
      vertex 7.5001 -5.243953 3.8986187
      vertex 8 -5.2125583 3.3996053
      vertex 8 -5.2 3.4
    endloop
  endfacet
  facet normal 0.707003 -0.35999945 0.60872585
    outer loop
      vertex 7.5001 -5.5372276 3.8134146
      vertex 7.5001 -5.575079 3.7910295
      vertex 8 -5.296351 3.3752613
    endloop
  endfacet
  facet normal 0.707003 -0.3210669 0.6301292
    outer loop
      vertex 7.5001 -5.4980454 3.833379
      vertex 7.5001 -5.5372276 3.8134146
      vertex 8 -5.296351 3.3752613
    endloop
  endfacet
  facet normal 0.707003 -0.2808672 0.64904577
    outer loop
      vertex 7.5001 -5.4576874 3.8508434
      vertex 7.5001 -5.4980454 3.833379
      vertex 8 -5.273625 3.3859553
    endloop
  endfacet
  facet normal 0.707003 -0.23955904 0.6654008
    outer loop
      vertex 7.5001 -5.4163117 3.8657396
      vertex 7.5001 -5.4576874 3.8508434
      vertex 8 -5.273625 3.3859553
    endloop
  endfacet
  facet normal 0.707003 -0.19730546 0.67912984
    outer loop
      vertex 7.5001 -5.374083 3.8780081
      vertex 7.5001 -5.4163117 3.8657396
      vertex 8 -5.2497377 3.3937166
    endloop
  endfacet
  facet normal 0.707003 -0.1542732 0.69017863
    outer loop
      vertex 7.5001 -5.3311667 3.8876011
      vertex 7.5001 -5.374083 3.8780081
      vertex 8 -5.2497377 3.3937166
    endloop
  endfacet
  facet normal 0.707003 -0.11063211 0.6985036
    outer loop
      vertex 7.5001 -5.287733 3.8944802
      vertex 7.5001 -5.3311667 3.8876011
      vertex 8 -5.2374763 3.3964574
    endloop
  endfacet
  facet normal 0.707003 -0.06655439 0.70407194
    outer loop
      vertex 7.5001 -5.243953 3.8986187
      vertex 7.5001 -5.287733 3.8944802
      vertex 8 -5.2250667 3.398423
    endloop
  endfacet
  facet normal 1 0 0
    outer loop
      vertex 8 -5.307165 3.3688655
      vertex 8 -5.285156 3.3809655
      vertex 8 -5.296351 3.3752613
    endloop
  endfacet
  facet normal 0 -0.15643446 0.98768836
    outer loop
      vertex 7.5001 -5.287733 3.8944802
      vertex -7.5 -5.3311667 3.8876011
      vertex 7.5001 -5.3311667 3.8876011
    endloop
  endfacet
  facet normal 0 -0.09410831 0.99556196
    outer loop
      vertex -7.5 -5.243953 3.8986187
      vertex 7.5001 -5.287733 3.8944802
      vertex 7.5001 -5.243953 3.8986187
    endloop
  endfacet
  facet normal 0 -0.031410757 0.99950653
    outer loop
      vertex 7.5001 -5.2 3.9
      vertex -7.5 -5.243953 3.8986187
      vertex 7.5001 -5.243953 3.8986187
    endloop
  endfacet
  facet normal 0 0 1
    outer loop
      vertex -7.5 0.7 3.9
      vertex 7.5001 -5.2 3.9
      vertex 7.5001 0.7 3.9
    endloop
  endfacet
  facet normal 0 0.031410757 0.99950653
    outer loop
      vertex 7.5001 0.74395335 3.8986187
      vertex -7.5 0.7 3.9
      vertex 7.5001 0.7 3.9
    endloop
  endfacet
  facet normal 0 0.09410831 0.99556196
    outer loop
      vertex 7.5001 0.78773326 3.8944802
      vertex -7.5 0.78773326 3.8944802
      vertex 7.5001 0.74395335 3.8986187
    endloop
  endfacet
  facet normal 0 0.15643446 0.98768836
    outer loop
      vertex 7.5001 0.8311669 3.8876011
      vertex -7.5 0.8311669 3.8876011
      vertex 7.5001 0.78773326 3.8944802
    endloop
  endfacet
  facet normal 1 0 0
    outer loop
      vertex 8 -5.2374763 3.3964574
      vertex 8 -5.285156 3.3809655
      vertex 8 -5.2250667 3.398423
    endloop
  endfacet
  facet normal 1 0 0
    outer loop
      vertex 8 -5.2497377 3.3937166
      vertex 8 -5.285156 3.3809655
      vertex 8 -5.2374763 3.3964574
    endloop
  endfacet
  facet normal 1 0 0
    outer loop
      vertex 8 -5.2618036 3.3902113
      vertex 8 -5.285156 3.3809655
      vertex 8 -5.2497377 3.3937166
    endloop
  endfacet
  facet normal 1 0 0
    outer loop
      vertex 8 -5.285156 3.3809655
      vertex 8 -5.2618036 3.3902113
      vertex 8 -5.273625 3.3859553
    endloop
  endfacet
  facet normal 0.707003 -0.02221402 0.7068616
    outer loop
      vertex 7.5001 -5.2 3.9
      vertex 7.5001 -5.243953 3.8986187
      vertex 8 -5.2 3.4
    endloop
  endfacet
  facet normal 1 0 0
    outer loop
      vertex 8 -6 2.9
      vertex 8 -5.285156 3.3809655
      vertex 8 -5.307165 3.3688655
    endloop
  endfacet
  facet normal -5.548985e-18 0.18767348 0.9822315
    outer loop
      vertex 7.50987 0.9321868 3.8682992
      vertex -7.509772 0.9321868 3.8682992
      vertex 7.5001 0.8311669 3.8876011
    endloop
  endfacet
  facet normal 0.030226182 -0.9598549 0.27886364
    outer loop
      vertex 7.5001 -5.8780084 3.3740828
      vertex 8 -6 2.9
      vertex 7.5001 -5.8657393 3.416312
    endloop
  endfacet
  facet normal 0.09670673 -0.9364708 0.33715022
    outer loop
      vertex 7.5001 -5.8508434 3.4576871
      vertex 7.5001 -5.8657393 3.416312
      vertex 8 -6 2.9
    endloop
  endfacet
  facet normal 0.16685216 -0.90488946 0.39158064
    outer loop
      vertex 7.5001 -5.833379 3.4980454
      vertex 7.5001 -5.8508434 3.4576871
      vertex 8 -6 2.9
    endloop
  endfacet
  facet normal 0.23900846 -0.86518294 0.4408327
    outer loop
      vertex 7.5001 -5.8134146 3.5372276
      vertex 7.5001 -5.833379 3.4980454
      vertex 8 -6 2.9
    endloop
  endfacet
  facet normal 1 0 0
    outer loop
      vertex 8 -6 2.5
      vertex 8 -5.285156 3.3809655
      vertex 8 -6 2.9
    endloop
  endfacet
  facet normal 0.7071775 0 0.7070361
    outer loop
      vertex 7.5001 -5.2 3.9
      vertex 8 -5.2 3.4
      vertex 8 0.7 3.4
    endloop
  endfacet
  facet normal 0.31133053 -0.8179646 0.48374292
    outer loop
      vertex 7.5001 -5.7910295 3.5750787
      vertex 7.5001 -5.8134146 3.5372276
      vertex 8 -6 2.9
    endloop
  endfacet
  facet normal 0.38197288 -0.764366 0.5194626
    outer loop
      vertex 7.5001 -5.766312 3.6114497
      vertex 7.5001 -5.7910295 3.5750787
      vertex 8 -6 2.9
    endloop
  endfacet
  facet normal -1 0 0
    outer loop
      vertex -8 -6 2.5
      vertex -8 -5.285156 3.3809655
      vertex -8 6 2.5
    endloop
  endfacet
  facet normal -0.70693225 -0.15428862 0.69024765
    outer loop
      vertex -8 -5.2374763 3.3964574
      vertex -8 -5.2497377 3.3937166
      vertex -7.5 -5.3311667 3.8876011
    endloop
  endfacet
  facet normal -0.70693225 -0.11064316 0.69857347
    outer loop
      vertex -8 -5.2250667 3.398423
      vertex -8 -5.2374763 3.3964574
      vertex -7.5 -5.287733 3.8944802
    endloop
  endfacet
  facet normal -0.70693225 -0.06656104 0.70414233
    outer loop
      vertex -8 -5.2125583 3.3996053
      vertex -8 -5.2250667 3.398423
      vertex -7.5 -5.243953 3.8986187
    endloop
  endfacet
  facet normal -0.70693225 -0.022216242 0.70693225
    outer loop
      vertex -8 -5.2 3.4
      vertex -8 -5.2125583 3.3996053
      vertex -7.5 -5.243953 3.8986187
    endloop
  endfacet
  facet normal -0.70693225 -0.36003545 0.6087867
    outer loop
      vertex -8 -5.296351 3.3752613
      vertex -7.5 -5.575079 3.7910295
      vertex -7.5 -5.5372276 3.8134146
    endloop
  endfacet
  facet normal -0.70693225 -0.32109898 0.6301922
    outer loop
      vertex -7.5 -5.4980454 3.833379
      vertex -8 -5.296351 3.3752613
      vertex -7.5 -5.5372276 3.8134146
    endloop
  endfacet
  facet normal -0.70693225 -0.28089526 0.6491107
    outer loop
      vertex -7.5 -5.4980454 3.833379
      vertex -7.5 -5.4576874 3.8508434
      vertex -8 -5.273625 3.3859553
    endloop
  endfacet
  facet normal -0.70693225 -0.23958299 0.6654673
    outer loop
      vertex -7.5 -5.4163117 3.8657396
      vertex -8 -5.273625 3.3859553
      vertex -7.5 -5.4576874 3.8508434
    endloop
  endfacet
  facet normal -0.70693225 -0.19732518 0.6791977
    outer loop
      vertex -7.5 -5.4163117 3.8657396
      vertex -7.5 -5.374083 3.8780081
      vertex -8 -5.2497377 3.3937166
    endloop
  endfacet
  facet normal -0.70693225 -0.15428862 0.69024765
    outer loop
      vertex -7.5 -5.3311667 3.8876011
      vertex -8 -5.2497377 3.3937166
      vertex -7.5 -5.374083 3.8780081
    endloop
  endfacet
  facet normal -0.70693225 -0.11064316 0.69857347
    outer loop
      vertex -7.5 -5.287733 3.8944802
      vertex -8 -5.2374763 3.3964574
      vertex -7.5 -5.3311667 3.8876011
    endloop
  endfacet
  facet normal -0.70693225 -0.06656104 0.70414233
    outer loop
      vertex -7.5 -5.243953 3.8986187
      vertex -8 -5.2250667 3.398423
      vertex -7.5 -5.287733 3.8944802
    endloop
  endfacet
  facet normal -0.70693225 -0.022216242 0.70693225
    outer loop
      vertex -8 -5.2 3.4
      vertex -7.5 -5.243953 3.8986187
      vertex -7.5 -5.2 3.9
    endloop
  endfacet
  facet normal -0.70710677 0 0.70710677
    outer loop
      vertex -8 0.7 3.4
      vertex -8 -5.2 3.4
      vertex -7.5 -5.2 3.9
    endloop
  endfacet
  facet normal 1 0 0
    outer loop
      vertex 8 4.8930073 2.9855735
      vertex 8 4.5749984 3.0229642
      vertex 8 0.7125581 3.3996053
    endloop
  endfacet
  facet normal -0.70693225 -0.19732518 0.6791977
    outer loop
      vertex -8 -5.2497377 3.3937166
      vertex -8 -5.2618036 3.3902113
      vertex -7.5 -5.4163117 3.8657396
    endloop
  endfacet
  facet normal -1 0 0
    outer loop
      vertex -8 0.7125581 3.3996053
      vertex -8 -5.285156 3.3809655
      vertex -8 0.7 3.4
    endloop
  endfacet
  facet normal -1 0 0
    outer loop
      vertex -8 -5.285156 3.3809655
      vertex -8 0.7125581 3.3996053
      vertex -8 5.2116203 2.9537382
    endloop
  endfacet
  facet normal -1 0 0
    outer loop
      vertex -8 5.5307407 2.9274683
      vertex -8 -5.285156 3.3809655
      vertex -8 5.2116203 2.9537382
    endloop
  endfacet
  facet normal -0.70693266 0.06653394 0.7041445
    outer loop
      vertex -8 0.7125581 3.3996053
      vertex -7.804304 2.3739586 3.439092
      vertex -7.850595 2.6850402 3.363224
    endloop
  endfacet
  facet normal -0.70710677 0 0.70710677
    outer loop
      vertex -8 0.7 3.4
      vertex -7.5 -5.2 3.9
      vertex -7.5 0.7 3.9
    endloop
  endfacet
  facet normal -0.70693225 0.022216242 0.70693225
    outer loop
      vertex -8 0.7125581 3.3996053
      vertex -8 0.7 3.4
      vertex -7.5 0.74395335 3.8986187
    endloop
  endfacet
  facet normal -0.70693225 0.022216242 0.70693225
    outer loop
      vertex -7.5 0.74395335 3.8986187
      vertex -8 0.7 3.4
      vertex -7.5 0.7 3.9
    endloop
  endfacet
  facet normal -0.70693266 0.06653394 0.7041445
    outer loop
      vertex -7.5213914 0.96882087 3.8558953
      vertex -8 0.7125581 3.3996053
      vertex -7.5 0.74395335 3.8986187
    endloop
  endfacet
  facet normal -0.70678777 0.06657463 0.7042861
    outer loop
      vertex -7.5213914 0.96882087 3.8558953
      vertex -7.5 0.74395335 3.8986187
      vertex -7.5 0.78773326 3.8944802
    endloop
  endfacet
  facet normal -0.31655517 0.14838968 0.9368956
    outer loop
      vertex -7.514753 0.94152534 3.8651373
      vertex -7.5 0.78773326 3.8944802
      vertex -7.509772 0.9321868 3.8682992
    endloop
  endfacet
  facet normal -0.31655517 0.14838968 0.9368956
    outer loop
      vertex -7.509772 0.9321868 3.8682992
      vertex -7.5 0.78773326 3.8944802
      vertex -7.5 0.8311669 3.8876011
    endloop
  endfacet
  facet normal -0.70693266 0.06653394 0.7041445
    outer loop
      vertex -7.6323457 1.4493191 3.6990998
      vertex -8 0.7125581 3.3996053
      vertex -7.564055 1.1442876 3.7964826
    endloop
  endfacet
  facet normal -0.70693266 0.06653394 0.7041445
    outer loop
      vertex -8 0.7125581 3.3996053
      vertex -7.6323457 1.4493191 3.6990998
      vertex -7.695163 1.7560039 3.6070552
    endloop
  endfacet
  facet normal -0.70693266 0.06653394 0.7041445
    outer loop
      vertex -8 0.7125581 3.3996053
      vertex -7.7524886 2.0642483 3.5203772
      vertex -7.804304 2.3739586 3.439092
    endloop
  endfacet
  facet normal -0.16681972 -0.90489453 0.39158282
    outer loop
      vertex -8 -6 2.9
      vertex -7.5 -5.8508434 3.4576871
      vertex -7.5 -5.833379 3.4980454
    endloop
  endfacet
  facet normal 0 1 0
    outer loop
      vertex -8 6 2.5
      vertex 8 6 2.9
      vertex 8 6 2.5
    endloop
  endfacet
  facet normal 1 0 0
    outer loop
      vertex 8 5.2116203 2.9537382
      vertex 8 4.8930073 2.9855735
      vertex 8 0.7125581 3.3996053
    endloop
  endfacet
  facet normal -1 0 0
    outer loop
      vertex -8 -5.285156 3.3809655
      vertex -8 -6 2.5
      vertex -8 -6 2.9
    endloop
  endfacet
  facet normal -1 0 0
    outer loop
      vertex -8 -5.285156 3.3809655
      vertex -8 -6 2.9
      vertex -8 -5.307165 3.3688655
    endloop
  endfacet
  facet normal -1 0 0
    outer loop
      vertex -8 -5.285156 3.3809655
      vertex -8 -5.307165 3.3688655
      vertex -8 -5.296351 3.3752613
    endloop
  endfacet
  facet normal -1 0 0
    outer loop
      vertex -8 -5.285156 3.3809655
      vertex -8 -5.273625 3.3859553
      vertex -8 -5.2618036 3.3902113
    endloop
  endfacet
  facet normal -1 0 0
    outer loop
      vertex -8 -5.285156 3.3809655
      vertex -8 -5.2618036 3.3902113
      vertex -8 -5.2497377 3.3937166
    endloop
  endfacet
  facet normal -1 0 0
    outer loop
      vertex -8 -5.285156 3.3809655
      vertex -8 -5.2497377 3.3937166
      vertex -8 -5.2374763 3.3964574
    endloop
  endfacet
  facet normal -1 0 0
    outer loop
      vertex -8 -5.285156 3.3809655
      vertex -8 -5.2374763 3.3964574
      vertex -8 -5.2250667 3.398423
    endloop
  endfacet
  facet normal -1 0 0
    outer loop
      vertex -8 -5.285156 3.3809655
      vertex -8 -5.2250667 3.398423
      vertex -8 -5.2125583 3.3996053
    endloop
  endfacet
  facet normal -1 0 0
    outer loop
      vertex -8 -5.285156 3.3809655
      vertex -8 -5.2125583 3.3996053
      vertex -8 -5.2 3.4
    endloop
  endfacet
  facet normal -1 0 0
    outer loop
      vertex -8 -5.285156 3.3809655
      vertex -8 -5.2 3.4
      vertex -8 0.7 3.4
    endloop
  endfacet
  facet normal -0.030220142 -0.9598551 0.27886367
    outer loop
      vertex -7.5 -5.8780084 3.3740828
      vertex -7.5 -5.8657393 3.416312
      vertex -8 -6 2.9
    endloop
  endfacet
  facet normal -0.09668757 -0.93647254 0.33715087
    outer loop
      vertex -7.5 -5.8657393 3.416312
      vertex -7.5 -5.8508434 3.4576871
      vertex -8 -6 2.9
    endloop
  endfacet
  facet normal -0.70693266 0.06653394 0.7041445
    outer loop
      vertex -7.7524886 2.0642483 3.5203772
      vertex -8 0.7125581 3.3996053
      vertex -7.695163 1.7560039 3.6070552
    endloop
  endfacet
  facet normal -0.23896338 -0.8651928 0.44083774
    outer loop
      vertex -7.5 -5.833379 3.4980454
      vertex -7.5 -5.8134146 3.5372276
      vertex -8 -6 2.9
    endloop
  endfacet
  facet normal -0.3112743 -0.81798047 0.48375228
    outer loop
      vertex -8 -6 2.9
      vertex -7.5 -5.8134146 3.5372276
      vertex -7.5 -5.7910295 3.5750787
    endloop
  endfacet
  facet normal -0.38190764 -0.76438826 0.5194777
    outer loop
      vertex -7.5 -5.7910295 3.5750787
      vertex -7.5 -5.766312 3.6114497
      vertex -8 -6 2.9
    endloop
  endfacet
  facet normal -0.4492176 -0.70594215 0.5475849
    outer loop
      vertex -8 -6 2.9
      vertex -7.5 -5.766312 3.6114497
      vertex -7.5 -5.7393594 3.6461968
    endloop
  endfacet
  facet normal -0.51191545 -0.6443723 0.5680906
    outer loop
      vertex -7.5 -5.7393594 3.6461968
      vertex -7.5 -5.710278 3.679183
      vertex -8 -6 2.9
    endloop
  endfacet
  facet normal -0.7069534 -0.39639083 0.5857399
    outer loop
      vertex -8 -5.307165 3.3688655
      vertex -8 -6 2.9
      vertex -7.5 -5.575079 3.7910295
    endloop
  endfacet
  facet normal -0.56915146 -0.5814063 0.5814063
    outer loop
      vertex -8 -6 2.9
      vertex -7.5 -5.710278 3.679183
      vertex -7.5 -5.679183 3.710278
    endloop
  endfacet
  facet normal -0.620515 -0.5185972 0.58823305
    outer loop
      vertex -8 -6 2.9
      vertex -7.5 -5.679183 3.710278
      vertex -7.5 -5.646197 3.7393594
    endloop
  endfacet
  facet normal -0.6659717 -0.4572146 0.5894375
    outer loop
      vertex -7.5 -5.646197 3.7393594
      vertex -7.5 -5.6114497 3.766312
      vertex -8 -6 2.9
    endloop
  endfacet
  facet normal -0.70576805 -0.39820403 0.58593947
    outer loop
      vertex -7.5 -5.575079 3.7910295
      vertex -8 -6 2.9
      vertex -7.5 -5.6114497 3.766312
    endloop
  endfacet
  facet normal -0.70693225 -0.36003545 0.6087867
    outer loop
      vertex -8 -5.296351 3.3752613
      vertex -8 -5.307165 3.3688655
      vertex -7.5 -5.575079 3.7910295
    endloop
  endfacet
  facet normal -0.70693225 -0.32109898 0.6301922
    outer loop
      vertex -8 -5.285156 3.3809655
      vertex -8 -5.296351 3.3752613
      vertex -7.5 -5.4980454 3.833379
    endloop
  endfacet
  facet normal -0.70693225 -0.28089526 0.6491107
    outer loop
      vertex -8 -5.273625 3.3859553
      vertex -8 -5.285156 3.3809655
      vertex -7.5 -5.4980454 3.833379
    endloop
  endfacet
  facet normal -0.70693225 -0.23958299 0.6654673
    outer loop
      vertex -8 -5.2618036 3.3902113
      vertex -8 -5.273625 3.3859553
      vertex -7.5 -5.4163117 3.8657396
    endloop
  endfacet
  facet normal -1 0 0
    outer loop
      vertex -8 6 2.5
      vertex -8 5.993555 2.9
      vertex -8 6 2.9
    endloop
  endfacet
  facet normal 0 0.09410831 0.99556196
    outer loop
      vertex -7.5 0.78773326 3.8944802
      vertex -7.5 0.74395335 3.8986187
      vertex 7.5001 0.74395335 3.8986187
    endloop
  endfacet
  facet normal 0 0.15643446 0.98768836
    outer loop
      vertex -7.5 0.78773326 3.8944802
      vertex 7.5001 0.78773326 3.8944802
      vertex -7.5 0.8311669 3.8876011
    endloop
  endfacet
  facet normal 0 0.18767348 0.9822315
    outer loop
      vertex -7.509772 0.9321868 3.8682992
      vertex -7.5 0.8311669 3.8876011
      vertex 7.5001 0.8311669 3.8876011
    endloop
  endfacet
  facet normal 0.7070034 0.066527285 0.7040741
    outer loop
      vertex 8 4.288812 3.0616884
      vertex 7.998735 4.257691 3.0658996
      vertex 8 0.7125581 3.3996053
    endloop
  endfacet
  facet normal 0.7070034 0.066527285 0.7040741
    outer loop
      vertex 7.998735 4.257691 3.0658996
      vertex 7.980252 3.9411805 3.114366
      vertex 8 0.7125581 3.3996053
    endloop
  endfacet
  facet normal 0.7070034 0.066527285 0.7040741
    outer loop
      vertex 7.9561915 3.6255643 3.168349
      vertex 7.937165 3.4235368 3.2065444
      vertex 8 0.7125581 3.3996053
    endloop
  endfacet
  facet normal 0.7070034 0.066527285 0.7040741
    outer loop
      vertex 7.980252 3.9411805 3.114366
      vertex 7.9561915 3.6255643 3.168349
      vertex 8 0.7125581 3.3996053
    endloop
  endfacet
  facet normal 0.7070034 0.066527285 0.7040741
    outer loop
      vertex 7.9139657 3.1987288 3.2510817
      vertex 7.891368 2.9973986 3.292797
      vertex 8 0.7125581 3.3996053
    endloop
  endfacet
  facet normal 0.7070034 0.066527285 0.7040741
    outer loop
      vertex 7.850625 2.6850402 3.363224
      vertex 8 0.7125581 3.3996053
      vertex 7.891368 2.9973986 3.292797
    endloop
  endfacet
  facet normal 0.7070034 0.066527285 0.7040741
    outer loop
      vertex 7.937165 3.4235368 3.2065444
      vertex 7.9139657 3.1987288 3.2510817
      vertex 8 0.7125581 3.3996053
    endloop
  endfacet
  facet normal 1 0 0
    outer loop
      vertex 8 5.993555 2.9
      vertex 8 -5.285156 3.3809655
      vertex 8 5.9999404 2.8996983
    endloop
  endfacet
  facet normal 1 0 0
    outer loop
      vertex 8 5.8502703 2.9067721
      vertex 8 -5.285156 3.3809655
      vertex 8 5.993555 2.9
    endloop
  endfacet
  facet normal 1 0 0
    outer loop
      vertex 8 5.8502703 2.9067721
      vertex 8 5.5307407 2.9274683
      vertex 8 -5.285156 3.3809655
    endloop
  endfacet
  facet normal 1 0 0
    outer loop
      vertex 8 -5.285156 3.3809655
      vertex 8 6 2.5
      vertex 8 5.9999404 2.8996983
    endloop
  endfacet
  facet normal -0.70693266 0.06653394 0.7041445
    outer loop
      vertex -8 0.7125581 3.3996053
      vertex -7.5213914 0.96882087 3.8558953
      vertex -7.564055 1.1442876 3.7964826
    endloop
  endfacet
  facet normal -1 0 0
    outer loop
      vertex -8 6 2.5
      vertex -8 -5.285156 3.3809655
      vertex -8 5.993555 2.9
    endloop
  endfacet
  facet normal -1 0 0
    outer loop
      vertex -8 -5.285156 3.3809655
      vertex -8 5.5307407 2.9274683
      vertex -8 5.8502703 2.9067721
    endloop
  endfacet
  facet normal -1 0 0
    outer loop
      vertex -8 5.993555 2.9
      vertex -8 -5.285156 3.3809655
      vertex -8 5.8502703 2.9067721
    endloop
  endfacet
  facet normal -0.70693266 0.06653394 0.7041445
    outer loop
      vertex -7.937152 3.4235368 3.2065444
      vertex -8 0.7125581 3.3996053
      vertex -7.9139485 3.1987288 3.2510817
    endloop
  endfacet
  facet normal -0.70693266 0.06653394 0.7041445
    outer loop
      vertex -7.891346 2.9973986 3.292797
      vertex -8 0.7125581 3.3996053
      vertex -7.850595 2.6850402 3.363224
    endloop
  endfacet
  facet normal -0.70693266 0.06653394 0.7041445
    outer loop
      vertex -8 0.7125581 3.3996053
      vertex -7.891346 2.9973986 3.292797
      vertex -7.9139485 3.1987288 3.2510817
    endloop
  endfacet
  facet normal -0.70693266 0.06653394 0.7041445
    outer loop
      vertex -7.980248 3.9411805 3.114366
      vertex -8 0.7125581 3.3996053
      vertex -7.9561825 3.6255643 3.168349
    endloop
  endfacet
  facet normal -0.70693266 0.06653394 0.7041445
    outer loop
      vertex -7.9561825 3.6255643 3.168349
      vertex -8 0.7125581 3.3996053
      vertex -7.937152 3.4235368 3.2065444
    endloop
  endfacet
  facet normal -0.70693266 0.06653394 0.7041445
    outer loop
      vertex -8 0.7125581 3.3996053
      vertex -7.980248 3.9411805 3.114366
      vertex -7.9987345 4.257691 3.0658996
    endloop
  endfacet
  facet normal -0.70693266 0.06653394 0.7041445
    outer loop
      vertex -8 0.7125581 3.3996053
      vertex -7.9987345 4.257691 3.0658996
      vertex -8 4.288812 3.0616884
    endloop
  endfacet
  facet normal -1 0 0
    outer loop
      vertex -8 0.7125581 3.3996053
      vertex -8 4.288812 3.0616884
      vertex -8 4.5749984 3.0229642
    endloop
  endfacet
  facet normal -1 0 0
    outer loop
      vertex -8 0.7125581 3.3996053
      vertex -8 4.5749984 3.0229642
      vertex -8 4.8930073 2.9855735
    endloop
  endfacet
  facet normal -1 0 0
    outer loop
      vertex -8 5.2116203 2.9537382
      vertex -8 0.7125581 3.3996053
      vertex -8 4.8930073 2.9855735
    endloop
  endfacet
  facet normal 0 0 1
    outer loop
      vertex -7.5 0.7 3.9
      vertex -7.5 -5.2 3.9
      vertex 7.5001 -5.2 3.9
    endloop
  endfacet
  facet normal 0 1 0
    outer loop
      vertex 8 6 2.9
      vertex -8 6 2.5
      vertex -8 6 2.9
    endloop
  endfacet
  facet normal -0.70678777 0.06657463 0.7042861
    outer loop
      vertex -7.5 0.78773326 3.8944802
      vertex -7.514753 0.94152534 3.8651373
      vertex -7.5213914 0.96882087 3.8558953
    endloop
  endfacet
  facet normal 1 0 0
    outer loop
      vertex 8 4.5749984 3.0229642
      vertex 8 4.288812 3.0616884
      vertex 8 0.7125581 3.3996053
    endloop
  endfacet
  facet normal 0 -1 0
    outer loop
      vertex -8 -6 2.5
      vertex 8 -6 2.9
      vertex -8 -6 2.9
    endloop
  endfacet
  facet normal 0 -0.96845114 0.24920343
    outer loop
      vertex -7.5 -5.8780084 3.3740828
      vertex -8 -6 2.9
      vertex 7.5001 -5.8780084 3.3740828
    endloop
  endfacet
  facet normal 0 -0.9602937 0.2789911
    outer loop
      vertex -7.5 -5.8657393 3.416312
      vertex -7.5 -5.8780084 3.3740828
      vertex 7.5001 -5.8780084 3.3740828
    endloop
  endfacet
  facet normal 0 -0.9408808 0.33873793
    outer loop
      vertex -7.5 -5.8508434 3.4576871
      vertex -7.5 -5.8657393 3.416312
      vertex 7.5001 -5.8508434 3.4576871
    endloop
  endfacet
  facet normal 0 -0.91775465 0.3971479
    outer loop
      vertex -7.5 -5.833379 3.4980454
      vertex -7.5 -5.8508434 3.4576871
      vertex 7.5001 -5.833379 3.4980454
    endloop
  endfacet
  facet normal 0 -0.8910065 0.4539905
    outer loop
      vertex -7.5 -5.8134146 3.5372276
      vertex -7.5 -5.833379 3.4980454
      vertex 7.5001 -5.833379 3.4980454
    endloop
  endfacet
  facet normal 0 -0.86074203 0.5090414
    outer loop
      vertex -7.5 -5.7910295 3.5750787
      vertex -7.5 -5.8134146 3.5372276
      vertex 7.5001 -5.7910295 3.5750787
    endloop
  endfacet
  facet normal 0 -0.82708055 0.56208336
    outer loop
      vertex -7.5 -5.766312 3.6114497
      vertex -7.5 -5.7910295 3.5750787
      vertex 7.5001 -5.7910295 3.5750787
    endloop
  endfacet
  facet normal 0 -0.790155 0.61290705
    outer loop
      vertex -7.5 -5.7393594 3.6461968
      vertex -7.5 -5.766312 3.6114497
      vertex 7.5001 -5.7393594 3.6461968
    endloop
  endfacet
  facet normal 0 -0.75011104 0.66131186
    outer loop
      vertex -7.5 -5.710278 3.679183
      vertex -7.5 -5.7393594 3.6461968
      vertex 7.5001 -5.710278 3.679183
    endloop
  endfacet
  facet normal 0 -0.70710677 0.70710677
    outer loop
      vertex -7.5 -5.679183 3.710278
      vertex -7.5 -5.710278 3.679183
      vertex 7.5001 -5.710278 3.679183
    endloop
  endfacet
  facet normal 0 -0.66131186 0.75011104
    outer loop
      vertex -7.5 -5.646197 3.7393594
      vertex -7.5 -5.679183 3.710278
      vertex 7.5001 -5.679183 3.710278
    endloop
  endfacet
  facet normal 0 0.031410757 0.99950653
    outer loop
      vertex -7.5 0.74395335 3.8986187
      vertex -7.5 0.7 3.9
      vertex 7.5001 0.74395335 3.8986187
    endloop
  endfacet
  facet normal 0 -0.031410757 0.99950653
    outer loop
      vertex -7.5 -5.2 3.9
      vertex -7.5 -5.243953 3.8986187
      vertex 7.5001 -5.2 3.9
    endloop
  endfacet
  facet normal 0 -0.09410831 0.99556196
    outer loop
      vertex -7.5 -5.243953 3.8986187
      vertex -7.5 -5.287733 3.8944802
      vertex 7.5001 -5.287733 3.8944802
    endloop
  endfacet
  facet normal 0 -0.15643446 0.98768836
    outer loop
      vertex -7.5 -5.287733 3.8944802
      vertex -7.5 -5.3311667 3.8876011
      vertex 7.5001 -5.287733 3.8944802
    endloop
  endfacet
  facet normal 0 -0.21814324 0.97591674
    outer loop
      vertex -7.5 -5.3311667 3.8876011
      vertex -7.5 -5.374083 3.8780081
      vertex 7.5001 -5.374083 3.8780081
    endloop
  endfacet
  facet normal 0 -0.2789911 0.9602937
    outer loop
      vertex -7.5 -5.374083 3.8780081
      vertex -7.5 -5.4163117 3.8657396
      vertex 7.5001 -5.374083 3.8780081
    endloop
  endfacet
  facet normal 0 -0.33873793 0.9408808
    outer loop
      vertex -7.5 -5.4163117 3.8657396
      vertex -7.5 -5.4576874 3.8508434
      vertex 7.5001 -5.4576874 3.8508434
    endloop
  endfacet
  facet normal 0 -0.3971479 0.91775465
    outer loop
      vertex -7.5 -5.4576874 3.8508434
      vertex -7.5 -5.4980454 3.833379
      vertex 7.5001 -5.4576874 3.8508434
    endloop
  endfacet
  facet normal 0 -0.4539905 0.8910065
    outer loop
      vertex -7.5 -5.4980454 3.833379
      vertex -7.5 -5.5372276 3.8134146
      vertex 7.5001 -5.4980454 3.833379
    endloop
  endfacet
  facet normal 0 -0.5090414 0.86074203
    outer loop
      vertex -7.5 -5.5372276 3.8134146
      vertex -7.5 -5.575079 3.7910295
      vertex 7.5001 -5.575079 3.7910295
    endloop
  endfacet
  facet normal 0 -0.56208336 0.82708055
    outer loop
      vertex -7.5 -5.575079 3.7910295
      vertex -7.5 -5.6114497 3.766312
      vertex 7.5001 -5.6114497 3.766312
    endloop
  endfacet
  facet normal 0 -0.61290705 0.790155
    outer loop
      vertex -7.5 -5.6114497 3.766312
      vertex -7.5 -5.646197 3.7393594
      vertex 7.5001 -5.6114497 3.766312
    endloop
  endfacet
  facet normal 1 0 0
    outer loop
      vertex 8 5.9999404 2.8996983
      vertex 8 6 2.9
      vertex 8 5.993555 2.9
    endloop
  endfacet
  facet normal 0 0 1
    outer loop
      vertex -8 6 2.9
      vertex -8 5.993555 2.9
      vertex 8 6 2.9
    endloop
  endfacet
  facet normal 0 0 1
    outer loop
      vertex 8 6 2.9
      vertex -8 5.993555 2.9
      vertex 8 5.993555 2.9
    endloop
  endfacet
  facet normal 0 0 1
    outer loop
      vertex 8.84 6.84 2.5
      vertex -8.84 6.84 2.5
      vertex 8 6 2.5
    endloop
  endfacet
  facet normal 0 1 0
    outer loop
      vertex 8 6.84 2.3
      vertex -8 6.84 2.3
      vertex 8.84 6.84 2.5
    endloop
  endfacet
  facet normal 0 -1 0
    outer loop
      vertex -8.84 -6.84 0
      vertex 8.84 -6.84 0
      vertex -8.84 -6.84 2.5
    endloop
  endfacet
  facet normal 0 0 1
    outer loop
      vertex 8 6 2.5
      vertex 8 -6 2.5
      vertex 8.84 6.84 2.5
    endloop
  endfacet
  facet normal 0 1 0
    outer loop
      vertex 8 6.84 1.7
      vertex 8 6.84 2.3
      vertex 8.84 6.84 2.5
    endloop
  endfacet
  facet normal 0 0 1
    outer loop
      vertex 8 -6 2.5
      vertex -8 -6 2.5
      vertex 8.84 -6.84 2.5
    endloop
  endfacet
  facet normal 0 1 0
    outer loop
      vertex -8 6.84 2.3
      vertex -8 6.84 1.7
      vertex -8.84 6.84 2.5
    endloop
  endfacet
  facet normal 0 0 1
    outer loop
      vertex -8 6 2.5
      vertex -8.84 6.84 2.5
      vertex -8.84 -6.84 2.5
    endloop
  endfacet
  facet normal 0 1 0
    outer loop
      vertex -8 6.84 1.7
      vertex 8 6.84 1.7
      vertex -8.84 6.84 0
    endloop
  endfacet
  facet normal 0 0 1
    outer loop
      vertex -8 6 2.5
      vertex 8 6 2.5
      vertex -8.84 6.84 2.5
    endloop
  endfacet
  facet normal 0 1 0
    outer loop
      vertex -8 6.84 2.3
      vertex -8.84 6.84 2.5
      vertex 8.84 6.84 2.5
    endloop
  endfacet
  facet normal 0 1 0
    outer loop
      vertex -8 6.84 1.7
      vertex -8.84 6.84 0
      vertex -8.84 6.84 2.5
    endloop
  endfacet
  facet normal 0 -1 0
    outer loop
      vertex 8.84 -6.84 2.5
      vertex -8.84 -6.84 2.5
      vertex 8.84 -6.84 0
    endloop
  endfacet
  facet normal 1 0 0
    outer loop
      vertex 8.84 -6.84 0
      vertex 8.84 6.84 0
      vertex 8.84 -6.84 2.5
    endloop
  endfacet
  facet normal 0 0 1
    outer loop
      vertex 8 -6 2.5
      vertex 8.84 -6.84 2.5
      vertex 8.84 6.84 2.5
    endloop
  endfacet
  facet normal 0 0 -1
    outer loop
      vertex 8.84 -6.84 0
      vertex -8.84 6.84 0
      vertex 8.84 6.84 0
    endloop
  endfacet
  facet normal 0 1 0
    outer loop
      vertex 8 6.84 1.7
      vertex 8.84 6.84 0
      vertex -8.84 6.84 0
    endloop
  endfacet
  facet normal -1 0 0
    outer loop
      vertex -8.84 6.84 0
      vertex -8.84 -6.84 0
      vertex -8.84 6.84 2.5
    endloop
  endfacet
  facet normal 0 0 1
    outer loop
      vertex -8.84 -6.84 2.5
      vertex 8.84 -6.84 2.5
      vertex -8 -6 2.5
    endloop
  endfacet
  facet normal 0 0 1
    outer loop
      vertex -8 -6 2.5
      vertex -8 6 2.5
      vertex -8.84 -6.84 2.5
    endloop
  endfacet
  facet normal 1 0 0
    outer loop
      vertex 8.84 6.84 2.5
      vertex 8.84 -6.84 2.5
      vertex 8.84 6.84 0
    endloop
  endfacet
  facet normal 0 0 -1
    outer loop
      vertex 8.84 -6.84 0
      vertex -8.84 -6.84 0
      vertex -8.84 6.84 0
    endloop
  endfacet
  facet normal 0 1 0
    outer loop
      vertex 8 6.84 1.7
      vertex 8.84 6.84 2.5
      vertex 8.84 6.84 0
    endloop
  endfacet
  facet normal -1 0 0
    outer loop
      vertex -8.84 -6.84 0
      vertex -8.84 -6.84 2.5
      vertex -8.84 6.84 2.5
    endloop
  endfacet
  facet normal -1 0 0
    outer loop
      vertex -10.5 8.84 0
      vertex -10.5 10.84 2.5
      vertex -10.5 10.84 0
    endloop
  endfacet
  facet normal 0 -1 0
    outer loop
      vertex -8 8.84 1.7
      vertex -8 8.84 2.3
      vertex -10.5 8.84 2.5
    endloop
  endfacet
  facet normal 0 -1 0
    outer loop
      vertex -8 8.84 1.7
      vertex -10.5 8.84 2.5
      vertex -10.5 8.84 0
    endloop
  endfacet
  facet normal -1 0 0
    outer loop
      vertex -10.5 10.84 2.5
      vertex -10.5 8.84 0
      vertex -10.5 8.84 2.5
    endloop
  endfacet
  facet normal 0 0 -1
    outer loop
      vertex -10.5 8.84 0
      vertex -10.5 10.84 0
      vertex 10.5 8.84 0
    endloop
  endfacet
  facet normal 0 -1 0
    outer loop
      vertex -8 8.84 1.7
      vertex -10.5 8.84 0
      vertex 10.5 8.84 0
    endloop
  endfacet
  facet normal 0 1 0
    outer loop
      vertex -10.5 10.84 0
      vertex -10.5 10.84 2.5
      vertex 10.5 10.84 2.5
    endloop
  endfacet
  facet normal 0 -1 0
    outer loop
      vertex 8 8.84 2.3
      vertex 8 8.84 1.7
      vertex 10.5 8.84 2.5
    endloop
  endfacet
  facet normal 0 0 1
    outer loop
      vertex -10.5 10.84 2.5
      vertex -10.5 8.84 2.5
      vertex 10.5 8.84 2.5
    endloop
  endfacet
  facet normal 0 -1 0
    outer loop
      vertex 8 8.84 1.7
      vertex 10.5 8.84 0
      vertex 10.5 8.84 2.5
    endloop
  endfacet
  facet normal 1 0 0
    outer loop
      vertex 10.5 8.84 2.5
      vertex 10.5 10.84 0
      vertex 10.5 10.84 2.5
    endloop
  endfacet
  facet normal 1 0 0
    outer loop
      vertex 10.5 10.84 0
      vertex 10.5 8.84 2.5
      vertex 10.5 8.84 0
    endloop
  endfacet
  facet normal 0 -1 0
    outer loop
      vertex 8 8.84 1.7
      vertex -8 8.84 1.7
      vertex 10.5 8.84 0
    endloop
  endfacet
  facet normal 0 1 0
    outer loop
      vertex 10.5 10.84 0
      vertex -10.5 10.84 0
      vertex 10.5 10.84 2.5
    endloop
  endfacet
  facet normal 0 0 -1
    outer loop
      vertex 10.5 8.84 0
      vertex -10.5 10.84 0
      vertex 10.5 10.84 0
    endloop
  endfacet
  facet normal 0 -1 0
    outer loop
      vertex 10.5 8.84 2.5
      vertex -10.5 8.84 2.5
      vertex -8 8.84 2.3
    endloop
  endfacet
  facet normal 0 -1 0
    outer loop
      vertex 10.5 8.84 2.5
      vertex -8 8.84 2.3
      vertex 8 8.84 2.3
    endloop
  endfacet
  facet normal 0 0 1
    outer loop
      vertex 10.5 10.84 2.5
      vertex -10.5 10.84 2.5
      vertex 10.5 8.84 2.5
    endloop
  endfacet
  facet normal -1 0 0
    outer loop
      vertex -8 8.84 1.7
      vertex -8 6.84 1.7
      vertex -8 8.84 2.3
    endloop
  endfacet
  facet normal -1 0 0
    outer loop
      vertex -8 8.84 2.3
      vertex -8 6.84 1.7
      vertex -8 6.84 2.3
    endloop
  endfacet
  facet normal 0 0 1
    outer loop
      vertex -8 6.84 2.3
      vertex 8 6.84 2.3
      vertex -8 8.84 2.3
    endloop
  endfacet
  facet normal 0 0 1
    outer loop
      vertex -8 8.84 2.3
      vertex 8 6.84 2.3
      vertex 8 8.84 2.3
    endloop
  endfacet
  facet normal 0 0 -1
    outer loop
      vertex 8 6.84 1.7
      vertex -8 8.84 1.7
      vertex 8 8.84 1.7
    endloop
  endfacet
  facet normal 1 0 0
    outer loop
      vertex 8 8.84 1.7
      vertex 8 6.84 2.3
      vertex 8 6.84 1.7
    endloop
  endfacet
  facet normal 0 0 -1
    outer loop
      vertex 8 6.84 1.7
      vertex -8 6.84 1.7
      vertex -8 8.84 1.7
    endloop
  endfacet
  facet normal 1 0 0
    outer loop
      vertex 8 6.84 2.3
      vertex 8 8.84 1.7
      vertex 8 8.84 2.3
    endloop
  endfacet
endsolid OpenSCAD_Model
