%TF.GenerationSoftware,KiCad,Pcbnew,8.0.6*%
%TF.CreationDate,2025-01-14T16:33:27+13:00*%
%TF.ProjectId,FilamentDryerController1,46696c61-6d65-46e7-9444-72796572436f,rev?*%
%TF.SameCoordinates,Original*%
%TF.FileFunction,Copper,L1,Top*%
%TF.FilePolarity,Positive*%
%FSLAX46Y46*%
G04 Gerber Fmt 4.6, Leading zero omitted, Abs format (unit mm)*
G04 Created by KiCad (PCBNEW 8.0.6) date 2025-01-14 16:33:27*
%MOMM*%
%LPD*%
G01*
G04 APERTURE LIST*
G04 Aperture macros list*
%AMRoundRect*
0 Rectangle with rounded corners*
0 $1 Rounding radius*
0 $2 $3 $4 $5 $6 $7 $8 $9 X,Y pos of 4 corners*
0 Add a 4 corners polygon primitive as box body*
4,1,4,$2,$3,$4,$5,$6,$7,$8,$9,$2,$3,0*
0 Add four circle primitives for the rounded corners*
1,1,$1+$1,$2,$3*
1,1,$1+$1,$4,$5*
1,1,$1+$1,$6,$7*
1,1,$1+$1,$8,$9*
0 Add four rect primitives between the rounded corners*
20,1,$1+$1,$2,$3,$4,$5,0*
20,1,$1+$1,$4,$5,$6,$7,0*
20,1,$1+$1,$6,$7,$8,$9,0*
20,1,$1+$1,$8,$9,$2,$3,0*%
G04 Aperture macros list end*
%TA.AperFunction,EtchedComponent*%
%ADD10C,0.000000*%
%TD*%
%TA.AperFunction,SMDPad,CuDef*%
%ADD11RoundRect,0.625000X-0.000010X-0.000010X0.000010X-0.000010X0.000010X0.000010X-0.000010X0.000010X0*%
%TD*%
%TA.AperFunction,SMDPad,CuDef*%
%ADD12RoundRect,0.250000X-0.625000X0.312500X-0.625000X-0.312500X0.625000X-0.312500X0.625000X0.312500X0*%
%TD*%
%TA.AperFunction,ComponentPad*%
%ADD13RoundRect,0.250000X0.750000X-0.600000X0.750000X0.600000X-0.750000X0.600000X-0.750000X-0.600000X0*%
%TD*%
%TA.AperFunction,ComponentPad*%
%ADD14O,2.000000X1.700000*%
%TD*%
%TA.AperFunction,SMDPad,CuDef*%
%ADD15RoundRect,0.250000X-0.650000X0.325000X-0.650000X-0.325000X0.650000X-0.325000X0.650000X0.325000X0*%
%TD*%
%TA.AperFunction,SMDPad,CuDef*%
%ADD16R,2.000000X1.780000*%
%TD*%
%TA.AperFunction,SMDPad,CuDef*%
%ADD17C,0.200000*%
%TD*%
%TA.AperFunction,SMDPad,CuDef*%
%ADD18RoundRect,0.250000X-0.312500X-0.625000X0.312500X-0.625000X0.312500X0.625000X-0.312500X0.625000X0*%
%TD*%
%TA.AperFunction,ComponentPad*%
%ADD19RoundRect,0.250000X-0.725000X0.600000X-0.725000X-0.600000X0.725000X-0.600000X0.725000X0.600000X0*%
%TD*%
%TA.AperFunction,ComponentPad*%
%ADD20O,1.950000X1.700000*%
%TD*%
%TA.AperFunction,ComponentPad*%
%ADD21RoundRect,0.250000X-0.750000X0.600000X-0.750000X-0.600000X0.750000X-0.600000X0.750000X0.600000X0*%
%TD*%
%TA.AperFunction,SMDPad,CuDef*%
%ADD22RoundRect,0.250000X0.312500X0.625000X-0.312500X0.625000X-0.312500X-0.625000X0.312500X-0.625000X0*%
%TD*%
%TA.AperFunction,ComponentPad*%
%ADD23C,1.500000*%
%TD*%
%TA.AperFunction,SMDPad,CuDef*%
%ADD24R,1.550000X1.300000*%
%TD*%
%TA.AperFunction,SMDPad,CuDef*%
%ADD25RoundRect,0.250000X-0.375000X-0.625000X0.375000X-0.625000X0.375000X0.625000X-0.375000X0.625000X0*%
%TD*%
%TA.AperFunction,ComponentPad*%
%ADD26R,2.032000X2.032000*%
%TD*%
%TA.AperFunction,ComponentPad*%
%ADD27C,2.032000*%
%TD*%
%TA.AperFunction,SMDPad,CuDef*%
%ADD28RoundRect,0.250000X-0.850000X-0.350000X0.850000X-0.350000X0.850000X0.350000X-0.850000X0.350000X0*%
%TD*%
%TA.AperFunction,SMDPad,CuDef*%
%ADD29RoundRect,0.250000X-1.275000X-1.125000X1.275000X-1.125000X1.275000X1.125000X-1.275000X1.125000X0*%
%TD*%
%TA.AperFunction,SMDPad,CuDef*%
%ADD30RoundRect,0.249997X-2.950003X-2.650003X2.950003X-2.650003X2.950003X2.650003X-2.950003X2.650003X0*%
%TD*%
%TA.AperFunction,ComponentPad*%
%ADD31R,1.700000X2.000000*%
%TD*%
%TA.AperFunction,ComponentPad*%
%ADD32O,1.700000X2.000000*%
%TD*%
%TA.AperFunction,SMDPad,CuDef*%
%ADD33RoundRect,0.150000X-0.512500X-0.150000X0.512500X-0.150000X0.512500X0.150000X-0.512500X0.150000X0*%
%TD*%
%TA.AperFunction,SMDPad,CuDef*%
%ADD34RoundRect,0.150000X0.825000X0.150000X-0.825000X0.150000X-0.825000X-0.150000X0.825000X-0.150000X0*%
%TD*%
%TA.AperFunction,ComponentPad*%
%ADD35R,2.400000X1.600000*%
%TD*%
%TA.AperFunction,ComponentPad*%
%ADD36O,2.400000X1.600000*%
%TD*%
%TA.AperFunction,SMDPad,CuDef*%
%ADD37RoundRect,0.250000X0.650000X-0.325000X0.650000X0.325000X-0.650000X0.325000X-0.650000X-0.325000X0*%
%TD*%
%TA.AperFunction,SMDPad,CuDef*%
%ADD38RoundRect,0.250000X0.325000X0.650000X-0.325000X0.650000X-0.325000X-0.650000X0.325000X-0.650000X0*%
%TD*%
%TA.AperFunction,ViaPad*%
%ADD39C,0.600000*%
%TD*%
%TA.AperFunction,Conductor*%
%ADD40C,0.200000*%
%TD*%
%TA.AperFunction,Conductor*%
%ADD41C,2.000000*%
%TD*%
G04 APERTURE END LIST*
D10*
%TA.AperFunction,EtchedComponent*%
%TO.C,NT4*%
G36*
X31222000Y-48106000D02*
G01*
X28722000Y-48106000D01*
X28722000Y-47906000D01*
X31222000Y-47906000D01*
X31222000Y-48106000D01*
G37*
%TD.AperFunction*%
%TA.AperFunction,EtchedComponent*%
%TO.C,NT3*%
G36*
X41890000Y-48106000D02*
G01*
X39390000Y-48106000D01*
X39390000Y-47906000D01*
X41890000Y-47906000D01*
X41890000Y-48106000D01*
G37*
%TD.AperFunction*%
%TD*%
D11*
%TO.P,TP5,1,1*%
%TO.N,Net-(U1-PC2)*%
X59605600Y-76708000D03*
%TD*%
%TO.P,TP3,1,1*%
%TO.N,Net-(U1-PB3)*%
X59605600Y-97028000D03*
%TD*%
%TO.P,TP11,1,1*%
%TO.N,Net-(U1-PD4)*%
X40640000Y-79248000D03*
%TD*%
%TO.P,TP10,1,1*%
%TO.N,/pFan_sense*%
X43605600Y-79248000D03*
%TD*%
D12*
%TO.P,R4,1*%
%TO.N,Net-(NT4-Pad1)*%
X26670000Y-51115500D03*
%TO.P,R4,2*%
%TO.N,Net-(Q2-G)*%
X26670000Y-54040500D03*
%TD*%
D13*
%TO.P,J3,1,Pin_1*%
%TO.N,+5V*%
X22606000Y-70064000D03*
D14*
%TO.P,J3,2,Pin_2*%
%TO.N,Net-(J3-Pin_2)*%
X22606000Y-67564000D03*
%TD*%
D15*
%TO.P,C5,1*%
%TO.N,GND*%
X37605600Y-92266000D03*
%TO.P,C5,2*%
%TO.N,/pCry2*%
X37605600Y-95216000D03*
%TD*%
D16*
%TO.P,U2,1*%
%TO.N,+5V*%
X55504000Y-59690000D03*
%TO.P,U2,2*%
%TO.N,Net-(R3-Pad2)*%
X55504000Y-57150000D03*
%TO.P,U2,3,NC*%
%TO.N,unconnected-(U2-NC-Pad3)*%
X55504000Y-54610000D03*
%TO.P,U2,4*%
%TO.N,Net-(Q2-G)*%
X45974000Y-54610000D03*
%TO.P,U2,5,NC*%
%TO.N,unconnected-(U2-NC-Pad5)*%
X45974000Y-57150000D03*
%TO.P,U2,6*%
%TO.N,Net-(R5-Pad1)*%
X45974000Y-59690000D03*
%TD*%
D17*
%TO.P,NT4,1,1*%
%TO.N,Net-(NT4-Pad1)*%
X28722000Y-48006000D03*
%TO.P,NT4,2,2*%
%TO.N,Heater*%
X31222000Y-48006000D03*
%TD*%
D11*
%TO.P,TP13,1,1*%
%TO.N,Net-(U1-PD7)*%
X43605600Y-99568000D03*
%TD*%
%TO.P,TP4,1,1*%
%TO.N,Net-(U1-PC1)*%
X59605600Y-79248000D03*
%TD*%
%TO.P,TP9,1,1*%
%TO.N,Net-(U1-PD1)*%
X43605600Y-74168000D03*
%TD*%
%TO.P,TP7,1,1*%
%TO.N,/pReset*%
X43605600Y-69088000D03*
%TD*%
D18*
%TO.P,R2,1*%
%TO.N,/pTemp*%
X59497500Y-81788000D03*
%TO.P,R2,2*%
%TO.N,GND*%
X62422500Y-81788000D03*
%TD*%
D19*
%TO.P,J1,1,Pin_1*%
%TO.N,GND*%
X69342000Y-51936000D03*
D20*
%TO.P,J1,2,Pin_2*%
%TO.N,+5V*%
X69342000Y-54436000D03*
%TO.P,J1,3,Pin_3*%
%TO.N,/pSDA*%
X69342000Y-56936000D03*
%TO.P,J1,4,Pin_4*%
%TO.N,/pSCL*%
X69342000Y-59436000D03*
%TD*%
D17*
%TO.P,NT3,1,1*%
%TO.N,Net-(NT3-Pad1)*%
X41890000Y-48006000D03*
%TO.P,NT3,2,2*%
%TO.N,+AC*%
X39390000Y-48006000D03*
%TD*%
D21*
%TO.P,J4,1*%
%TO.N,+5V*%
X69342000Y-81534000D03*
D14*
%TO.P,J4,2*%
%TO.N,/pTemp*%
X69342000Y-84034000D03*
%TD*%
D11*
%TO.P,TP6,1,1*%
%TO.N,Net-(U1-PC3)*%
X59605600Y-74168000D03*
%TD*%
D18*
%TO.P,R6,1*%
%TO.N,+5V*%
X66457100Y-93233000D03*
%TO.P,R6,2*%
%TO.N,Net-(D1-A)*%
X69382100Y-93233000D03*
%TD*%
D22*
%TO.P,R3,1*%
%TO.N,/pHeat*%
X61660500Y-57150000D03*
%TO.P,R3,2*%
%TO.N,Net-(R3-Pad2)*%
X58735500Y-57150000D03*
%TD*%
D23*
%TO.P,Y1,1,1*%
%TO.N,/pCry1*%
X42138600Y-88243000D03*
%TO.P,Y1,2,2*%
%TO.N,/pCry2*%
X42138600Y-93123000D03*
%TD*%
D24*
%TO.P,SW1,1,1*%
%TO.N,GND*%
X37444600Y-81223000D03*
X29484600Y-81223000D03*
%TO.P,SW1,2,2*%
%TO.N,/pButt*%
X37444600Y-76723000D03*
X29484600Y-76723000D03*
%TD*%
D11*
%TO.P,TP8,1,1*%
%TO.N,Net-(U1-PD0)*%
X43605600Y-71628000D03*
%TD*%
D25*
%TO.P,D1,1,K*%
%TO.N,Net-(D1-K)*%
X66519600Y-90185000D03*
%TO.P,D1,2,A*%
%TO.N,Net-(D1-A)*%
X69319600Y-90185000D03*
%TD*%
D11*
%TO.P,TP1,1,1*%
%TO.N,Net-(U1-PB0)*%
X43688000Y-102108000D03*
%TD*%
D26*
%TO.P,J5,1,Pin_1*%
%TO.N,+AC*%
X23368000Y-26500000D03*
D27*
%TO.P,J5,2,Pin_2*%
%TO.N,-AC*%
X23368000Y-30000000D03*
%TO.P,J5,3,Pin_3*%
X23368000Y-33500000D03*
%TO.P,J5,4,Pin_4*%
%TO.N,Heater*%
X23368000Y-37000000D03*
%TD*%
D25*
%TO.P,D2,1,K*%
%TO.N,Net-(D2-K)*%
X66519600Y-96185000D03*
%TO.P,D2,2,A*%
%TO.N,Net-(D1-A)*%
X69319600Y-96185000D03*
%TD*%
D19*
%TO.P,J2,1,Pin_1*%
%TO.N,GND*%
X69342000Y-66668000D03*
D20*
%TO.P,J2,2,Pin_2*%
%TO.N,+5V*%
X69342000Y-69168000D03*
%TO.P,J2,3,Pin_3*%
%TO.N,/pSDA*%
X69342000Y-71668000D03*
%TO.P,J2,4,Pin_4*%
%TO.N,/pSCL*%
X69342000Y-74168000D03*
%TD*%
D28*
%TO.P,Q2,1,A1*%
%TO.N,Heater*%
X31360000Y-51062500D03*
D29*
%TO.P,Q2,2,A2*%
%TO.N,+AC*%
X35985000Y-51817500D03*
X35985000Y-54867500D03*
D30*
X37660000Y-53342500D03*
D29*
X39335000Y-51817500D03*
X39335000Y-54867500D03*
D28*
%TO.P,Q2,3,G*%
%TO.N,Net-(Q2-G)*%
X31360000Y-55622500D03*
%TD*%
D31*
%TO.P,PS1,1,AC/L*%
%TO.N,+AC*%
X34002500Y-33542500D03*
D32*
%TO.P,PS1,2,AC/N*%
%TO.N,-AC*%
X34002500Y-38542500D03*
%TO.P,PS1,3,-Vout*%
%TO.N,GND*%
X63082500Y-28542500D03*
%TO.P,PS1,4,+Vout*%
%TO.N,+5V*%
X63082500Y-43542500D03*
%TD*%
D18*
%TO.P,R5,1*%
%TO.N,Net-(R5-Pad1)*%
X45273500Y-50038000D03*
%TO.P,R5,2*%
%TO.N,Net-(NT3-Pad1)*%
X48198500Y-50038000D03*
%TD*%
D11*
%TO.P,TP12,1,1*%
%TO.N,Net-(U1-PD6)*%
X40640000Y-99568000D03*
%TD*%
%TO.P,TP2,1,1*%
%TO.N,Net-(U1-PB2)*%
X59605600Y-99568000D03*
%TD*%
D33*
%TO.P,U3,1,1A*%
%TO.N,/pLed_heat*%
X59924100Y-92283000D03*
%TO.P,U3,2,GND*%
%TO.N,GND*%
X59924100Y-93233000D03*
%TO.P,U3,3,2A*%
%TO.N,/pLed_ok*%
X59924100Y-94183000D03*
%TO.P,U3,4,2Y*%
%TO.N,Net-(D2-K)*%
X62199100Y-94183000D03*
%TO.P,U3,5,V_{CC}*%
%TO.N,+5V*%
X62199100Y-93233000D03*
%TO.P,U3,6,1Y*%
%TO.N,Net-(D1-K)*%
X62199100Y-92283000D03*
%TD*%
D34*
%TO.P,Q1,1,S*%
%TO.N,GND*%
X34479000Y-70739000D03*
%TO.P,Q1,2,S*%
X34479000Y-69469000D03*
%TO.P,Q1,3,S*%
X34479000Y-68199000D03*
%TO.P,Q1,4,G*%
%TO.N,/pFan_pwm*%
X34479000Y-66929000D03*
%TO.P,Q1,5,D*%
%TO.N,Net-(J3-Pin_2)*%
X29529000Y-66929000D03*
%TO.P,Q1,6,D*%
X29529000Y-68199000D03*
%TO.P,Q1,7,D*%
X29529000Y-69469000D03*
%TO.P,Q1,8,D*%
X29529000Y-70739000D03*
%TD*%
D35*
%TO.P,U1,1,~{RESET}/PC6*%
%TO.N,/pReset*%
X47752000Y-69088000D03*
D36*
%TO.P,U1,2,PD0*%
%TO.N,Net-(U1-PD0)*%
X47752000Y-71628000D03*
%TO.P,U1,3,PD1*%
%TO.N,Net-(U1-PD1)*%
X47752000Y-74168000D03*
%TO.P,U1,4,PD2*%
%TO.N,/pButt*%
X47752000Y-76708000D03*
%TO.P,U1,5,PD3*%
%TO.N,/pFan_sense*%
X47752000Y-79248000D03*
%TO.P,U1,6,PD4*%
%TO.N,Net-(U1-PD4)*%
X47752000Y-81788000D03*
%TO.P,U1,7,VCC*%
%TO.N,+5V*%
X47752000Y-84328000D03*
%TO.P,U1,8,GND*%
%TO.N,GND*%
X47752000Y-86868000D03*
%TO.P,U1,9,XTAL1/PB6*%
%TO.N,/pCry1*%
X47752000Y-89408000D03*
%TO.P,U1,10,XTAL2/PB7*%
%TO.N,/pCry2*%
X47752000Y-91948000D03*
%TO.P,U1,11,PD5*%
%TO.N,/pFan_pwm*%
X47752000Y-94488000D03*
%TO.P,U1,12,PD6*%
%TO.N,Net-(U1-PD6)*%
X47752000Y-97028000D03*
%TO.P,U1,13,PD7*%
%TO.N,Net-(U1-PD7)*%
X47752000Y-99568000D03*
%TO.P,U1,14,PB0*%
%TO.N,Net-(U1-PB0)*%
X47752000Y-102108000D03*
%TO.P,U1,15,PB1*%
%TO.N,/pHeat*%
X55372000Y-102108000D03*
%TO.P,U1,16,PB2*%
%TO.N,Net-(U1-PB2)*%
X55372000Y-99568000D03*
%TO.P,U1,17,PB3*%
%TO.N,Net-(U1-PB3)*%
X55372000Y-97028000D03*
%TO.P,U1,18,PB4*%
%TO.N,/pLed_ok*%
X55372000Y-94488000D03*
%TO.P,U1,19,PB5*%
%TO.N,/pLed_heat*%
X55372000Y-91948000D03*
%TO.P,U1,20,AVCC*%
%TO.N,+5V*%
X55372000Y-89408000D03*
%TO.P,U1,21,AREF*%
X55372000Y-86868000D03*
%TO.P,U1,22,GND*%
%TO.N,GND*%
X55372000Y-84328000D03*
%TO.P,U1,23,PC0*%
%TO.N,/pTemp*%
X55372000Y-81788000D03*
%TO.P,U1,24,PC1*%
%TO.N,Net-(U1-PC1)*%
X55372000Y-79248000D03*
%TO.P,U1,25,PC2*%
%TO.N,Net-(U1-PC2)*%
X55372000Y-76708000D03*
%TO.P,U1,26,PC3*%
%TO.N,Net-(U1-PC3)*%
X55372000Y-74168000D03*
%TO.P,U1,27,PC4*%
%TO.N,/pSDA*%
X55372000Y-71628000D03*
%TO.P,U1,28,PC5*%
%TO.N,/pSCL*%
X55372000Y-69088000D03*
%TD*%
D12*
%TO.P,R1,1*%
%TO.N,/pFan_pwm*%
X38608000Y-67371500D03*
%TO.P,R1,2*%
%TO.N,GND*%
X38608000Y-70296500D03*
%TD*%
D15*
%TO.P,C4,1*%
%TO.N,/pCry1*%
X37605600Y-86170000D03*
%TO.P,C4,2*%
%TO.N,GND*%
X37605600Y-89120000D03*
%TD*%
D37*
%TO.P,C1,1*%
%TO.N,+5V*%
X59690000Y-88138000D03*
%TO.P,C1,2*%
%TO.N,GND*%
X59690000Y-85188000D03*
%TD*%
D38*
%TO.P,C3,1*%
%TO.N,+5V*%
X43486600Y-83073000D03*
%TO.P,C3,2*%
%TO.N,GND*%
X40536600Y-83073000D03*
%TD*%
D39*
%TO.N,GND*%
X34479000Y-72833000D03*
X57912000Y-93218000D03*
X37592000Y-90678000D03*
%TO.N,+5V*%
X51562000Y-66294000D03*
X64262000Y-93233000D03*
X65024000Y-66294000D03*
X54864000Y-66294000D03*
%TO.N,/pSDA*%
X65024000Y-71628000D03*
%TO.N,Net-(R5-Pad1)*%
X43434000Y-50546000D03*
X43434000Y-59182000D03*
%TD*%
D40*
%TO.N,GND*%
X38115000Y-83073000D02*
X40536600Y-83073000D01*
X34479000Y-68199000D02*
X34479000Y-69469000D01*
X37439600Y-81223000D02*
X37439600Y-82397600D01*
X47752000Y-86868000D02*
X45974000Y-86868000D01*
X37439600Y-82397600D02*
X38115000Y-83073000D01*
X57927000Y-93233000D02*
X57912000Y-93218000D01*
X37605600Y-89120000D02*
X37605600Y-90664400D01*
X58010000Y-85188000D02*
X59690000Y-85188000D01*
X45974000Y-86868000D02*
X43942000Y-84836000D01*
X62422500Y-81788000D02*
X62422500Y-83119500D01*
X37605600Y-90691600D02*
X37592000Y-90678000D01*
X34479000Y-69469000D02*
X34479000Y-70739000D01*
X34479000Y-72833000D02*
X34479000Y-70739000D01*
X60198000Y-83566000D02*
X59690000Y-84074000D01*
X40894000Y-84836000D02*
X40536600Y-84478600D01*
X40536600Y-84478600D02*
X40536600Y-83073000D01*
X34479000Y-72833000D02*
X37403000Y-72833000D01*
X61976000Y-83566000D02*
X60198000Y-83566000D01*
X57150000Y-84328000D02*
X58010000Y-85188000D01*
X37605600Y-92266000D02*
X37605600Y-90691600D01*
X43942000Y-84836000D02*
X40894000Y-84836000D01*
X29489600Y-81223000D02*
X37439600Y-81223000D01*
X38608000Y-71628000D02*
X38608000Y-70296500D01*
X55372000Y-84328000D02*
X57150000Y-84328000D01*
X62422500Y-83119500D02*
X61976000Y-83566000D01*
X59924100Y-93233000D02*
X57927000Y-93233000D01*
X37605600Y-90664400D02*
X37592000Y-90678000D01*
X59690000Y-84074000D02*
X59690000Y-85188000D01*
X37403000Y-72833000D02*
X38608000Y-71628000D01*
%TO.N,+5V*%
X60198000Y-52832000D02*
X60198000Y-58674000D01*
X57404000Y-89154000D02*
X57150000Y-89408000D01*
X20574000Y-69342000D02*
X21296000Y-70064000D01*
X50292000Y-65024000D02*
X22098000Y-65024000D01*
X65024000Y-66294000D02*
X54864000Y-66294000D01*
X63082500Y-50001500D02*
X67517000Y-54436000D01*
X43486600Y-83073000D02*
X44762300Y-83073000D01*
X65024000Y-66294000D02*
X65024000Y-56896000D01*
X44762300Y-83073000D02*
X46017300Y-84328000D01*
X65024000Y-56896000D02*
X67484000Y-54436000D01*
X57404000Y-88138000D02*
X57404000Y-89154000D01*
X55372000Y-86868000D02*
X57150000Y-86868000D01*
X46017300Y-84328000D02*
X47752000Y-84328000D01*
X60198000Y-58674000D02*
X59182000Y-59690000D01*
X57150000Y-89408000D02*
X55372000Y-89408000D01*
X67484000Y-54436000D02*
X69342000Y-54436000D01*
X22098000Y-65024000D02*
X20574000Y-66548000D01*
X64262000Y-93233000D02*
X62199100Y-93233000D01*
X20574000Y-66548000D02*
X20574000Y-69342000D01*
X59182000Y-59690000D02*
X55504000Y-59690000D01*
X63082500Y-49947500D02*
X60198000Y-52832000D01*
X57404000Y-88138000D02*
X59690000Y-88138000D01*
X57150000Y-86868000D02*
X57404000Y-87122000D01*
X67517000Y-54436000D02*
X69342000Y-54436000D01*
X63082500Y-49366500D02*
X63082500Y-50001500D01*
X57404000Y-87122000D02*
X57404000Y-88138000D01*
X21296000Y-70064000D02*
X22606000Y-70064000D01*
X51562000Y-66294000D02*
X50292000Y-65024000D01*
X66457100Y-93233000D02*
X64262000Y-93233000D01*
X63082500Y-43542500D02*
X63082500Y-49366500D01*
X63082500Y-49366500D02*
X63082500Y-49947500D01*
%TO.N,Net-(D1-A)*%
X69382100Y-93233000D02*
X69319600Y-93295500D01*
X69382100Y-93233000D02*
X69319600Y-93170500D01*
X69319600Y-93295500D02*
X69319600Y-96185000D01*
X69319600Y-93170500D02*
X69319600Y-90185000D01*
%TO.N,Net-(D1-K)*%
X66705600Y-90185000D02*
X63093600Y-90185000D01*
X62199100Y-91079500D02*
X62199100Y-92283000D01*
X63093600Y-90185000D02*
X62199100Y-91079500D01*
%TO.N,Net-(D2-K)*%
X66705600Y-96185000D02*
X62997600Y-96185000D01*
X62997600Y-96185000D02*
X62199100Y-95386500D01*
X62199100Y-95386500D02*
X62199100Y-94183000D01*
%TO.N,Net-(U1-PB2)*%
X55372000Y-99568000D02*
X59605600Y-99568000D01*
%TO.N,Net-(U1-PB3)*%
X55372000Y-97028000D02*
X59605600Y-97028000D01*
%TO.N,Net-(U1-PC1)*%
X59605600Y-79248000D02*
X55372000Y-79248000D01*
%TO.N,Net-(U1-PC2)*%
X55372000Y-76708000D02*
X59605600Y-76708000D01*
%TO.N,Net-(U1-PC3)*%
X55372000Y-74168000D02*
X59605600Y-74168000D01*
%TO.N,Net-(U1-PD0)*%
X43605600Y-71628000D02*
X47752000Y-71628000D01*
%TO.N,Net-(U1-PD1)*%
X43605600Y-74168000D02*
X47752000Y-74168000D01*
%TO.N,Net-(U1-PD4)*%
X45974000Y-81788000D02*
X47752000Y-81788000D01*
X42164000Y-80772000D02*
X44958000Y-80772000D01*
X40640000Y-79248000D02*
X42164000Y-80772000D01*
X44958000Y-80772000D02*
X45974000Y-81788000D01*
%TO.N,Net-(U1-PD6)*%
X42418000Y-97790000D02*
X40640000Y-99568000D01*
X47752000Y-97028000D02*
X45466000Y-97028000D01*
X45466000Y-97028000D02*
X44704000Y-97790000D01*
X44704000Y-97790000D02*
X42418000Y-97790000D01*
%TO.N,Net-(U1-PD7)*%
X43605600Y-99568000D02*
X47752000Y-99568000D01*
%TO.N,Net-(U1-PB0)*%
X43688000Y-102108000D02*
X47752000Y-102108000D01*
%TO.N,Net-(J3-Pin_2)*%
X27305000Y-68199000D02*
X29529000Y-68199000D01*
X29529000Y-70739000D02*
X29529000Y-69469000D01*
X29529000Y-68199000D02*
X29529000Y-66929000D01*
X22606000Y-67564000D02*
X26670000Y-67564000D01*
X26670000Y-67564000D02*
X27305000Y-68199000D01*
X29529000Y-69469000D02*
X29529000Y-68199000D01*
D41*
%TO.N,Heater*%
X23368000Y-37000000D02*
X23368000Y-37084000D01*
X23368000Y-37084000D02*
X31360000Y-45076000D01*
X31360000Y-45076000D02*
X31360000Y-51062500D01*
D40*
%TO.N,/pCry1*%
X43303600Y-89408000D02*
X42138600Y-88243000D01*
X40065600Y-86170000D02*
X37605600Y-86170000D01*
X42138600Y-88243000D02*
X40065600Y-86170000D01*
X47752000Y-89408000D02*
X43303600Y-89408000D01*
%TO.N,/pCry2*%
X42138600Y-93123000D02*
X40045600Y-95216000D01*
X47752000Y-91948000D02*
X43313600Y-91948000D01*
X40045600Y-95216000D02*
X37605600Y-95216000D01*
X43313600Y-91948000D02*
X42138600Y-93123000D01*
%TO.N,/pSCL*%
X71120000Y-59436000D02*
X69342000Y-59436000D01*
X55372000Y-69088000D02*
X64008000Y-69088000D01*
X71120000Y-74168000D02*
X71628000Y-73660000D01*
X69088000Y-74168000D02*
X69342000Y-74168000D01*
X71628000Y-59944000D02*
X71120000Y-59436000D01*
X64008000Y-69088000D02*
X69088000Y-74168000D01*
X71628000Y-73660000D02*
X71628000Y-59944000D01*
X69342000Y-74168000D02*
X71120000Y-74168000D01*
%TO.N,/pSDA*%
X65024000Y-71628000D02*
X55372000Y-71628000D01*
X69342000Y-71668000D02*
X67604000Y-71668000D01*
X67604000Y-71668000D02*
X67056000Y-71120000D01*
X67056000Y-57404000D02*
X67524000Y-56936000D01*
X67524000Y-56936000D02*
X69342000Y-56936000D01*
X67056000Y-71120000D02*
X67056000Y-57404000D01*
%TO.N,/pFan_sense*%
X43605600Y-79248000D02*
X47752000Y-79248000D01*
%TO.N,/pFan_pwm*%
X50800000Y-93726000D02*
X50800000Y-67056000D01*
X38608000Y-67371500D02*
X36891500Y-67371500D01*
X42418000Y-65786000D02*
X40832500Y-67371500D01*
X49530000Y-65786000D02*
X42418000Y-65786000D01*
X36891500Y-67371500D02*
X36449000Y-66929000D01*
X50038000Y-94488000D02*
X50800000Y-93726000D01*
X36449000Y-66929000D02*
X34479000Y-66929000D01*
X40832500Y-67371500D02*
X38608000Y-67371500D01*
X47752000Y-94488000D02*
X50038000Y-94488000D01*
X50800000Y-67056000D02*
X49530000Y-65786000D01*
%TO.N,/pTemp*%
X61468000Y-80010000D02*
X65278000Y-80010000D01*
X60960000Y-80518000D02*
X61468000Y-80010000D01*
X60706000Y-81788000D02*
X60960000Y-81534000D01*
X66294000Y-83058000D02*
X67270000Y-84034000D01*
X55372000Y-81788000D02*
X59497500Y-81788000D01*
X65278000Y-80010000D02*
X66294000Y-81026000D01*
X59497500Y-81788000D02*
X60706000Y-81788000D01*
X66294000Y-81026000D02*
X66294000Y-83058000D01*
X67270000Y-84034000D02*
X69342000Y-84034000D01*
X60960000Y-81534000D02*
X60960000Y-80518000D01*
%TO.N,/pHeat*%
X56642000Y-62738000D02*
X52324000Y-67056000D01*
X53086000Y-102108000D02*
X55372000Y-102108000D01*
X61660500Y-61275500D02*
X60198000Y-62738000D01*
X60198000Y-62738000D02*
X56642000Y-62738000D01*
X61660500Y-57150000D02*
X61660500Y-61275500D01*
X52324000Y-101346000D02*
X53086000Y-102108000D01*
X52324000Y-67056000D02*
X52324000Y-101346000D01*
%TO.N,/pButt*%
X37708600Y-76708000D02*
X47752000Y-76708000D01*
X29489600Y-76723000D02*
X37439600Y-76723000D01*
X37439600Y-76723000D02*
X37693600Y-76723000D01*
X37693600Y-76723000D02*
X37708600Y-76708000D01*
%TO.N,/pLed_ok*%
X58013600Y-94503000D02*
X57998600Y-94488000D01*
X58333600Y-94183000D02*
X58013600Y-94503000D01*
X59924100Y-94183000D02*
X58333600Y-94183000D01*
X57998600Y-94488000D02*
X55372000Y-94488000D01*
%TO.N,/pLed_heat*%
X57998600Y-91948000D02*
X55372000Y-91948000D01*
X58333600Y-92283000D02*
X57998600Y-91948000D01*
X59924100Y-92283000D02*
X58333600Y-92283000D01*
%TO.N,/pReset*%
X43605600Y-69088000D02*
X47752000Y-69088000D01*
D41*
%TO.N,-AC*%
X31271750Y-38542500D02*
X34002500Y-38542500D01*
X26229250Y-33500000D02*
X31271750Y-38542500D01*
X23368000Y-30000000D02*
X23368000Y-33500000D01*
X23368000Y-33500000D02*
X26229250Y-33500000D01*
%TO.N,+AC*%
X39335000Y-46447000D02*
X39335000Y-51817500D01*
X34002500Y-33542500D02*
X32526500Y-33542500D01*
X37592000Y-34544000D02*
X37592000Y-44704000D01*
X39132000Y-51614500D02*
X39335000Y-51817500D01*
X25484000Y-26500000D02*
X23368000Y-26500000D01*
X37592000Y-44704000D02*
X39335000Y-46447000D01*
X32526500Y-33542500D02*
X25484000Y-26500000D01*
X34002500Y-33542500D02*
X36590500Y-33542500D01*
X36590500Y-33542500D02*
X37592000Y-34544000D01*
D40*
%TO.N,Net-(NT3-Pad1)*%
X47498000Y-48006000D02*
X48198500Y-48706500D01*
X48198500Y-48706500D02*
X48198500Y-50038000D01*
X41890000Y-48006000D02*
X47498000Y-48006000D01*
%TO.N,Net-(NT4-Pad1)*%
X26731500Y-51054000D02*
X26670000Y-51115500D01*
X27940000Y-48006000D02*
X26670000Y-49276000D01*
X28722000Y-48006000D02*
X27940000Y-48006000D01*
X26670000Y-49276000D02*
X26670000Y-51115500D01*
%TO.N,Net-(Q2-G)*%
X26670000Y-54040500D02*
X28132500Y-54040500D01*
X43434000Y-54610000D02*
X42672000Y-55372000D01*
X42672000Y-55372000D02*
X42672000Y-57150000D01*
X32004000Y-57912000D02*
X31360000Y-57268000D01*
X41910000Y-57912000D02*
X32004000Y-57912000D01*
X45974000Y-54610000D02*
X43434000Y-54610000D01*
X28132500Y-54040500D02*
X29714500Y-55622500D01*
X42672000Y-57150000D02*
X41910000Y-57912000D01*
X29714500Y-55622500D02*
X31360000Y-55622500D01*
X31360000Y-57268000D02*
X31360000Y-55622500D01*
%TO.N,Net-(R3-Pad2)*%
X58735500Y-57150000D02*
X55504000Y-57150000D01*
%TO.N,Net-(R5-Pad1)*%
X43434000Y-59182000D02*
X43942000Y-59690000D01*
X43942000Y-59690000D02*
X45974000Y-59690000D01*
X43942000Y-50038000D02*
X43434000Y-50546000D01*
X45273500Y-50038000D02*
X43942000Y-50038000D01*
%TD*%
%TA.AperFunction,NonConductor*%
G36*
X57619950Y-57770185D02*
G01*
X57665705Y-57822989D01*
X57676269Y-57861898D01*
X57683001Y-57927797D01*
X57683001Y-57927799D01*
X57695695Y-57966105D01*
X57738186Y-58094334D01*
X57830288Y-58243656D01*
X57954344Y-58367712D01*
X58103666Y-58459814D01*
X58270203Y-58514999D01*
X58372991Y-58525500D01*
X59098008Y-58525499D01*
X59195949Y-58515494D01*
X59264641Y-58528264D01*
X59315525Y-58576144D01*
X59332446Y-58643934D01*
X59310030Y-58710111D01*
X59296231Y-58726533D01*
X58969584Y-59053181D01*
X58908261Y-59086666D01*
X58881903Y-59089500D01*
X57128499Y-59089500D01*
X57061460Y-59069815D01*
X57015705Y-59017011D01*
X57004499Y-58965500D01*
X57004499Y-58752129D01*
X57004498Y-58752123D01*
X57004497Y-58752116D01*
X56998091Y-58692517D01*
X56961698Y-58594943D01*
X56947797Y-58557671D01*
X56947796Y-58557669D01*
X56923714Y-58525500D01*
X56900365Y-58494310D01*
X56875949Y-58428847D01*
X56890800Y-58360574D01*
X56900366Y-58345689D01*
X56947796Y-58282331D01*
X56998091Y-58147483D01*
X57004500Y-58087873D01*
X57004500Y-57874500D01*
X57024185Y-57807461D01*
X57076989Y-57761706D01*
X57128500Y-57750500D01*
X57552911Y-57750500D01*
X57619950Y-57770185D01*
G37*
%TD.AperFunction*%
%TA.AperFunction,NonConductor*%
G36*
X67998320Y-57556185D02*
G01*
X68041765Y-57604205D01*
X68061947Y-57643814D01*
X68061948Y-57643815D01*
X68186890Y-57815786D01*
X68337209Y-57966105D01*
X68337214Y-57966109D01*
X68501793Y-58085682D01*
X68544459Y-58141011D01*
X68550438Y-58210625D01*
X68517833Y-58272420D01*
X68501793Y-58286318D01*
X68337214Y-58405890D01*
X68337209Y-58405894D01*
X68186890Y-58556213D01*
X68061951Y-58728179D01*
X67965444Y-58917585D01*
X67898431Y-59123829D01*
X67858993Y-59181505D01*
X67794635Y-59208703D01*
X67725788Y-59196788D01*
X67674313Y-59149544D01*
X67656500Y-59085511D01*
X67656500Y-57704097D01*
X67676185Y-57637058D01*
X67692819Y-57616416D01*
X67736416Y-57572819D01*
X67797739Y-57539334D01*
X67824097Y-57536500D01*
X67931281Y-57536500D01*
X67998320Y-57556185D01*
G37*
%TD.AperFunction*%
%TA.AperFunction,NonConductor*%
G36*
X63098834Y-50882915D02*
G01*
X63143181Y-50911416D01*
X66563583Y-54331818D01*
X66597068Y-54393141D01*
X66592084Y-54462833D01*
X66563583Y-54507180D01*
X64655286Y-56415478D01*
X64543481Y-56527282D01*
X64543479Y-56527284D01*
X64522513Y-56563599D01*
X64513651Y-56578950D01*
X64464423Y-56664215D01*
X64423499Y-56816943D01*
X64423499Y-56816945D01*
X64423499Y-56985046D01*
X64423500Y-56985059D01*
X64423500Y-65569500D01*
X64403815Y-65636539D01*
X64351011Y-65682294D01*
X64299500Y-65693500D01*
X55446412Y-65693500D01*
X55379373Y-65673815D01*
X55369097Y-65666445D01*
X55366263Y-65664185D01*
X55366262Y-65664184D01*
X55263067Y-65599342D01*
X55213523Y-65568211D01*
X55043254Y-65508631D01*
X55043249Y-65508630D01*
X55009144Y-65504788D01*
X54944730Y-65477722D01*
X54905174Y-65420127D01*
X54903037Y-65350290D01*
X54935344Y-65293889D01*
X56854416Y-63374819D01*
X56915739Y-63341334D01*
X56942097Y-63338500D01*
X60111331Y-63338500D01*
X60111347Y-63338501D01*
X60118943Y-63338501D01*
X60277054Y-63338501D01*
X60277057Y-63338501D01*
X60429785Y-63297577D01*
X60479904Y-63268639D01*
X60566716Y-63218520D01*
X60678520Y-63106716D01*
X60678520Y-63106714D01*
X60688728Y-63096507D01*
X60688730Y-63096504D01*
X62019006Y-61766228D01*
X62019011Y-61766224D01*
X62029214Y-61756020D01*
X62029216Y-61756020D01*
X62141020Y-61644216D01*
X62220077Y-61507284D01*
X62261000Y-61354557D01*
X62261000Y-58548347D01*
X62280685Y-58481308D01*
X62319901Y-58442810D01*
X62441656Y-58367712D01*
X62565712Y-58243656D01*
X62657814Y-58094334D01*
X62712999Y-57927797D01*
X62723500Y-57825009D01*
X62723499Y-56474992D01*
X62712999Y-56372203D01*
X62657814Y-56205666D01*
X62565712Y-56056344D01*
X62441656Y-55932288D01*
X62292334Y-55840186D01*
X62125797Y-55785001D01*
X62125795Y-55785000D01*
X62023010Y-55774500D01*
X61297998Y-55774500D01*
X61297980Y-55774501D01*
X61195203Y-55785000D01*
X61195200Y-55785001D01*
X61028668Y-55840185D01*
X61028666Y-55840185D01*
X61028666Y-55840186D01*
X61028662Y-55840187D01*
X61028661Y-55840189D01*
X60987595Y-55865518D01*
X60920202Y-55883957D01*
X60853539Y-55863033D01*
X60808771Y-55809391D01*
X60798500Y-55759978D01*
X60798500Y-53132097D01*
X60818185Y-53065058D01*
X60834819Y-53044416D01*
X62967819Y-50911416D01*
X63029142Y-50877931D01*
X63098834Y-50882915D01*
G37*
%TD.AperFunction*%
%TA.AperFunction,NonConductor*%
G36*
X67861703Y-59692775D02*
G01*
X67898431Y-59748170D01*
X67965444Y-59954414D01*
X68061951Y-60143820D01*
X68186890Y-60315786D01*
X68337213Y-60466109D01*
X68509179Y-60591048D01*
X68509181Y-60591049D01*
X68509184Y-60591051D01*
X68698588Y-60687557D01*
X68900757Y-60753246D01*
X69110713Y-60786500D01*
X69110714Y-60786500D01*
X69573286Y-60786500D01*
X69573287Y-60786500D01*
X69783243Y-60753246D01*
X69985412Y-60687557D01*
X70174816Y-60591051D01*
X70196789Y-60575086D01*
X70346786Y-60466109D01*
X70346788Y-60466106D01*
X70346792Y-60466104D01*
X70497104Y-60315792D01*
X70497106Y-60315788D01*
X70497109Y-60315786D01*
X70568343Y-60217739D01*
X70622051Y-60143816D01*
X70622349Y-60143230D01*
X70642235Y-60104205D01*
X70690209Y-60053409D01*
X70752719Y-60036500D01*
X70819903Y-60036500D01*
X70886942Y-60056185D01*
X70907584Y-60072819D01*
X70991181Y-60156416D01*
X71024666Y-60217739D01*
X71027500Y-60244097D01*
X71027500Y-65812206D01*
X71007815Y-65879245D01*
X70955011Y-65925000D01*
X70885853Y-65934944D01*
X70822297Y-65905919D01*
X70785794Y-65851211D01*
X70751814Y-65748666D01*
X70659712Y-65599344D01*
X70535656Y-65475288D01*
X70386334Y-65383186D01*
X70219797Y-65328001D01*
X70219795Y-65328000D01*
X70117010Y-65317500D01*
X68566998Y-65317500D01*
X68566981Y-65317501D01*
X68464203Y-65328000D01*
X68464200Y-65328001D01*
X68297668Y-65383185D01*
X68297663Y-65383187D01*
X68148342Y-65475289D01*
X68024289Y-65599342D01*
X67932187Y-65748663D01*
X67932185Y-65748668D01*
X67898206Y-65851211D01*
X67858433Y-65908656D01*
X67793917Y-65935479D01*
X67725141Y-65923164D01*
X67673942Y-65875621D01*
X67656500Y-65812207D01*
X67656500Y-59786488D01*
X67676185Y-59719449D01*
X67728989Y-59673694D01*
X67798147Y-59663750D01*
X67861703Y-59692775D01*
G37*
%TD.AperFunction*%
%TA.AperFunction,NonConductor*%
G36*
X71825039Y-24149685D02*
G01*
X71870794Y-24202489D01*
X71882000Y-24254000D01*
X71882000Y-59049403D01*
X71862315Y-59116442D01*
X71809511Y-59162197D01*
X71740353Y-59172141D01*
X71676797Y-59143116D01*
X71670319Y-59137084D01*
X71607590Y-59074355D01*
X71607588Y-59074352D01*
X71488717Y-58955481D01*
X71488716Y-58955480D01*
X71401904Y-58905360D01*
X71401904Y-58905359D01*
X71401900Y-58905358D01*
X71351785Y-58876423D01*
X71199057Y-58835499D01*
X71040943Y-58835499D01*
X71033347Y-58835499D01*
X71033331Y-58835500D01*
X70752719Y-58835500D01*
X70685680Y-58815815D01*
X70642235Y-58767795D01*
X70622052Y-58728185D01*
X70622051Y-58728184D01*
X70497109Y-58556213D01*
X70346792Y-58405896D01*
X70335299Y-58397546D01*
X70182204Y-58286316D01*
X70139540Y-58230989D01*
X70133561Y-58161376D01*
X70166166Y-58099580D01*
X70182199Y-58085686D01*
X70346792Y-57966104D01*
X70497104Y-57815792D01*
X70497106Y-57815788D01*
X70497109Y-57815786D01*
X70622048Y-57643820D01*
X70622047Y-57643820D01*
X70622051Y-57643816D01*
X70718557Y-57454412D01*
X70784246Y-57252243D01*
X70817500Y-57042287D01*
X70817500Y-56829713D01*
X70784246Y-56619757D01*
X70718557Y-56417588D01*
X70622051Y-56228184D01*
X70622049Y-56228181D01*
X70622048Y-56228179D01*
X70497109Y-56056213D01*
X70346792Y-55905896D01*
X70291216Y-55865518D01*
X70182204Y-55786316D01*
X70139540Y-55730989D01*
X70133561Y-55661376D01*
X70166166Y-55599580D01*
X70182199Y-55585686D01*
X70346792Y-55466104D01*
X70497104Y-55315792D01*
X70497106Y-55315788D01*
X70497109Y-55315786D01*
X70622048Y-55143820D01*
X70622047Y-55143820D01*
X70622051Y-55143816D01*
X70718557Y-54954412D01*
X70784246Y-54752243D01*
X70817500Y-54542287D01*
X70817500Y-54329713D01*
X70784246Y-54119757D01*
X70718557Y-53917588D01*
X70622051Y-53728184D01*
X70622049Y-53728181D01*
X70622048Y-53728179D01*
X70497109Y-53556213D01*
X70358294Y-53417398D01*
X70324809Y-53356075D01*
X70329793Y-53286383D01*
X70371665Y-53230450D01*
X70380879Y-53224178D01*
X70386331Y-53220814D01*
X70386334Y-53220814D01*
X70535656Y-53128712D01*
X70659712Y-53004656D01*
X70751814Y-52855334D01*
X70806999Y-52688797D01*
X70817500Y-52586009D01*
X70817499Y-51285992D01*
X70806999Y-51183203D01*
X70751814Y-51016666D01*
X70659712Y-50867344D01*
X70535656Y-50743288D01*
X70386334Y-50651186D01*
X70219797Y-50596001D01*
X70219795Y-50596000D01*
X70117010Y-50585500D01*
X68566998Y-50585500D01*
X68566981Y-50585501D01*
X68464203Y-50596000D01*
X68464200Y-50596001D01*
X68297668Y-50651185D01*
X68297663Y-50651187D01*
X68148342Y-50743289D01*
X68024289Y-50867342D01*
X67932187Y-51016663D01*
X67932186Y-51016666D01*
X67877001Y-51183203D01*
X67877001Y-51183204D01*
X67877000Y-51183204D01*
X67866500Y-51285983D01*
X67866500Y-52586001D01*
X67866501Y-52586018D01*
X67877000Y-52688796D01*
X67877001Y-52688799D01*
X67932185Y-52855331D01*
X67932187Y-52855336D01*
X68024289Y-53004657D01*
X68148344Y-53128712D01*
X68303120Y-53224178D01*
X68349845Y-53276126D01*
X68361068Y-53345088D01*
X68333224Y-53409171D01*
X68325706Y-53417398D01*
X68186889Y-53556215D01*
X68061948Y-53728184D01*
X68061947Y-53728185D01*
X68041765Y-53767795D01*
X67993791Y-53818591D01*
X67931281Y-53835500D01*
X67817097Y-53835500D01*
X67750058Y-53815815D01*
X67729416Y-53799181D01*
X63719319Y-49789084D01*
X63685834Y-49727761D01*
X63683000Y-49701403D01*
X63683000Y-44978218D01*
X63702685Y-44911179D01*
X63750707Y-44867733D01*
X63790315Y-44847552D01*
X63790315Y-44847551D01*
X63790316Y-44847551D01*
X63881693Y-44781161D01*
X63962286Y-44722609D01*
X63962288Y-44722606D01*
X63962292Y-44722604D01*
X64112604Y-44572292D01*
X64112606Y-44572288D01*
X64112609Y-44572286D01*
X64237548Y-44400320D01*
X64237547Y-44400320D01*
X64237551Y-44400316D01*
X64334057Y-44210912D01*
X64399746Y-44008743D01*
X64433000Y-43798787D01*
X64433000Y-43286213D01*
X64399746Y-43076257D01*
X64334057Y-42874088D01*
X64237551Y-42684684D01*
X64237549Y-42684681D01*
X64237548Y-42684679D01*
X64112609Y-42512713D01*
X63962286Y-42362390D01*
X63790320Y-42237451D01*
X63600914Y-42140944D01*
X63600913Y-42140943D01*
X63600912Y-42140943D01*
X63398743Y-42075254D01*
X63398741Y-42075253D01*
X63398740Y-42075253D01*
X63237457Y-42049708D01*
X63188787Y-42042000D01*
X62976213Y-42042000D01*
X62927542Y-42049708D01*
X62766260Y-42075253D01*
X62564085Y-42140944D01*
X62374679Y-42237451D01*
X62202713Y-42362390D01*
X62052390Y-42512713D01*
X61927451Y-42684679D01*
X61830944Y-42874085D01*
X61765253Y-43076260D01*
X61732000Y-43286213D01*
X61732000Y-43798786D01*
X61765253Y-44008739D01*
X61830944Y-44210914D01*
X61927451Y-44400320D01*
X62052390Y-44572286D01*
X62202713Y-44722609D01*
X62374684Y-44847551D01*
X62374684Y-44847552D01*
X62414293Y-44867733D01*
X62465090Y-44915706D01*
X62482000Y-44978218D01*
X62482000Y-49647402D01*
X62462315Y-49714441D01*
X62445681Y-49735083D01*
X59717481Y-52463282D01*
X59717479Y-52463285D01*
X59667361Y-52550094D01*
X59667359Y-52550096D01*
X59638425Y-52600209D01*
X59638424Y-52600210D01*
X59638423Y-52600215D01*
X59597499Y-52752943D01*
X59597499Y-52752945D01*
X59597499Y-52921046D01*
X59597500Y-52921059D01*
X59597500Y-55759978D01*
X59577815Y-55827017D01*
X59525011Y-55872772D01*
X59455853Y-55882716D01*
X59408405Y-55865518D01*
X59385912Y-55851645D01*
X59367334Y-55840186D01*
X59200797Y-55785001D01*
X59200795Y-55785000D01*
X59098010Y-55774500D01*
X58372998Y-55774500D01*
X58372980Y-55774501D01*
X58270203Y-55785000D01*
X58270200Y-55785001D01*
X58103668Y-55840185D01*
X58103663Y-55840187D01*
X57954342Y-55932289D01*
X57830289Y-56056342D01*
X57738187Y-56205663D01*
X57738185Y-56205668D01*
X57683001Y-56372204D01*
X57683000Y-56372205D01*
X57676268Y-56438103D01*
X57649871Y-56502795D01*
X57592690Y-56542946D01*
X57552910Y-56549500D01*
X57128499Y-56549500D01*
X57061460Y-56529815D01*
X57015705Y-56477011D01*
X57004499Y-56425500D01*
X57004499Y-56212129D01*
X57004498Y-56212123D01*
X57004497Y-56212116D01*
X56998091Y-56152517D01*
X56947796Y-56017669D01*
X56900365Y-55954310D01*
X56875949Y-55888847D01*
X56890800Y-55820574D01*
X56900366Y-55805689D01*
X56947796Y-55742331D01*
X56998091Y-55607483D01*
X57004500Y-55547873D01*
X57004499Y-53672128D01*
X56998091Y-53612517D01*
X56947796Y-53477669D01*
X56947795Y-53477668D01*
X56947793Y-53477664D01*
X56861547Y-53362455D01*
X56861544Y-53362452D01*
X56746335Y-53276206D01*
X56746328Y-53276202D01*
X56611482Y-53225908D01*
X56611483Y-53225908D01*
X56551883Y-53219501D01*
X56551881Y-53219500D01*
X56551873Y-53219500D01*
X56551864Y-53219500D01*
X54456129Y-53219500D01*
X54456123Y-53219501D01*
X54396516Y-53225908D01*
X54261671Y-53276202D01*
X54261664Y-53276206D01*
X54146455Y-53362452D01*
X54146452Y-53362455D01*
X54060206Y-53477664D01*
X54060202Y-53477671D01*
X54009908Y-53612517D01*
X54003501Y-53672116D01*
X54003501Y-53672123D01*
X54003500Y-53672135D01*
X54003500Y-55547870D01*
X54003501Y-55547876D01*
X54009908Y-55607483D01*
X54060202Y-55742328D01*
X54060203Y-55742330D01*
X54107634Y-55805689D01*
X54132051Y-55871153D01*
X54117200Y-55939426D01*
X54107634Y-55954311D01*
X54060203Y-56017669D01*
X54060202Y-56017671D01*
X54009908Y-56152517D01*
X54004194Y-56205668D01*
X54003501Y-56212123D01*
X54003500Y-56212135D01*
X54003500Y-58087870D01*
X54003501Y-58087876D01*
X54009908Y-58147483D01*
X54060202Y-58282328D01*
X54060203Y-58282330D01*
X54107634Y-58345689D01*
X54132051Y-58411153D01*
X54117200Y-58479426D01*
X54107635Y-58494309D01*
X54100633Y-58503662D01*
X54060203Y-58557669D01*
X54060202Y-58557671D01*
X54009908Y-58692517D01*
X54006074Y-58728184D01*
X54003501Y-58752123D01*
X54003500Y-58752135D01*
X54003500Y-60627870D01*
X54003501Y-60627876D01*
X54009908Y-60687483D01*
X54060202Y-60822328D01*
X54060206Y-60822335D01*
X54146452Y-60937544D01*
X54146455Y-60937547D01*
X54261664Y-61023793D01*
X54261671Y-61023797D01*
X54396517Y-61074091D01*
X54396516Y-61074091D01*
X54403444Y-61074835D01*
X54456127Y-61080500D01*
X56551872Y-61080499D01*
X56611483Y-61074091D01*
X56746331Y-61023796D01*
X56861546Y-60937546D01*
X56947796Y-60822331D01*
X56998091Y-60687483D01*
X57004500Y-60627873D01*
X57004500Y-60414500D01*
X57024185Y-60347461D01*
X57076989Y-60301706D01*
X57128500Y-60290500D01*
X59095331Y-60290500D01*
X59095347Y-60290501D01*
X59102943Y-60290501D01*
X59261054Y-60290501D01*
X59261057Y-60290501D01*
X59413785Y-60249577D01*
X59463904Y-60220639D01*
X59550716Y-60170520D01*
X59662520Y-60058716D01*
X59662520Y-60058714D01*
X59672728Y-60048507D01*
X59672730Y-60048504D01*
X60556506Y-59164728D01*
X60556511Y-59164724D01*
X60566714Y-59154520D01*
X60566716Y-59154520D01*
X60678520Y-59042716D01*
X60750762Y-58917588D01*
X60757577Y-58905785D01*
X60798501Y-58753057D01*
X60798501Y-58594943D01*
X60798501Y-58587348D01*
X60798500Y-58587330D01*
X60798500Y-58540021D01*
X60818185Y-58472982D01*
X60870989Y-58427227D01*
X60940147Y-58417283D01*
X60987590Y-58434478D01*
X61001094Y-58442807D01*
X61047819Y-58494751D01*
X61060000Y-58548347D01*
X61060000Y-60975403D01*
X61040315Y-61042442D01*
X61023681Y-61063084D01*
X59985584Y-62101181D01*
X59924261Y-62134666D01*
X59897903Y-62137500D01*
X56721057Y-62137500D01*
X56562943Y-62137500D01*
X56410215Y-62178423D01*
X56410214Y-62178423D01*
X56410212Y-62178424D01*
X56410209Y-62178425D01*
X56360096Y-62207359D01*
X56360095Y-62207360D01*
X56316689Y-62232420D01*
X56273285Y-62257479D01*
X56273282Y-62257481D01*
X56161478Y-62369286D01*
X52504707Y-66026056D01*
X52443384Y-66059541D01*
X52373692Y-66054557D01*
X52317759Y-66012685D01*
X52299984Y-65979329D01*
X52287789Y-65944478D01*
X52275550Y-65925000D01*
X52191816Y-65791738D01*
X52064262Y-65664184D01*
X52005616Y-65627334D01*
X51911521Y-65568210D01*
X51741249Y-65508630D01*
X51654330Y-65498837D01*
X51589916Y-65471770D01*
X51580533Y-65463298D01*
X50779590Y-64662355D01*
X50779588Y-64662352D01*
X50660717Y-64543481D01*
X50660716Y-64543480D01*
X50573904Y-64493360D01*
X50573904Y-64493359D01*
X50573900Y-64493358D01*
X50523785Y-64464423D01*
X50371057Y-64423499D01*
X50212943Y-64423499D01*
X50205347Y-64423499D01*
X50205331Y-64423500D01*
X22018940Y-64423500D01*
X21978019Y-64434464D01*
X21978019Y-64434465D01*
X21940751Y-64444451D01*
X21866214Y-64464423D01*
X21866209Y-64464426D01*
X21729290Y-64543475D01*
X21729282Y-64543481D01*
X20093481Y-66179282D01*
X20093475Y-66179290D01*
X20043387Y-66266047D01*
X19992821Y-66314263D01*
X19924214Y-66327487D01*
X19859349Y-66301519D01*
X19818820Y-66244605D01*
X19812000Y-66204048D01*
X19812000Y-63370000D01*
X19831685Y-63302961D01*
X19884489Y-63257206D01*
X19936000Y-63246000D01*
X53086000Y-63246000D01*
X53086000Y-28286213D01*
X61732000Y-28286213D01*
X61732000Y-28798786D01*
X61765253Y-29008739D01*
X61830944Y-29210914D01*
X61927451Y-29400320D01*
X62052390Y-29572286D01*
X62202713Y-29722609D01*
X62374679Y-29847548D01*
X62374681Y-29847549D01*
X62374684Y-29847551D01*
X62564088Y-29944057D01*
X62766257Y-30009746D01*
X62976213Y-30043000D01*
X62976214Y-30043000D01*
X63188786Y-30043000D01*
X63188787Y-30043000D01*
X63398743Y-30009746D01*
X63600912Y-29944057D01*
X63790316Y-29847551D01*
X63812289Y-29831586D01*
X63962286Y-29722609D01*
X63962288Y-29722606D01*
X63962292Y-29722604D01*
X64112604Y-29572292D01*
X64112606Y-29572288D01*
X64112609Y-29572286D01*
X64237548Y-29400320D01*
X64237547Y-29400320D01*
X64237551Y-29400316D01*
X64334057Y-29210912D01*
X64399746Y-29008743D01*
X64433000Y-28798787D01*
X64433000Y-28286213D01*
X64399746Y-28076257D01*
X64334057Y-27874088D01*
X64237551Y-27684684D01*
X64237549Y-27684681D01*
X64237548Y-27684679D01*
X64112609Y-27512713D01*
X63962286Y-27362390D01*
X63790320Y-27237451D01*
X63600914Y-27140944D01*
X63600913Y-27140943D01*
X63600912Y-27140943D01*
X63398743Y-27075254D01*
X63398741Y-27075253D01*
X63398740Y-27075253D01*
X63237457Y-27049708D01*
X63188787Y-27042000D01*
X62976213Y-27042000D01*
X62927542Y-27049708D01*
X62766260Y-27075253D01*
X62564085Y-27140944D01*
X62374679Y-27237451D01*
X62202713Y-27362390D01*
X62052390Y-27512713D01*
X61927451Y-27684679D01*
X61830944Y-27874085D01*
X61765253Y-28076260D01*
X61732000Y-28286213D01*
X53086000Y-28286213D01*
X53086000Y-24254000D01*
X53105685Y-24186961D01*
X53158489Y-24141206D01*
X53210000Y-24130000D01*
X71758000Y-24130000D01*
X71825039Y-24149685D01*
G37*
%TD.AperFunction*%
%TA.AperFunction,NonConductor*%
G36*
X21379703Y-68385695D02*
G01*
X21398817Y-68406521D01*
X21408461Y-68419795D01*
X21425896Y-68443792D01*
X21564705Y-68582601D01*
X21598190Y-68643924D01*
X21593206Y-68713616D01*
X21551334Y-68769549D01*
X21542121Y-68775821D01*
X21387342Y-68871289D01*
X21386181Y-68872451D01*
X21385186Y-68872993D01*
X21381681Y-68875766D01*
X21381207Y-68875166D01*
X21324858Y-68905936D01*
X21255166Y-68900952D01*
X21199233Y-68859080D01*
X21174816Y-68793616D01*
X21174500Y-68784770D01*
X21174500Y-68479408D01*
X21194185Y-68412369D01*
X21246989Y-68366614D01*
X21316147Y-68356670D01*
X21379703Y-68385695D01*
G37*
%TD.AperFunction*%
%TA.AperFunction,NonConductor*%
G36*
X70958858Y-67412835D02*
G01*
X71010058Y-67460378D01*
X71027500Y-67523792D01*
X71027500Y-68817511D01*
X71007815Y-68884550D01*
X70955011Y-68930305D01*
X70885853Y-68940249D01*
X70822297Y-68911224D01*
X70785569Y-68855829D01*
X70778476Y-68834000D01*
X70718557Y-68649588D01*
X70622051Y-68460184D01*
X70622049Y-68460181D01*
X70622048Y-68460179D01*
X70497109Y-68288213D01*
X70358294Y-68149398D01*
X70324809Y-68088075D01*
X70329793Y-68018383D01*
X70371665Y-67962450D01*
X70380879Y-67956178D01*
X70386331Y-67952814D01*
X70386334Y-67952814D01*
X70535656Y-67860712D01*
X70659712Y-67736656D01*
X70751814Y-67587334D01*
X70785794Y-67484786D01*
X70825567Y-67427343D01*
X70890082Y-67400520D01*
X70958858Y-67412835D01*
G37*
%TD.AperFunction*%
%TA.AperFunction,NonConductor*%
G36*
X67861703Y-67430080D02*
G01*
X67898205Y-67484788D01*
X67932186Y-67587334D01*
X68020183Y-67730001D01*
X68024289Y-67736657D01*
X68148344Y-67860712D01*
X68303120Y-67956178D01*
X68349845Y-68008126D01*
X68361068Y-68077088D01*
X68333224Y-68141171D01*
X68325706Y-68149398D01*
X68186889Y-68288215D01*
X68061951Y-68460179D01*
X67965444Y-68649585D01*
X67965443Y-68649587D01*
X67965443Y-68649588D01*
X67921520Y-68784770D01*
X67898431Y-68855829D01*
X67858993Y-68913505D01*
X67794635Y-68940703D01*
X67725788Y-68928788D01*
X67674313Y-68881544D01*
X67656500Y-68817511D01*
X67656500Y-67523793D01*
X67676185Y-67456754D01*
X67728989Y-67410999D01*
X67798147Y-67401055D01*
X67861703Y-67430080D01*
G37*
%TD.AperFunction*%
%TA.AperFunction,NonConductor*%
G36*
X63774942Y-69708185D02*
G01*
X63795584Y-69724819D01*
X64756057Y-70685292D01*
X64789542Y-70746615D01*
X64784558Y-70816307D01*
X64742686Y-70872240D01*
X64709332Y-70890014D01*
X64674479Y-70902209D01*
X64521736Y-70998185D01*
X64518903Y-71000445D01*
X64516724Y-71001334D01*
X64515842Y-71001889D01*
X64515744Y-71001734D01*
X64454217Y-71026855D01*
X64441588Y-71027500D01*
X57001602Y-71027500D01*
X56934563Y-71007815D01*
X56891117Y-70959795D01*
X56884287Y-70946390D01*
X56884285Y-70946387D01*
X56884284Y-70946385D01*
X56763971Y-70780786D01*
X56619213Y-70636028D01*
X56453614Y-70515715D01*
X56433324Y-70505377D01*
X56360917Y-70468483D01*
X56310123Y-70420511D01*
X56293328Y-70352690D01*
X56315865Y-70286555D01*
X56360917Y-70247516D01*
X56453610Y-70200287D01*
X56526494Y-70147334D01*
X56619213Y-70079971D01*
X56619215Y-70079968D01*
X56619219Y-70079966D01*
X56763966Y-69935219D01*
X56763968Y-69935215D01*
X56763971Y-69935213D01*
X56884284Y-69769614D01*
X56884285Y-69769613D01*
X56884287Y-69769610D01*
X56891117Y-69756204D01*
X56939091Y-69705409D01*
X57001602Y-69688500D01*
X63707903Y-69688500D01*
X63774942Y-69708185D01*
G37*
%TD.AperFunction*%
%TA.AperFunction,NonConductor*%
G36*
X67861703Y-69424775D02*
G01*
X67898431Y-69480170D01*
X67899753Y-69484240D01*
X67899754Y-69484243D01*
X67965443Y-69686412D01*
X67965444Y-69686414D01*
X68061951Y-69875820D01*
X68186890Y-70047786D01*
X68337209Y-70198105D01*
X68337214Y-70198109D01*
X68501793Y-70317682D01*
X68544459Y-70373011D01*
X68550438Y-70442625D01*
X68517833Y-70504420D01*
X68501793Y-70518318D01*
X68337214Y-70637890D01*
X68337209Y-70637894D01*
X68186890Y-70788213D01*
X68061948Y-70960184D01*
X68061947Y-70960185D01*
X68041765Y-70999795D01*
X67993791Y-71050591D01*
X67931281Y-71067500D01*
X67904097Y-71067500D01*
X67837058Y-71047815D01*
X67816416Y-71031181D01*
X67692819Y-70907584D01*
X67659334Y-70846261D01*
X67656500Y-70819903D01*
X67656500Y-69518488D01*
X67676185Y-69451449D01*
X67728989Y-69405694D01*
X67798147Y-69395750D01*
X67861703Y-69424775D01*
G37*
%TD.AperFunction*%
%TA.AperFunction,NonConductor*%
G36*
X70958212Y-69407211D02*
G01*
X71009687Y-69454455D01*
X71027500Y-69518488D01*
X71027500Y-71317511D01*
X71007815Y-71384550D01*
X70955011Y-71430305D01*
X70885853Y-71440249D01*
X70822297Y-71411224D01*
X70785569Y-71355829D01*
X70783350Y-71348999D01*
X70718557Y-71149588D01*
X70622051Y-70960184D01*
X70622049Y-70960181D01*
X70622048Y-70960179D01*
X70497109Y-70788213D01*
X70346792Y-70637896D01*
X70310700Y-70611674D01*
X70182204Y-70518316D01*
X70139540Y-70462989D01*
X70133561Y-70393376D01*
X70166166Y-70331580D01*
X70182199Y-70317686D01*
X70346792Y-70198104D01*
X70497104Y-70047792D01*
X70497106Y-70047788D01*
X70497109Y-70047786D01*
X70606086Y-69897789D01*
X70622051Y-69875816D01*
X70718557Y-69686412D01*
X70784246Y-69484243D01*
X70784246Y-69484240D01*
X70785569Y-69480170D01*
X70825007Y-69422494D01*
X70889365Y-69395296D01*
X70958212Y-69407211D01*
G37*
%TD.AperFunction*%
%TA.AperFunction,NonConductor*%
G36*
X70958212Y-71907211D02*
G01*
X71009687Y-71954455D01*
X71027500Y-72018488D01*
X71027500Y-73359903D01*
X71007815Y-73426942D01*
X70991181Y-73447584D01*
X70907584Y-73531181D01*
X70846261Y-73564666D01*
X70819903Y-73567500D01*
X70752719Y-73567500D01*
X70685680Y-73547815D01*
X70642235Y-73499795D01*
X70622052Y-73460185D01*
X70622051Y-73460184D01*
X70497109Y-73288213D01*
X70346792Y-73137896D01*
X70182204Y-73018316D01*
X70139540Y-72962989D01*
X70133561Y-72893376D01*
X70166166Y-72831580D01*
X70182199Y-72817686D01*
X70346792Y-72698104D01*
X70497104Y-72547792D01*
X70497106Y-72547788D01*
X70497109Y-72547786D01*
X70622048Y-72375820D01*
X70622047Y-72375820D01*
X70622051Y-72375816D01*
X70718557Y-72186412D01*
X70784246Y-71984243D01*
X70784246Y-71984240D01*
X70785569Y-71980170D01*
X70825007Y-71922494D01*
X70889365Y-71895296D01*
X70958212Y-71907211D01*
G37*
%TD.AperFunction*%
%TA.AperFunction,NonConductor*%
G36*
X46189437Y-79868185D02*
G01*
X46232883Y-79916205D01*
X46239715Y-79929614D01*
X46360028Y-80095213D01*
X46504786Y-80239971D01*
X46639740Y-80338019D01*
X46670390Y-80360287D01*
X46735843Y-80393637D01*
X46763080Y-80407515D01*
X46813876Y-80455490D01*
X46830671Y-80523311D01*
X46808134Y-80589446D01*
X46763080Y-80628485D01*
X46670386Y-80675715D01*
X46504786Y-80796028D01*
X46360032Y-80940782D01*
X46283773Y-81045744D01*
X46228443Y-81088409D01*
X46158829Y-81094388D01*
X46097034Y-81061782D01*
X46095774Y-81060539D01*
X45445590Y-80410355D01*
X45445588Y-80410352D01*
X45326717Y-80291481D01*
X45326716Y-80291480D01*
X45237490Y-80239966D01*
X45237489Y-80239965D01*
X45189783Y-80212422D01*
X45121034Y-80194001D01*
X45037057Y-80171499D01*
X44878943Y-80171499D01*
X44871347Y-80171499D01*
X44871331Y-80171500D01*
X44572487Y-80171500D01*
X44505448Y-80151815D01*
X44459693Y-80099011D01*
X44449749Y-80029853D01*
X44474810Y-79973206D01*
X44474132Y-79972747D01*
X44476677Y-79968986D01*
X44476872Y-79968546D01*
X44477434Y-79967863D01*
X44477443Y-79967855D01*
X44521339Y-79902997D01*
X44575217Y-79858512D01*
X44624030Y-79848500D01*
X46122398Y-79848500D01*
X46189437Y-79868185D01*
G37*
%TD.AperFunction*%
%TA.AperFunction,NonConductor*%
G36*
X58654209Y-79868185D02*
G01*
X58689860Y-79902997D01*
X58733757Y-79967855D01*
X58733759Y-79967857D01*
X58733760Y-79967858D01*
X58885742Y-80119840D01*
X58885751Y-80119848D01*
X58979799Y-80183500D01*
X59025995Y-80214767D01*
X59070481Y-80268644D01*
X59078776Y-80338019D01*
X59048248Y-80400866D01*
X58995498Y-80435163D01*
X58865666Y-80478186D01*
X58865663Y-80478187D01*
X58716342Y-80570289D01*
X58592289Y-80694342D01*
X58500187Y-80843663D01*
X58500185Y-80843668D01*
X58445001Y-81010204D01*
X58445000Y-81010205D01*
X58438268Y-81076103D01*
X58411871Y-81140795D01*
X58354690Y-81180946D01*
X58314910Y-81187500D01*
X57001602Y-81187500D01*
X56934563Y-81167815D01*
X56891117Y-81119795D01*
X56884284Y-81106385D01*
X56763971Y-80940786D01*
X56619213Y-80796028D01*
X56453614Y-80675715D01*
X56396902Y-80646819D01*
X56360917Y-80628483D01*
X56310123Y-80580511D01*
X56293328Y-80512690D01*
X56315865Y-80446555D01*
X56360917Y-80407516D01*
X56453610Y-80360287D01*
X56502271Y-80324933D01*
X56619213Y-80239971D01*
X56619215Y-80239968D01*
X56619219Y-80239966D01*
X56763966Y-80095219D01*
X56763968Y-80095215D01*
X56763971Y-80095213D01*
X56884284Y-79929614D01*
X56884285Y-79929613D01*
X56884287Y-79929610D01*
X56891117Y-79916204D01*
X56939091Y-79865409D01*
X57001602Y-79848500D01*
X58587170Y-79848500D01*
X58654209Y-79868185D01*
G37*
%TD.AperFunction*%
%TA.AperFunction,NonConductor*%
G36*
X61278833Y-82166915D02*
G01*
X61334767Y-82208786D01*
X61359184Y-82274250D01*
X61359500Y-82283096D01*
X61359500Y-82463000D01*
X61359501Y-82463019D01*
X61370000Y-82565796D01*
X61370001Y-82565799D01*
X61425185Y-82732331D01*
X61425189Y-82732340D01*
X61452368Y-82776404D01*
X61470808Y-82843796D01*
X61449885Y-82910460D01*
X61396243Y-82955229D01*
X61346829Y-82965500D01*
X60573171Y-82965500D01*
X60506132Y-82945815D01*
X60460377Y-82893011D01*
X60450433Y-82823853D01*
X60467632Y-82776404D01*
X60494810Y-82732340D01*
X60494814Y-82732334D01*
X60549999Y-82565797D01*
X60556731Y-82499898D01*
X60583127Y-82435207D01*
X60640307Y-82395056D01*
X60680089Y-82388501D01*
X60785054Y-82388501D01*
X60785057Y-82388501D01*
X60937785Y-82347577D01*
X61000897Y-82311139D01*
X61074716Y-82268520D01*
X61147822Y-82195413D01*
X61209141Y-82161931D01*
X61278833Y-82166915D01*
G37*
%TD.AperFunction*%
%TA.AperFunction,NonConductor*%
G36*
X58381950Y-82408185D02*
G01*
X58427705Y-82460989D01*
X58438269Y-82499898D01*
X58445001Y-82565797D01*
X58445001Y-82565799D01*
X58500185Y-82732331D01*
X58500187Y-82732336D01*
X58515957Y-82757903D01*
X58592288Y-82881656D01*
X58716344Y-83005712D01*
X58865666Y-83097814D01*
X59032203Y-83152999D01*
X59134991Y-83163500D01*
X59451903Y-83163499D01*
X59518941Y-83183183D01*
X59564696Y-83235987D01*
X59574640Y-83305146D01*
X59545615Y-83368701D01*
X59539583Y-83375180D01*
X59321286Y-83593478D01*
X59209481Y-83705282D01*
X59209479Y-83705285D01*
X59185979Y-83745989D01*
X59163516Y-83784898D01*
X59159361Y-83792094D01*
X59159359Y-83792096D01*
X59130425Y-83842209D01*
X59130424Y-83842210D01*
X59089498Y-83994945D01*
X59088438Y-84003003D01*
X59085884Y-84002666D01*
X59069814Y-84057396D01*
X59017010Y-84103151D01*
X58978101Y-84113715D01*
X58887202Y-84123001D01*
X58887200Y-84123001D01*
X58720668Y-84178185D01*
X58720663Y-84178187D01*
X58571342Y-84270289D01*
X58447288Y-84394343D01*
X58447285Y-84394347D01*
X58383995Y-84496956D01*
X58332047Y-84543681D01*
X58263084Y-84554902D01*
X58199003Y-84527059D01*
X58190776Y-84519540D01*
X57637590Y-83966355D01*
X57637588Y-83966352D01*
X57518717Y-83847481D01*
X57518716Y-83847480D01*
X57431904Y-83797360D01*
X57431904Y-83797359D01*
X57431900Y-83797358D01*
X57381785Y-83768423D01*
X57229057Y-83727499D01*
X57070943Y-83727499D01*
X57063347Y-83727499D01*
X57063331Y-83727500D01*
X57001602Y-83727500D01*
X56934563Y-83707815D01*
X56891117Y-83659795D01*
X56884284Y-83646385D01*
X56763971Y-83480786D01*
X56619213Y-83336028D01*
X56453614Y-83215715D01*
X56447006Y-83212348D01*
X56360917Y-83168483D01*
X56310123Y-83120511D01*
X56293328Y-83052690D01*
X56315865Y-82986555D01*
X56360917Y-82947516D01*
X56453610Y-82900287D01*
X56479254Y-82881656D01*
X56619213Y-82779971D01*
X56619215Y-82779968D01*
X56619219Y-82779966D01*
X56763966Y-82635219D01*
X56763968Y-82635215D01*
X56763971Y-82635213D01*
X56884284Y-82469614D01*
X56884285Y-82469613D01*
X56884287Y-82469610D01*
X56891117Y-82456204D01*
X56939091Y-82405409D01*
X57001602Y-82388500D01*
X58314911Y-82388500D01*
X58381950Y-82408185D01*
G37*
%TD.AperFunction*%
%TA.AperFunction,NonConductor*%
G36*
X44702310Y-83871292D02*
G01*
X44734634Y-83894569D01*
X45532439Y-84692374D01*
X45532449Y-84692385D01*
X45536779Y-84696715D01*
X45536780Y-84696716D01*
X45648584Y-84808520D01*
X45715784Y-84847317D01*
X45735395Y-84858639D01*
X45735397Y-84858641D01*
X45773451Y-84880611D01*
X45785515Y-84887577D01*
X45938243Y-84928501D01*
X45938246Y-84928501D01*
X46103953Y-84928501D01*
X46103969Y-84928500D01*
X46122398Y-84928500D01*
X46189437Y-84948185D01*
X46232883Y-84996205D01*
X46239715Y-85009614D01*
X46360028Y-85175213D01*
X46504786Y-85319971D01*
X46608851Y-85395577D01*
X46670390Y-85440287D01*
X46734238Y-85472819D01*
X46763080Y-85487515D01*
X46813876Y-85535490D01*
X46830671Y-85603311D01*
X46808134Y-85669446D01*
X46763080Y-85708485D01*
X46670386Y-85755715D01*
X46504786Y-85876028D01*
X46360032Y-86020782D01*
X46283773Y-86125744D01*
X46228443Y-86168409D01*
X46158829Y-86174388D01*
X46097034Y-86141782D01*
X46095774Y-86140539D01*
X44429590Y-84474355D01*
X44429588Y-84474352D01*
X44363283Y-84408047D01*
X44329798Y-84346724D01*
X44334782Y-84277032D01*
X44363283Y-84232685D01*
X44380153Y-84215815D01*
X44404312Y-84191656D01*
X44496414Y-84042334D01*
X44529249Y-83943243D01*
X44569019Y-83885802D01*
X44633534Y-83858978D01*
X44702310Y-83871292D01*
G37*
%TD.AperFunction*%
%TA.AperFunction,NonConductor*%
G36*
X56740475Y-87861470D02*
G01*
X56789170Y-87911576D01*
X56803500Y-87969442D01*
X56803500Y-88306557D01*
X56783815Y-88373596D01*
X56731011Y-88419351D01*
X56661853Y-88429295D01*
X56606615Y-88406876D01*
X56453609Y-88295712D01*
X56407546Y-88272242D01*
X56360917Y-88248483D01*
X56310123Y-88200511D01*
X56293328Y-88132690D01*
X56315865Y-88066555D01*
X56360917Y-88027516D01*
X56453610Y-87980287D01*
X56480307Y-87960891D01*
X56606615Y-87869124D01*
X56672421Y-87845644D01*
X56740475Y-87861470D01*
G37*
%TD.AperFunction*%
%TA.AperFunction,NonConductor*%
G36*
X57229944Y-92568185D02*
G01*
X57275699Y-92620989D01*
X57285643Y-92690147D01*
X57267899Y-92738472D01*
X57186211Y-92868476D01*
X57126631Y-93038745D01*
X57126630Y-93038750D01*
X57106435Y-93217996D01*
X57106435Y-93218003D01*
X57126630Y-93397249D01*
X57126631Y-93397254D01*
X57186211Y-93567523D01*
X57267899Y-93697528D01*
X57286899Y-93764765D01*
X57266531Y-93831600D01*
X57213263Y-93876814D01*
X57162905Y-93887500D01*
X57001602Y-93887500D01*
X56934563Y-93867815D01*
X56891117Y-93819795D01*
X56884284Y-93806385D01*
X56763971Y-93640786D01*
X56619213Y-93496028D01*
X56453614Y-93375715D01*
X56386459Y-93341498D01*
X56360917Y-93328483D01*
X56310123Y-93280511D01*
X56293328Y-93212690D01*
X56315865Y-93146555D01*
X56360917Y-93107516D01*
X56453610Y-93060287D01*
X56483260Y-93038745D01*
X56619213Y-92939971D01*
X56619215Y-92939968D01*
X56619219Y-92939966D01*
X56763966Y-92795219D01*
X56763968Y-92795215D01*
X56763971Y-92795213D01*
X56884284Y-92629614D01*
X56884285Y-92629613D01*
X56884287Y-92629610D01*
X56891117Y-92616204D01*
X56939091Y-92565409D01*
X57001602Y-92548500D01*
X57162905Y-92548500D01*
X57229944Y-92568185D01*
G37*
%TD.AperFunction*%
%TA.AperFunction,NonConductor*%
G36*
X63746627Y-93853185D02*
G01*
X63756903Y-93860555D01*
X63759736Y-93862814D01*
X63759738Y-93862816D01*
X63866465Y-93929877D01*
X63910878Y-93957784D01*
X63912478Y-93958789D01*
X64061108Y-94010797D01*
X64082745Y-94018368D01*
X64082750Y-94018369D01*
X64261996Y-94038565D01*
X64262000Y-94038565D01*
X64262004Y-94038565D01*
X64441249Y-94018369D01*
X64441252Y-94018368D01*
X64441255Y-94018368D01*
X64611522Y-93958789D01*
X64764262Y-93862816D01*
X64764267Y-93862810D01*
X64767097Y-93860555D01*
X64769275Y-93859665D01*
X64770158Y-93859111D01*
X64770255Y-93859265D01*
X64831783Y-93834145D01*
X64844412Y-93833500D01*
X65274511Y-93833500D01*
X65341550Y-93853185D01*
X65387305Y-93905989D01*
X65397869Y-93944898D01*
X65404601Y-94010797D01*
X65404601Y-94010799D01*
X65459785Y-94177331D01*
X65459787Y-94177336D01*
X65479997Y-94210102D01*
X65551888Y-94326656D01*
X65675944Y-94450712D01*
X65825266Y-94542814D01*
X65971570Y-94591294D01*
X66029013Y-94631065D01*
X66055836Y-94695581D01*
X66043521Y-94764357D01*
X65995978Y-94815557D01*
X65971569Y-94826705D01*
X65825266Y-94875186D01*
X65825263Y-94875187D01*
X65675942Y-94967289D01*
X65551889Y-95091342D01*
X65459787Y-95240663D01*
X65459785Y-95240668D01*
X65404601Y-95407204D01*
X65404600Y-95407205D01*
X65397868Y-95473103D01*
X65371471Y-95537795D01*
X65314290Y-95577946D01*
X65274510Y-95584500D01*
X63297698Y-95584500D01*
X63230659Y-95564815D01*
X63210017Y-95548181D01*
X62835919Y-95174083D01*
X62802434Y-95112760D01*
X62799600Y-95086402D01*
X62799600Y-95077932D01*
X62819285Y-95010893D01*
X62872089Y-94965138D01*
X62888993Y-94958859D01*
X62971998Y-94934744D01*
X63113465Y-94851081D01*
X63229681Y-94734865D01*
X63313344Y-94593398D01*
X63359198Y-94435569D01*
X63362100Y-94398694D01*
X63362100Y-93967306D01*
X63362097Y-93967272D01*
X63362094Y-93967222D01*
X63362096Y-93967212D01*
X63362004Y-93964868D01*
X63362593Y-93964844D01*
X63376462Y-93898845D01*
X63425516Y-93849091D01*
X63485712Y-93833500D01*
X63679588Y-93833500D01*
X63746627Y-93853185D01*
G37*
%TD.AperFunction*%
%TA.AperFunction,NonConductor*%
G36*
X46189437Y-97648185D02*
G01*
X46232883Y-97696205D01*
X46239715Y-97709614D01*
X46360028Y-97875213D01*
X46504786Y-98019971D01*
X46621729Y-98104933D01*
X46670390Y-98140287D01*
X46761840Y-98186883D01*
X46763080Y-98187515D01*
X46813876Y-98235490D01*
X46830671Y-98303311D01*
X46808134Y-98369446D01*
X46763080Y-98408485D01*
X46670386Y-98455715D01*
X46504786Y-98576028D01*
X46360028Y-98720786D01*
X46239715Y-98886385D01*
X46232883Y-98899795D01*
X46184909Y-98950591D01*
X46122398Y-98967500D01*
X44624030Y-98967500D01*
X44556991Y-98947815D01*
X44521339Y-98913002D01*
X44512400Y-98899795D01*
X44477443Y-98848145D01*
X44325455Y-98696157D01*
X44325453Y-98696156D01*
X44325448Y-98696151D01*
X44208782Y-98617191D01*
X44164296Y-98563313D01*
X44156001Y-98493938D01*
X44186529Y-98431091D01*
X44246190Y-98394725D01*
X44278284Y-98390500D01*
X44617331Y-98390500D01*
X44617347Y-98390501D01*
X44624943Y-98390501D01*
X44783054Y-98390501D01*
X44783057Y-98390501D01*
X44935785Y-98349577D01*
X44985904Y-98320639D01*
X45072716Y-98270520D01*
X45184520Y-98158716D01*
X45184521Y-98158713D01*
X45678418Y-97664816D01*
X45739740Y-97631334D01*
X45766098Y-97628500D01*
X46122398Y-97628500D01*
X46189437Y-97648185D01*
G37*
%TD.AperFunction*%
%TA.AperFunction,NonConductor*%
G36*
X67998320Y-55056185D02*
G01*
X68041765Y-55104205D01*
X68061947Y-55143814D01*
X68061948Y-55143815D01*
X68186890Y-55315786D01*
X68337209Y-55466105D01*
X68337214Y-55466109D01*
X68501793Y-55585682D01*
X68544459Y-55641011D01*
X68550438Y-55710625D01*
X68517833Y-55772420D01*
X68501793Y-55786318D01*
X68337214Y-55905890D01*
X68337209Y-55905894D01*
X68186890Y-56056213D01*
X68061948Y-56228184D01*
X68061947Y-56228185D01*
X68041765Y-56267795D01*
X67993791Y-56318591D01*
X67931281Y-56335500D01*
X67610669Y-56335500D01*
X67610653Y-56335499D01*
X67603057Y-56335499D01*
X67444943Y-56335499D01*
X67337587Y-56364265D01*
X67292210Y-56376424D01*
X67292209Y-56376425D01*
X67242096Y-56405359D01*
X67242095Y-56405360D01*
X67207211Y-56425500D01*
X67155285Y-56455479D01*
X67155282Y-56455481D01*
X66575481Y-57035282D01*
X66575479Y-57035285D01*
X66525361Y-57122094D01*
X66525359Y-57122096D01*
X66496425Y-57172209D01*
X66496424Y-57172210D01*
X66496423Y-57172215D01*
X66455499Y-57324943D01*
X66455499Y-57324945D01*
X66455499Y-57493046D01*
X66455500Y-57493059D01*
X66455500Y-70386903D01*
X66435815Y-70453942D01*
X66383011Y-70499697D01*
X66313853Y-70509641D01*
X66250297Y-70480616D01*
X66243819Y-70474584D01*
X64495590Y-68726355D01*
X64495588Y-68726352D01*
X64376717Y-68607481D01*
X64376709Y-68607475D01*
X64270494Y-68546152D01*
X64270494Y-68546153D01*
X64239783Y-68528422D01*
X64183881Y-68513443D01*
X64087057Y-68487499D01*
X63928943Y-68487499D01*
X63921347Y-68487499D01*
X63921331Y-68487500D01*
X57001602Y-68487500D01*
X56934563Y-68467815D01*
X56891117Y-68419795D01*
X56884287Y-68406390D01*
X56884285Y-68406387D01*
X56884284Y-68406385D01*
X56763971Y-68240786D01*
X56619213Y-68096028D01*
X56453613Y-67975715D01*
X56453612Y-67975714D01*
X56453610Y-67975713D01*
X56396131Y-67946426D01*
X56271223Y-67882781D01*
X56076534Y-67819522D01*
X55901995Y-67791878D01*
X55874352Y-67787500D01*
X54869648Y-67787500D01*
X54845329Y-67791351D01*
X54667465Y-67819522D01*
X54472776Y-67882781D01*
X54290386Y-67975715D01*
X54124786Y-68096028D01*
X53980028Y-68240786D01*
X53859715Y-68406386D01*
X53766781Y-68588776D01*
X53703522Y-68783465D01*
X53671500Y-68985648D01*
X53671500Y-69190351D01*
X53703522Y-69392534D01*
X53766781Y-69587223D01*
X53817321Y-69686412D01*
X53855320Y-69760989D01*
X53859715Y-69769613D01*
X53980028Y-69935213D01*
X54124786Y-70079971D01*
X54262058Y-70179703D01*
X54290390Y-70200287D01*
X54379212Y-70245544D01*
X54383080Y-70247515D01*
X54433876Y-70295490D01*
X54450671Y-70363311D01*
X54428134Y-70429446D01*
X54383080Y-70468485D01*
X54290386Y-70515715D01*
X54124786Y-70636028D01*
X53980028Y-70780786D01*
X53859715Y-70946386D01*
X53766781Y-71128776D01*
X53703522Y-71323465D01*
X53671500Y-71525648D01*
X53671500Y-71730351D01*
X53703522Y-71932534D01*
X53766781Y-72127223D01*
X53810393Y-72212815D01*
X53846153Y-72282998D01*
X53859715Y-72309613D01*
X53980028Y-72475213D01*
X54124786Y-72619971D01*
X54241729Y-72704933D01*
X54290390Y-72740287D01*
X54381840Y-72786883D01*
X54383080Y-72787515D01*
X54433876Y-72835490D01*
X54450671Y-72903311D01*
X54428134Y-72969446D01*
X54383080Y-73008485D01*
X54290386Y-73055715D01*
X54124786Y-73176028D01*
X53980028Y-73320786D01*
X53859715Y-73486386D01*
X53766781Y-73668776D01*
X53703522Y-73863465D01*
X53671500Y-74065648D01*
X53671500Y-74270351D01*
X53703522Y-74472534D01*
X53766781Y-74667223D01*
X53818385Y-74768500D01*
X53846153Y-74822998D01*
X53859715Y-74849613D01*
X53980028Y-75015213D01*
X54124786Y-75159971D01*
X54241729Y-75244933D01*
X54290390Y-75280287D01*
X54374313Y-75323048D01*
X54383080Y-75327515D01*
X54433876Y-75375490D01*
X54450671Y-75443311D01*
X54428134Y-75509446D01*
X54383080Y-75548485D01*
X54290386Y-75595715D01*
X54124786Y-75716028D01*
X53980028Y-75860786D01*
X53859715Y-76026386D01*
X53766781Y-76208776D01*
X53703522Y-76403465D01*
X53671500Y-76605648D01*
X53671500Y-76810351D01*
X53703522Y-77012534D01*
X53766781Y-77207223D01*
X53818385Y-77308500D01*
X53849565Y-77369694D01*
X53859715Y-77389613D01*
X53980028Y-77555213D01*
X54124786Y-77699971D01*
X54241729Y-77784933D01*
X54290390Y-77820287D01*
X54381840Y-77866883D01*
X54383080Y-77867515D01*
X54433876Y-77915490D01*
X54450671Y-77983311D01*
X54428134Y-78049446D01*
X54383080Y-78088485D01*
X54290386Y-78135715D01*
X54124786Y-78256028D01*
X53980028Y-78400786D01*
X53859715Y-78566386D01*
X53766781Y-78748776D01*
X53703522Y-78943465D01*
X53671500Y-79145648D01*
X53671500Y-79350351D01*
X53703522Y-79552534D01*
X53766781Y-79747223D01*
X53788519Y-79789885D01*
X53846153Y-79902998D01*
X53859715Y-79929613D01*
X53980028Y-80095213D01*
X54124786Y-80239971D01*
X54259740Y-80338019D01*
X54290390Y-80360287D01*
X54355843Y-80393637D01*
X54383080Y-80407515D01*
X54433876Y-80455490D01*
X54450671Y-80523311D01*
X54428134Y-80589446D01*
X54383080Y-80628485D01*
X54290386Y-80675715D01*
X54124786Y-80796028D01*
X53980028Y-80940786D01*
X53859715Y-81106386D01*
X53766781Y-81288776D01*
X53703522Y-81483465D01*
X53671500Y-81685648D01*
X53671500Y-81890351D01*
X53703522Y-82092534D01*
X53766781Y-82287223D01*
X53810741Y-82373498D01*
X53859303Y-82468806D01*
X53859715Y-82469613D01*
X53980028Y-82635213D01*
X54124786Y-82779971D01*
X54279749Y-82892556D01*
X54290390Y-82900287D01*
X54374392Y-82943088D01*
X54383080Y-82947515D01*
X54433876Y-82995490D01*
X54450671Y-83063311D01*
X54428134Y-83129446D01*
X54383080Y-83168485D01*
X54290386Y-83215715D01*
X54124786Y-83336028D01*
X53980028Y-83480786D01*
X53859715Y-83646386D01*
X53766781Y-83828776D01*
X53703522Y-84023465D01*
X53679017Y-84178186D01*
X53671500Y-84225648D01*
X53671500Y-84430352D01*
X53675878Y-84457995D01*
X53703522Y-84632534D01*
X53766781Y-84827223D01*
X53859715Y-85009613D01*
X53980028Y-85175213D01*
X54124786Y-85319971D01*
X54228851Y-85395577D01*
X54290390Y-85440287D01*
X54354238Y-85472819D01*
X54383080Y-85487515D01*
X54433876Y-85535490D01*
X54450671Y-85603311D01*
X54428134Y-85669446D01*
X54383080Y-85708485D01*
X54290386Y-85755715D01*
X54124786Y-85876028D01*
X53980028Y-86020786D01*
X53859715Y-86186386D01*
X53766781Y-86368776D01*
X53703522Y-86563465D01*
X53671500Y-86765648D01*
X53671500Y-86970351D01*
X53703522Y-87172534D01*
X53766781Y-87367223D01*
X53859715Y-87549613D01*
X53980028Y-87715213D01*
X54124786Y-87859971D01*
X54263693Y-87960891D01*
X54290390Y-87980287D01*
X54378174Y-88025015D01*
X54383080Y-88027515D01*
X54433876Y-88075490D01*
X54450671Y-88143311D01*
X54428134Y-88209446D01*
X54383080Y-88248485D01*
X54290386Y-88295715D01*
X54124786Y-88416028D01*
X53980028Y-88560786D01*
X53859715Y-88726386D01*
X53766781Y-88908776D01*
X53703522Y-89103465D01*
X53681792Y-89240666D01*
X53671500Y-89305648D01*
X53671500Y-89510352D01*
X53675847Y-89537795D01*
X53703522Y-89712534D01*
X53766781Y-89907223D01*
X53859715Y-90089613D01*
X53980028Y-90255213D01*
X54124786Y-90399971D01*
X54279749Y-90512556D01*
X54290390Y-90520287D01*
X54381840Y-90566883D01*
X54383080Y-90567515D01*
X54433876Y-90615490D01*
X54450671Y-90683311D01*
X54428134Y-90749446D01*
X54383080Y-90788485D01*
X54290386Y-90835715D01*
X54124786Y-90956028D01*
X53980028Y-91100786D01*
X53859715Y-91266386D01*
X53766781Y-91448776D01*
X53703522Y-91643465D01*
X53671500Y-91845648D01*
X53671500Y-92050351D01*
X53703522Y-92252534D01*
X53766781Y-92447223D01*
X53818385Y-92548500D01*
X53857846Y-92625946D01*
X53859715Y-92629613D01*
X53980028Y-92795213D01*
X54124786Y-92939971D01*
X54279749Y-93052556D01*
X54290390Y-93060287D01*
X54381840Y-93106883D01*
X54383080Y-93107515D01*
X54433876Y-93155490D01*
X54450671Y-93223311D01*
X54428134Y-93289446D01*
X54383080Y-93328485D01*
X54290386Y-93375715D01*
X54124786Y-93496028D01*
X53980028Y-93640786D01*
X53859715Y-93806386D01*
X53766781Y-93988776D01*
X53703522Y-94183465D01*
X53672667Y-94378277D01*
X53671500Y-94385648D01*
X53671500Y-94590352D01*
X53672365Y-94595815D01*
X53703522Y-94792534D01*
X53766781Y-94987223D01*
X53859715Y-95169613D01*
X53980028Y-95335213D01*
X54124786Y-95479971D01*
X54259640Y-95577946D01*
X54290390Y-95600287D01*
X54381840Y-95646883D01*
X54383080Y-95647515D01*
X54433876Y-95695490D01*
X54450671Y-95763311D01*
X54428134Y-95829446D01*
X54383080Y-95868485D01*
X54290386Y-95915715D01*
X54124786Y-96036028D01*
X53980028Y-96180786D01*
X53859715Y-96346386D01*
X53766781Y-96528776D01*
X53703522Y-96723465D01*
X53671500Y-96925648D01*
X53671500Y-97130351D01*
X53703522Y-97332534D01*
X53766781Y-97527223D01*
X53818385Y-97628500D01*
X53846153Y-97682998D01*
X53859715Y-97709613D01*
X53980028Y-97875213D01*
X54124786Y-98019971D01*
X54241729Y-98104933D01*
X54290390Y-98140287D01*
X54381840Y-98186883D01*
X54383080Y-98187515D01*
X54433876Y-98235490D01*
X54450671Y-98303311D01*
X54428134Y-98369446D01*
X54383080Y-98408485D01*
X54290386Y-98455715D01*
X54124786Y-98576028D01*
X53980028Y-98720786D01*
X53859715Y-98886386D01*
X53766781Y-99068776D01*
X53703522Y-99263465D01*
X53671500Y-99465648D01*
X53671500Y-99670351D01*
X53703522Y-99872534D01*
X53766781Y-100067223D01*
X53818385Y-100168500D01*
X53846153Y-100222998D01*
X53859715Y-100249613D01*
X53980028Y-100415213D01*
X54124786Y-100559971D01*
X54241729Y-100644933D01*
X54290390Y-100680287D01*
X54381840Y-100726883D01*
X54383080Y-100727515D01*
X54433876Y-100775490D01*
X54450671Y-100843311D01*
X54428134Y-100909446D01*
X54383080Y-100948485D01*
X54290386Y-100995715D01*
X54124786Y-101116028D01*
X53980028Y-101260786D01*
X53859715Y-101426385D01*
X53852883Y-101439795D01*
X53804909Y-101490591D01*
X53742398Y-101507500D01*
X53386098Y-101507500D01*
X53319059Y-101487815D01*
X53298417Y-101471181D01*
X52960819Y-101133583D01*
X52927334Y-101072260D01*
X52924500Y-101045902D01*
X52924500Y-67356096D01*
X52944185Y-67289057D01*
X52960814Y-67268419D01*
X53863887Y-66365346D01*
X53925210Y-66331862D01*
X53994902Y-66336846D01*
X54050835Y-66378718D01*
X54074788Y-66439144D01*
X54078630Y-66473250D01*
X54078631Y-66473254D01*
X54138211Y-66643523D01*
X54195490Y-66734681D01*
X54234184Y-66796262D01*
X54361738Y-66923816D01*
X54424893Y-66963499D01*
X54490021Y-67004422D01*
X54514478Y-67019789D01*
X54684745Y-67079368D01*
X54684750Y-67079369D01*
X54863996Y-67099565D01*
X54864000Y-67099565D01*
X54864004Y-67099565D01*
X55043249Y-67079369D01*
X55043252Y-67079368D01*
X55043255Y-67079368D01*
X55213522Y-67019789D01*
X55366262Y-66923816D01*
X55366267Y-66923810D01*
X55369097Y-66921555D01*
X55371275Y-66920665D01*
X55372158Y-66920111D01*
X55372255Y-66920265D01*
X55433783Y-66895145D01*
X55446412Y-66894500D01*
X64441588Y-66894500D01*
X64508627Y-66914185D01*
X64518903Y-66921555D01*
X64521736Y-66923814D01*
X64521738Y-66923816D01*
X64584895Y-66963500D01*
X64650021Y-67004422D01*
X64674478Y-67019789D01*
X64844745Y-67079368D01*
X64844750Y-67079369D01*
X65023996Y-67099565D01*
X65024000Y-67099565D01*
X65024004Y-67099565D01*
X65203249Y-67079369D01*
X65203252Y-67079368D01*
X65203255Y-67079368D01*
X65373522Y-67019789D01*
X65526262Y-66923816D01*
X65653816Y-66796262D01*
X65749789Y-66643522D01*
X65809368Y-66473255D01*
X65810153Y-66466288D01*
X65829565Y-66294003D01*
X65829565Y-66293996D01*
X65809369Y-66114750D01*
X65809368Y-66114745D01*
X65792829Y-66067480D01*
X65749789Y-65944478D01*
X65743798Y-65934944D01*
X65677671Y-65829703D01*
X65653816Y-65791738D01*
X65653814Y-65791736D01*
X65653813Y-65791734D01*
X65651550Y-65788896D01*
X65650659Y-65786715D01*
X65650111Y-65785842D01*
X65650264Y-65785745D01*
X65625144Y-65724209D01*
X65624500Y-65711587D01*
X65624500Y-57196097D01*
X65644185Y-57129058D01*
X65660819Y-57108416D01*
X67696416Y-55072819D01*
X67757739Y-55039334D01*
X67784097Y-55036500D01*
X67931281Y-55036500D01*
X67998320Y-55056185D01*
G37*
%TD.AperFunction*%
%TA.AperFunction,NonConductor*%
G36*
X41497941Y-65644185D02*
G01*
X41543696Y-65696989D01*
X41553640Y-65766147D01*
X41524615Y-65829703D01*
X41518583Y-65836181D01*
X40620084Y-66734681D01*
X40558761Y-66768166D01*
X40532403Y-66771000D01*
X40006348Y-66771000D01*
X39939309Y-66751315D01*
X39900809Y-66712097D01*
X39825712Y-66590344D01*
X39701656Y-66466288D01*
X39576893Y-66389334D01*
X39552336Y-66374187D01*
X39552331Y-66374185D01*
X39537960Y-66369423D01*
X39385797Y-66319001D01*
X39385795Y-66319000D01*
X39283010Y-66308500D01*
X37932998Y-66308500D01*
X37932981Y-66308501D01*
X37830203Y-66319000D01*
X37830200Y-66319001D01*
X37663668Y-66374185D01*
X37663663Y-66374187D01*
X37514342Y-66466289D01*
X37390289Y-66590342D01*
X37362845Y-66634835D01*
X37332390Y-66684213D01*
X37315191Y-66712097D01*
X37263243Y-66758821D01*
X37209652Y-66771000D01*
X37191598Y-66771000D01*
X37124559Y-66751315D01*
X37103917Y-66734681D01*
X36817717Y-66448481D01*
X36817709Y-66448475D01*
X36694143Y-66377135D01*
X36694140Y-66377134D01*
X36694131Y-66377129D01*
X36680785Y-66369423D01*
X36528057Y-66328499D01*
X36369943Y-66328499D01*
X36362347Y-66328499D01*
X36362331Y-66328500D01*
X35824808Y-66328500D01*
X35757769Y-66308815D01*
X35737126Y-66292180D01*
X35705870Y-66260923D01*
X35705862Y-66260917D01*
X35564396Y-66177255D01*
X35564393Y-66177254D01*
X35406573Y-66131402D01*
X35406567Y-66131401D01*
X35369701Y-66128500D01*
X35369694Y-66128500D01*
X33588306Y-66128500D01*
X33588298Y-66128500D01*
X33551432Y-66131401D01*
X33551426Y-66131402D01*
X33393606Y-66177254D01*
X33393603Y-66177255D01*
X33252137Y-66260917D01*
X33252129Y-66260923D01*
X33135923Y-66377129D01*
X33135919Y-66377135D01*
X33052255Y-66518603D01*
X33052254Y-66518606D01*
X33006402Y-66676426D01*
X33006401Y-66676432D01*
X33003500Y-66713298D01*
X33003500Y-67144701D01*
X33006401Y-67181567D01*
X33006402Y-67181573D01*
X33052254Y-67339393D01*
X33052255Y-67339396D01*
X33135917Y-67480862D01*
X33140702Y-67487031D01*
X33138256Y-67488927D01*
X33164857Y-67537642D01*
X33159873Y-67607334D01*
X33139069Y-67639703D01*
X33140702Y-67640969D01*
X33135917Y-67647137D01*
X33052255Y-67788603D01*
X33052254Y-67788606D01*
X33006402Y-67946426D01*
X33006401Y-67946432D01*
X33003500Y-67983298D01*
X33003500Y-68414701D01*
X33006401Y-68451567D01*
X33006402Y-68451573D01*
X33052254Y-68609393D01*
X33052255Y-68609396D01*
X33135917Y-68750862D01*
X33140702Y-68757031D01*
X33138256Y-68758927D01*
X33164857Y-68807642D01*
X33159873Y-68877334D01*
X33139069Y-68909703D01*
X33140702Y-68910969D01*
X33135917Y-68917137D01*
X33052255Y-69058603D01*
X33052254Y-69058606D01*
X33006402Y-69216426D01*
X33006401Y-69216432D01*
X33003500Y-69253298D01*
X33003500Y-69684701D01*
X33006401Y-69721567D01*
X33006402Y-69721573D01*
X33052254Y-69879393D01*
X33052255Y-69879396D01*
X33052256Y-69879398D01*
X33085655Y-69935873D01*
X33135917Y-70020862D01*
X33140702Y-70027031D01*
X33138256Y-70028927D01*
X33164857Y-70077642D01*
X33159873Y-70147334D01*
X33139069Y-70179703D01*
X33140702Y-70180969D01*
X33135917Y-70187137D01*
X33052255Y-70328603D01*
X33052254Y-70328606D01*
X33006402Y-70486426D01*
X33006401Y-70486432D01*
X33003500Y-70523298D01*
X33003500Y-70954701D01*
X33006401Y-70991567D01*
X33006402Y-70991573D01*
X33052254Y-71149393D01*
X33052255Y-71149396D01*
X33052256Y-71149398D01*
X33083193Y-71201710D01*
X33135917Y-71290862D01*
X33135923Y-71290870D01*
X33252129Y-71407076D01*
X33252133Y-71407079D01*
X33252135Y-71407081D01*
X33393602Y-71490744D01*
X33435224Y-71502836D01*
X33551426Y-71536597D01*
X33551429Y-71536597D01*
X33551431Y-71536598D01*
X33588306Y-71539500D01*
X33754500Y-71539500D01*
X33821539Y-71559185D01*
X33867294Y-71611989D01*
X33878500Y-71663500D01*
X33878500Y-72250587D01*
X33858815Y-72317626D01*
X33851450Y-72327896D01*
X33849186Y-72330734D01*
X33753211Y-72483476D01*
X33693631Y-72653745D01*
X33693630Y-72653750D01*
X33673435Y-72832996D01*
X33673435Y-72833003D01*
X33693630Y-73012249D01*
X33693631Y-73012254D01*
X33753211Y-73182523D01*
X33840085Y-73320781D01*
X33849184Y-73335262D01*
X33976738Y-73462816D01*
X34129478Y-73558789D01*
X34146274Y-73564666D01*
X34299745Y-73618368D01*
X34299750Y-73618369D01*
X34478996Y-73638565D01*
X34479000Y-73638565D01*
X34479004Y-73638565D01*
X34658249Y-73618369D01*
X34658252Y-73618368D01*
X34658255Y-73618368D01*
X34828522Y-73558789D01*
X34981262Y-73462816D01*
X34981267Y-73462810D01*
X34984097Y-73460555D01*
X34986275Y-73459665D01*
X34987158Y-73459111D01*
X34987255Y-73459265D01*
X35048783Y-73434145D01*
X35061412Y-73433500D01*
X37316331Y-73433500D01*
X37316347Y-73433501D01*
X37323943Y-73433501D01*
X37482054Y-73433501D01*
X37482057Y-73433501D01*
X37634785Y-73392577D01*
X37684904Y-73363639D01*
X37771716Y-73313520D01*
X37883520Y-73201716D01*
X37883520Y-73201714D01*
X37893728Y-73191507D01*
X37893730Y-73191504D01*
X38966506Y-72118728D01*
X38966511Y-72118724D01*
X38976714Y-72108520D01*
X38976716Y-72108520D01*
X39088520Y-71996716D01*
X39167577Y-71859784D01*
X39208500Y-71707057D01*
X39208500Y-71479088D01*
X39228185Y-71412049D01*
X39280989Y-71366294D01*
X39319897Y-71355730D01*
X39385797Y-71348999D01*
X39552334Y-71293814D01*
X39701656Y-71201712D01*
X39825712Y-71077656D01*
X39917814Y-70928334D01*
X39972999Y-70761797D01*
X39983500Y-70659009D01*
X39983499Y-69933992D01*
X39972999Y-69831203D01*
X39917814Y-69664666D01*
X39825712Y-69515344D01*
X39701656Y-69391288D01*
X39552334Y-69299186D01*
X39385797Y-69244001D01*
X39385795Y-69244000D01*
X39283010Y-69233500D01*
X37932998Y-69233500D01*
X37932981Y-69233501D01*
X37830203Y-69244000D01*
X37830200Y-69244001D01*
X37663668Y-69299185D01*
X37663663Y-69299187D01*
X37514342Y-69391289D01*
X37390289Y-69515342D01*
X37298187Y-69664663D01*
X37298185Y-69664668D01*
X37279331Y-69721567D01*
X37243001Y-69831203D01*
X37243001Y-69831204D01*
X37243000Y-69831204D01*
X37232500Y-69933983D01*
X37232500Y-70659001D01*
X37232501Y-70659019D01*
X37243000Y-70761796D01*
X37243001Y-70761799D01*
X37279275Y-70871265D01*
X37298186Y-70928334D01*
X37390288Y-71077656D01*
X37514344Y-71201712D01*
X37663666Y-71293814D01*
X37795277Y-71337425D01*
X37852720Y-71377196D01*
X37879544Y-71441712D01*
X37867229Y-71510488D01*
X37843953Y-71542811D01*
X37190584Y-72196181D01*
X37129261Y-72229666D01*
X37102903Y-72232500D01*
X35203500Y-72232500D01*
X35136461Y-72212815D01*
X35090706Y-72160011D01*
X35079500Y-72108500D01*
X35079500Y-71663500D01*
X35099185Y-71596461D01*
X35151989Y-71550706D01*
X35203500Y-71539500D01*
X35369686Y-71539500D01*
X35369694Y-71539500D01*
X35406569Y-71536598D01*
X35406571Y-71536597D01*
X35406573Y-71536597D01*
X35496439Y-71510488D01*
X35564398Y-71490744D01*
X35705865Y-71407081D01*
X35822081Y-71290865D01*
X35905744Y-71149398D01*
X35951598Y-70991569D01*
X35954500Y-70954694D01*
X35954500Y-70523306D01*
X35951598Y-70486431D01*
X35948156Y-70474584D01*
X35914285Y-70358000D01*
X35905744Y-70328602D01*
X35822081Y-70187135D01*
X35822078Y-70187132D01*
X35817298Y-70180969D01*
X35819750Y-70179066D01*
X35793155Y-70130421D01*
X35798104Y-70060726D01*
X35818940Y-70028304D01*
X35817298Y-70027031D01*
X35822075Y-70020870D01*
X35822081Y-70020865D01*
X35905744Y-69879398D01*
X35951598Y-69721569D01*
X35954500Y-69684694D01*
X35954500Y-69253306D01*
X35951598Y-69216431D01*
X35944021Y-69190352D01*
X35905745Y-69058606D01*
X35905744Y-69058603D01*
X35905744Y-69058602D01*
X35822081Y-68917135D01*
X35822078Y-68917132D01*
X35817298Y-68910969D01*
X35819750Y-68909066D01*
X35793155Y-68860421D01*
X35798104Y-68790726D01*
X35818940Y-68758304D01*
X35817298Y-68757031D01*
X35822075Y-68750870D01*
X35822081Y-68750865D01*
X35905744Y-68609398D01*
X35951598Y-68451569D01*
X35954500Y-68414694D01*
X35954500Y-67983306D01*
X35951598Y-67946431D01*
X35947137Y-67931077D01*
X35907286Y-67793909D01*
X35905744Y-67788602D01*
X35875024Y-67736657D01*
X35863175Y-67716620D01*
X35845992Y-67648896D01*
X35868152Y-67582634D01*
X35922619Y-67538871D01*
X35969907Y-67529500D01*
X36148903Y-67529500D01*
X36215942Y-67549185D01*
X36236583Y-67565818D01*
X36522784Y-67852020D01*
X36522786Y-67852021D01*
X36522790Y-67852024D01*
X36658633Y-67930452D01*
X36659716Y-67931077D01*
X36812443Y-67972001D01*
X36812445Y-67972001D01*
X36978154Y-67972001D01*
X36978170Y-67972000D01*
X37209652Y-67972000D01*
X37276691Y-67991685D01*
X37315189Y-68030901D01*
X37390288Y-68152656D01*
X37514344Y-68276712D01*
X37663666Y-68368814D01*
X37830203Y-68423999D01*
X37932991Y-68434500D01*
X39283008Y-68434499D01*
X39385797Y-68423999D01*
X39552334Y-68368814D01*
X39701656Y-68276712D01*
X39825712Y-68152656D01*
X39900809Y-68030902D01*
X39952757Y-67984179D01*
X40006348Y-67972000D01*
X40745831Y-67972000D01*
X40745847Y-67972001D01*
X40753443Y-67972001D01*
X40911554Y-67972001D01*
X40911557Y-67972001D01*
X41064285Y-67931077D01*
X41114404Y-67902139D01*
X41201216Y-67852020D01*
X41313020Y-67740216D01*
X41313020Y-67740214D01*
X41323228Y-67730007D01*
X41323229Y-67730004D01*
X42630417Y-66422819D01*
X42691740Y-66389334D01*
X42718098Y-66386500D01*
X49229903Y-66386500D01*
X49296942Y-66406185D01*
X49317584Y-66422819D01*
X50163181Y-67268416D01*
X50196666Y-67329739D01*
X50199500Y-67356097D01*
X50199500Y-93425902D01*
X50179815Y-93492941D01*
X50163181Y-93513583D01*
X49825584Y-93851181D01*
X49764261Y-93884666D01*
X49737903Y-93887500D01*
X49381602Y-93887500D01*
X49314563Y-93867815D01*
X49271117Y-93819795D01*
X49264284Y-93806385D01*
X49143971Y-93640786D01*
X48999213Y-93496028D01*
X48833614Y-93375715D01*
X48766459Y-93341498D01*
X48740917Y-93328483D01*
X48690123Y-93280511D01*
X48673328Y-93212690D01*
X48695865Y-93146555D01*
X48740917Y-93107516D01*
X48833610Y-93060287D01*
X48863260Y-93038745D01*
X48999213Y-92939971D01*
X48999215Y-92939968D01*
X48999219Y-92939966D01*
X49143966Y-92795219D01*
X49143968Y-92795215D01*
X49143971Y-92795213D01*
X49217745Y-92693670D01*
X49264287Y-92629610D01*
X49357220Y-92447219D01*
X49420477Y-92252534D01*
X49452500Y-92050352D01*
X49452500Y-91845648D01*
X49443402Y-91788204D01*
X49420477Y-91643465D01*
X49372177Y-91494814D01*
X49357220Y-91448781D01*
X49357218Y-91448778D01*
X49357218Y-91448776D01*
X49321969Y-91379597D01*
X49264287Y-91266390D01*
X49256556Y-91255749D01*
X49143971Y-91100786D01*
X48999213Y-90956028D01*
X48833614Y-90835715D01*
X48827006Y-90832348D01*
X48740917Y-90788483D01*
X48690123Y-90740511D01*
X48673328Y-90672690D01*
X48695865Y-90606555D01*
X48740917Y-90567516D01*
X48833610Y-90520287D01*
X48863271Y-90498737D01*
X48999213Y-90399971D01*
X48999215Y-90399968D01*
X48999219Y-90399966D01*
X49143966Y-90255219D01*
X49143968Y-90255215D01*
X49143971Y-90255213D01*
X49235077Y-90129814D01*
X49264287Y-90089610D01*
X49357220Y-89907219D01*
X49420477Y-89712534D01*
X49452500Y-89510352D01*
X49452500Y-89305648D01*
X49420477Y-89103466D01*
X49416538Y-89091344D01*
X49364653Y-88931657D01*
X49357220Y-88908781D01*
X49357218Y-88908778D01*
X49357218Y-88908776D01*
X49306634Y-88809501D01*
X49264287Y-88726390D01*
X49256556Y-88715749D01*
X49143971Y-88560786D01*
X48999213Y-88416028D01*
X48833614Y-88295715D01*
X48827006Y-88292348D01*
X48740917Y-88248483D01*
X48690123Y-88200511D01*
X48673328Y-88132690D01*
X48695865Y-88066555D01*
X48740917Y-88027516D01*
X48833610Y-87980287D01*
X48860307Y-87960891D01*
X48999213Y-87859971D01*
X48999215Y-87859968D01*
X48999219Y-87859966D01*
X49143966Y-87715219D01*
X49143968Y-87715215D01*
X49143971Y-87715213D01*
X49216519Y-87615357D01*
X49264287Y-87549610D01*
X49357220Y-87367219D01*
X49420477Y-87172534D01*
X49452500Y-86970352D01*
X49452500Y-86765648D01*
X49433834Y-86647796D01*
X49420477Y-86563465D01*
X49363296Y-86387481D01*
X49357220Y-86368781D01*
X49357218Y-86368778D01*
X49357218Y-86368776D01*
X49323503Y-86302607D01*
X49264287Y-86186390D01*
X49230975Y-86140539D01*
X49143971Y-86020786D01*
X48999213Y-85876028D01*
X48833614Y-85755715D01*
X48817634Y-85747573D01*
X48740917Y-85708483D01*
X48690123Y-85660511D01*
X48673328Y-85592690D01*
X48695865Y-85526555D01*
X48740917Y-85487516D01*
X48833610Y-85440287D01*
X48895149Y-85395577D01*
X48999213Y-85319971D01*
X48999215Y-85319968D01*
X48999219Y-85319966D01*
X49143966Y-85175219D01*
X49143968Y-85175215D01*
X49143971Y-85175213D01*
X49230976Y-85055459D01*
X49264287Y-85009610D01*
X49357220Y-84827219D01*
X49420477Y-84632534D01*
X49452500Y-84430352D01*
X49452500Y-84225648D01*
X49444983Y-84178186D01*
X49420477Y-84023465D01*
X49372496Y-83875795D01*
X49357220Y-83828781D01*
X49357218Y-83828778D01*
X49357218Y-83828776D01*
X49315035Y-83745989D01*
X49264287Y-83646390D01*
X49238011Y-83610224D01*
X49143971Y-83480786D01*
X48999213Y-83336028D01*
X48833614Y-83215715D01*
X48827006Y-83212348D01*
X48740917Y-83168483D01*
X48690123Y-83120511D01*
X48673328Y-83052690D01*
X48695865Y-82986555D01*
X48740917Y-82947516D01*
X48833610Y-82900287D01*
X48859254Y-82881656D01*
X48999213Y-82779971D01*
X48999215Y-82779968D01*
X48999219Y-82779966D01*
X49143966Y-82635219D01*
X49143968Y-82635215D01*
X49143971Y-82635213D01*
X49232455Y-82513423D01*
X49264287Y-82469610D01*
X49357220Y-82287219D01*
X49420477Y-82092534D01*
X49452500Y-81890352D01*
X49452500Y-81685648D01*
X49420477Y-81483466D01*
X49357220Y-81288781D01*
X49357218Y-81288778D01*
X49357218Y-81288776D01*
X49323503Y-81222607D01*
X49264287Y-81106390D01*
X49251223Y-81088409D01*
X49143971Y-80940786D01*
X48999213Y-80796028D01*
X48833614Y-80675715D01*
X48776902Y-80646819D01*
X48740917Y-80628483D01*
X48690123Y-80580511D01*
X48673328Y-80512690D01*
X48695865Y-80446555D01*
X48740917Y-80407516D01*
X48833610Y-80360287D01*
X48882271Y-80324933D01*
X48999213Y-80239971D01*
X48999215Y-80239968D01*
X48999219Y-80239966D01*
X49143966Y-80095219D01*
X49143968Y-80095215D01*
X49143971Y-80095213D01*
X49232587Y-79973241D01*
X49264287Y-79929610D01*
X49357220Y-79747219D01*
X49420477Y-79552534D01*
X49452500Y-79350352D01*
X49452500Y-79145648D01*
X49420477Y-78943466D01*
X49407572Y-78903750D01*
X49357218Y-78748776D01*
X49323503Y-78682607D01*
X49264287Y-78566390D01*
X49236501Y-78528145D01*
X49143971Y-78400786D01*
X48999213Y-78256028D01*
X48833614Y-78135715D01*
X48813324Y-78125377D01*
X48740917Y-78088483D01*
X48690123Y-78040511D01*
X48673328Y-77972690D01*
X48695865Y-77906555D01*
X48740917Y-77867516D01*
X48833610Y-77820287D01*
X48957128Y-77730547D01*
X48999213Y-77699971D01*
X48999215Y-77699968D01*
X48999219Y-77699966D01*
X49143966Y-77555219D01*
X49143968Y-77555215D01*
X49143971Y-77555213D01*
X49198264Y-77480483D01*
X49264287Y-77389610D01*
X49357220Y-77207219D01*
X49420477Y-77012534D01*
X49452500Y-76810352D01*
X49452500Y-76605648D01*
X49420477Y-76403466D01*
X49407572Y-76363750D01*
X49357218Y-76208776D01*
X49323503Y-76142607D01*
X49264287Y-76026390D01*
X49253652Y-76011752D01*
X49143971Y-75860786D01*
X48999213Y-75716028D01*
X48833614Y-75595715D01*
X48813324Y-75585377D01*
X48740917Y-75548483D01*
X48690123Y-75500511D01*
X48673328Y-75432690D01*
X48695865Y-75366555D01*
X48740917Y-75327516D01*
X48833610Y-75280287D01*
X48882271Y-75244933D01*
X48999213Y-75159971D01*
X48999215Y-75159968D01*
X48999219Y-75159966D01*
X49143966Y-75015219D01*
X49143968Y-75015215D01*
X49143971Y-75015213D01*
X49236499Y-74887857D01*
X49264287Y-74849610D01*
X49357220Y-74667219D01*
X49420477Y-74472534D01*
X49452500Y-74270352D01*
X49452500Y-74065648D01*
X49420477Y-73863466D01*
X49407572Y-73823750D01*
X49357218Y-73668776D01*
X49323503Y-73602607D01*
X49264287Y-73486390D01*
X49245248Y-73460185D01*
X49143971Y-73320786D01*
X48999213Y-73176028D01*
X48833614Y-73055715D01*
X48813324Y-73045377D01*
X48740917Y-73008483D01*
X48690123Y-72960511D01*
X48673328Y-72892690D01*
X48695865Y-72826555D01*
X48740917Y-72787516D01*
X48833610Y-72740287D01*
X48882271Y-72704933D01*
X48999213Y-72619971D01*
X48999215Y-72619968D01*
X48999219Y-72619966D01*
X49143966Y-72475219D01*
X49143968Y-72475215D01*
X49143971Y-72475213D01*
X49236499Y-72347857D01*
X49264287Y-72309610D01*
X49357220Y-72127219D01*
X49420477Y-71932534D01*
X49452500Y-71730352D01*
X49452500Y-71525648D01*
X49434896Y-71414500D01*
X49420477Y-71323465D01*
X49380916Y-71201710D01*
X49357220Y-71128781D01*
X49357218Y-71128778D01*
X49357218Y-71128776D01*
X49307490Y-71031181D01*
X49264287Y-70946390D01*
X49251169Y-70928334D01*
X49143971Y-70780786D01*
X48999219Y-70636034D01*
X48962930Y-70609669D01*
X48920264Y-70554339D01*
X48914285Y-70484726D01*
X48946890Y-70422931D01*
X49007728Y-70388573D01*
X49022562Y-70386060D01*
X49059483Y-70382091D01*
X49194328Y-70331797D01*
X49194327Y-70331797D01*
X49194331Y-70331796D01*
X49309546Y-70245546D01*
X49395796Y-70130331D01*
X49446091Y-69995483D01*
X49452500Y-69935873D01*
X49452499Y-68240128D01*
X49446091Y-68180517D01*
X49434484Y-68149398D01*
X49395797Y-68045671D01*
X49395793Y-68045664D01*
X49309547Y-67930455D01*
X49309544Y-67930452D01*
X49194335Y-67844206D01*
X49194328Y-67844202D01*
X49059482Y-67793908D01*
X49059483Y-67793908D01*
X48999883Y-67787501D01*
X48999881Y-67787500D01*
X48999873Y-67787500D01*
X48999864Y-67787500D01*
X46504129Y-67787500D01*
X46504123Y-67787501D01*
X46444516Y-67793908D01*
X46309671Y-67844202D01*
X46309664Y-67844206D01*
X46194455Y-67930452D01*
X46194452Y-67930455D01*
X46108206Y-68045664D01*
X46108202Y-68045671D01*
X46057908Y-68180517D01*
X46051501Y-68240116D01*
X46051501Y-68240123D01*
X46051500Y-68240135D01*
X46051500Y-68363500D01*
X46031815Y-68430539D01*
X45979011Y-68476294D01*
X45927500Y-68487500D01*
X44624030Y-68487500D01*
X44556991Y-68467815D01*
X44521339Y-68433002D01*
X44512400Y-68419795D01*
X44477443Y-68368145D01*
X44325455Y-68216157D01*
X44325453Y-68216156D01*
X44325448Y-68216151D01*
X44151637Y-68098514D01*
X44147448Y-68095679D01*
X44147447Y-68095678D01*
X44147445Y-68095677D01*
X43949860Y-68011066D01*
X43949849Y-68011063D01*
X43739831Y-67965377D01*
X43739830Y-67965376D01*
X43739826Y-67965376D01*
X43691548Y-67962500D01*
X43519652Y-67962500D01*
X43471374Y-67965376D01*
X43471369Y-67965376D01*
X43471368Y-67965377D01*
X43261350Y-68011063D01*
X43261339Y-68011066D01*
X43063754Y-68095677D01*
X42885751Y-68216151D01*
X42885742Y-68216159D01*
X42733759Y-68368142D01*
X42733751Y-68368151D01*
X42613277Y-68546154D01*
X42528666Y-68743739D01*
X42528663Y-68743750D01*
X42482977Y-68953768D01*
X42482976Y-68953774D01*
X42480100Y-69002052D01*
X42480100Y-69173948D01*
X42482976Y-69222226D01*
X42482976Y-69222230D01*
X42482977Y-69222231D01*
X42528663Y-69432249D01*
X42528666Y-69432260D01*
X42613277Y-69629845D01*
X42733751Y-69807848D01*
X42733759Y-69807857D01*
X42885742Y-69959840D01*
X42885751Y-69959848D01*
X42987817Y-70028927D01*
X43063752Y-70080321D01*
X43261341Y-70164934D01*
X43471374Y-70210624D01*
X43519652Y-70213500D01*
X43519664Y-70213500D01*
X43691536Y-70213500D01*
X43691548Y-70213500D01*
X43739826Y-70210624D01*
X43949859Y-70164934D01*
X44147448Y-70080321D01*
X44325455Y-69959843D01*
X44477443Y-69807855D01*
X44521339Y-69742997D01*
X44575217Y-69698512D01*
X44624030Y-69688500D01*
X45927501Y-69688500D01*
X45994540Y-69708185D01*
X46040295Y-69760989D01*
X46051501Y-69812500D01*
X46051501Y-69935876D01*
X46057908Y-69995483D01*
X46108202Y-70130328D01*
X46108206Y-70130335D01*
X46194452Y-70245544D01*
X46194455Y-70245547D01*
X46309664Y-70331793D01*
X46309671Y-70331797D01*
X46354618Y-70348561D01*
X46444517Y-70382091D01*
X46481441Y-70386060D01*
X46545989Y-70412796D01*
X46585838Y-70470188D01*
X46588333Y-70540013D01*
X46552681Y-70600102D01*
X46541071Y-70609666D01*
X46504784Y-70636030D01*
X46360028Y-70780786D01*
X46239715Y-70946385D01*
X46232883Y-70959795D01*
X46184909Y-71010591D01*
X46122398Y-71027500D01*
X44624030Y-71027500D01*
X44556991Y-71007815D01*
X44521339Y-70973002D01*
X44512664Y-70960185D01*
X44477443Y-70908145D01*
X44325455Y-70756157D01*
X44325453Y-70756156D01*
X44325448Y-70756151D01*
X44150715Y-70637890D01*
X44147448Y-70635679D01*
X44147447Y-70635678D01*
X44147445Y-70635677D01*
X43949860Y-70551066D01*
X43949849Y-70551063D01*
X43739831Y-70505377D01*
X43739830Y-70505376D01*
X43739826Y-70505376D01*
X43691548Y-70502500D01*
X43519652Y-70502500D01*
X43471374Y-70505376D01*
X43471369Y-70505376D01*
X43471368Y-70505377D01*
X43261350Y-70551063D01*
X43261339Y-70551066D01*
X43063754Y-70635677D01*
X42885751Y-70756151D01*
X42885742Y-70756159D01*
X42733759Y-70908142D01*
X42733751Y-70908151D01*
X42613277Y-71086154D01*
X42528666Y-71283739D01*
X42528663Y-71283750D01*
X42483635Y-71490744D01*
X42482976Y-71493774D01*
X42480100Y-71542052D01*
X42480100Y-71713948D01*
X42482976Y-71762226D01*
X42482976Y-71762230D01*
X42482977Y-71762231D01*
X42528663Y-71972249D01*
X42528666Y-71972260D01*
X42613277Y-72169845D01*
X42733751Y-72347848D01*
X42733759Y-72347857D01*
X42885742Y-72499840D01*
X42885751Y-72499848D01*
X43015060Y-72587365D01*
X43063752Y-72620321D01*
X43261341Y-72704934D01*
X43471374Y-72750624D01*
X43519652Y-72753500D01*
X43519664Y-72753500D01*
X43691536Y-72753500D01*
X43691548Y-72753500D01*
X43739826Y-72750624D01*
X43949859Y-72704934D01*
X44147448Y-72620321D01*
X44325455Y-72499843D01*
X44477443Y-72347855D01*
X44521339Y-72282997D01*
X44575217Y-72238512D01*
X44624030Y-72228500D01*
X46122398Y-72228500D01*
X46189437Y-72248185D01*
X46232883Y-72296205D01*
X46239715Y-72309614D01*
X46360028Y-72475213D01*
X46504786Y-72619971D01*
X46621729Y-72704933D01*
X46670390Y-72740287D01*
X46761840Y-72786883D01*
X46763080Y-72787515D01*
X46813876Y-72835490D01*
X46830671Y-72903311D01*
X46808134Y-72969446D01*
X46763080Y-73008485D01*
X46670386Y-73055715D01*
X46504786Y-73176028D01*
X46360028Y-73320786D01*
X46239715Y-73486385D01*
X46232883Y-73499795D01*
X46184909Y-73550591D01*
X46122398Y-73567500D01*
X44624030Y-73567500D01*
X44556991Y-73547815D01*
X44521339Y-73513002D01*
X44512400Y-73499795D01*
X44477443Y-73448145D01*
X44325455Y-73296157D01*
X44325453Y-73296156D01*
X44325448Y-73296151D01*
X44151637Y-73178514D01*
X44147448Y-73175679D01*
X44147447Y-73175678D01*
X44147445Y-73175677D01*
X43949860Y-73091066D01*
X43949849Y-73091063D01*
X43739831Y-73045377D01*
X43739830Y-73045376D01*
X43739826Y-73045376D01*
X43691548Y-73042500D01*
X43519652Y-73042500D01*
X43471374Y-73045376D01*
X43471369Y-73045376D01*
X43471368Y-73045377D01*
X43261350Y-73091063D01*
X43261339Y-73091066D01*
X43063754Y-73175677D01*
X42885751Y-73296151D01*
X42885742Y-73296159D01*
X42733759Y-73448142D01*
X42733751Y-73448151D01*
X42613277Y-73626154D01*
X42528666Y-73823739D01*
X42528663Y-73823750D01*
X42497256Y-73968128D01*
X42482976Y-74033774D01*
X42480100Y-74082052D01*
X42480100Y-74253948D01*
X42482976Y-74302226D01*
X42482976Y-74302230D01*
X42482977Y-74302231D01*
X42528663Y-74512249D01*
X42528666Y-74512260D01*
X42613277Y-74709845D01*
X42733751Y-74887848D01*
X42733759Y-74887857D01*
X42885742Y-75039840D01*
X42885751Y-75039848D01*
X43015060Y-75127365D01*
X43063752Y-75160321D01*
X43261341Y-75244934D01*
X43471374Y-75290624D01*
X43519652Y-75293500D01*
X43519664Y-75293500D01*
X43691536Y-75293500D01*
X43691548Y-75293500D01*
X43739826Y-75290624D01*
X43949859Y-75244934D01*
X44147448Y-75160321D01*
X44289332Y-75064291D01*
X44325448Y-75039848D01*
X44325449Y-75039846D01*
X44325455Y-75039843D01*
X44477443Y-74887855D01*
X44521339Y-74822997D01*
X44575217Y-74778512D01*
X44624030Y-74768500D01*
X46122398Y-74768500D01*
X46189437Y-74788185D01*
X46232883Y-74836205D01*
X46239715Y-74849614D01*
X46360028Y-75015213D01*
X46504786Y-75159971D01*
X46621729Y-75244933D01*
X46670390Y-75280287D01*
X46754313Y-75323048D01*
X46763080Y-75327515D01*
X46813876Y-75375490D01*
X46830671Y-75443311D01*
X46808134Y-75509446D01*
X46763080Y-75548485D01*
X46670386Y-75595715D01*
X46504786Y-75716028D01*
X46360028Y-75860786D01*
X46239715Y-76026385D01*
X46232883Y-76039795D01*
X46184909Y-76090591D01*
X46122398Y-76107500D01*
X38840339Y-76107500D01*
X38773300Y-76087815D01*
X38727545Y-76035011D01*
X38717049Y-75996754D01*
X38716123Y-75988141D01*
X38713691Y-75965517D01*
X38663396Y-75830669D01*
X38663395Y-75830668D01*
X38663393Y-75830664D01*
X38577147Y-75715455D01*
X38577144Y-75715452D01*
X38461935Y-75629206D01*
X38461928Y-75629202D01*
X38327082Y-75578908D01*
X38327083Y-75578908D01*
X38267483Y-75572501D01*
X38267481Y-75572500D01*
X38267473Y-75572500D01*
X38267464Y-75572500D01*
X36621729Y-75572500D01*
X36621723Y-75572501D01*
X36562116Y-75578908D01*
X36427271Y-75629202D01*
X36427264Y-75629206D01*
X36312055Y-75715452D01*
X36312052Y-75715455D01*
X36225806Y-75830664D01*
X36225802Y-75830671D01*
X36175510Y-75965513D01*
X36175509Y-75965517D01*
X36170537Y-76011757D01*
X36143801Y-76076306D01*
X36086409Y-76116154D01*
X36047249Y-76122500D01*
X30881951Y-76122500D01*
X30814912Y-76102815D01*
X30769157Y-76050011D01*
X30758661Y-76011752D01*
X30753691Y-75965516D01*
X30703397Y-75830671D01*
X30703393Y-75830664D01*
X30617147Y-75715455D01*
X30617144Y-75715452D01*
X30501935Y-75629206D01*
X30501928Y-75629202D01*
X30367082Y-75578908D01*
X30367083Y-75578908D01*
X30307483Y-75572501D01*
X30307481Y-75572500D01*
X30307473Y-75572500D01*
X30307464Y-75572500D01*
X28661729Y-75572500D01*
X28661723Y-75572501D01*
X28602116Y-75578908D01*
X28467271Y-75629202D01*
X28467264Y-75629206D01*
X28352055Y-75715452D01*
X28352052Y-75715455D01*
X28265806Y-75830664D01*
X28265802Y-75830671D01*
X28215508Y-75965517D01*
X28209101Y-76025116D01*
X28209100Y-76025135D01*
X28209100Y-77420870D01*
X28209101Y-77420876D01*
X28215508Y-77480483D01*
X28265802Y-77615328D01*
X28265806Y-77615335D01*
X28352052Y-77730544D01*
X28352055Y-77730547D01*
X28467264Y-77816793D01*
X28467271Y-77816797D01*
X28602117Y-77867091D01*
X28602116Y-77867091D01*
X28609044Y-77867835D01*
X28661727Y-77873500D01*
X30307472Y-77873499D01*
X30367083Y-77867091D01*
X30501931Y-77816796D01*
X30617146Y-77730546D01*
X30703396Y-77615331D01*
X30753691Y-77480483D01*
X30758662Y-77434242D01*
X30785399Y-77369694D01*
X30842791Y-77329846D01*
X30881951Y-77323500D01*
X36047249Y-77323500D01*
X36114288Y-77343185D01*
X36160043Y-77395989D01*
X36170539Y-77434248D01*
X36175508Y-77480483D01*
X36225802Y-77615328D01*
X36225806Y-77615335D01*
X36312052Y-77730544D01*
X36312055Y-77730547D01*
X36427264Y-77816793D01*
X36427271Y-77816797D01*
X36562117Y-77867091D01*
X36562116Y-77867091D01*
X36569044Y-77867835D01*
X36621727Y-77873500D01*
X38267472Y-77873499D01*
X38327083Y-77867091D01*
X38461931Y-77816796D01*
X38577146Y-77730546D01*
X38663396Y-77615331D01*
X38713691Y-77480483D01*
X38720100Y-77420873D01*
X38720100Y-77420863D01*
X38720274Y-77419245D01*
X38747012Y-77354694D01*
X38804405Y-77314846D01*
X38843564Y-77308500D01*
X46122398Y-77308500D01*
X46189437Y-77328185D01*
X46232883Y-77376205D01*
X46239715Y-77389614D01*
X46360028Y-77555213D01*
X46504786Y-77699971D01*
X46621729Y-77784933D01*
X46670390Y-77820287D01*
X46761840Y-77866883D01*
X46763080Y-77867515D01*
X46813876Y-77915490D01*
X46830671Y-77983311D01*
X46808134Y-78049446D01*
X46763080Y-78088485D01*
X46670386Y-78135715D01*
X46504786Y-78256028D01*
X46360028Y-78400786D01*
X46239715Y-78566385D01*
X46232883Y-78579795D01*
X46184909Y-78630591D01*
X46122398Y-78647500D01*
X44624030Y-78647500D01*
X44556991Y-78627815D01*
X44521339Y-78593002D01*
X44512400Y-78579795D01*
X44477443Y-78528145D01*
X44325455Y-78376157D01*
X44325453Y-78376156D01*
X44325448Y-78376151D01*
X44151637Y-78258514D01*
X44147448Y-78255679D01*
X44147447Y-78255678D01*
X44147445Y-78255677D01*
X43949860Y-78171066D01*
X43949849Y-78171063D01*
X43739831Y-78125377D01*
X43739830Y-78125376D01*
X43739826Y-78125376D01*
X43691548Y-78122500D01*
X43519652Y-78122500D01*
X43471374Y-78125376D01*
X43471369Y-78125376D01*
X43471368Y-78125377D01*
X43261350Y-78171063D01*
X43261339Y-78171066D01*
X43063754Y-78255677D01*
X42885751Y-78376151D01*
X42885742Y-78376159D01*
X42733759Y-78528142D01*
X42733751Y-78528151D01*
X42613277Y-78706154D01*
X42528666Y-78903739D01*
X42528663Y-78903750D01*
X42482977Y-79113768D01*
X42482976Y-79113774D01*
X42480100Y-79162052D01*
X42480100Y-79333948D01*
X42482976Y-79382226D01*
X42482977Y-79382229D01*
X42482977Y-79382231D01*
X42528663Y-79592249D01*
X42528666Y-79592260D01*
X42613277Y-79789845D01*
X42733754Y-79967852D01*
X42734329Y-79968548D01*
X42734507Y-79968964D01*
X42737068Y-79972748D01*
X42736338Y-79973241D01*
X42761835Y-80032776D01*
X42750250Y-80101678D01*
X42703253Y-80153380D01*
X42638712Y-80171500D01*
X42464097Y-80171500D01*
X42397058Y-80151815D01*
X42376416Y-80135181D01*
X41785637Y-79544402D01*
X41752152Y-79483079D01*
X41752152Y-79430362D01*
X41754305Y-79420465D01*
X41762624Y-79382226D01*
X41765500Y-79333948D01*
X41765500Y-79162052D01*
X41762624Y-79113774D01*
X41716934Y-78903741D01*
X41632321Y-78706152D01*
X41579301Y-78627815D01*
X41511848Y-78528151D01*
X41511840Y-78528142D01*
X41359857Y-78376159D01*
X41359848Y-78376151D01*
X41186037Y-78258514D01*
X41181848Y-78255679D01*
X41181847Y-78255678D01*
X41181845Y-78255677D01*
X40984260Y-78171066D01*
X40984249Y-78171063D01*
X40774231Y-78125377D01*
X40774230Y-78125376D01*
X40774226Y-78125376D01*
X40725948Y-78122500D01*
X40554052Y-78122500D01*
X40505774Y-78125376D01*
X40505769Y-78125376D01*
X40505768Y-78125377D01*
X40295750Y-78171063D01*
X40295739Y-78171066D01*
X40098154Y-78255677D01*
X39920151Y-78376151D01*
X39920142Y-78376159D01*
X39768159Y-78528142D01*
X39768151Y-78528151D01*
X39647677Y-78706154D01*
X39563066Y-78903739D01*
X39563063Y-78903750D01*
X39517377Y-79113768D01*
X39517376Y-79113774D01*
X39514500Y-79162052D01*
X39514500Y-79333948D01*
X39517376Y-79382226D01*
X39517377Y-79382229D01*
X39517377Y-79382231D01*
X39563063Y-79592249D01*
X39563066Y-79592260D01*
X39647677Y-79789845D01*
X39768151Y-79967848D01*
X39768159Y-79967857D01*
X39920142Y-80119840D01*
X39920151Y-80119848D01*
X40014200Y-80183501D01*
X40098152Y-80240321D01*
X40098153Y-80240321D01*
X40098154Y-80240322D01*
X40118856Y-80249187D01*
X40295741Y-80324934D01*
X40505774Y-80370624D01*
X40554052Y-80373500D01*
X40554064Y-80373500D01*
X40725936Y-80373500D01*
X40725948Y-80373500D01*
X40774226Y-80370624D01*
X40822362Y-80360152D01*
X40892053Y-80365136D01*
X40936402Y-80393637D01*
X41679139Y-81136374D01*
X41679149Y-81136385D01*
X41683479Y-81140715D01*
X41683480Y-81140716D01*
X41795284Y-81252520D01*
X41795286Y-81252521D01*
X41795290Y-81252524D01*
X41858090Y-81288781D01*
X41932216Y-81331577D01*
X42043715Y-81361453D01*
X42084942Y-81372500D01*
X42084943Y-81372500D01*
X44657903Y-81372500D01*
X44724942Y-81392185D01*
X44745584Y-81408819D01*
X45489139Y-82152374D01*
X45489149Y-82152385D01*
X45493479Y-82156715D01*
X45493480Y-82156716D01*
X45605284Y-82268520D01*
X45679103Y-82311139D01*
X45742215Y-82347577D01*
X45894943Y-82388501D01*
X45894946Y-82388501D01*
X46060653Y-82388501D01*
X46060669Y-82388500D01*
X46122398Y-82388500D01*
X46189437Y-82408185D01*
X46232883Y-82456205D01*
X46239715Y-82469614D01*
X46360028Y-82635213D01*
X46504786Y-82779971D01*
X46659749Y-82892556D01*
X46670390Y-82900287D01*
X46754392Y-82943088D01*
X46763080Y-82947515D01*
X46813876Y-82995490D01*
X46830671Y-83063311D01*
X46808134Y-83129446D01*
X46763080Y-83168485D01*
X46670386Y-83215715D01*
X46504786Y-83336028D01*
X46360032Y-83480782D01*
X46301994Y-83560665D01*
X46246664Y-83603330D01*
X46177050Y-83609309D01*
X46115255Y-83576703D01*
X46113995Y-83575460D01*
X45249890Y-82711355D01*
X45249888Y-82711352D01*
X45131017Y-82592481D01*
X45131009Y-82592475D01*
X45030592Y-82534500D01*
X45030591Y-82534499D01*
X45030591Y-82534500D01*
X44994085Y-82513423D01*
X44841357Y-82472499D01*
X44684242Y-82472499D01*
X44617203Y-82452814D01*
X44571448Y-82400010D01*
X44560884Y-82361100D01*
X44551599Y-82270203D01*
X44496414Y-82103666D01*
X44404312Y-81954344D01*
X44280256Y-81830288D01*
X44130934Y-81738186D01*
X43964397Y-81683001D01*
X43964395Y-81683000D01*
X43861610Y-81672500D01*
X43111598Y-81672500D01*
X43111580Y-81672501D01*
X43008803Y-81683000D01*
X43008800Y-81683001D01*
X42842268Y-81738185D01*
X42842263Y-81738187D01*
X42692942Y-81830289D01*
X42568889Y-81954342D01*
X42476787Y-82103663D01*
X42476785Y-82103668D01*
X42472919Y-82115335D01*
X42421601Y-82270203D01*
X42421601Y-82270204D01*
X42421600Y-82270204D01*
X42411100Y-82372983D01*
X42411100Y-83773001D01*
X42411101Y-83773018D01*
X42421600Y-83875796D01*
X42421601Y-83875799D01*
X42451608Y-83966352D01*
X42476786Y-84042334D01*
X42479297Y-84046405D01*
X42497736Y-84113798D01*
X42476812Y-84180461D01*
X42423169Y-84225230D01*
X42373757Y-84235500D01*
X41649443Y-84235500D01*
X41582404Y-84215815D01*
X41536649Y-84163011D01*
X41526705Y-84093853D01*
X41543903Y-84046405D01*
X41546414Y-84042334D01*
X41601599Y-83875797D01*
X41612100Y-83773009D01*
X41612099Y-82372992D01*
X41607794Y-82330853D01*
X41601599Y-82270203D01*
X41601598Y-82270200D01*
X41600636Y-82267297D01*
X41546414Y-82103666D01*
X41454312Y-81954344D01*
X41330256Y-81830288D01*
X41180934Y-81738186D01*
X41014397Y-81683001D01*
X41014395Y-81683000D01*
X40911610Y-81672500D01*
X40161598Y-81672500D01*
X40161580Y-81672501D01*
X40058803Y-81683000D01*
X40058800Y-81683001D01*
X39892268Y-81738185D01*
X39892263Y-81738187D01*
X39742942Y-81830289D01*
X39618889Y-81954342D01*
X39526787Y-82103663D01*
X39526785Y-82103668D01*
X39522919Y-82115335D01*
X39472159Y-82268521D01*
X39471601Y-82270204D01*
X39471600Y-82270205D01*
X39462314Y-82361103D01*
X39435917Y-82425795D01*
X39378736Y-82465946D01*
X39338956Y-82472500D01*
X38626494Y-82472500D01*
X38559455Y-82452815D01*
X38513700Y-82400011D01*
X38503756Y-82330853D01*
X38532781Y-82267297D01*
X38552182Y-82249234D01*
X38577146Y-82230546D01*
X38663396Y-82115331D01*
X38713691Y-81980483D01*
X38720100Y-81920873D01*
X38720099Y-80525128D01*
X38713691Y-80465517D01*
X38713626Y-80465344D01*
X38663397Y-80330671D01*
X38663393Y-80330664D01*
X38577147Y-80215455D01*
X38577144Y-80215452D01*
X38461935Y-80129206D01*
X38461928Y-80129202D01*
X38327082Y-80078908D01*
X38327083Y-80078908D01*
X38267483Y-80072501D01*
X38267481Y-80072500D01*
X38267473Y-80072500D01*
X38267464Y-80072500D01*
X36621729Y-80072500D01*
X36621723Y-80072501D01*
X36562116Y-80078908D01*
X36427271Y-80129202D01*
X36427264Y-80129206D01*
X36312055Y-80215452D01*
X36312052Y-80215455D01*
X36225806Y-80330664D01*
X36225802Y-80330671D01*
X36175510Y-80465513D01*
X36175509Y-80465517D01*
X36170537Y-80511757D01*
X36143801Y-80576306D01*
X36086409Y-80616154D01*
X36047249Y-80622500D01*
X30881951Y-80622500D01*
X30814912Y-80602815D01*
X30769157Y-80550011D01*
X30758661Y-80511752D01*
X30753691Y-80465516D01*
X30703397Y-80330671D01*
X30703393Y-80330664D01*
X30617147Y-80215455D01*
X30617144Y-80215452D01*
X30501935Y-80129206D01*
X30501928Y-80129202D01*
X30367082Y-80078908D01*
X30367083Y-80078908D01*
X30307483Y-80072501D01*
X30307481Y-80072500D01*
X30307473Y-80072500D01*
X30307464Y-80072500D01*
X28661729Y-80072500D01*
X28661723Y-80072501D01*
X28602116Y-80078908D01*
X28467271Y-80129202D01*
X28467264Y-80129206D01*
X28352055Y-80215452D01*
X28352052Y-80215455D01*
X28265806Y-80330664D01*
X28265802Y-80330671D01*
X28215508Y-80465517D01*
X28209295Y-80523311D01*
X28209101Y-80525123D01*
X28209100Y-80525135D01*
X28209100Y-81920870D01*
X28209101Y-81920876D01*
X28215508Y-81980483D01*
X28265802Y-82115328D01*
X28265806Y-82115335D01*
X28352052Y-82230544D01*
X28352055Y-82230547D01*
X28467264Y-82316793D01*
X28467271Y-82316797D01*
X28602117Y-82367091D01*
X28602116Y-82367091D01*
X28609044Y-82367835D01*
X28661727Y-82373500D01*
X30307472Y-82373499D01*
X30367083Y-82367091D01*
X30501931Y-82316796D01*
X30617146Y-82230546D01*
X30703396Y-82115331D01*
X30753691Y-81980483D01*
X30758662Y-81934242D01*
X30785399Y-81869694D01*
X30842791Y-81829846D01*
X30881951Y-81823500D01*
X36047249Y-81823500D01*
X36114288Y-81843185D01*
X36160043Y-81895989D01*
X36170539Y-81934248D01*
X36175508Y-81980483D01*
X36225802Y-82115328D01*
X36225806Y-82115335D01*
X36312052Y-82230544D01*
X36312055Y-82230547D01*
X36427264Y-82316793D01*
X36427271Y-82316797D01*
X36464958Y-82330853D01*
X36562117Y-82367091D01*
X36621727Y-82373500D01*
X36716773Y-82373499D01*
X36783811Y-82393183D01*
X36829567Y-82445986D01*
X36836183Y-82469023D01*
X36836996Y-82468806D01*
X36839099Y-82476654D01*
X36839099Y-82476657D01*
X36872861Y-82602656D01*
X36880023Y-82629385D01*
X36908958Y-82679500D01*
X36908959Y-82679504D01*
X36908960Y-82679504D01*
X36923266Y-82704284D01*
X36959079Y-82766314D01*
X36959081Y-82766317D01*
X37077949Y-82885185D01*
X37077955Y-82885190D01*
X37630139Y-83437374D01*
X37630149Y-83437385D01*
X37634479Y-83441715D01*
X37634480Y-83441716D01*
X37746284Y-83553520D01*
X37826825Y-83600020D01*
X37883215Y-83632577D01*
X38035943Y-83673501D01*
X38035946Y-83673501D01*
X38201653Y-83673501D01*
X38201669Y-83673500D01*
X39338957Y-83673500D01*
X39405996Y-83693185D01*
X39451751Y-83745989D01*
X39462315Y-83784898D01*
X39471601Y-83875797D01*
X39471601Y-83875799D01*
X39526785Y-84042331D01*
X39526787Y-84042336D01*
X39529368Y-84046520D01*
X39618888Y-84191656D01*
X39742944Y-84315712D01*
X39877197Y-84398519D01*
X39923920Y-84450464D01*
X39936099Y-84504056D01*
X39936099Y-84557654D01*
X39936098Y-84557654D01*
X39977022Y-84710383D01*
X39995170Y-84741817D01*
X40056075Y-84847309D01*
X40056081Y-84847317D01*
X40174949Y-84966185D01*
X40174955Y-84966190D01*
X40409139Y-85200374D01*
X40409149Y-85200385D01*
X40413479Y-85204715D01*
X40413480Y-85204716D01*
X40525284Y-85316520D01*
X40525286Y-85316521D01*
X40525290Y-85316524D01*
X40585429Y-85351245D01*
X40585434Y-85351247D01*
X40662209Y-85395574D01*
X40662210Y-85395575D01*
X40662212Y-85395575D01*
X40662215Y-85395577D01*
X40814943Y-85436501D01*
X40814946Y-85436501D01*
X40980653Y-85436501D01*
X40980669Y-85436500D01*
X43641903Y-85436500D01*
X43708942Y-85456185D01*
X43729584Y-85472819D01*
X45489139Y-87232374D01*
X45489149Y-87232385D01*
X45493479Y-87236715D01*
X45493480Y-87236716D01*
X45605284Y-87348520D01*
X45692095Y-87398639D01*
X45692097Y-87398641D01*
X45730151Y-87420611D01*
X45742215Y-87427577D01*
X45894943Y-87468501D01*
X45894946Y-87468501D01*
X46060653Y-87468501D01*
X46060669Y-87468500D01*
X46122398Y-87468500D01*
X46189437Y-87488185D01*
X46232883Y-87536205D01*
X46239715Y-87549614D01*
X46360028Y-87715213D01*
X46504786Y-87859971D01*
X46643693Y-87960891D01*
X46670390Y-87980287D01*
X46758174Y-88025015D01*
X46763080Y-88027515D01*
X46813876Y-88075490D01*
X46830671Y-88143311D01*
X46808134Y-88209446D01*
X46763080Y-88248485D01*
X46670386Y-88295715D01*
X46504786Y-88416028D01*
X46360028Y-88560786D01*
X46239715Y-88726385D01*
X46232883Y-88739795D01*
X46184909Y-88790591D01*
X46122398Y-88807500D01*
X43603698Y-88807500D01*
X43536659Y-88787815D01*
X43516017Y-88771181D01*
X43389717Y-88644881D01*
X43356232Y-88583558D01*
X43357623Y-88525106D01*
X43374807Y-88460977D01*
X43393877Y-88243000D01*
X43390941Y-88209446D01*
X43390160Y-88200511D01*
X43374807Y-88025023D01*
X43330580Y-87859966D01*
X43318177Y-87813677D01*
X43318176Y-87813676D01*
X43318175Y-87813670D01*
X43225702Y-87615362D01*
X43225700Y-87615359D01*
X43225699Y-87615357D01*
X43100199Y-87436124D01*
X43031294Y-87367219D01*
X42945477Y-87281402D01*
X42766239Y-87155898D01*
X42766240Y-87155898D01*
X42766238Y-87155897D01*
X42667084Y-87109661D01*
X42567930Y-87063425D01*
X42567926Y-87063424D01*
X42567922Y-87063422D01*
X42356577Y-87006793D01*
X42138602Y-86987723D01*
X42138598Y-86987723D01*
X41920629Y-87006792D01*
X41920625Y-87006792D01*
X41920623Y-87006793D01*
X41920617Y-87006794D01*
X41920615Y-87006795D01*
X41856491Y-87023976D01*
X41786641Y-87022312D01*
X41736718Y-86991882D01*
X40553190Y-85808355D01*
X40553188Y-85808352D01*
X40434317Y-85689481D01*
X40434309Y-85689475D01*
X40328696Y-85628500D01*
X40328693Y-85628499D01*
X40297387Y-85610424D01*
X40297386Y-85610423D01*
X40297385Y-85610423D01*
X40144657Y-85569499D01*
X39986543Y-85569499D01*
X39978947Y-85569499D01*
X39978931Y-85569500D01*
X39036658Y-85569500D01*
X38969619Y-85549815D01*
X38931119Y-85510597D01*
X38916882Y-85487515D01*
X38848312Y-85376344D01*
X38724256Y-85252288D01*
X38574934Y-85160186D01*
X38408397Y-85105001D01*
X38408395Y-85105000D01*
X38305610Y-85094500D01*
X36905598Y-85094500D01*
X36905581Y-85094501D01*
X36802803Y-85105000D01*
X36802800Y-85105001D01*
X36636268Y-85160185D01*
X36636263Y-85160187D01*
X36486942Y-85252289D01*
X36362889Y-85376342D01*
X36270787Y-85525663D01*
X36270785Y-85525668D01*
X36246817Y-85598000D01*
X36215601Y-85692203D01*
X36215601Y-85692204D01*
X36215600Y-85692204D01*
X36205100Y-85794983D01*
X36205100Y-86545001D01*
X36205101Y-86545019D01*
X36215600Y-86647796D01*
X36215601Y-86647799D01*
X36262784Y-86790185D01*
X36270786Y-86814334D01*
X36362888Y-86963656D01*
X36486944Y-87087712D01*
X36636266Y-87179814D01*
X36802803Y-87234999D01*
X36905591Y-87245500D01*
X38305608Y-87245499D01*
X38408397Y-87234999D01*
X38574934Y-87179814D01*
X38724256Y-87087712D01*
X38848312Y-86963656D01*
X38931119Y-86829402D01*
X38983067Y-86782679D01*
X39036658Y-86770500D01*
X39765503Y-86770500D01*
X39832542Y-86790185D01*
X39853184Y-86806819D01*
X40887482Y-87841118D01*
X40920967Y-87902441D01*
X40919576Y-87960891D01*
X40902395Y-88025015D01*
X40902392Y-88025029D01*
X40883323Y-88242997D01*
X40883323Y-88243002D01*
X40887935Y-88295713D01*
X40902392Y-88460971D01*
X40902393Y-88460975D01*
X40902393Y-88460979D01*
X40959022Y-88672322D01*
X40959024Y-88672326D01*
X40959025Y-88672330D01*
X40992908Y-88744992D01*
X41051497Y-88870638D01*
X41076598Y-88906486D01*
X41177002Y-89049877D01*
X41331723Y-89204598D01*
X41510961Y-89330102D01*
X41709270Y-89422575D01*
X41920623Y-89479207D01*
X42091050Y-89494117D01*
X42138598Y-89498277D01*
X42138600Y-89498277D01*
X42138602Y-89498277D01*
X42193094Y-89493509D01*
X42356577Y-89479207D01*
X42420707Y-89462023D01*
X42490556Y-89463686D01*
X42540481Y-89494117D01*
X42934884Y-89888520D01*
X43071815Y-89967577D01*
X43224543Y-90008501D01*
X43224546Y-90008501D01*
X43390254Y-90008501D01*
X43390270Y-90008500D01*
X46122398Y-90008500D01*
X46189437Y-90028185D01*
X46232883Y-90076205D01*
X46239715Y-90089614D01*
X46360028Y-90255213D01*
X46504786Y-90399971D01*
X46659749Y-90512556D01*
X46670390Y-90520287D01*
X46761840Y-90566883D01*
X46763080Y-90567515D01*
X46813876Y-90615490D01*
X46830671Y-90683311D01*
X46808134Y-90749446D01*
X46763080Y-90788485D01*
X46670386Y-90835715D01*
X46504786Y-90956028D01*
X46360028Y-91100786D01*
X46239715Y-91266385D01*
X46232883Y-91279795D01*
X46184909Y-91330591D01*
X46122398Y-91347500D01*
X43400269Y-91347500D01*
X43400253Y-91347499D01*
X43392657Y-91347499D01*
X43234543Y-91347499D01*
X43158179Y-91367961D01*
X43081812Y-91388423D01*
X43081811Y-91388424D01*
X43057065Y-91402712D01*
X42944887Y-91467477D01*
X42944882Y-91467481D01*
X42833078Y-91579286D01*
X42540481Y-91871882D01*
X42479158Y-91905367D01*
X42420708Y-91903976D01*
X42356584Y-91886795D01*
X42356586Y-91886795D01*
X42356577Y-91886793D01*
X42356573Y-91886792D01*
X42356570Y-91886792D01*
X42138602Y-91867723D01*
X42138598Y-91867723D01*
X41993282Y-91880436D01*
X41920623Y-91886793D01*
X41920620Y-91886793D01*
X41709277Y-91943422D01*
X41709268Y-91943426D01*
X41510961Y-92035898D01*
X41510957Y-92035900D01*
X41331721Y-92161402D01*
X41177002Y-92316121D01*
X41051500Y-92495357D01*
X41051498Y-92495361D01*
X40959026Y-92693668D01*
X40959022Y-92693677D01*
X40902393Y-92905020D01*
X40902393Y-92905024D01*
X40883323Y-93122997D01*
X40883323Y-93123002D01*
X40902392Y-93340970D01*
X40902395Y-93340984D01*
X40919576Y-93405108D01*
X40917913Y-93474958D01*
X40887482Y-93524881D01*
X39833184Y-94579181D01*
X39771861Y-94612666D01*
X39745503Y-94615500D01*
X39036658Y-94615500D01*
X38969619Y-94595815D01*
X38931119Y-94556597D01*
X38848312Y-94422344D01*
X38724256Y-94298288D01*
X38574934Y-94206186D01*
X38408397Y-94151001D01*
X38408395Y-94151000D01*
X38305610Y-94140500D01*
X36905598Y-94140500D01*
X36905581Y-94140501D01*
X36802803Y-94151000D01*
X36802800Y-94151001D01*
X36636268Y-94206185D01*
X36636263Y-94206187D01*
X36486942Y-94298289D01*
X36362889Y-94422342D01*
X36270787Y-94571663D01*
X36270785Y-94571668D01*
X36262784Y-94595815D01*
X36215601Y-94738203D01*
X36215601Y-94738204D01*
X36215600Y-94738204D01*
X36205100Y-94840983D01*
X36205100Y-95591001D01*
X36205101Y-95591019D01*
X36215600Y-95693796D01*
X36215601Y-95693799D01*
X36270785Y-95860331D01*
X36270787Y-95860336D01*
X36296794Y-95902500D01*
X36362888Y-96009656D01*
X36486944Y-96133712D01*
X36636266Y-96225814D01*
X36802803Y-96280999D01*
X36905591Y-96291500D01*
X38305608Y-96291499D01*
X38408397Y-96280999D01*
X38574934Y-96225814D01*
X38724256Y-96133712D01*
X38848312Y-96009656D01*
X38931119Y-95875402D01*
X38983067Y-95828679D01*
X39036658Y-95816500D01*
X39958931Y-95816500D01*
X39958947Y-95816501D01*
X39966543Y-95816501D01*
X40124654Y-95816501D01*
X40124657Y-95816501D01*
X40277385Y-95775577D01*
X40327504Y-95746639D01*
X40414316Y-95696520D01*
X40526120Y-95584716D01*
X40526120Y-95584714D01*
X40536328Y-95574507D01*
X40536330Y-95574504D01*
X41736719Y-94374114D01*
X41798040Y-94340631D01*
X41856491Y-94342022D01*
X41920623Y-94359207D01*
X42108387Y-94375633D01*
X42138598Y-94378277D01*
X42138600Y-94378277D01*
X42138602Y-94378277D01*
X42166854Y-94375805D01*
X42356577Y-94359207D01*
X42567930Y-94302575D01*
X42766239Y-94210102D01*
X42945477Y-94084598D01*
X43100198Y-93929877D01*
X43225702Y-93750639D01*
X43318175Y-93552330D01*
X43374807Y-93340977D01*
X43393877Y-93123000D01*
X43374807Y-92905023D01*
X43357623Y-92840891D01*
X43359286Y-92771041D01*
X43389715Y-92721119D01*
X43526017Y-92584816D01*
X43587339Y-92551334D01*
X43613697Y-92548500D01*
X46122398Y-92548500D01*
X46189437Y-92568185D01*
X46232883Y-92616205D01*
X46239715Y-92629614D01*
X46360028Y-92795213D01*
X46504786Y-92939971D01*
X46659749Y-93052556D01*
X46670390Y-93060287D01*
X46761840Y-93106883D01*
X46763080Y-93107515D01*
X46813876Y-93155490D01*
X46830671Y-93223311D01*
X46808134Y-93289446D01*
X46763080Y-93328485D01*
X46670386Y-93375715D01*
X46504786Y-93496028D01*
X46360028Y-93640786D01*
X46239715Y-93806386D01*
X46146781Y-93988776D01*
X46083522Y-94183465D01*
X46052667Y-94378277D01*
X46051500Y-94385648D01*
X46051500Y-94590352D01*
X46052365Y-94595815D01*
X46083522Y-94792534D01*
X46146781Y-94987223D01*
X46239715Y-95169613D01*
X46360028Y-95335213D01*
X46504786Y-95479971D01*
X46639640Y-95577946D01*
X46670390Y-95600287D01*
X46761840Y-95646883D01*
X46763080Y-95647515D01*
X46813876Y-95695490D01*
X46830671Y-95763311D01*
X46808134Y-95829446D01*
X46763080Y-95868485D01*
X46670386Y-95915715D01*
X46504786Y-96036028D01*
X46360028Y-96180786D01*
X46239715Y-96346385D01*
X46232883Y-96359795D01*
X46184909Y-96410591D01*
X46122398Y-96427500D01*
X45552670Y-96427500D01*
X45552654Y-96427499D01*
X45545058Y-96427499D01*
X45386943Y-96427499D01*
X45310579Y-96447961D01*
X45234214Y-96468423D01*
X45234209Y-96468426D01*
X45097290Y-96547475D01*
X45097282Y-96547481D01*
X44491584Y-97153181D01*
X44430261Y-97186666D01*
X44403903Y-97189500D01*
X42504670Y-97189500D01*
X42504654Y-97189499D01*
X42497058Y-97189499D01*
X42338943Y-97189499D01*
X42262579Y-97209961D01*
X42186214Y-97230423D01*
X42186209Y-97230426D01*
X42049290Y-97309475D01*
X42049282Y-97309481D01*
X40936401Y-98422362D01*
X40875078Y-98455847D01*
X40822362Y-98455847D01*
X40774231Y-98445377D01*
X40774230Y-98445376D01*
X40774226Y-98445376D01*
X40725948Y-98442500D01*
X40554052Y-98442500D01*
X40505774Y-98445376D01*
X40505769Y-98445376D01*
X40505768Y-98445377D01*
X40295750Y-98491063D01*
X40295739Y-98491066D01*
X40098154Y-98575677D01*
X39920151Y-98696151D01*
X39920142Y-98696159D01*
X39768159Y-98848142D01*
X39768151Y-98848151D01*
X39647677Y-99026154D01*
X39563066Y-99223739D01*
X39563063Y-99223750D01*
X39517377Y-99433768D01*
X39517376Y-99433774D01*
X39514500Y-99482052D01*
X39514500Y-99653948D01*
X39517376Y-99702226D01*
X39517376Y-99702230D01*
X39517377Y-99702231D01*
X39563063Y-99912249D01*
X39563066Y-99912260D01*
X39647677Y-100109845D01*
X39768151Y-100287848D01*
X39768159Y-100287857D01*
X39920142Y-100439840D01*
X39920151Y-100439848D01*
X40049460Y-100527365D01*
X40098152Y-100560321D01*
X40295741Y-100644934D01*
X40505774Y-100690624D01*
X40554052Y-100693500D01*
X40554064Y-100693500D01*
X40725936Y-100693500D01*
X40725948Y-100693500D01*
X40774226Y-100690624D01*
X40984259Y-100644934D01*
X41181848Y-100560321D01*
X41359855Y-100439843D01*
X41511843Y-100287855D01*
X41632321Y-100109848D01*
X41716934Y-99912259D01*
X41762624Y-99702226D01*
X41765500Y-99653948D01*
X41765500Y-99482052D01*
X41762624Y-99433774D01*
X41752152Y-99385636D01*
X41757136Y-99315945D01*
X41785637Y-99271597D01*
X41988454Y-99068781D01*
X42630417Y-98426819D01*
X42691740Y-98393334D01*
X42718098Y-98390500D01*
X42932916Y-98390500D01*
X42999955Y-98410185D01*
X43045710Y-98462989D01*
X43055654Y-98532147D01*
X43026629Y-98595703D01*
X43002418Y-98617191D01*
X42885751Y-98696151D01*
X42885742Y-98696159D01*
X42733759Y-98848142D01*
X42733751Y-98848151D01*
X42613277Y-99026154D01*
X42528666Y-99223739D01*
X42528663Y-99223750D01*
X42482977Y-99433768D01*
X42482976Y-99433774D01*
X42480100Y-99482052D01*
X42480100Y-99653948D01*
X42482976Y-99702226D01*
X42482976Y-99702230D01*
X42482977Y-99702231D01*
X42528663Y-99912249D01*
X42528666Y-99912260D01*
X42613277Y-100109845D01*
X42733751Y-100287848D01*
X42733759Y-100287857D01*
X42885742Y-100439840D01*
X42885751Y-100439848D01*
X43015060Y-100527365D01*
X43063752Y-100560321D01*
X43261341Y-100644934D01*
X43471374Y-100690624D01*
X43519652Y-100693500D01*
X43519664Y-100693500D01*
X43691536Y-100693500D01*
X43691548Y-100693500D01*
X43739826Y-100690624D01*
X43949859Y-100644934D01*
X44147448Y-100560321D01*
X44325455Y-100439843D01*
X44477443Y-100287855D01*
X44521339Y-100222997D01*
X44575217Y-100178512D01*
X44624030Y-100168500D01*
X46122398Y-100168500D01*
X46189437Y-100188185D01*
X46232883Y-100236205D01*
X46239715Y-100249614D01*
X46360028Y-100415213D01*
X46504786Y-100559971D01*
X46621729Y-100644933D01*
X46670390Y-100680287D01*
X46761840Y-100726883D01*
X46763080Y-100727515D01*
X46813876Y-100775490D01*
X46830671Y-100843311D01*
X46808134Y-100909446D01*
X46763080Y-100948485D01*
X46670386Y-100995715D01*
X46504786Y-101116028D01*
X46360028Y-101260786D01*
X46239715Y-101426385D01*
X46232883Y-101439795D01*
X46184909Y-101490591D01*
X46122398Y-101507500D01*
X44706430Y-101507500D01*
X44639391Y-101487815D01*
X44603739Y-101453002D01*
X44594800Y-101439795D01*
X44559843Y-101388145D01*
X44407855Y-101236157D01*
X44407853Y-101236156D01*
X44407848Y-101236151D01*
X44234037Y-101118514D01*
X44229848Y-101115679D01*
X44229847Y-101115678D01*
X44229845Y-101115677D01*
X44032260Y-101031066D01*
X44032249Y-101031063D01*
X43822231Y-100985377D01*
X43822230Y-100985376D01*
X43822226Y-100985376D01*
X43773948Y-100982500D01*
X43602052Y-100982500D01*
X43553774Y-100985376D01*
X43553769Y-100985376D01*
X43553768Y-100985377D01*
X43343750Y-101031063D01*
X43343739Y-101031066D01*
X43146154Y-101115677D01*
X42968151Y-101236151D01*
X42968142Y-101236159D01*
X42816159Y-101388142D01*
X42816151Y-101388151D01*
X42695677Y-101566154D01*
X42611066Y-101763739D01*
X42611063Y-101763750D01*
X42565377Y-101973768D01*
X42565376Y-101973774D01*
X42562500Y-102022052D01*
X42562500Y-102193948D01*
X42565376Y-102242226D01*
X42565376Y-102242230D01*
X42565377Y-102242231D01*
X42611063Y-102452249D01*
X42611066Y-102452260D01*
X42695677Y-102649845D01*
X42816151Y-102827848D01*
X42816159Y-102827857D01*
X42968142Y-102979840D01*
X42968151Y-102979848D01*
X43097460Y-103067365D01*
X43146152Y-103100321D01*
X43343741Y-103184934D01*
X43553774Y-103230624D01*
X43602052Y-103233500D01*
X43602064Y-103233500D01*
X43773936Y-103233500D01*
X43773948Y-103233500D01*
X43822226Y-103230624D01*
X44032259Y-103184934D01*
X44229848Y-103100321D01*
X44407855Y-102979843D01*
X44559843Y-102827855D01*
X44603739Y-102762997D01*
X44657617Y-102718512D01*
X44706430Y-102708500D01*
X46122398Y-102708500D01*
X46189437Y-102728185D01*
X46232883Y-102776205D01*
X46239715Y-102789614D01*
X46360028Y-102955213D01*
X46504786Y-103099971D01*
X46621729Y-103184933D01*
X46670390Y-103220287D01*
X46786607Y-103279503D01*
X46852776Y-103313218D01*
X46852778Y-103313218D01*
X46852781Y-103313220D01*
X46957137Y-103347127D01*
X47047465Y-103376477D01*
X47148557Y-103392488D01*
X47249648Y-103408500D01*
X47249649Y-103408500D01*
X48254351Y-103408500D01*
X48254352Y-103408500D01*
X48456534Y-103376477D01*
X48651219Y-103313220D01*
X48833610Y-103220287D01*
X48926590Y-103152732D01*
X48999213Y-103099971D01*
X48999215Y-103099968D01*
X48999219Y-103099966D01*
X49143966Y-102955219D01*
X49143968Y-102955215D01*
X49143971Y-102955213D01*
X49236499Y-102827857D01*
X49264287Y-102789610D01*
X49357220Y-102607219D01*
X49420477Y-102412534D01*
X49452500Y-102210352D01*
X49452500Y-102005648D01*
X49425248Y-101833590D01*
X49420477Y-101803465D01*
X49357218Y-101608776D01*
X49323503Y-101542607D01*
X49264287Y-101426390D01*
X49236501Y-101388145D01*
X49143971Y-101260786D01*
X48999213Y-101116028D01*
X48833614Y-100995715D01*
X48813324Y-100985377D01*
X48740917Y-100948483D01*
X48690123Y-100900511D01*
X48673328Y-100832690D01*
X48695865Y-100766555D01*
X48740917Y-100727516D01*
X48833610Y-100680287D01*
X48882271Y-100644933D01*
X48999213Y-100559971D01*
X48999215Y-100559968D01*
X48999219Y-100559966D01*
X49143966Y-100415219D01*
X49143968Y-100415215D01*
X49143971Y-100415213D01*
X49236499Y-100287857D01*
X49264287Y-100249610D01*
X49357220Y-100067219D01*
X49420477Y-99872534D01*
X49452500Y-99670352D01*
X49452500Y-99465648D01*
X49420477Y-99263466D01*
X49407572Y-99223750D01*
X49357218Y-99068776D01*
X49323503Y-99002607D01*
X49264287Y-98886390D01*
X49236501Y-98848145D01*
X49143971Y-98720786D01*
X48999213Y-98576028D01*
X48833614Y-98455715D01*
X48813324Y-98445377D01*
X48740917Y-98408483D01*
X48690123Y-98360511D01*
X48673328Y-98292690D01*
X48695865Y-98226555D01*
X48740917Y-98187516D01*
X48833610Y-98140287D01*
X48882271Y-98104933D01*
X48999213Y-98019971D01*
X48999215Y-98019968D01*
X48999219Y-98019966D01*
X49143966Y-97875219D01*
X49143968Y-97875215D01*
X49143971Y-97875213D01*
X49236499Y-97747857D01*
X49264287Y-97709610D01*
X49357220Y-97527219D01*
X49420477Y-97332534D01*
X49452500Y-97130352D01*
X49452500Y-96925648D01*
X49442104Y-96860009D01*
X49420477Y-96723465D01*
X49363296Y-96547481D01*
X49357220Y-96528781D01*
X49357218Y-96528778D01*
X49357218Y-96528776D01*
X49323503Y-96462607D01*
X49264287Y-96346390D01*
X49236501Y-96308145D01*
X49143971Y-96180786D01*
X48999213Y-96036028D01*
X48833614Y-95915715D01*
X48813324Y-95905377D01*
X48740917Y-95868483D01*
X48690123Y-95820511D01*
X48673328Y-95752690D01*
X48695865Y-95686555D01*
X48740917Y-95647516D01*
X48833610Y-95600287D01*
X48864360Y-95577946D01*
X48999213Y-95479971D01*
X48999215Y-95479968D01*
X48999219Y-95479966D01*
X49143966Y-95335219D01*
X49143968Y-95335215D01*
X49143971Y-95335213D01*
X49264284Y-95169614D01*
X49264285Y-95169613D01*
X49264287Y-95169610D01*
X49271117Y-95156204D01*
X49319091Y-95105409D01*
X49381602Y-95088500D01*
X49951331Y-95088500D01*
X49951347Y-95088501D01*
X49958943Y-95088501D01*
X50117054Y-95088501D01*
X50117057Y-95088501D01*
X50269785Y-95047577D01*
X50283765Y-95039505D01*
X50321364Y-95017798D01*
X50321375Y-95017790D01*
X50321387Y-95017784D01*
X50406716Y-94968520D01*
X50518520Y-94856716D01*
X50518520Y-94856714D01*
X50528724Y-94846511D01*
X50528727Y-94846506D01*
X51280520Y-94094716D01*
X51359577Y-93957784D01*
X51400501Y-93805057D01*
X51400501Y-93646942D01*
X51400501Y-93639347D01*
X51400500Y-93639329D01*
X51400500Y-67220124D01*
X51420185Y-67153085D01*
X51472989Y-67107330D01*
X51538384Y-67096904D01*
X51552960Y-67098546D01*
X51561999Y-67099565D01*
X51562000Y-67099565D01*
X51562001Y-67099565D01*
X51571575Y-67098486D01*
X51585615Y-67096904D01*
X51654437Y-67108958D01*
X51705817Y-67156306D01*
X51723500Y-67220124D01*
X51723500Y-101259330D01*
X51723499Y-101259348D01*
X51723499Y-101425054D01*
X51723498Y-101425054D01*
X51761305Y-101566152D01*
X51764423Y-101577785D01*
X51782318Y-101608780D01*
X51782319Y-101608782D01*
X51782320Y-101608782D01*
X51843479Y-101714714D01*
X51843481Y-101714717D01*
X51962349Y-101833585D01*
X51962354Y-101833589D01*
X52717284Y-102588520D01*
X52717286Y-102588521D01*
X52717290Y-102588524D01*
X52823503Y-102649845D01*
X52854216Y-102667577D01*
X53006943Y-102708501D01*
X53006945Y-102708501D01*
X53172654Y-102708501D01*
X53172670Y-102708500D01*
X53742398Y-102708500D01*
X53809437Y-102728185D01*
X53852883Y-102776205D01*
X53859715Y-102789614D01*
X53980028Y-102955213D01*
X54124786Y-103099971D01*
X54241729Y-103184933D01*
X54290390Y-103220287D01*
X54406607Y-103279503D01*
X54472776Y-103313218D01*
X54472778Y-103313218D01*
X54472781Y-103313220D01*
X54577137Y-103347127D01*
X54667465Y-103376477D01*
X54768557Y-103392488D01*
X54869648Y-103408500D01*
X54869649Y-103408500D01*
X55874351Y-103408500D01*
X55874352Y-103408500D01*
X56076534Y-103376477D01*
X56271219Y-103313220D01*
X56453610Y-103220287D01*
X56546590Y-103152732D01*
X56619213Y-103099971D01*
X56619215Y-103099968D01*
X56619219Y-103099966D01*
X56763966Y-102955219D01*
X56763968Y-102955215D01*
X56763971Y-102955213D01*
X56856499Y-102827857D01*
X56884287Y-102789610D01*
X56977220Y-102607219D01*
X57040477Y-102412534D01*
X57072500Y-102210352D01*
X57072500Y-102005648D01*
X57045248Y-101833590D01*
X57040477Y-101803465D01*
X56977218Y-101608776D01*
X56943503Y-101542607D01*
X56884287Y-101426390D01*
X56856501Y-101388145D01*
X56763971Y-101260786D01*
X56619213Y-101116028D01*
X56453614Y-100995715D01*
X56433324Y-100985377D01*
X56360917Y-100948483D01*
X56310123Y-100900511D01*
X56293328Y-100832690D01*
X56315865Y-100766555D01*
X56360917Y-100727516D01*
X56453610Y-100680287D01*
X56502271Y-100644933D01*
X56619213Y-100559971D01*
X56619215Y-100559968D01*
X56619219Y-100559966D01*
X56763966Y-100415219D01*
X56763968Y-100415215D01*
X56763971Y-100415213D01*
X56884284Y-100249614D01*
X56884285Y-100249613D01*
X56884287Y-100249610D01*
X56891117Y-100236204D01*
X56939091Y-100185409D01*
X57001602Y-100168500D01*
X58587170Y-100168500D01*
X58654209Y-100188185D01*
X58689860Y-100222997D01*
X58733757Y-100287855D01*
X58733759Y-100287857D01*
X58733760Y-100287858D01*
X58885742Y-100439840D01*
X58885751Y-100439848D01*
X59015060Y-100527365D01*
X59063752Y-100560321D01*
X59261341Y-100644934D01*
X59471374Y-100690624D01*
X59519652Y-100693500D01*
X59519664Y-100693500D01*
X59691536Y-100693500D01*
X59691548Y-100693500D01*
X59739826Y-100690624D01*
X59949859Y-100644934D01*
X60147448Y-100560321D01*
X60325455Y-100439843D01*
X60477443Y-100287855D01*
X60597921Y-100109848D01*
X60682534Y-99912259D01*
X60728224Y-99702226D01*
X60731100Y-99653948D01*
X60731100Y-99482052D01*
X60728224Y-99433774D01*
X60682534Y-99223741D01*
X60597921Y-99026152D01*
X60544901Y-98947815D01*
X60477448Y-98848151D01*
X60477440Y-98848142D01*
X60325457Y-98696159D01*
X60325448Y-98696151D01*
X60151637Y-98578514D01*
X60147448Y-98575679D01*
X60147447Y-98575678D01*
X60147445Y-98575677D01*
X59949860Y-98491066D01*
X59949849Y-98491063D01*
X59739831Y-98445377D01*
X59739830Y-98445376D01*
X59739826Y-98445376D01*
X59691548Y-98442500D01*
X59519652Y-98442500D01*
X59471374Y-98445376D01*
X59471369Y-98445376D01*
X59471368Y-98445377D01*
X59261350Y-98491063D01*
X59261339Y-98491066D01*
X59063754Y-98575677D01*
X58885751Y-98696151D01*
X58885742Y-98696159D01*
X58733760Y-98848141D01*
X58733754Y-98848149D01*
X58689861Y-98913002D01*
X58635983Y-98957488D01*
X58587170Y-98967500D01*
X57001602Y-98967500D01*
X56934563Y-98947815D01*
X56891117Y-98899795D01*
X56884284Y-98886385D01*
X56763971Y-98720786D01*
X56619213Y-98576028D01*
X56453614Y-98455715D01*
X56433324Y-98445377D01*
X56360917Y-98408483D01*
X56310123Y-98360511D01*
X56293328Y-98292690D01*
X56315865Y-98226555D01*
X56360917Y-98187516D01*
X56453610Y-98140287D01*
X56502271Y-98104933D01*
X56619213Y-98019971D01*
X56619215Y-98019968D01*
X56619219Y-98019966D01*
X56763966Y-97875219D01*
X56763968Y-97875215D01*
X56763971Y-97875213D01*
X56884284Y-97709614D01*
X56884285Y-97709613D01*
X56884287Y-97709610D01*
X56891117Y-97696204D01*
X56939091Y-97645409D01*
X57001602Y-97628500D01*
X58587170Y-97628500D01*
X58654209Y-97648185D01*
X58689860Y-97682997D01*
X58733757Y-97747855D01*
X58733759Y-97747857D01*
X58733760Y-97747858D01*
X58885742Y-97899840D01*
X58885751Y-97899848D01*
X59015060Y-97987365D01*
X59063752Y-98020321D01*
X59261341Y-98104934D01*
X59471374Y-98150624D01*
X59519652Y-98153500D01*
X59519664Y-98153500D01*
X59691536Y-98153500D01*
X59691548Y-98153500D01*
X59739826Y-98150624D01*
X59949859Y-98104934D01*
X60147448Y-98020321D01*
X60325455Y-97899843D01*
X60477443Y-97747855D01*
X60597921Y-97569848D01*
X60682534Y-97372259D01*
X60728224Y-97162226D01*
X60731100Y-97113948D01*
X60731100Y-96942052D01*
X60728224Y-96893774D01*
X60682534Y-96683741D01*
X60597921Y-96486152D01*
X60544901Y-96407815D01*
X60477448Y-96308151D01*
X60477440Y-96308142D01*
X60325457Y-96156159D01*
X60325448Y-96156151D01*
X60151637Y-96038514D01*
X60147448Y-96035679D01*
X60147447Y-96035678D01*
X60147445Y-96035677D01*
X59949860Y-95951066D01*
X59949849Y-95951063D01*
X59739831Y-95905377D01*
X59739830Y-95905376D01*
X59739826Y-95905376D01*
X59691548Y-95902500D01*
X59519652Y-95902500D01*
X59471374Y-95905376D01*
X59471369Y-95905376D01*
X59471368Y-95905377D01*
X59261350Y-95951063D01*
X59261339Y-95951066D01*
X59063754Y-96035677D01*
X58885751Y-96156151D01*
X58885742Y-96156159D01*
X58733760Y-96308141D01*
X58733754Y-96308149D01*
X58689861Y-96373002D01*
X58635983Y-96417488D01*
X58587170Y-96427500D01*
X57001602Y-96427500D01*
X56934563Y-96407815D01*
X56891117Y-96359795D01*
X56884284Y-96346385D01*
X56763971Y-96180786D01*
X56619213Y-96036028D01*
X56453614Y-95915715D01*
X56433324Y-95905377D01*
X56360917Y-95868483D01*
X56310123Y-95820511D01*
X56293328Y-95752690D01*
X56315865Y-95686555D01*
X56360917Y-95647516D01*
X56453610Y-95600287D01*
X56484360Y-95577946D01*
X56619213Y-95479971D01*
X56619215Y-95479968D01*
X56619219Y-95479966D01*
X56763966Y-95335219D01*
X56763968Y-95335215D01*
X56763971Y-95335213D01*
X56884284Y-95169614D01*
X56884285Y-95169613D01*
X56884287Y-95169610D01*
X56891117Y-95156204D01*
X56939091Y-95105409D01*
X57001602Y-95088500D01*
X57862233Y-95088500D01*
X57894325Y-95092725D01*
X57914682Y-95098179D01*
X57934543Y-95103501D01*
X57934545Y-95103501D01*
X58092654Y-95103501D01*
X58092657Y-95103501D01*
X58245385Y-95062577D01*
X58382316Y-94983519D01*
X58546016Y-94819819D01*
X58607339Y-94786334D01*
X58633697Y-94783500D01*
X58890792Y-94783500D01*
X58957831Y-94803185D01*
X58978474Y-94819820D01*
X59009729Y-94851076D01*
X59009733Y-94851079D01*
X59009735Y-94851081D01*
X59151202Y-94934744D01*
X59192824Y-94946836D01*
X59309026Y-94980597D01*
X59309029Y-94980597D01*
X59309031Y-94980598D01*
X59345906Y-94983500D01*
X59345914Y-94983500D01*
X60502286Y-94983500D01*
X60502294Y-94983500D01*
X60539169Y-94980598D01*
X60539171Y-94980597D01*
X60539173Y-94980597D01*
X60614008Y-94958855D01*
X60696998Y-94934744D01*
X60838465Y-94851081D01*
X60954681Y-94734865D01*
X60954867Y-94734549D01*
X60955077Y-94734353D01*
X60959461Y-94728702D01*
X60960372Y-94729409D01*
X61005936Y-94686866D01*
X61074677Y-94674362D01*
X61139267Y-94701006D01*
X61163455Y-94728921D01*
X61163739Y-94728702D01*
X61167779Y-94733911D01*
X61168332Y-94734548D01*
X61168519Y-94734865D01*
X61168521Y-94734867D01*
X61168523Y-94734870D01*
X61284729Y-94851076D01*
X61284733Y-94851079D01*
X61284735Y-94851081D01*
X61426202Y-94934744D01*
X61509197Y-94958856D01*
X61568080Y-94996462D01*
X61597287Y-95059934D01*
X61598600Y-95077932D01*
X61598600Y-95299830D01*
X61598599Y-95299848D01*
X61598599Y-95465554D01*
X61598598Y-95465554D01*
X61628714Y-95577946D01*
X61639523Y-95618285D01*
X61656399Y-95647515D01*
X61668458Y-95668400D01*
X61668459Y-95668404D01*
X61668460Y-95668404D01*
X61684692Y-95696520D01*
X61718579Y-95755214D01*
X61718581Y-95755217D01*
X61837449Y-95874085D01*
X61837454Y-95874089D01*
X62628884Y-96665520D01*
X62628886Y-96665521D01*
X62628890Y-96665524D01*
X62729250Y-96723466D01*
X62765816Y-96744577D01*
X62918543Y-96785501D01*
X62918545Y-96785501D01*
X63084254Y-96785501D01*
X63084270Y-96785500D01*
X65274511Y-96785500D01*
X65341550Y-96805185D01*
X65387305Y-96857989D01*
X65397869Y-96896898D01*
X65404601Y-96962797D01*
X65404601Y-96962799D01*
X65454683Y-97113935D01*
X65459786Y-97129334D01*
X65551888Y-97278656D01*
X65675944Y-97402712D01*
X65825266Y-97494814D01*
X65991803Y-97549999D01*
X66094591Y-97560500D01*
X66944608Y-97560499D01*
X66944616Y-97560498D01*
X66944619Y-97560498D01*
X67000902Y-97554748D01*
X67047397Y-97549999D01*
X67213934Y-97494814D01*
X67363256Y-97402712D01*
X67487312Y-97278656D01*
X67579414Y-97129334D01*
X67634599Y-96962797D01*
X67645100Y-96860009D01*
X67645099Y-95509992D01*
X67634599Y-95407203D01*
X67579414Y-95240666D01*
X67487312Y-95091344D01*
X67363256Y-94967288D01*
X67213934Y-94875186D01*
X67047397Y-94820001D01*
X67037252Y-94818964D01*
X67016000Y-94816793D01*
X66951309Y-94790396D01*
X66911159Y-94733214D01*
X66908297Y-94663403D01*
X66943632Y-94603127D01*
X66989598Y-94575730D01*
X67088934Y-94542814D01*
X67238256Y-94450712D01*
X67362312Y-94326656D01*
X67454414Y-94177334D01*
X67509599Y-94010797D01*
X67520100Y-93908009D01*
X67520099Y-92557992D01*
X67517808Y-92535569D01*
X67509599Y-92455203D01*
X67509598Y-92455200D01*
X67506953Y-92447219D01*
X67454414Y-92288666D01*
X67362312Y-92139344D01*
X67238256Y-92015288D01*
X67136700Y-91952648D01*
X67088936Y-91923187D01*
X67088931Y-91923185D01*
X67080092Y-91920256D01*
X66922397Y-91868001D01*
X66922395Y-91868000D01*
X66819610Y-91857500D01*
X66094598Y-91857500D01*
X66094580Y-91857501D01*
X65991803Y-91868000D01*
X65991800Y-91868001D01*
X65825268Y-91923185D01*
X65825263Y-91923187D01*
X65675942Y-92015289D01*
X65551889Y-92139342D01*
X65459787Y-92288663D01*
X65459785Y-92288668D01*
X65431949Y-92372670D01*
X65407111Y-92447630D01*
X65404601Y-92455204D01*
X65404600Y-92455205D01*
X65397868Y-92521103D01*
X65371471Y-92585795D01*
X65314290Y-92625946D01*
X65274510Y-92632500D01*
X64844412Y-92632500D01*
X64777373Y-92612815D01*
X64767097Y-92605445D01*
X64764263Y-92603185D01*
X64764262Y-92603184D01*
X64707496Y-92567515D01*
X64611523Y-92507211D01*
X64441254Y-92447631D01*
X64441249Y-92447630D01*
X64262004Y-92427435D01*
X64261996Y-92427435D01*
X64082750Y-92447630D01*
X64082745Y-92447631D01*
X63912476Y-92507211D01*
X63759736Y-92603185D01*
X63756903Y-92605445D01*
X63754724Y-92606334D01*
X63753842Y-92606889D01*
X63753744Y-92606734D01*
X63692217Y-92631855D01*
X63679588Y-92632500D01*
X63485712Y-92632500D01*
X63418673Y-92612815D01*
X63372918Y-92560011D01*
X63362513Y-92501152D01*
X63362004Y-92501132D01*
X63362095Y-92498789D01*
X63362094Y-92498778D01*
X63362098Y-92498717D01*
X63362100Y-92498694D01*
X63362100Y-92067306D01*
X63359198Y-92030431D01*
X63354798Y-92015287D01*
X63319006Y-91892092D01*
X63313344Y-91872602D01*
X63229681Y-91731135D01*
X63229679Y-91731133D01*
X63229676Y-91731129D01*
X63113470Y-91614923D01*
X63113462Y-91614917D01*
X63001002Y-91548409D01*
X62971998Y-91531256D01*
X62971997Y-91531255D01*
X62971996Y-91531255D01*
X62971995Y-91531254D01*
X62889004Y-91507143D01*
X62830119Y-91469536D01*
X62800913Y-91406064D01*
X62799600Y-91388067D01*
X62799600Y-91379597D01*
X62819285Y-91312558D01*
X62835919Y-91291916D01*
X63306016Y-90821819D01*
X63367339Y-90788334D01*
X63393697Y-90785500D01*
X65274511Y-90785500D01*
X65341550Y-90805185D01*
X65387305Y-90857989D01*
X65397869Y-90896898D01*
X65404601Y-90962797D01*
X65404601Y-90962799D01*
X65450324Y-91100781D01*
X65459786Y-91129334D01*
X65551888Y-91278656D01*
X65675944Y-91402712D01*
X65825266Y-91494814D01*
X65991803Y-91549999D01*
X66094591Y-91560500D01*
X66944608Y-91560499D01*
X66944616Y-91560498D01*
X66944619Y-91560498D01*
X67000902Y-91554748D01*
X67047397Y-91549999D01*
X67213934Y-91494814D01*
X67363256Y-91402712D01*
X67487312Y-91278656D01*
X67579414Y-91129334D01*
X67634599Y-90962797D01*
X67645100Y-90860009D01*
X67645099Y-89509992D01*
X67645098Y-89509983D01*
X68194100Y-89509983D01*
X68194100Y-90860001D01*
X68194101Y-90860018D01*
X68204600Y-90962796D01*
X68204601Y-90962799D01*
X68250324Y-91100781D01*
X68259786Y-91129334D01*
X68351888Y-91278656D01*
X68475944Y-91402712D01*
X68625266Y-91494814D01*
X68634098Y-91497740D01*
X68691544Y-91537508D01*
X68718371Y-91602022D01*
X68719100Y-91615448D01*
X68719100Y-91873201D01*
X68699415Y-91940240D01*
X68660198Y-91978739D01*
X68600944Y-92015287D01*
X68476889Y-92139342D01*
X68384787Y-92288663D01*
X68384785Y-92288668D01*
X68356949Y-92372670D01*
X68329601Y-92455203D01*
X68329601Y-92455204D01*
X68329600Y-92455204D01*
X68319100Y-92557983D01*
X68319100Y-93908001D01*
X68319101Y-93908018D01*
X68329600Y-94010796D01*
X68329601Y-94010799D01*
X68384785Y-94177331D01*
X68384787Y-94177336D01*
X68404997Y-94210102D01*
X68476888Y-94326656D01*
X68600944Y-94450712D01*
X68660196Y-94487258D01*
X68706921Y-94539204D01*
X68719100Y-94592797D01*
X68719100Y-94754551D01*
X68699415Y-94821590D01*
X68646611Y-94867345D01*
X68634107Y-94872256D01*
X68625267Y-94875185D01*
X68475942Y-94967289D01*
X68351889Y-95091342D01*
X68259787Y-95240663D01*
X68259786Y-95240666D01*
X68204601Y-95407203D01*
X68204601Y-95407204D01*
X68204600Y-95407204D01*
X68194100Y-95509983D01*
X68194100Y-96860001D01*
X68194101Y-96860018D01*
X68204600Y-96962796D01*
X68204601Y-96962799D01*
X68254683Y-97113935D01*
X68259786Y-97129334D01*
X68351888Y-97278656D01*
X68475944Y-97402712D01*
X68625266Y-97494814D01*
X68791803Y-97549999D01*
X68894591Y-97560500D01*
X69744608Y-97560499D01*
X69744616Y-97560498D01*
X69744619Y-97560498D01*
X69800902Y-97554748D01*
X69847397Y-97549999D01*
X70013934Y-97494814D01*
X70163256Y-97402712D01*
X70287312Y-97278656D01*
X70379414Y-97129334D01*
X70434599Y-96962797D01*
X70445100Y-96860009D01*
X70445099Y-95509992D01*
X70434599Y-95407203D01*
X70379414Y-95240666D01*
X70287312Y-95091344D01*
X70163256Y-94967288D01*
X70013934Y-94875186D01*
X70013933Y-94875185D01*
X70013932Y-94875185D01*
X70005093Y-94872256D01*
X69947649Y-94832482D01*
X69920828Y-94767965D01*
X69920100Y-94754551D01*
X69920100Y-94663448D01*
X69939785Y-94596409D01*
X69992589Y-94550654D01*
X70005088Y-94545744D01*
X70013934Y-94542814D01*
X70163256Y-94450712D01*
X70287312Y-94326656D01*
X70379414Y-94177334D01*
X70434599Y-94010797D01*
X70445100Y-93908009D01*
X70445099Y-92557992D01*
X70442808Y-92535569D01*
X70434599Y-92455203D01*
X70434598Y-92455200D01*
X70431953Y-92447219D01*
X70379414Y-92288666D01*
X70287312Y-92139344D01*
X70163256Y-92015288D01*
X70013934Y-91923186D01*
X70013933Y-91923185D01*
X70013932Y-91923185D01*
X70005093Y-91920256D01*
X69947649Y-91880482D01*
X69920828Y-91815965D01*
X69920100Y-91802551D01*
X69920100Y-91615448D01*
X69939785Y-91548409D01*
X69992589Y-91502654D01*
X70005088Y-91497744D01*
X70013934Y-91494814D01*
X70163256Y-91402712D01*
X70287312Y-91278656D01*
X70379414Y-91129334D01*
X70434599Y-90962797D01*
X70445100Y-90860009D01*
X70445099Y-89509992D01*
X70443569Y-89495019D01*
X70436169Y-89422573D01*
X70434599Y-89407203D01*
X70434598Y-89407200D01*
X70434598Y-89407198D01*
X70400947Y-89305648D01*
X70379414Y-89240666D01*
X70287312Y-89091344D01*
X70163256Y-88967288D01*
X70070488Y-88910069D01*
X70013936Y-88875187D01*
X70013931Y-88875185D01*
X69975650Y-88862500D01*
X69847397Y-88820001D01*
X69847395Y-88820000D01*
X69744610Y-88809500D01*
X68894598Y-88809500D01*
X68894580Y-88809501D01*
X68791803Y-88820000D01*
X68791800Y-88820001D01*
X68625268Y-88875185D01*
X68625263Y-88875187D01*
X68475942Y-88967289D01*
X68351889Y-89091342D01*
X68259787Y-89240663D01*
X68259785Y-89240668D01*
X68204600Y-89407204D01*
X68194100Y-89509983D01*
X67645098Y-89509983D01*
X67643569Y-89495019D01*
X67636169Y-89422573D01*
X67634599Y-89407203D01*
X67634598Y-89407200D01*
X67634598Y-89407198D01*
X67600947Y-89305648D01*
X67579414Y-89240666D01*
X67487312Y-89091344D01*
X67363256Y-88967288D01*
X67270488Y-88910069D01*
X67213936Y-88875187D01*
X67213931Y-88875185D01*
X67175650Y-88862500D01*
X67047397Y-88820001D01*
X67047395Y-88820000D01*
X66944610Y-88809500D01*
X66094598Y-88809500D01*
X66094580Y-88809501D01*
X65991803Y-88820000D01*
X65991800Y-88820001D01*
X65825268Y-88875185D01*
X65825263Y-88875187D01*
X65675942Y-88967289D01*
X65551889Y-89091342D01*
X65459787Y-89240663D01*
X65459785Y-89240668D01*
X65404601Y-89407204D01*
X65397868Y-89473103D01*
X65371471Y-89537795D01*
X65314290Y-89577946D01*
X65274510Y-89584500D01*
X63180269Y-89584500D01*
X63180253Y-89584499D01*
X63172657Y-89584499D01*
X63014543Y-89584499D01*
X62899997Y-89615192D01*
X62861814Y-89625423D01*
X62846059Y-89634520D01*
X62836940Y-89639785D01*
X62780912Y-89672132D01*
X62724885Y-89704479D01*
X62724882Y-89704481D01*
X61718579Y-90710784D01*
X61705320Y-90733750D01*
X61699716Y-90743458D01*
X61639523Y-90847715D01*
X61598599Y-91000443D01*
X61598599Y-91000445D01*
X61598599Y-91168546D01*
X61598600Y-91168559D01*
X61598600Y-91388067D01*
X61578915Y-91455106D01*
X61526111Y-91500861D01*
X61509196Y-91507143D01*
X61426204Y-91531254D01*
X61426203Y-91531255D01*
X61284737Y-91614917D01*
X61284729Y-91614923D01*
X61168523Y-91731129D01*
X61168514Y-91731140D01*
X61168329Y-91731455D01*
X61168119Y-91731650D01*
X61163739Y-91737298D01*
X61162827Y-91736591D01*
X61117257Y-91779136D01*
X61048515Y-91791637D01*
X60983927Y-91764988D01*
X60959743Y-91737078D01*
X60959461Y-91737298D01*
X60955423Y-91732092D01*
X60954871Y-91731455D01*
X60954685Y-91731140D01*
X60954676Y-91731129D01*
X60838470Y-91614923D01*
X60838462Y-91614917D01*
X60726002Y-91548409D01*
X60696998Y-91531256D01*
X60696997Y-91531255D01*
X60696996Y-91531255D01*
X60696993Y-91531254D01*
X60539173Y-91485402D01*
X60539167Y-91485401D01*
X60502301Y-91482500D01*
X60502294Y-91482500D01*
X59345906Y-91482500D01*
X59345898Y-91482500D01*
X59309032Y-91485401D01*
X59309026Y-91485402D01*
X59151206Y-91531254D01*
X59151203Y-91531255D01*
X59009737Y-91614917D01*
X59009729Y-91614923D01*
X58978474Y-91646180D01*
X58917152Y-91679666D01*
X58890792Y-91682500D01*
X58633698Y-91682500D01*
X58566659Y-91662815D01*
X58546017Y-91646181D01*
X58367317Y-91467481D01*
X58367312Y-91467477D01*
X58255134Y-91402712D01*
X58255132Y-91402710D01*
X58230388Y-91388424D01*
X58230387Y-91388423D01*
X58169293Y-91372053D01*
X58077657Y-91347499D01*
X57919543Y-91347499D01*
X57911947Y-91347499D01*
X57911931Y-91347500D01*
X57001602Y-91347500D01*
X56934563Y-91327815D01*
X56891117Y-91279795D01*
X56884284Y-91266385D01*
X56763971Y-91100786D01*
X56619213Y-90956028D01*
X56453614Y-90835715D01*
X56447006Y-90832348D01*
X56360917Y-90788483D01*
X56310123Y-90740511D01*
X56293328Y-90672690D01*
X56315865Y-90606555D01*
X56360917Y-90567516D01*
X56453610Y-90520287D01*
X56483271Y-90498737D01*
X56619213Y-90399971D01*
X56619215Y-90399968D01*
X56619219Y-90399966D01*
X56763966Y-90255219D01*
X56763968Y-90255215D01*
X56763971Y-90255213D01*
X56884284Y-90089614D01*
X56884285Y-90089613D01*
X56884287Y-90089610D01*
X56891117Y-90076204D01*
X56939091Y-90025409D01*
X57001602Y-90008500D01*
X57063331Y-90008500D01*
X57063347Y-90008501D01*
X57070943Y-90008501D01*
X57229054Y-90008501D01*
X57229057Y-90008501D01*
X57381785Y-89967577D01*
X57431904Y-89938639D01*
X57518716Y-89888520D01*
X57630520Y-89776716D01*
X57630520Y-89776714D01*
X57640728Y-89766507D01*
X57640730Y-89766504D01*
X57762506Y-89644728D01*
X57762511Y-89644724D01*
X57772714Y-89634520D01*
X57772716Y-89634520D01*
X57884520Y-89522716D01*
X57900511Y-89495019D01*
X57951201Y-89407221D01*
X57951202Y-89407217D01*
X57951211Y-89407203D01*
X57963577Y-89385785D01*
X58004500Y-89233058D01*
X58004500Y-89074943D01*
X58004500Y-88862500D01*
X58024185Y-88795461D01*
X58076989Y-88749706D01*
X58128500Y-88738500D01*
X58258942Y-88738500D01*
X58325981Y-88758185D01*
X58364479Y-88797401D01*
X58447288Y-88931656D01*
X58571344Y-89055712D01*
X58720666Y-89147814D01*
X58887203Y-89202999D01*
X58989991Y-89213500D01*
X60390008Y-89213499D01*
X60492797Y-89202999D01*
X60659334Y-89147814D01*
X60808656Y-89055712D01*
X60932712Y-88931656D01*
X61024814Y-88782334D01*
X61079999Y-88615797D01*
X61090500Y-88513009D01*
X61090499Y-87762992D01*
X61079999Y-87660203D01*
X61024814Y-87493666D01*
X60932712Y-87344344D01*
X60808656Y-87220288D01*
X60659334Y-87128186D01*
X60492797Y-87073001D01*
X60492795Y-87073000D01*
X60390010Y-87062500D01*
X58989998Y-87062500D01*
X58989981Y-87062501D01*
X58887203Y-87073000D01*
X58887200Y-87073001D01*
X58720668Y-87128185D01*
X58720663Y-87128187D01*
X58571342Y-87220289D01*
X58447289Y-87344342D01*
X58447288Y-87344344D01*
X58370709Y-87468500D01*
X58364481Y-87478597D01*
X58312533Y-87525321D01*
X58258942Y-87537500D01*
X58128500Y-87537500D01*
X58061461Y-87517815D01*
X58015706Y-87465011D01*
X58004500Y-87413500D01*
X58004500Y-87042946D01*
X58004500Y-87042943D01*
X57985050Y-86970352D01*
X57963577Y-86890215D01*
X57919767Y-86814334D01*
X57884520Y-86753284D01*
X57772716Y-86641480D01*
X57772715Y-86641479D01*
X57768385Y-86637149D01*
X57768374Y-86637139D01*
X57637590Y-86506355D01*
X57637588Y-86506352D01*
X57518717Y-86387481D01*
X57518716Y-86387480D01*
X57431904Y-86337360D01*
X57431904Y-86337359D01*
X57431900Y-86337358D01*
X57381785Y-86308423D01*
X57229057Y-86267499D01*
X57070943Y-86267499D01*
X57063347Y-86267499D01*
X57063331Y-86267500D01*
X57001602Y-86267500D01*
X56934563Y-86247815D01*
X56891117Y-86199795D01*
X56884284Y-86186385D01*
X56763971Y-86020786D01*
X56619213Y-85876028D01*
X56453614Y-85755715D01*
X56437634Y-85747573D01*
X56360917Y-85708483D01*
X56310123Y-85660511D01*
X56293328Y-85592690D01*
X56315865Y-85526555D01*
X56360917Y-85487516D01*
X56453610Y-85440287D01*
X56515149Y-85395577D01*
X56619213Y-85319971D01*
X56619215Y-85319968D01*
X56619219Y-85319966D01*
X56763966Y-85175219D01*
X56840227Y-85070253D01*
X56895553Y-85027590D01*
X56965166Y-85021609D01*
X57026962Y-85054214D01*
X57028212Y-85055447D01*
X57641284Y-85668520D01*
X57641286Y-85668521D01*
X57641290Y-85668524D01*
X57682306Y-85692204D01*
X57778216Y-85747577D01*
X57930943Y-85788501D01*
X57930945Y-85788501D01*
X58096654Y-85788501D01*
X58096670Y-85788500D01*
X58258942Y-85788500D01*
X58325981Y-85808185D01*
X58364479Y-85847401D01*
X58447288Y-85981656D01*
X58571344Y-86105712D01*
X58720666Y-86197814D01*
X58887203Y-86252999D01*
X58989991Y-86263500D01*
X60390008Y-86263499D01*
X60492797Y-86252999D01*
X60659334Y-86197814D01*
X60808656Y-86105712D01*
X60932712Y-85981656D01*
X61024814Y-85832334D01*
X61079999Y-85665797D01*
X61090500Y-85563009D01*
X61090499Y-84812992D01*
X61079999Y-84710203D01*
X61024814Y-84543666D01*
X60932712Y-84394344D01*
X60916549Y-84378181D01*
X60883064Y-84316858D01*
X60888048Y-84247166D01*
X60929920Y-84191233D01*
X60995384Y-84166816D01*
X61004230Y-84166500D01*
X61889331Y-84166500D01*
X61889347Y-84166501D01*
X61896943Y-84166501D01*
X62055054Y-84166501D01*
X62055057Y-84166501D01*
X62207785Y-84125577D01*
X62207787Y-84125575D01*
X62207789Y-84125575D01*
X62207790Y-84125574D01*
X62258640Y-84096216D01*
X62258641Y-84096215D01*
X62344716Y-84046520D01*
X62456520Y-83934716D01*
X62456520Y-83934714D01*
X62466724Y-83924511D01*
X62466728Y-83924506D01*
X62781006Y-83610228D01*
X62781011Y-83610224D01*
X62791214Y-83600020D01*
X62791216Y-83600020D01*
X62903020Y-83488216D01*
X62982077Y-83351284D01*
X63023000Y-83198557D01*
X63023000Y-83186347D01*
X63042685Y-83119308D01*
X63081901Y-83080810D01*
X63203656Y-83005712D01*
X63327712Y-82881656D01*
X63419814Y-82732334D01*
X63474999Y-82565797D01*
X63485500Y-82463009D01*
X63485499Y-81112992D01*
X63484688Y-81105057D01*
X63474999Y-81010203D01*
X63474998Y-81010200D01*
X63454037Y-80946945D01*
X63419814Y-80843666D01*
X63392632Y-80799596D01*
X63374192Y-80732204D01*
X63395115Y-80665540D01*
X63448757Y-80620771D01*
X63498171Y-80610500D01*
X64977903Y-80610500D01*
X65044942Y-80630185D01*
X65065584Y-80646819D01*
X65657181Y-81238416D01*
X65690666Y-81299739D01*
X65693500Y-81326097D01*
X65693500Y-82971330D01*
X65693499Y-82971348D01*
X65693499Y-83137054D01*
X65693498Y-83137054D01*
X65734424Y-83289789D01*
X65734425Y-83289790D01*
X65755437Y-83326183D01*
X65755438Y-83326184D01*
X65813477Y-83426712D01*
X65813481Y-83426717D01*
X65932349Y-83545585D01*
X65932355Y-83545590D01*
X66785139Y-84398374D01*
X66785149Y-84398385D01*
X66789479Y-84402715D01*
X66789480Y-84402716D01*
X66901284Y-84514520D01*
X66901286Y-84514521D01*
X66901290Y-84514524D01*
X66971228Y-84554902D01*
X67038216Y-84593577D01*
X67150019Y-84623534D01*
X67190942Y-84634500D01*
X67190943Y-84634500D01*
X67906281Y-84634500D01*
X67973320Y-84654185D01*
X68016765Y-84702205D01*
X68036947Y-84741814D01*
X68036948Y-84741815D01*
X68161890Y-84913786D01*
X68312213Y-85064109D01*
X68484179Y-85189048D01*
X68484181Y-85189049D01*
X68484184Y-85189051D01*
X68673588Y-85285557D01*
X68875757Y-85351246D01*
X69085713Y-85384500D01*
X69085714Y-85384500D01*
X69598286Y-85384500D01*
X69598287Y-85384500D01*
X69808243Y-85351246D01*
X70010412Y-85285557D01*
X70199816Y-85189051D01*
X70315502Y-85105001D01*
X70371786Y-85064109D01*
X70371788Y-85064106D01*
X70371792Y-85064104D01*
X70522104Y-84913792D01*
X70522106Y-84913788D01*
X70522109Y-84913786D01*
X70647050Y-84741818D01*
X70663067Y-84710383D01*
X70743557Y-84552412D01*
X70809246Y-84350243D01*
X70842500Y-84140287D01*
X70842500Y-83927713D01*
X70809246Y-83717757D01*
X70743557Y-83515588D01*
X70647051Y-83326184D01*
X70647049Y-83326181D01*
X70647048Y-83326179D01*
X70522109Y-83154213D01*
X70383294Y-83015398D01*
X70349809Y-82954075D01*
X70354793Y-82884383D01*
X70396665Y-82828450D01*
X70405879Y-82822178D01*
X70411331Y-82818814D01*
X70411334Y-82818814D01*
X70560656Y-82726712D01*
X70684712Y-82602656D01*
X70776814Y-82453334D01*
X70831999Y-82286797D01*
X70842500Y-82184009D01*
X70842499Y-80883992D01*
X70831999Y-80781203D01*
X70776814Y-80614666D01*
X70684712Y-80465344D01*
X70560656Y-80341288D01*
X70411334Y-80249186D01*
X70244797Y-80194001D01*
X70244795Y-80194000D01*
X70142010Y-80183500D01*
X68541998Y-80183500D01*
X68541981Y-80183501D01*
X68439203Y-80194000D01*
X68439200Y-80194001D01*
X68272668Y-80249185D01*
X68272663Y-80249187D01*
X68123342Y-80341289D01*
X67999289Y-80465342D01*
X67907187Y-80614663D01*
X67907185Y-80614668D01*
X67895102Y-80651132D01*
X67852001Y-80781203D01*
X67852001Y-80781204D01*
X67852000Y-80781204D01*
X67841500Y-80883983D01*
X67841500Y-82184001D01*
X67841501Y-82184018D01*
X67852000Y-82286796D01*
X67852001Y-82286799D01*
X67907185Y-82453331D01*
X67907187Y-82453336D01*
X67921572Y-82476657D01*
X67993011Y-82592480D01*
X67999289Y-82602657D01*
X68123344Y-82726712D01*
X68278120Y-82822178D01*
X68324845Y-82874126D01*
X68336068Y-82943088D01*
X68308224Y-83007171D01*
X68300706Y-83015398D01*
X68161889Y-83154215D01*
X68036949Y-83326183D01*
X68016765Y-83365795D01*
X67968791Y-83416591D01*
X67906281Y-83433500D01*
X67570097Y-83433500D01*
X67503058Y-83413815D01*
X67482416Y-83397181D01*
X66930819Y-82845584D01*
X66897334Y-82784261D01*
X66894500Y-82757903D01*
X66894500Y-81115059D01*
X66894501Y-81115046D01*
X66894501Y-80946945D01*
X66894501Y-80946943D01*
X66853577Y-80794215D01*
X66795916Y-80694344D01*
X66785160Y-80675713D01*
X66774522Y-80657287D01*
X66774521Y-80657286D01*
X66774520Y-80657284D01*
X66662716Y-80545480D01*
X66662715Y-80545479D01*
X66658385Y-80541149D01*
X66658374Y-80541139D01*
X65765590Y-79648355D01*
X65765588Y-79648352D01*
X65646717Y-79529481D01*
X65646716Y-79529480D01*
X65559904Y-79479360D01*
X65559904Y-79479359D01*
X65559900Y-79479358D01*
X65509785Y-79450423D01*
X65357057Y-79409499D01*
X65198943Y-79409499D01*
X65191347Y-79409499D01*
X65191331Y-79409500D01*
X61388940Y-79409500D01*
X61348019Y-79420464D01*
X61348019Y-79420465D01*
X61311083Y-79430362D01*
X61236214Y-79450423D01*
X61236209Y-79450426D01*
X61099290Y-79529475D01*
X61099282Y-79529481D01*
X61036515Y-79592249D01*
X60987480Y-79641284D01*
X60987478Y-79641286D01*
X60885735Y-79743029D01*
X60872363Y-79756401D01*
X60811040Y-79789885D01*
X60741348Y-79784901D01*
X60685415Y-79743029D01*
X60660998Y-79677565D01*
X60670693Y-79619909D01*
X60682534Y-79592259D01*
X60728224Y-79382226D01*
X60731100Y-79333948D01*
X60731100Y-79162052D01*
X60728224Y-79113774D01*
X60682534Y-78903741D01*
X60597921Y-78706152D01*
X60544901Y-78627815D01*
X60477448Y-78528151D01*
X60477440Y-78528142D01*
X60325457Y-78376159D01*
X60325448Y-78376151D01*
X60151637Y-78258514D01*
X60147448Y-78255679D01*
X60147447Y-78255678D01*
X60147445Y-78255677D01*
X59949860Y-78171066D01*
X59949849Y-78171063D01*
X59739831Y-78125377D01*
X59739830Y-78125376D01*
X59739826Y-78125376D01*
X59691548Y-78122500D01*
X59519652Y-78122500D01*
X59471374Y-78125376D01*
X59471369Y-78125376D01*
X59471368Y-78125377D01*
X59261350Y-78171063D01*
X59261339Y-78171066D01*
X59063754Y-78255677D01*
X58885751Y-78376151D01*
X58885742Y-78376159D01*
X58733760Y-78528141D01*
X58733754Y-78528149D01*
X58689861Y-78593002D01*
X58635983Y-78637488D01*
X58587170Y-78647500D01*
X57001602Y-78647500D01*
X56934563Y-78627815D01*
X56891117Y-78579795D01*
X56884284Y-78566385D01*
X56763971Y-78400786D01*
X56619213Y-78256028D01*
X56453614Y-78135715D01*
X56433324Y-78125377D01*
X56360917Y-78088483D01*
X56310123Y-78040511D01*
X56293328Y-77972690D01*
X56315865Y-77906555D01*
X56360917Y-77867516D01*
X56453610Y-77820287D01*
X56577128Y-77730547D01*
X56619213Y-77699971D01*
X56619215Y-77699968D01*
X56619219Y-77699966D01*
X56763966Y-77555219D01*
X56763968Y-77555215D01*
X56763971Y-77555213D01*
X56884284Y-77389614D01*
X56884285Y-77389613D01*
X56884287Y-77389610D01*
X56891117Y-77376204D01*
X56939091Y-77325409D01*
X57001602Y-77308500D01*
X58587170Y-77308500D01*
X58654209Y-77328185D01*
X58689860Y-77362997D01*
X58733757Y-77427855D01*
X58733759Y-77427857D01*
X58733760Y-77427858D01*
X58885742Y-77579840D01*
X58885751Y-77579848D01*
X59015060Y-77667365D01*
X59063752Y-77700321D01*
X59261341Y-77784934D01*
X59471374Y-77830624D01*
X59519652Y-77833500D01*
X59519664Y-77833500D01*
X59691536Y-77833500D01*
X59691548Y-77833500D01*
X59739826Y-77830624D01*
X59949859Y-77784934D01*
X60147448Y-77700321D01*
X60325455Y-77579843D01*
X60477443Y-77427855D01*
X60482167Y-77420876D01*
X60503328Y-77389610D01*
X60597921Y-77249848D01*
X60682534Y-77052259D01*
X60728224Y-76842226D01*
X60731100Y-76793948D01*
X60731100Y-76622052D01*
X60728224Y-76573774D01*
X60682534Y-76363741D01*
X60597921Y-76166152D01*
X60558224Y-76107500D01*
X60477448Y-75988151D01*
X60477440Y-75988142D01*
X60325457Y-75836159D01*
X60325448Y-75836151D01*
X60151637Y-75718514D01*
X60147448Y-75715679D01*
X60147447Y-75715678D01*
X60147445Y-75715677D01*
X59949860Y-75631066D01*
X59949849Y-75631063D01*
X59739831Y-75585377D01*
X59739830Y-75585376D01*
X59739826Y-75585376D01*
X59691548Y-75582500D01*
X59519652Y-75582500D01*
X59471374Y-75585376D01*
X59471369Y-75585376D01*
X59471368Y-75585377D01*
X59261350Y-75631063D01*
X59261339Y-75631066D01*
X59063754Y-75715677D01*
X58885751Y-75836151D01*
X58885742Y-75836159D01*
X58733760Y-75988141D01*
X58733754Y-75988149D01*
X58689861Y-76053002D01*
X58635983Y-76097488D01*
X58587170Y-76107500D01*
X57001602Y-76107500D01*
X56934563Y-76087815D01*
X56891117Y-76039795D01*
X56884287Y-76026390D01*
X56884285Y-76026387D01*
X56884284Y-76026385D01*
X56763971Y-75860786D01*
X56619213Y-75716028D01*
X56453614Y-75595715D01*
X56433324Y-75585377D01*
X56360917Y-75548483D01*
X56310123Y-75500511D01*
X56293328Y-75432690D01*
X56315865Y-75366555D01*
X56360917Y-75327516D01*
X56453610Y-75280287D01*
X56502271Y-75244933D01*
X56619213Y-75159971D01*
X56619215Y-75159968D01*
X56619219Y-75159966D01*
X56763966Y-75015219D01*
X56763968Y-75015215D01*
X56763971Y-75015213D01*
X56884284Y-74849614D01*
X56884285Y-74849613D01*
X56884287Y-74849610D01*
X56891117Y-74836204D01*
X56939091Y-74785409D01*
X57001602Y-74768500D01*
X58587170Y-74768500D01*
X58654209Y-74788185D01*
X58689860Y-74822997D01*
X58733757Y-74887855D01*
X58733759Y-74887857D01*
X58733760Y-74887858D01*
X58885742Y-75039840D01*
X58885751Y-75039848D01*
X59015060Y-75127365D01*
X59063752Y-75160321D01*
X59261341Y-75244934D01*
X59471374Y-75290624D01*
X59519652Y-75293500D01*
X59519664Y-75293500D01*
X59691536Y-75293500D01*
X59691548Y-75293500D01*
X59739826Y-75290624D01*
X59949859Y-75244934D01*
X60147448Y-75160321D01*
X60289332Y-75064291D01*
X60325448Y-75039848D01*
X60325449Y-75039846D01*
X60325455Y-75039843D01*
X60477443Y-74887855D01*
X60485589Y-74875820D01*
X60503328Y-74849610D01*
X60597921Y-74709848D01*
X60682534Y-74512259D01*
X60728224Y-74302226D01*
X60731100Y-74253948D01*
X60731100Y-74082052D01*
X60728224Y-74033774D01*
X60682534Y-73823741D01*
X60597921Y-73626152D01*
X60533643Y-73531181D01*
X60477448Y-73448151D01*
X60477440Y-73448142D01*
X60325457Y-73296159D01*
X60325448Y-73296151D01*
X60151637Y-73178514D01*
X60147448Y-73175679D01*
X60147447Y-73175678D01*
X60147445Y-73175677D01*
X59949860Y-73091066D01*
X59949849Y-73091063D01*
X59739831Y-73045377D01*
X59739830Y-73045376D01*
X59739826Y-73045376D01*
X59691548Y-73042500D01*
X59519652Y-73042500D01*
X59471374Y-73045376D01*
X59471369Y-73045376D01*
X59471368Y-73045377D01*
X59261350Y-73091063D01*
X59261339Y-73091066D01*
X59063754Y-73175677D01*
X58885751Y-73296151D01*
X58885742Y-73296159D01*
X58733760Y-73448141D01*
X58733754Y-73448149D01*
X58689861Y-73513002D01*
X58635983Y-73557488D01*
X58587170Y-73567500D01*
X57001602Y-73567500D01*
X56934563Y-73547815D01*
X56891117Y-73499795D01*
X56884284Y-73486385D01*
X56763971Y-73320786D01*
X56619213Y-73176028D01*
X56453614Y-73055715D01*
X56433324Y-73045377D01*
X56360917Y-73008483D01*
X56310123Y-72960511D01*
X56293328Y-72892690D01*
X56315865Y-72826555D01*
X56360917Y-72787516D01*
X56453610Y-72740287D01*
X56502271Y-72704933D01*
X56619213Y-72619971D01*
X56619215Y-72619968D01*
X56619219Y-72619966D01*
X56763966Y-72475219D01*
X56763968Y-72475215D01*
X56763971Y-72475213D01*
X56884284Y-72309614D01*
X56884285Y-72309613D01*
X56884287Y-72309610D01*
X56891117Y-72296204D01*
X56939091Y-72245409D01*
X57001602Y-72228500D01*
X64441588Y-72228500D01*
X64508627Y-72248185D01*
X64518903Y-72255555D01*
X64521736Y-72257814D01*
X64521738Y-72257816D01*
X64674478Y-72353789D01*
X64844745Y-72413368D01*
X64844750Y-72413369D01*
X65023996Y-72433565D01*
X65024000Y-72433565D01*
X65024004Y-72433565D01*
X65203249Y-72413369D01*
X65203252Y-72413368D01*
X65203255Y-72413368D01*
X65373522Y-72353789D01*
X65526262Y-72257816D01*
X65653816Y-72130262D01*
X65749789Y-71977522D01*
X65753642Y-71966507D01*
X65761984Y-71942671D01*
X65802704Y-71885894D01*
X65867656Y-71860145D01*
X65936218Y-71873600D01*
X65966707Y-71895942D01*
X67858191Y-73787426D01*
X67891676Y-73848749D01*
X67892983Y-73894505D01*
X67866500Y-74061713D01*
X67866500Y-74274286D01*
X67892495Y-74438415D01*
X67899754Y-74484243D01*
X67922613Y-74554596D01*
X67965444Y-74686414D01*
X68061951Y-74875820D01*
X68186890Y-75047786D01*
X68337213Y-75198109D01*
X68509179Y-75323048D01*
X68509181Y-75323049D01*
X68509184Y-75323051D01*
X68698588Y-75419557D01*
X68900757Y-75485246D01*
X69110713Y-75518500D01*
X69110714Y-75518500D01*
X69573286Y-75518500D01*
X69573287Y-75518500D01*
X69783243Y-75485246D01*
X69985412Y-75419557D01*
X70174816Y-75323051D01*
X70282337Y-75244933D01*
X70346786Y-75198109D01*
X70346788Y-75198106D01*
X70346792Y-75198104D01*
X70497104Y-75047792D01*
X70497106Y-75047788D01*
X70497109Y-75047786D01*
X70555661Y-74967193D01*
X70622051Y-74875816D01*
X70635402Y-74849614D01*
X70642235Y-74836205D01*
X70690209Y-74785409D01*
X70752719Y-74768500D01*
X71033331Y-74768500D01*
X71033347Y-74768501D01*
X71040943Y-74768501D01*
X71199054Y-74768501D01*
X71199057Y-74768501D01*
X71351785Y-74727577D01*
X71401904Y-74698639D01*
X71488716Y-74648520D01*
X71600520Y-74536716D01*
X71600521Y-74536713D01*
X71670321Y-74466912D01*
X71731643Y-74433430D01*
X71801335Y-74438415D01*
X71857268Y-74480286D01*
X71881684Y-74545751D01*
X71882000Y-74554596D01*
X71882000Y-105032000D01*
X71862315Y-105099039D01*
X71809511Y-105144794D01*
X71758000Y-105156000D01*
X19936000Y-105156000D01*
X19868961Y-105136315D01*
X19823206Y-105083511D01*
X19812000Y-105032000D01*
X19812000Y-88744983D01*
X36205100Y-88744983D01*
X36205100Y-89495001D01*
X36205101Y-89495019D01*
X36215600Y-89597796D01*
X36215601Y-89597799D01*
X36270785Y-89764331D01*
X36270787Y-89764336D01*
X36272126Y-89766507D01*
X36362888Y-89913656D01*
X36486944Y-90037712D01*
X36636266Y-90129814D01*
X36784934Y-90179077D01*
X36842378Y-90218850D01*
X36869201Y-90283365D01*
X36862970Y-90337738D01*
X36806633Y-90498737D01*
X36806630Y-90498750D01*
X36786435Y-90677996D01*
X36786435Y-90678003D01*
X36806630Y-90857249D01*
X36806631Y-90857254D01*
X36866213Y-91027528D01*
X36868308Y-91031878D01*
X36879663Y-91100819D01*
X36851942Y-91164954D01*
X36795595Y-91203389D01*
X36636266Y-91256186D01*
X36636263Y-91256187D01*
X36486942Y-91348289D01*
X36362889Y-91472342D01*
X36270787Y-91621663D01*
X36270785Y-91621668D01*
X36242949Y-91705670D01*
X36215601Y-91788203D01*
X36215601Y-91788204D01*
X36215600Y-91788204D01*
X36205100Y-91890983D01*
X36205100Y-92641001D01*
X36205101Y-92641019D01*
X36215600Y-92743796D01*
X36215601Y-92743799D01*
X36256916Y-92868478D01*
X36270786Y-92910334D01*
X36362888Y-93059656D01*
X36486944Y-93183712D01*
X36636266Y-93275814D01*
X36802803Y-93330999D01*
X36905591Y-93341500D01*
X38305608Y-93341499D01*
X38408397Y-93330999D01*
X38574934Y-93275814D01*
X38724256Y-93183712D01*
X38848312Y-93059656D01*
X38940414Y-92910334D01*
X38995599Y-92743797D01*
X39006100Y-92641009D01*
X39006099Y-91890992D01*
X39005025Y-91880482D01*
X38995599Y-91788203D01*
X38995598Y-91788200D01*
X38978496Y-91736591D01*
X38940414Y-91621666D01*
X38848312Y-91472344D01*
X38724256Y-91348288D01*
X38611364Y-91278656D01*
X38574936Y-91256187D01*
X38574931Y-91256185D01*
X38573449Y-91255694D01*
X38408397Y-91201001D01*
X38408394Y-91201000D01*
X38408392Y-91201000D01*
X38404685Y-91200206D01*
X38402619Y-91199087D01*
X38401971Y-91198872D01*
X38402009Y-91198756D01*
X38343254Y-91166920D01*
X38309570Y-91105706D01*
X38314328Y-91035999D01*
X38317147Y-91029354D01*
X38317786Y-91027525D01*
X38317789Y-91027522D01*
X38377368Y-90857255D01*
X38379795Y-90835715D01*
X38397565Y-90678003D01*
X38397565Y-90677996D01*
X38377369Y-90498750D01*
X38377366Y-90498737D01*
X38323853Y-90345806D01*
X38320291Y-90276027D01*
X38355019Y-90215400D01*
X38403031Y-90190331D01*
X38401970Y-90187129D01*
X38441975Y-90173872D01*
X38574934Y-90129814D01*
X38724256Y-90037712D01*
X38848312Y-89913656D01*
X38940414Y-89764334D01*
X38995599Y-89597797D01*
X39006100Y-89495009D01*
X39006099Y-88744992D01*
X39004198Y-88726386D01*
X38995599Y-88642203D01*
X38995598Y-88642200D01*
X38986649Y-88615195D01*
X38940414Y-88475666D01*
X38848312Y-88326344D01*
X38724256Y-88202288D01*
X38631488Y-88145069D01*
X38574936Y-88110187D01*
X38574931Y-88110185D01*
X38573462Y-88109698D01*
X38408397Y-88055001D01*
X38408395Y-88055000D01*
X38305610Y-88044500D01*
X36905598Y-88044500D01*
X36905581Y-88044501D01*
X36802803Y-88055000D01*
X36802800Y-88055001D01*
X36636268Y-88110185D01*
X36636263Y-88110187D01*
X36486942Y-88202289D01*
X36362889Y-88326342D01*
X36270787Y-88475663D01*
X36270786Y-88475666D01*
X36215601Y-88642203D01*
X36215601Y-88642204D01*
X36215600Y-88642204D01*
X36205100Y-88744983D01*
X19812000Y-88744983D01*
X19812000Y-69685951D01*
X19831685Y-69618912D01*
X19884489Y-69573157D01*
X19953647Y-69563213D01*
X20017203Y-69592238D01*
X20043388Y-69623952D01*
X20093479Y-69710715D01*
X20212349Y-69829585D01*
X20212355Y-69829590D01*
X20811139Y-70428374D01*
X20811149Y-70428385D01*
X20815479Y-70432715D01*
X20815480Y-70432716D01*
X20927284Y-70544520D01*
X21014095Y-70594639D01*
X21014098Y-70594641D01*
X21043599Y-70611674D01*
X21091813Y-70662242D01*
X21104937Y-70710892D01*
X21105180Y-70710868D01*
X21105331Y-70712353D01*
X21105436Y-70712740D01*
X21105500Y-70714006D01*
X21116000Y-70816796D01*
X21116001Y-70816799D01*
X21158944Y-70946390D01*
X21171186Y-70983334D01*
X21263288Y-71132656D01*
X21387344Y-71256712D01*
X21536666Y-71348814D01*
X21703203Y-71403999D01*
X21805991Y-71414500D01*
X23406008Y-71414499D01*
X23508797Y-71403999D01*
X23675334Y-71348814D01*
X23824656Y-71256712D01*
X23948712Y-71132656D01*
X24040814Y-70983334D01*
X24095999Y-70816797D01*
X24106500Y-70714009D01*
X24106499Y-69413992D01*
X24095999Y-69311203D01*
X24040814Y-69144666D01*
X23948712Y-68995344D01*
X23824656Y-68871288D01*
X23675334Y-68779186D01*
X23675333Y-68779185D01*
X23669878Y-68775821D01*
X23623154Y-68723873D01*
X23611931Y-68654910D01*
X23639775Y-68590828D01*
X23647272Y-68582623D01*
X23786104Y-68443792D01*
X23792857Y-68434498D01*
X23841064Y-68368145D01*
X23911051Y-68271816D01*
X23911349Y-68271230D01*
X23931235Y-68232205D01*
X23979209Y-68181409D01*
X24041719Y-68164500D01*
X26369903Y-68164500D01*
X26436942Y-68184185D01*
X26457583Y-68200818D01*
X26936284Y-68679520D01*
X26936286Y-68679521D01*
X26936290Y-68679524D01*
X27059853Y-68750862D01*
X27073216Y-68758577D01*
X27225943Y-68799501D01*
X27225945Y-68799501D01*
X27391654Y-68799501D01*
X27391670Y-68799500D01*
X28038093Y-68799500D01*
X28105132Y-68819185D01*
X28150887Y-68871989D01*
X28160831Y-68941147D01*
X28144825Y-68986620D01*
X28102257Y-69058599D01*
X28102254Y-69058606D01*
X28056402Y-69216426D01*
X28056401Y-69216432D01*
X28053500Y-69253298D01*
X28053500Y-69684701D01*
X28056401Y-69721567D01*
X28056402Y-69721573D01*
X28102254Y-69879393D01*
X28102255Y-69879396D01*
X28102256Y-69879398D01*
X28135655Y-69935873D01*
X28185917Y-70020862D01*
X28190702Y-70027031D01*
X28188256Y-70028927D01*
X28214857Y-70077642D01*
X28209873Y-70147334D01*
X28189069Y-70179703D01*
X28190702Y-70180969D01*
X28185917Y-70187137D01*
X28102255Y-70328603D01*
X28102254Y-70328606D01*
X28056402Y-70486426D01*
X28056401Y-70486432D01*
X28053500Y-70523298D01*
X28053500Y-70954701D01*
X28056401Y-70991567D01*
X28056402Y-70991573D01*
X28102254Y-71149393D01*
X28102255Y-71149396D01*
X28102256Y-71149398D01*
X28133193Y-71201710D01*
X28185917Y-71290862D01*
X28185923Y-71290870D01*
X28302129Y-71407076D01*
X28302133Y-71407079D01*
X28302135Y-71407081D01*
X28443602Y-71490744D01*
X28485224Y-71502836D01*
X28601426Y-71536597D01*
X28601429Y-71536597D01*
X28601431Y-71536598D01*
X28638306Y-71539500D01*
X28638314Y-71539500D01*
X30419686Y-71539500D01*
X30419694Y-71539500D01*
X30456569Y-71536598D01*
X30456571Y-71536597D01*
X30456573Y-71536597D01*
X30546439Y-71510488D01*
X30614398Y-71490744D01*
X30755865Y-71407081D01*
X30872081Y-71290865D01*
X30955744Y-71149398D01*
X31001598Y-70991569D01*
X31004500Y-70954694D01*
X31004500Y-70523306D01*
X31001598Y-70486431D01*
X30998156Y-70474584D01*
X30964285Y-70358000D01*
X30955744Y-70328602D01*
X30872081Y-70187135D01*
X30872078Y-70187132D01*
X30867298Y-70180969D01*
X30869750Y-70179066D01*
X30843155Y-70130421D01*
X30848104Y-70060726D01*
X30868940Y-70028304D01*
X30867298Y-70027031D01*
X30872075Y-70020870D01*
X30872081Y-70020865D01*
X30955744Y-69879398D01*
X31001598Y-69721569D01*
X31004500Y-69684694D01*
X31004500Y-69253306D01*
X31001598Y-69216431D01*
X30994021Y-69190352D01*
X30955745Y-69058606D01*
X30955744Y-69058603D01*
X30955744Y-69058602D01*
X30872081Y-68917135D01*
X30872078Y-68917132D01*
X30867298Y-68910969D01*
X30869750Y-68909066D01*
X30843155Y-68860421D01*
X30848104Y-68790726D01*
X30868940Y-68758304D01*
X30867298Y-68757031D01*
X30872075Y-68750870D01*
X30872081Y-68750865D01*
X30955744Y-68609398D01*
X31001598Y-68451569D01*
X31004500Y-68414694D01*
X31004500Y-67983306D01*
X31001598Y-67946431D01*
X30997137Y-67931077D01*
X30957286Y-67793909D01*
X30955744Y-67788602D01*
X30872081Y-67647135D01*
X30872078Y-67647132D01*
X30867298Y-67640969D01*
X30869750Y-67639066D01*
X30843155Y-67590421D01*
X30848104Y-67520726D01*
X30868940Y-67488304D01*
X30867298Y-67487031D01*
X30872075Y-67480870D01*
X30872081Y-67480865D01*
X30955744Y-67339398D01*
X31001598Y-67181569D01*
X31004500Y-67144694D01*
X31004500Y-66713306D01*
X31001598Y-66676431D01*
X30992037Y-66643523D01*
X30955745Y-66518606D01*
X30955744Y-66518603D01*
X30955744Y-66518602D01*
X30872081Y-66377135D01*
X30872080Y-66377134D01*
X30872076Y-66377129D01*
X30755870Y-66260923D01*
X30755862Y-66260917D01*
X30614396Y-66177255D01*
X30614393Y-66177254D01*
X30456573Y-66131402D01*
X30456567Y-66131401D01*
X30419701Y-66128500D01*
X30419694Y-66128500D01*
X28638306Y-66128500D01*
X28638298Y-66128500D01*
X28601432Y-66131401D01*
X28601426Y-66131402D01*
X28443606Y-66177254D01*
X28443603Y-66177255D01*
X28302137Y-66260917D01*
X28302129Y-66260923D01*
X28185923Y-66377129D01*
X28185919Y-66377135D01*
X28102255Y-66518603D01*
X28102254Y-66518606D01*
X28056402Y-66676426D01*
X28056401Y-66676432D01*
X28053500Y-66713298D01*
X28053500Y-67144701D01*
X28056401Y-67181567D01*
X28056402Y-67181573D01*
X28102254Y-67339393D01*
X28102257Y-67339400D01*
X28144825Y-67411380D01*
X28162008Y-67479104D01*
X28139848Y-67545366D01*
X28085381Y-67589129D01*
X28038093Y-67598500D01*
X27605098Y-67598500D01*
X27538059Y-67578815D01*
X27517417Y-67562181D01*
X27157590Y-67202355D01*
X27157588Y-67202352D01*
X27038717Y-67083481D01*
X27038716Y-67083480D01*
X26928400Y-67019789D01*
X26928398Y-67019788D01*
X26901785Y-67004423D01*
X26901784Y-67004422D01*
X26901783Y-67004422D01*
X26845881Y-66989443D01*
X26749057Y-66963499D01*
X26590943Y-66963499D01*
X26583347Y-66963499D01*
X26583331Y-66963500D01*
X24041719Y-66963500D01*
X23974680Y-66943815D01*
X23931235Y-66895795D01*
X23911052Y-66856185D01*
X23911051Y-66856184D01*
X23786109Y-66684213D01*
X23635786Y-66533890D01*
X23463820Y-66408951D01*
X23274414Y-66312444D01*
X23274413Y-66312443D01*
X23274412Y-66312443D01*
X23072243Y-66246754D01*
X23072241Y-66246753D01*
X23072240Y-66246753D01*
X22910957Y-66221208D01*
X22862287Y-66213500D01*
X22349713Y-66213500D01*
X22310202Y-66219757D01*
X22139759Y-66246753D01*
X22015822Y-66287023D01*
X21945981Y-66289018D01*
X21886148Y-66252938D01*
X21855320Y-66190237D01*
X21863285Y-66120822D01*
X21889820Y-66081414D01*
X22310416Y-65660819D01*
X22371739Y-65627334D01*
X22398097Y-65624500D01*
X41430902Y-65624500D01*
X41497941Y-65644185D01*
G37*
%TD.AperFunction*%
M02*
