%TF.GenerationSoftware,KiCad,Pcbnew,8.0.6*%
%TF.CreationDate,2025-01-14T16:33:27+13:00*%
%TF.ProjectId,FilamentDryerController1,46696c61-6d65-46e7-9444-72796572436f,rev?*%
%TF.SameCoordinates,Original*%
%TF.FileFunction,Soldermask,Top*%
%TF.FilePolarity,Negative*%
%FSLAX46Y46*%
G04 Gerber Fmt 4.6, Leading zero omitted, Abs format (unit mm)*
G04 Created by KiCad (PCBNEW 8.0.6) date 2025-01-14 16:33:27*
%MOMM*%
%LPD*%
G01*
G04 APERTURE LIST*
G04 Aperture macros list*
%AMRoundRect*
0 Rectangle with rounded corners*
0 $1 Rounding radius*
0 $2 $3 $4 $5 $6 $7 $8 $9 X,Y pos of 4 corners*
0 Add a 4 corners polygon primitive as box body*
4,1,4,$2,$3,$4,$5,$6,$7,$8,$9,$2,$3,0*
0 Add four circle primitives for the rounded corners*
1,1,$1+$1,$2,$3*
1,1,$1+$1,$4,$5*
1,1,$1+$1,$6,$7*
1,1,$1+$1,$8,$9*
0 Add four rect primitives between the rounded corners*
20,1,$1+$1,$2,$3,$4,$5,0*
20,1,$1+$1,$4,$5,$6,$7,0*
20,1,$1+$1,$6,$7,$8,$9,0*
20,1,$1+$1,$8,$9,$2,$3,0*%
G04 Aperture macros list end*
%ADD10RoundRect,0.726600X-0.000010X-0.000010X0.000010X-0.000010X0.000010X0.000010X-0.000010X0.000010X0*%
%ADD11RoundRect,0.250000X-0.625000X0.312500X-0.625000X-0.312500X0.625000X-0.312500X0.625000X0.312500X0*%
%ADD12RoundRect,0.250000X0.750000X-0.600000X0.750000X0.600000X-0.750000X0.600000X-0.750000X-0.600000X0*%
%ADD13O,2.000000X1.700000*%
%ADD14RoundRect,0.250000X-0.650000X0.325000X-0.650000X-0.325000X0.650000X-0.325000X0.650000X0.325000X0*%
%ADD15R,2.000000X1.780000*%
%ADD16RoundRect,0.250000X-0.312500X-0.625000X0.312500X-0.625000X0.312500X0.625000X-0.312500X0.625000X0*%
%ADD17RoundRect,0.250000X-0.725000X0.600000X-0.725000X-0.600000X0.725000X-0.600000X0.725000X0.600000X0*%
%ADD18O,1.950000X1.700000*%
%ADD19RoundRect,0.250000X-0.750000X0.600000X-0.750000X-0.600000X0.750000X-0.600000X0.750000X0.600000X0*%
%ADD20RoundRect,0.250000X0.312500X0.625000X-0.312500X0.625000X-0.312500X-0.625000X0.312500X-0.625000X0*%
%ADD21C,1.500000*%
%ADD22R,1.550000X1.300000*%
%ADD23RoundRect,0.250000X-0.375000X-0.625000X0.375000X-0.625000X0.375000X0.625000X-0.375000X0.625000X0*%
%ADD24RoundRect,0.101600X-1.016000X1.016000X-1.016000X-1.016000X1.016000X-1.016000X1.016000X1.016000X0*%
%ADD25C,2.235200*%
%ADD26RoundRect,0.250000X-0.850000X-0.350000X0.850000X-0.350000X0.850000X0.350000X-0.850000X0.350000X0*%
%ADD27RoundRect,0.249997X-2.950003X-2.650003X2.950003X-2.650003X2.950003X2.650003X-2.950003X2.650003X0*%
%ADD28R,1.700000X2.000000*%
%ADD29O,1.700000X2.000000*%
%ADD30RoundRect,0.150000X-0.512500X-0.150000X0.512500X-0.150000X0.512500X0.150000X-0.512500X0.150000X0*%
%ADD31RoundRect,0.150000X0.825000X0.150000X-0.825000X0.150000X-0.825000X-0.150000X0.825000X-0.150000X0*%
%ADD32R,2.400000X1.600000*%
%ADD33O,2.400000X1.600000*%
%ADD34RoundRect,0.250000X0.650000X-0.325000X0.650000X0.325000X-0.650000X0.325000X-0.650000X-0.325000X0*%
%ADD35RoundRect,0.250000X0.325000X0.650000X-0.325000X0.650000X-0.325000X-0.650000X0.325000X-0.650000X0*%
%ADD36C,0.600000*%
G04 APERTURE END LIST*
D10*
%TO.C,TP5*%
X59605600Y-76708000D03*
%TD*%
%TO.C,TP3*%
X59605600Y-97028000D03*
%TD*%
%TO.C,TP11*%
X40640000Y-79248000D03*
%TD*%
%TO.C,TP10*%
X43605600Y-79248000D03*
%TD*%
D11*
%TO.C,R4*%
X26670000Y-51115500D03*
X26670000Y-54040500D03*
%TD*%
D12*
%TO.C,J3*%
X22606000Y-70064000D03*
D13*
X22606000Y-67564000D03*
%TD*%
D14*
%TO.C,C5*%
X37605600Y-92266000D03*
X37605600Y-95216000D03*
%TD*%
D15*
%TO.C,U2*%
X55504000Y-59690000D03*
X55504000Y-57150000D03*
X55504000Y-54610000D03*
X45974000Y-54610000D03*
X45974000Y-57150000D03*
X45974000Y-59690000D03*
%TD*%
D10*
%TO.C,TP13*%
X43605600Y-99568000D03*
%TD*%
%TO.C,TP4*%
X59605600Y-79248000D03*
%TD*%
%TO.C,TP9*%
X43605600Y-74168000D03*
%TD*%
%TO.C,TP7*%
X43605600Y-69088000D03*
%TD*%
D16*
%TO.C,R2*%
X59497500Y-81788000D03*
X62422500Y-81788000D03*
%TD*%
D17*
%TO.C,J1*%
X69342000Y-51936000D03*
D18*
X69342000Y-54436000D03*
X69342000Y-56936000D03*
X69342000Y-59436000D03*
%TD*%
D19*
%TO.C,J4*%
X69342000Y-81534000D03*
D13*
X69342000Y-84034000D03*
%TD*%
D10*
%TO.C,TP6*%
X59605600Y-74168000D03*
%TD*%
D16*
%TO.C,R6*%
X66457100Y-93233000D03*
X69382100Y-93233000D03*
%TD*%
D20*
%TO.C,R3*%
X61660500Y-57150000D03*
X58735500Y-57150000D03*
%TD*%
D21*
%TO.C,Y1*%
X42138600Y-88243000D03*
X42138600Y-93123000D03*
%TD*%
D22*
%TO.C,SW1*%
X37444600Y-81223000D03*
X29484600Y-81223000D03*
X37444600Y-76723000D03*
X29484600Y-76723000D03*
%TD*%
D10*
%TO.C,TP8*%
X43605600Y-71628000D03*
%TD*%
D23*
%TO.C,D1*%
X66519600Y-90185000D03*
X69319600Y-90185000D03*
%TD*%
D10*
%TO.C,TP1*%
X43688000Y-102108000D03*
%TD*%
D24*
%TO.C,J5*%
X23368000Y-26500000D03*
D25*
X23368000Y-30000000D03*
X23368000Y-33500000D03*
X23368000Y-37000000D03*
%TD*%
D23*
%TO.C,D2*%
X66519600Y-96185000D03*
X69319600Y-96185000D03*
%TD*%
D17*
%TO.C,J2*%
X69342000Y-66668000D03*
D18*
X69342000Y-69168000D03*
X69342000Y-71668000D03*
X69342000Y-74168000D03*
%TD*%
D26*
%TO.C,Q2*%
X31360000Y-51062500D03*
D27*
X37660000Y-53342500D03*
D26*
X31360000Y-55622500D03*
%TD*%
D28*
%TO.C,PS1*%
X34002500Y-33542500D03*
D29*
X34002500Y-38542500D03*
X63082500Y-28542500D03*
X63082500Y-43542500D03*
%TD*%
D16*
%TO.C,R5*%
X45273500Y-50038000D03*
X48198500Y-50038000D03*
%TD*%
D10*
%TO.C,TP12*%
X40640000Y-99568000D03*
%TD*%
%TO.C,TP2*%
X59605600Y-99568000D03*
%TD*%
D30*
%TO.C,U3*%
X59924100Y-92283000D03*
X59924100Y-93233000D03*
X59924100Y-94183000D03*
X62199100Y-94183000D03*
X62199100Y-93233000D03*
X62199100Y-92283000D03*
%TD*%
D31*
%TO.C,Q1*%
X34479000Y-70739000D03*
X34479000Y-69469000D03*
X34479000Y-68199000D03*
X34479000Y-66929000D03*
X29529000Y-66929000D03*
X29529000Y-68199000D03*
X29529000Y-69469000D03*
X29529000Y-70739000D03*
%TD*%
D32*
%TO.C,U1*%
X47752000Y-69088000D03*
D33*
X47752000Y-71628000D03*
X47752000Y-74168000D03*
X47752000Y-76708000D03*
X47752000Y-79248000D03*
X47752000Y-81788000D03*
X47752000Y-84328000D03*
X47752000Y-86868000D03*
X47752000Y-89408000D03*
X47752000Y-91948000D03*
X47752000Y-94488000D03*
X47752000Y-97028000D03*
X47752000Y-99568000D03*
X47752000Y-102108000D03*
X55372000Y-102108000D03*
X55372000Y-99568000D03*
X55372000Y-97028000D03*
X55372000Y-94488000D03*
X55372000Y-91948000D03*
X55372000Y-89408000D03*
X55372000Y-86868000D03*
X55372000Y-84328000D03*
X55372000Y-81788000D03*
X55372000Y-79248000D03*
X55372000Y-76708000D03*
X55372000Y-74168000D03*
X55372000Y-71628000D03*
X55372000Y-69088000D03*
%TD*%
D11*
%TO.C,R1*%
X38608000Y-67371500D03*
X38608000Y-70296500D03*
%TD*%
D14*
%TO.C,C4*%
X37605600Y-86170000D03*
X37605600Y-89120000D03*
%TD*%
D34*
%TO.C,C1*%
X59690000Y-88138000D03*
X59690000Y-85188000D03*
%TD*%
D35*
%TO.C,C3*%
X43486600Y-83073000D03*
X40536600Y-83073000D03*
%TD*%
D36*
X34479000Y-72833000D03*
X57912000Y-93218000D03*
X37592000Y-90678000D03*
X51562000Y-66294000D03*
X64262000Y-93233000D03*
X65024000Y-66294000D03*
X54864000Y-66294000D03*
X65024000Y-71628000D03*
X43434000Y-50546000D03*
X43434000Y-59182000D03*
M02*
