%TF.GenerationSoftware,KiCad,Pcbnew,8.0.6*%
%TF.CreationDate,2025-01-14T16:33:27+13:00*%
%TF.ProjectId,FilamentDryerController1,46696c61-6d65-46e7-9444-72796572436f,rev?*%
%TF.SameCoordinates,Original*%
%TF.FileFunction,Legend,Top*%
%TF.FilePolarity,Positive*%
%FSLAX46Y46*%
G04 Gerber Fmt 4.6, Leading zero omitted, Abs format (unit mm)*
G04 Created by KiCad (PCBNEW 8.0.6) date 2025-01-14 16:33:27*
%MOMM*%
%LPD*%
G01*
G04 APERTURE LIST*
G04 Aperture macros list*
%AMRoundRect*
0 Rectangle with rounded corners*
0 $1 Rounding radius*
0 $2 $3 $4 $5 $6 $7 $8 $9 X,Y pos of 4 corners*
0 Add a 4 corners polygon primitive as box body*
4,1,4,$2,$3,$4,$5,$6,$7,$8,$9,$2,$3,0*
0 Add four circle primitives for the rounded corners*
1,1,$1+$1,$2,$3*
1,1,$1+$1,$4,$5*
1,1,$1+$1,$6,$7*
1,1,$1+$1,$8,$9*
0 Add four rect primitives between the rounded corners*
20,1,$1+$1,$2,$3,$4,$5,0*
20,1,$1+$1,$4,$5,$6,$7,0*
20,1,$1+$1,$6,$7,$8,$9,0*
20,1,$1+$1,$8,$9,$2,$3,0*%
G04 Aperture macros list end*
%ADD10C,0.100000*%
%ADD11C,0.300000*%
%ADD12C,0.150000*%
%ADD13C,0.120000*%
%ADD14C,0.203200*%
%ADD15RoundRect,0.726600X-0.000010X-0.000010X0.000010X-0.000010X0.000010X0.000010X-0.000010X0.000010X0*%
%ADD16RoundRect,0.250000X-0.625000X0.312500X-0.625000X-0.312500X0.625000X-0.312500X0.625000X0.312500X0*%
%ADD17RoundRect,0.250000X0.750000X-0.600000X0.750000X0.600000X-0.750000X0.600000X-0.750000X-0.600000X0*%
%ADD18O,2.000000X1.700000*%
%ADD19RoundRect,0.250000X-0.650000X0.325000X-0.650000X-0.325000X0.650000X-0.325000X0.650000X0.325000X0*%
%ADD20R,2.000000X1.780000*%
%ADD21RoundRect,0.250000X-0.312500X-0.625000X0.312500X-0.625000X0.312500X0.625000X-0.312500X0.625000X0*%
%ADD22RoundRect,0.250000X-0.725000X0.600000X-0.725000X-0.600000X0.725000X-0.600000X0.725000X0.600000X0*%
%ADD23O,1.950000X1.700000*%
%ADD24RoundRect,0.250000X-0.750000X0.600000X-0.750000X-0.600000X0.750000X-0.600000X0.750000X0.600000X0*%
%ADD25RoundRect,0.250000X0.312500X0.625000X-0.312500X0.625000X-0.312500X-0.625000X0.312500X-0.625000X0*%
%ADD26C,1.500000*%
%ADD27R,1.550000X1.300000*%
%ADD28RoundRect,0.250000X-0.375000X-0.625000X0.375000X-0.625000X0.375000X0.625000X-0.375000X0.625000X0*%
%ADD29RoundRect,0.101600X-1.016000X1.016000X-1.016000X-1.016000X1.016000X-1.016000X1.016000X1.016000X0*%
%ADD30C,2.235200*%
%ADD31RoundRect,0.250000X-0.850000X-0.350000X0.850000X-0.350000X0.850000X0.350000X-0.850000X0.350000X0*%
%ADD32RoundRect,0.249997X-2.950003X-2.650003X2.950003X-2.650003X2.950003X2.650003X-2.950003X2.650003X0*%
%ADD33R,1.700000X2.000000*%
%ADD34O,1.700000X2.000000*%
%ADD35RoundRect,0.150000X-0.512500X-0.150000X0.512500X-0.150000X0.512500X0.150000X-0.512500X0.150000X0*%
%ADD36RoundRect,0.150000X0.825000X0.150000X-0.825000X0.150000X-0.825000X-0.150000X0.825000X-0.150000X0*%
%ADD37R,2.400000X1.600000*%
%ADD38O,2.400000X1.600000*%
%ADD39RoundRect,0.250000X0.650000X-0.325000X0.650000X0.325000X-0.650000X0.325000X-0.650000X-0.325000X0*%
%ADD40RoundRect,0.250000X0.325000X0.650000X-0.325000X0.650000X-0.325000X-0.650000X0.325000X-0.650000X0*%
%ADD41C,0.600000*%
G04 APERTURE END LIST*
D10*
G36*
X29459404Y-91797364D02*
G01*
X29459404Y-92043561D01*
X29457686Y-92434518D01*
X29452534Y-92826299D01*
X29443948Y-93218904D01*
X29431926Y-93612333D01*
X29416470Y-94006587D01*
X29410555Y-94138188D01*
X29392237Y-94539174D01*
X29373919Y-94952249D01*
X29355600Y-95377415D01*
X29337282Y-95814671D01*
X29318964Y-96264017D01*
X29312858Y-96416485D01*
X29296257Y-96858298D01*
X29283091Y-97263428D01*
X29272071Y-97689717D01*
X29265202Y-98115769D01*
X29264009Y-98348935D01*
X29034307Y-97979723D01*
X28869099Y-97576975D01*
X28814602Y-97379779D01*
X28738696Y-96956079D01*
X28699892Y-96526169D01*
X28690039Y-96144887D01*
X28698969Y-95729064D01*
X28720054Y-95306982D01*
X28749635Y-94868375D01*
X28753542Y-94816206D01*
X28784239Y-94394137D01*
X28809541Y-93988618D01*
X28817045Y-93774755D01*
X28808344Y-93335972D01*
X28777754Y-92923795D01*
X28702706Y-92508384D01*
X28677826Y-92428488D01*
X28473464Y-92041230D01*
X28097750Y-91740028D01*
X27583504Y-91628154D01*
X27529885Y-91627371D01*
X27034148Y-91642484D01*
X26541164Y-91715633D01*
X26479641Y-91734838D01*
X26108707Y-91996066D01*
X25932537Y-92377685D01*
X25440950Y-92312045D01*
X25016462Y-92088212D01*
X24736250Y-91746883D01*
X24713765Y-91705529D01*
X24570537Y-91309875D01*
X24497572Y-90907160D01*
X24466126Y-90489505D01*
X24462195Y-90259612D01*
X24469064Y-89861740D01*
X24474407Y-89685152D01*
X24487330Y-89292896D01*
X24489062Y-89167357D01*
X24523256Y-88964147D01*
X24559892Y-88825418D01*
X24872523Y-88665194D01*
X25119208Y-88626115D01*
X25426954Y-88749214D01*
X25468475Y-89003226D01*
X25483130Y-89259193D01*
X25483130Y-89558146D01*
X25494102Y-89968398D01*
X25541171Y-90359091D01*
X25595482Y-90535117D01*
X25883994Y-90854350D01*
X26381944Y-90994813D01*
X26562683Y-91002110D01*
X27067980Y-90990501D01*
X27192830Y-90984524D01*
X27696004Y-90961163D01*
X28198152Y-90943852D01*
X28243074Y-90943491D01*
X28396947Y-90830163D01*
X28409159Y-90447190D01*
X28438468Y-90060309D01*
X28419728Y-89657269D01*
X28371605Y-89264496D01*
X28293867Y-88839238D01*
X28201553Y-88440491D01*
X28103779Y-88051795D01*
X27988375Y-87578041D01*
X27890067Y-87155149D01*
X27791225Y-86698062D01*
X27707877Y-86254464D01*
X27656586Y-85841022D01*
X27654449Y-85769451D01*
X27681316Y-85538886D01*
X27752146Y-85259472D01*
X28059892Y-85032815D01*
X28326117Y-84999598D01*
X28731560Y-85189130D01*
X28814602Y-85486129D01*
X28829257Y-85828069D01*
X28821930Y-86052773D01*
X28817045Y-86287246D01*
X28836093Y-86707437D01*
X28880014Y-87136753D01*
X28940464Y-87582985D01*
X28978245Y-87828907D01*
X29048653Y-88274711D01*
X29118828Y-88726499D01*
X29178791Y-89118509D01*
X29238583Y-89514915D01*
X29298203Y-89915718D01*
X29352986Y-90309307D01*
X29402574Y-90744706D01*
X29436735Y-91154487D01*
X29456885Y-91591437D01*
X29459404Y-91797364D01*
G37*
D11*
X29264828Y-30179489D02*
X27764828Y-30179489D01*
X27764828Y-30179489D02*
X29264828Y-29322346D01*
X29264828Y-29322346D02*
X27764828Y-29322346D01*
X27631171Y-27176796D02*
X27631171Y-26462510D01*
X27631171Y-26462510D02*
X29131171Y-26462510D01*
D10*
X21719217Y-101624665D02*
X21385884Y-101624665D01*
X21385884Y-102148475D02*
X21385884Y-101148475D01*
X21385884Y-101148475D02*
X21862074Y-101148475D01*
X22243027Y-102148475D02*
X22243027Y-101481808D01*
X22243027Y-101148475D02*
X22195408Y-101196094D01*
X22195408Y-101196094D02*
X22243027Y-101243713D01*
X22243027Y-101243713D02*
X22290646Y-101196094D01*
X22290646Y-101196094D02*
X22243027Y-101148475D01*
X22243027Y-101148475D02*
X22243027Y-101243713D01*
X22862074Y-102148475D02*
X22766836Y-102100856D01*
X22766836Y-102100856D02*
X22719217Y-102005617D01*
X22719217Y-102005617D02*
X22719217Y-101148475D01*
X23671598Y-102148475D02*
X23671598Y-101624665D01*
X23671598Y-101624665D02*
X23623979Y-101529427D01*
X23623979Y-101529427D02*
X23528741Y-101481808D01*
X23528741Y-101481808D02*
X23338265Y-101481808D01*
X23338265Y-101481808D02*
X23243027Y-101529427D01*
X23671598Y-102100856D02*
X23576360Y-102148475D01*
X23576360Y-102148475D02*
X23338265Y-102148475D01*
X23338265Y-102148475D02*
X23243027Y-102100856D01*
X23243027Y-102100856D02*
X23195408Y-102005617D01*
X23195408Y-102005617D02*
X23195408Y-101910379D01*
X23195408Y-101910379D02*
X23243027Y-101815141D01*
X23243027Y-101815141D02*
X23338265Y-101767522D01*
X23338265Y-101767522D02*
X23576360Y-101767522D01*
X23576360Y-101767522D02*
X23671598Y-101719903D01*
X24147789Y-102148475D02*
X24147789Y-101481808D01*
X24147789Y-101577046D02*
X24195408Y-101529427D01*
X24195408Y-101529427D02*
X24290646Y-101481808D01*
X24290646Y-101481808D02*
X24433503Y-101481808D01*
X24433503Y-101481808D02*
X24528741Y-101529427D01*
X24528741Y-101529427D02*
X24576360Y-101624665D01*
X24576360Y-101624665D02*
X24576360Y-102148475D01*
X24576360Y-101624665D02*
X24623979Y-101529427D01*
X24623979Y-101529427D02*
X24719217Y-101481808D01*
X24719217Y-101481808D02*
X24862074Y-101481808D01*
X24862074Y-101481808D02*
X24957313Y-101529427D01*
X24957313Y-101529427D02*
X25004932Y-101624665D01*
X25004932Y-101624665D02*
X25004932Y-102148475D01*
X25862074Y-102100856D02*
X25766836Y-102148475D01*
X25766836Y-102148475D02*
X25576360Y-102148475D01*
X25576360Y-102148475D02*
X25481122Y-102100856D01*
X25481122Y-102100856D02*
X25433503Y-102005617D01*
X25433503Y-102005617D02*
X25433503Y-101624665D01*
X25433503Y-101624665D02*
X25481122Y-101529427D01*
X25481122Y-101529427D02*
X25576360Y-101481808D01*
X25576360Y-101481808D02*
X25766836Y-101481808D01*
X25766836Y-101481808D02*
X25862074Y-101529427D01*
X25862074Y-101529427D02*
X25909693Y-101624665D01*
X25909693Y-101624665D02*
X25909693Y-101719903D01*
X25909693Y-101719903D02*
X25433503Y-101815141D01*
X26338265Y-101481808D02*
X26338265Y-102148475D01*
X26338265Y-101577046D02*
X26385884Y-101529427D01*
X26385884Y-101529427D02*
X26481122Y-101481808D01*
X26481122Y-101481808D02*
X26623979Y-101481808D01*
X26623979Y-101481808D02*
X26719217Y-101529427D01*
X26719217Y-101529427D02*
X26766836Y-101624665D01*
X26766836Y-101624665D02*
X26766836Y-102148475D01*
X27100170Y-101481808D02*
X27481122Y-101481808D01*
X27243027Y-101148475D02*
X27243027Y-102005617D01*
X27243027Y-102005617D02*
X27290646Y-102100856D01*
X27290646Y-102100856D02*
X27385884Y-102148475D01*
X27385884Y-102148475D02*
X27481122Y-102148475D01*
X29004932Y-102148475D02*
X29004932Y-101148475D01*
X29004932Y-102100856D02*
X28909694Y-102148475D01*
X28909694Y-102148475D02*
X28719218Y-102148475D01*
X28719218Y-102148475D02*
X28623980Y-102100856D01*
X28623980Y-102100856D02*
X28576361Y-102053236D01*
X28576361Y-102053236D02*
X28528742Y-101957998D01*
X28528742Y-101957998D02*
X28528742Y-101672284D01*
X28528742Y-101672284D02*
X28576361Y-101577046D01*
X28576361Y-101577046D02*
X28623980Y-101529427D01*
X28623980Y-101529427D02*
X28719218Y-101481808D01*
X28719218Y-101481808D02*
X28909694Y-101481808D01*
X28909694Y-101481808D02*
X29004932Y-101529427D01*
X29481123Y-102148475D02*
X29481123Y-101481808D01*
X29481123Y-101672284D02*
X29528742Y-101577046D01*
X29528742Y-101577046D02*
X29576361Y-101529427D01*
X29576361Y-101529427D02*
X29671599Y-101481808D01*
X29671599Y-101481808D02*
X29766837Y-101481808D01*
X30004933Y-101481808D02*
X30243028Y-102148475D01*
X30481123Y-101481808D02*
X30243028Y-102148475D01*
X30243028Y-102148475D02*
X30147790Y-102386570D01*
X30147790Y-102386570D02*
X30100171Y-102434189D01*
X30100171Y-102434189D02*
X30004933Y-102481808D01*
X31243028Y-102100856D02*
X31147790Y-102148475D01*
X31147790Y-102148475D02*
X30957314Y-102148475D01*
X30957314Y-102148475D02*
X30862076Y-102100856D01*
X30862076Y-102100856D02*
X30814457Y-102005617D01*
X30814457Y-102005617D02*
X30814457Y-101624665D01*
X30814457Y-101624665D02*
X30862076Y-101529427D01*
X30862076Y-101529427D02*
X30957314Y-101481808D01*
X30957314Y-101481808D02*
X31147790Y-101481808D01*
X31147790Y-101481808D02*
X31243028Y-101529427D01*
X31243028Y-101529427D02*
X31290647Y-101624665D01*
X31290647Y-101624665D02*
X31290647Y-101719903D01*
X31290647Y-101719903D02*
X30814457Y-101815141D01*
X31719219Y-102148475D02*
X31719219Y-101481808D01*
X31719219Y-101672284D02*
X31766838Y-101577046D01*
X31766838Y-101577046D02*
X31814457Y-101529427D01*
X31814457Y-101529427D02*
X31909695Y-101481808D01*
X31909695Y-101481808D02*
X32004933Y-101481808D01*
X33004934Y-101481808D02*
X33243029Y-102148475D01*
X33243029Y-102148475D02*
X33481124Y-101481808D01*
X34052553Y-101148475D02*
X34147791Y-101148475D01*
X34147791Y-101148475D02*
X34243029Y-101196094D01*
X34243029Y-101196094D02*
X34290648Y-101243713D01*
X34290648Y-101243713D02*
X34338267Y-101338951D01*
X34338267Y-101338951D02*
X34385886Y-101529427D01*
X34385886Y-101529427D02*
X34385886Y-101767522D01*
X34385886Y-101767522D02*
X34338267Y-101957998D01*
X34338267Y-101957998D02*
X34290648Y-102053236D01*
X34290648Y-102053236D02*
X34243029Y-102100856D01*
X34243029Y-102100856D02*
X34147791Y-102148475D01*
X34147791Y-102148475D02*
X34052553Y-102148475D01*
X34052553Y-102148475D02*
X33957315Y-102100856D01*
X33957315Y-102100856D02*
X33909696Y-102053236D01*
X33909696Y-102053236D02*
X33862077Y-101957998D01*
X33862077Y-101957998D02*
X33814458Y-101767522D01*
X33814458Y-101767522D02*
X33814458Y-101529427D01*
X33814458Y-101529427D02*
X33862077Y-101338951D01*
X33862077Y-101338951D02*
X33909696Y-101243713D01*
X33909696Y-101243713D02*
X33957315Y-101196094D01*
X33957315Y-101196094D02*
X34052553Y-101148475D01*
X34814458Y-102053236D02*
X34862077Y-102100856D01*
X34862077Y-102100856D02*
X34814458Y-102148475D01*
X34814458Y-102148475D02*
X34766839Y-102100856D01*
X34766839Y-102100856D02*
X34814458Y-102053236D01*
X34814458Y-102053236D02*
X34814458Y-102148475D01*
X35814457Y-102148475D02*
X35243029Y-102148475D01*
X35528743Y-102148475D02*
X35528743Y-101148475D01*
X35528743Y-101148475D02*
X35433505Y-101291332D01*
X35433505Y-101291332D02*
X35338267Y-101386570D01*
X35338267Y-101386570D02*
X35243029Y-101434189D01*
X21338265Y-102853657D02*
X21385884Y-102806038D01*
X21385884Y-102806038D02*
X21481122Y-102758419D01*
X21481122Y-102758419D02*
X21719217Y-102758419D01*
X21719217Y-102758419D02*
X21814455Y-102806038D01*
X21814455Y-102806038D02*
X21862074Y-102853657D01*
X21862074Y-102853657D02*
X21909693Y-102948895D01*
X21909693Y-102948895D02*
X21909693Y-103044133D01*
X21909693Y-103044133D02*
X21862074Y-103186990D01*
X21862074Y-103186990D02*
X21290646Y-103758419D01*
X21290646Y-103758419D02*
X21909693Y-103758419D01*
X22528741Y-102758419D02*
X22623979Y-102758419D01*
X22623979Y-102758419D02*
X22719217Y-102806038D01*
X22719217Y-102806038D02*
X22766836Y-102853657D01*
X22766836Y-102853657D02*
X22814455Y-102948895D01*
X22814455Y-102948895D02*
X22862074Y-103139371D01*
X22862074Y-103139371D02*
X22862074Y-103377466D01*
X22862074Y-103377466D02*
X22814455Y-103567942D01*
X22814455Y-103567942D02*
X22766836Y-103663180D01*
X22766836Y-103663180D02*
X22719217Y-103710800D01*
X22719217Y-103710800D02*
X22623979Y-103758419D01*
X22623979Y-103758419D02*
X22528741Y-103758419D01*
X22528741Y-103758419D02*
X22433503Y-103710800D01*
X22433503Y-103710800D02*
X22385884Y-103663180D01*
X22385884Y-103663180D02*
X22338265Y-103567942D01*
X22338265Y-103567942D02*
X22290646Y-103377466D01*
X22290646Y-103377466D02*
X22290646Y-103139371D01*
X22290646Y-103139371D02*
X22338265Y-102948895D01*
X22338265Y-102948895D02*
X22385884Y-102853657D01*
X22385884Y-102853657D02*
X22433503Y-102806038D01*
X22433503Y-102806038D02*
X22528741Y-102758419D01*
X23243027Y-102853657D02*
X23290646Y-102806038D01*
X23290646Y-102806038D02*
X23385884Y-102758419D01*
X23385884Y-102758419D02*
X23623979Y-102758419D01*
X23623979Y-102758419D02*
X23719217Y-102806038D01*
X23719217Y-102806038D02*
X23766836Y-102853657D01*
X23766836Y-102853657D02*
X23814455Y-102948895D01*
X23814455Y-102948895D02*
X23814455Y-103044133D01*
X23814455Y-103044133D02*
X23766836Y-103186990D01*
X23766836Y-103186990D02*
X23195408Y-103758419D01*
X23195408Y-103758419D02*
X23814455Y-103758419D01*
X24719217Y-102758419D02*
X24243027Y-102758419D01*
X24243027Y-102758419D02*
X24195408Y-103234609D01*
X24195408Y-103234609D02*
X24243027Y-103186990D01*
X24243027Y-103186990D02*
X24338265Y-103139371D01*
X24338265Y-103139371D02*
X24576360Y-103139371D01*
X24576360Y-103139371D02*
X24671598Y-103186990D01*
X24671598Y-103186990D02*
X24719217Y-103234609D01*
X24719217Y-103234609D02*
X24766836Y-103329847D01*
X24766836Y-103329847D02*
X24766836Y-103567942D01*
X24766836Y-103567942D02*
X24719217Y-103663180D01*
X24719217Y-103663180D02*
X24671598Y-103710800D01*
X24671598Y-103710800D02*
X24576360Y-103758419D01*
X24576360Y-103758419D02*
X24338265Y-103758419D01*
X24338265Y-103758419D02*
X24243027Y-103710800D01*
X24243027Y-103710800D02*
X24195408Y-103663180D01*
X25957313Y-103758419D02*
X25957313Y-102758419D01*
X25957313Y-103234609D02*
X26528741Y-103234609D01*
X26528741Y-103758419D02*
X26528741Y-102758419D01*
X27433503Y-103758419D02*
X27433503Y-103234609D01*
X27433503Y-103234609D02*
X27385884Y-103139371D01*
X27385884Y-103139371D02*
X27290646Y-103091752D01*
X27290646Y-103091752D02*
X27100170Y-103091752D01*
X27100170Y-103091752D02*
X27004932Y-103139371D01*
X27433503Y-103710800D02*
X27338265Y-103758419D01*
X27338265Y-103758419D02*
X27100170Y-103758419D01*
X27100170Y-103758419D02*
X27004932Y-103710800D01*
X27004932Y-103710800D02*
X26957313Y-103615561D01*
X26957313Y-103615561D02*
X26957313Y-103520323D01*
X26957313Y-103520323D02*
X27004932Y-103425085D01*
X27004932Y-103425085D02*
X27100170Y-103377466D01*
X27100170Y-103377466D02*
X27338265Y-103377466D01*
X27338265Y-103377466D02*
X27433503Y-103329847D01*
X28052551Y-103758419D02*
X27957313Y-103710800D01*
X27957313Y-103710800D02*
X27909694Y-103615561D01*
X27909694Y-103615561D02*
X27909694Y-102758419D01*
X28576361Y-103758419D02*
X28481123Y-103710800D01*
X28481123Y-103710800D02*
X28433504Y-103663180D01*
X28433504Y-103663180D02*
X28385885Y-103567942D01*
X28385885Y-103567942D02*
X28385885Y-103282228D01*
X28385885Y-103282228D02*
X28433504Y-103186990D01*
X28433504Y-103186990D02*
X28481123Y-103139371D01*
X28481123Y-103139371D02*
X28576361Y-103091752D01*
X28576361Y-103091752D02*
X28719218Y-103091752D01*
X28719218Y-103091752D02*
X28814456Y-103139371D01*
X28814456Y-103139371D02*
X28862075Y-103186990D01*
X28862075Y-103186990D02*
X28909694Y-103282228D01*
X28909694Y-103282228D02*
X28909694Y-103567942D01*
X28909694Y-103567942D02*
X28862075Y-103663180D01*
X28862075Y-103663180D02*
X28814456Y-103710800D01*
X28814456Y-103710800D02*
X28719218Y-103758419D01*
X28719218Y-103758419D02*
X28576361Y-103758419D01*
X29338266Y-103091752D02*
X29338266Y-103948895D01*
X29338266Y-103948895D02*
X29290647Y-104044133D01*
X29290647Y-104044133D02*
X29195409Y-104091752D01*
X29195409Y-104091752D02*
X29147790Y-104091752D01*
X29338266Y-102758419D02*
X29290647Y-102806038D01*
X29290647Y-102806038D02*
X29338266Y-102853657D01*
X29338266Y-102853657D02*
X29385885Y-102806038D01*
X29385885Y-102806038D02*
X29338266Y-102758419D01*
X29338266Y-102758419D02*
X29338266Y-102853657D01*
X30195408Y-103710800D02*
X30100170Y-103758419D01*
X30100170Y-103758419D02*
X29909694Y-103758419D01*
X29909694Y-103758419D02*
X29814456Y-103710800D01*
X29814456Y-103710800D02*
X29766837Y-103615561D01*
X29766837Y-103615561D02*
X29766837Y-103234609D01*
X29766837Y-103234609D02*
X29814456Y-103139371D01*
X29814456Y-103139371D02*
X29909694Y-103091752D01*
X29909694Y-103091752D02*
X30100170Y-103091752D01*
X30100170Y-103091752D02*
X30195408Y-103139371D01*
X30195408Y-103139371D02*
X30243027Y-103234609D01*
X30243027Y-103234609D02*
X30243027Y-103329847D01*
X30243027Y-103329847D02*
X29766837Y-103425085D01*
X30671599Y-103091752D02*
X30671599Y-103758419D01*
X30671599Y-103186990D02*
X30719218Y-103139371D01*
X30719218Y-103139371D02*
X30814456Y-103091752D01*
X30814456Y-103091752D02*
X30957313Y-103091752D01*
X30957313Y-103091752D02*
X31052551Y-103139371D01*
X31052551Y-103139371D02*
X31100170Y-103234609D01*
X31100170Y-103234609D02*
X31100170Y-103758419D01*
X32338266Y-103758419D02*
X32338266Y-102758419D01*
X32338266Y-102758419D02*
X32719218Y-102758419D01*
X32719218Y-102758419D02*
X32814456Y-102806038D01*
X32814456Y-102806038D02*
X32862075Y-102853657D01*
X32862075Y-102853657D02*
X32909694Y-102948895D01*
X32909694Y-102948895D02*
X32909694Y-103091752D01*
X32909694Y-103091752D02*
X32862075Y-103186990D01*
X32862075Y-103186990D02*
X32814456Y-103234609D01*
X32814456Y-103234609D02*
X32719218Y-103282228D01*
X32719218Y-103282228D02*
X32338266Y-103282228D01*
X33338266Y-103758419D02*
X33338266Y-103091752D01*
X33338266Y-103282228D02*
X33385885Y-103186990D01*
X33385885Y-103186990D02*
X33433504Y-103139371D01*
X33433504Y-103139371D02*
X33528742Y-103091752D01*
X33528742Y-103091752D02*
X33623980Y-103091752D01*
X34100171Y-103758419D02*
X34004933Y-103710800D01*
X34004933Y-103710800D02*
X33957314Y-103663180D01*
X33957314Y-103663180D02*
X33909695Y-103567942D01*
X33909695Y-103567942D02*
X33909695Y-103282228D01*
X33909695Y-103282228D02*
X33957314Y-103186990D01*
X33957314Y-103186990D02*
X34004933Y-103139371D01*
X34004933Y-103139371D02*
X34100171Y-103091752D01*
X34100171Y-103091752D02*
X34243028Y-103091752D01*
X34243028Y-103091752D02*
X34338266Y-103139371D01*
X34338266Y-103139371D02*
X34385885Y-103186990D01*
X34385885Y-103186990D02*
X34433504Y-103282228D01*
X34433504Y-103282228D02*
X34433504Y-103567942D01*
X34433504Y-103567942D02*
X34385885Y-103663180D01*
X34385885Y-103663180D02*
X34338266Y-103710800D01*
X34338266Y-103710800D02*
X34243028Y-103758419D01*
X34243028Y-103758419D02*
X34100171Y-103758419D01*
X35290647Y-103758419D02*
X35290647Y-102758419D01*
X35290647Y-103710800D02*
X35195409Y-103758419D01*
X35195409Y-103758419D02*
X35004933Y-103758419D01*
X35004933Y-103758419D02*
X34909695Y-103710800D01*
X34909695Y-103710800D02*
X34862076Y-103663180D01*
X34862076Y-103663180D02*
X34814457Y-103567942D01*
X34814457Y-103567942D02*
X34814457Y-103282228D01*
X34814457Y-103282228D02*
X34862076Y-103186990D01*
X34862076Y-103186990D02*
X34909695Y-103139371D01*
X34909695Y-103139371D02*
X35004933Y-103091752D01*
X35004933Y-103091752D02*
X35195409Y-103091752D01*
X35195409Y-103091752D02*
X35290647Y-103139371D01*
X36195409Y-103091752D02*
X36195409Y-103758419D01*
X35766838Y-103091752D02*
X35766838Y-103615561D01*
X35766838Y-103615561D02*
X35814457Y-103710800D01*
X35814457Y-103710800D02*
X35909695Y-103758419D01*
X35909695Y-103758419D02*
X36052552Y-103758419D01*
X36052552Y-103758419D02*
X36147790Y-103710800D01*
X36147790Y-103710800D02*
X36195409Y-103663180D01*
X37100171Y-103710800D02*
X37004933Y-103758419D01*
X37004933Y-103758419D02*
X36814457Y-103758419D01*
X36814457Y-103758419D02*
X36719219Y-103710800D01*
X36719219Y-103710800D02*
X36671600Y-103663180D01*
X36671600Y-103663180D02*
X36623981Y-103567942D01*
X36623981Y-103567942D02*
X36623981Y-103282228D01*
X36623981Y-103282228D02*
X36671600Y-103186990D01*
X36671600Y-103186990D02*
X36719219Y-103139371D01*
X36719219Y-103139371D02*
X36814457Y-103091752D01*
X36814457Y-103091752D02*
X37004933Y-103091752D01*
X37004933Y-103091752D02*
X37100171Y-103139371D01*
X37385886Y-103091752D02*
X37766838Y-103091752D01*
X37528743Y-102758419D02*
X37528743Y-103615561D01*
X37528743Y-103615561D02*
X37576362Y-103710800D01*
X37576362Y-103710800D02*
X37671600Y-103758419D01*
X37671600Y-103758419D02*
X37766838Y-103758419D01*
X38100172Y-103758419D02*
X38100172Y-103091752D01*
X38100172Y-102758419D02*
X38052553Y-102806038D01*
X38052553Y-102806038D02*
X38100172Y-102853657D01*
X38100172Y-102853657D02*
X38147791Y-102806038D01*
X38147791Y-102806038D02*
X38100172Y-102758419D01*
X38100172Y-102758419D02*
X38100172Y-102853657D01*
X38719219Y-103758419D02*
X38623981Y-103710800D01*
X38623981Y-103710800D02*
X38576362Y-103663180D01*
X38576362Y-103663180D02*
X38528743Y-103567942D01*
X38528743Y-103567942D02*
X38528743Y-103282228D01*
X38528743Y-103282228D02*
X38576362Y-103186990D01*
X38576362Y-103186990D02*
X38623981Y-103139371D01*
X38623981Y-103139371D02*
X38719219Y-103091752D01*
X38719219Y-103091752D02*
X38862076Y-103091752D01*
X38862076Y-103091752D02*
X38957314Y-103139371D01*
X38957314Y-103139371D02*
X39004933Y-103186990D01*
X39004933Y-103186990D02*
X39052552Y-103282228D01*
X39052552Y-103282228D02*
X39052552Y-103567942D01*
X39052552Y-103567942D02*
X39004933Y-103663180D01*
X39004933Y-103663180D02*
X38957314Y-103710800D01*
X38957314Y-103710800D02*
X38862076Y-103758419D01*
X38862076Y-103758419D02*
X38719219Y-103758419D01*
X39481124Y-103091752D02*
X39481124Y-103758419D01*
X39481124Y-103186990D02*
X39528743Y-103139371D01*
X39528743Y-103139371D02*
X39623981Y-103091752D01*
X39623981Y-103091752D02*
X39766838Y-103091752D01*
X39766838Y-103091752D02*
X39862076Y-103139371D01*
X39862076Y-103139371D02*
X39909695Y-103234609D01*
X39909695Y-103234609D02*
X39909695Y-103758419D01*
X40338267Y-103710800D02*
X40433505Y-103758419D01*
X40433505Y-103758419D02*
X40623981Y-103758419D01*
X40623981Y-103758419D02*
X40719219Y-103710800D01*
X40719219Y-103710800D02*
X40766838Y-103615561D01*
X40766838Y-103615561D02*
X40766838Y-103567942D01*
X40766838Y-103567942D02*
X40719219Y-103472704D01*
X40719219Y-103472704D02*
X40623981Y-103425085D01*
X40623981Y-103425085D02*
X40481124Y-103425085D01*
X40481124Y-103425085D02*
X40385886Y-103377466D01*
X40385886Y-103377466D02*
X40338267Y-103282228D01*
X40338267Y-103282228D02*
X40338267Y-103234609D01*
X40338267Y-103234609D02*
X40385886Y-103139371D01*
X40385886Y-103139371D02*
X40481124Y-103091752D01*
X40481124Y-103091752D02*
X40623981Y-103091752D01*
X40623981Y-103091752D02*
X40719219Y-103139371D01*
X60725143Y-76980371D02*
X60725143Y-76380371D01*
X60725143Y-76380371D02*
X60953714Y-76380371D01*
X60953714Y-76380371D02*
X61010857Y-76408942D01*
X61010857Y-76408942D02*
X61039428Y-76437514D01*
X61039428Y-76437514D02*
X61068000Y-76494657D01*
X61068000Y-76494657D02*
X61068000Y-76580371D01*
X61068000Y-76580371D02*
X61039428Y-76637514D01*
X61039428Y-76637514D02*
X61010857Y-76666085D01*
X61010857Y-76666085D02*
X60953714Y-76694657D01*
X60953714Y-76694657D02*
X60725143Y-76694657D01*
X61668000Y-76923228D02*
X61639428Y-76951800D01*
X61639428Y-76951800D02*
X61553714Y-76980371D01*
X61553714Y-76980371D02*
X61496571Y-76980371D01*
X61496571Y-76980371D02*
X61410857Y-76951800D01*
X61410857Y-76951800D02*
X61353714Y-76894657D01*
X61353714Y-76894657D02*
X61325143Y-76837514D01*
X61325143Y-76837514D02*
X61296571Y-76723228D01*
X61296571Y-76723228D02*
X61296571Y-76637514D01*
X61296571Y-76637514D02*
X61325143Y-76523228D01*
X61325143Y-76523228D02*
X61353714Y-76466085D01*
X61353714Y-76466085D02*
X61410857Y-76408942D01*
X61410857Y-76408942D02*
X61496571Y-76380371D01*
X61496571Y-76380371D02*
X61553714Y-76380371D01*
X61553714Y-76380371D02*
X61639428Y-76408942D01*
X61639428Y-76408942D02*
X61668000Y-76437514D01*
X61896571Y-76437514D02*
X61925143Y-76408942D01*
X61925143Y-76408942D02*
X61982286Y-76380371D01*
X61982286Y-76380371D02*
X62125143Y-76380371D01*
X62125143Y-76380371D02*
X62182286Y-76408942D01*
X62182286Y-76408942D02*
X62210857Y-76437514D01*
X62210857Y-76437514D02*
X62239428Y-76494657D01*
X62239428Y-76494657D02*
X62239428Y-76551800D01*
X62239428Y-76551800D02*
X62210857Y-76637514D01*
X62210857Y-76637514D02*
X61868000Y-76980371D01*
X61868000Y-76980371D02*
X62239428Y-76980371D01*
X58862743Y-98570371D02*
X58862743Y-97970371D01*
X58862743Y-97970371D02*
X59091314Y-97970371D01*
X59091314Y-97970371D02*
X59148457Y-97998942D01*
X59148457Y-97998942D02*
X59177028Y-98027514D01*
X59177028Y-98027514D02*
X59205600Y-98084657D01*
X59205600Y-98084657D02*
X59205600Y-98170371D01*
X59205600Y-98170371D02*
X59177028Y-98227514D01*
X59177028Y-98227514D02*
X59148457Y-98256085D01*
X59148457Y-98256085D02*
X59091314Y-98284657D01*
X59091314Y-98284657D02*
X58862743Y-98284657D01*
X59662743Y-98256085D02*
X59748457Y-98284657D01*
X59748457Y-98284657D02*
X59777028Y-98313228D01*
X59777028Y-98313228D02*
X59805600Y-98370371D01*
X59805600Y-98370371D02*
X59805600Y-98456085D01*
X59805600Y-98456085D02*
X59777028Y-98513228D01*
X59777028Y-98513228D02*
X59748457Y-98541800D01*
X59748457Y-98541800D02*
X59691314Y-98570371D01*
X59691314Y-98570371D02*
X59462743Y-98570371D01*
X59462743Y-98570371D02*
X59462743Y-97970371D01*
X59462743Y-97970371D02*
X59662743Y-97970371D01*
X59662743Y-97970371D02*
X59719886Y-97998942D01*
X59719886Y-97998942D02*
X59748457Y-98027514D01*
X59748457Y-98027514D02*
X59777028Y-98084657D01*
X59777028Y-98084657D02*
X59777028Y-98141800D01*
X59777028Y-98141800D02*
X59748457Y-98198942D01*
X59748457Y-98198942D02*
X59719886Y-98227514D01*
X59719886Y-98227514D02*
X59662743Y-98256085D01*
X59662743Y-98256085D02*
X59462743Y-98256085D01*
X60005600Y-97970371D02*
X60377028Y-97970371D01*
X60377028Y-97970371D02*
X60177028Y-98198942D01*
X60177028Y-98198942D02*
X60262743Y-98198942D01*
X60262743Y-98198942D02*
X60319886Y-98227514D01*
X60319886Y-98227514D02*
X60348457Y-98256085D01*
X60348457Y-98256085D02*
X60377028Y-98313228D01*
X60377028Y-98313228D02*
X60377028Y-98456085D01*
X60377028Y-98456085D02*
X60348457Y-98513228D01*
X60348457Y-98513228D02*
X60319886Y-98541800D01*
X60319886Y-98541800D02*
X60262743Y-98570371D01*
X60262743Y-98570371D02*
X60091314Y-98570371D01*
X60091314Y-98570371D02*
X60034171Y-98541800D01*
X60034171Y-98541800D02*
X60005600Y-98513228D01*
X39897143Y-80790371D02*
X39897143Y-80190371D01*
X39897143Y-80190371D02*
X40125714Y-80190371D01*
X40125714Y-80190371D02*
X40182857Y-80218942D01*
X40182857Y-80218942D02*
X40211428Y-80247514D01*
X40211428Y-80247514D02*
X40240000Y-80304657D01*
X40240000Y-80304657D02*
X40240000Y-80390371D01*
X40240000Y-80390371D02*
X40211428Y-80447514D01*
X40211428Y-80447514D02*
X40182857Y-80476085D01*
X40182857Y-80476085D02*
X40125714Y-80504657D01*
X40125714Y-80504657D02*
X39897143Y-80504657D01*
X40497143Y-80790371D02*
X40497143Y-80190371D01*
X40497143Y-80190371D02*
X40640000Y-80190371D01*
X40640000Y-80190371D02*
X40725714Y-80218942D01*
X40725714Y-80218942D02*
X40782857Y-80276085D01*
X40782857Y-80276085D02*
X40811428Y-80333228D01*
X40811428Y-80333228D02*
X40840000Y-80447514D01*
X40840000Y-80447514D02*
X40840000Y-80533228D01*
X40840000Y-80533228D02*
X40811428Y-80647514D01*
X40811428Y-80647514D02*
X40782857Y-80704657D01*
X40782857Y-80704657D02*
X40725714Y-80761800D01*
X40725714Y-80761800D02*
X40640000Y-80790371D01*
X40640000Y-80790371D02*
X40497143Y-80790371D01*
X41354286Y-80390371D02*
X41354286Y-80790371D01*
X41211428Y-80161800D02*
X41068571Y-80590371D01*
X41068571Y-80590371D02*
X41440000Y-80590371D01*
X42862743Y-80790371D02*
X42862743Y-80190371D01*
X42862743Y-80190371D02*
X43091314Y-80190371D01*
X43091314Y-80190371D02*
X43148457Y-80218942D01*
X43148457Y-80218942D02*
X43177028Y-80247514D01*
X43177028Y-80247514D02*
X43205600Y-80304657D01*
X43205600Y-80304657D02*
X43205600Y-80390371D01*
X43205600Y-80390371D02*
X43177028Y-80447514D01*
X43177028Y-80447514D02*
X43148457Y-80476085D01*
X43148457Y-80476085D02*
X43091314Y-80504657D01*
X43091314Y-80504657D02*
X42862743Y-80504657D01*
X43462743Y-80790371D02*
X43462743Y-80190371D01*
X43462743Y-80190371D02*
X43605600Y-80190371D01*
X43605600Y-80190371D02*
X43691314Y-80218942D01*
X43691314Y-80218942D02*
X43748457Y-80276085D01*
X43748457Y-80276085D02*
X43777028Y-80333228D01*
X43777028Y-80333228D02*
X43805600Y-80447514D01*
X43805600Y-80447514D02*
X43805600Y-80533228D01*
X43805600Y-80533228D02*
X43777028Y-80647514D01*
X43777028Y-80647514D02*
X43748457Y-80704657D01*
X43748457Y-80704657D02*
X43691314Y-80761800D01*
X43691314Y-80761800D02*
X43605600Y-80790371D01*
X43605600Y-80790371D02*
X43462743Y-80790371D01*
X44005600Y-80190371D02*
X44377028Y-80190371D01*
X44377028Y-80190371D02*
X44177028Y-80418942D01*
X44177028Y-80418942D02*
X44262743Y-80418942D01*
X44262743Y-80418942D02*
X44319886Y-80447514D01*
X44319886Y-80447514D02*
X44348457Y-80476085D01*
X44348457Y-80476085D02*
X44377028Y-80533228D01*
X44377028Y-80533228D02*
X44377028Y-80676085D01*
X44377028Y-80676085D02*
X44348457Y-80733228D01*
X44348457Y-80733228D02*
X44319886Y-80761800D01*
X44319886Y-80761800D02*
X44262743Y-80790371D01*
X44262743Y-80790371D02*
X44091314Y-80790371D01*
X44091314Y-80790371D02*
X44034171Y-80761800D01*
X44034171Y-80761800D02*
X44005600Y-80733228D01*
D12*
X24630286Y-55334819D02*
X25249333Y-55334819D01*
X25249333Y-55334819D02*
X24916000Y-55715771D01*
X24916000Y-55715771D02*
X25058857Y-55715771D01*
X25058857Y-55715771D02*
X25154095Y-55763390D01*
X25154095Y-55763390D02*
X25201714Y-55811009D01*
X25201714Y-55811009D02*
X25249333Y-55906247D01*
X25249333Y-55906247D02*
X25249333Y-56144342D01*
X25249333Y-56144342D02*
X25201714Y-56239580D01*
X25201714Y-56239580D02*
X25154095Y-56287200D01*
X25154095Y-56287200D02*
X25058857Y-56334819D01*
X25058857Y-56334819D02*
X24773143Y-56334819D01*
X24773143Y-56334819D02*
X24677905Y-56287200D01*
X24677905Y-56287200D02*
X24630286Y-56239580D01*
X25582667Y-55334819D02*
X26201714Y-55334819D01*
X26201714Y-55334819D02*
X25868381Y-55715771D01*
X25868381Y-55715771D02*
X26011238Y-55715771D01*
X26011238Y-55715771D02*
X26106476Y-55763390D01*
X26106476Y-55763390D02*
X26154095Y-55811009D01*
X26154095Y-55811009D02*
X26201714Y-55906247D01*
X26201714Y-55906247D02*
X26201714Y-56144342D01*
X26201714Y-56144342D02*
X26154095Y-56239580D01*
X26154095Y-56239580D02*
X26106476Y-56287200D01*
X26106476Y-56287200D02*
X26011238Y-56334819D01*
X26011238Y-56334819D02*
X25725524Y-56334819D01*
X25725524Y-56334819D02*
X25630286Y-56287200D01*
X25630286Y-56287200D02*
X25582667Y-56239580D01*
X26820762Y-55334819D02*
X26916000Y-55334819D01*
X26916000Y-55334819D02*
X27011238Y-55382438D01*
X27011238Y-55382438D02*
X27058857Y-55430057D01*
X27058857Y-55430057D02*
X27106476Y-55525295D01*
X27106476Y-55525295D02*
X27154095Y-55715771D01*
X27154095Y-55715771D02*
X27154095Y-55953866D01*
X27154095Y-55953866D02*
X27106476Y-56144342D01*
X27106476Y-56144342D02*
X27058857Y-56239580D01*
X27058857Y-56239580D02*
X27011238Y-56287200D01*
X27011238Y-56287200D02*
X26916000Y-56334819D01*
X26916000Y-56334819D02*
X26820762Y-56334819D01*
X26820762Y-56334819D02*
X26725524Y-56287200D01*
X26725524Y-56287200D02*
X26677905Y-56239580D01*
X26677905Y-56239580D02*
X26630286Y-56144342D01*
X26630286Y-56144342D02*
X26582667Y-55953866D01*
X26582667Y-55953866D02*
X26582667Y-55715771D01*
X26582667Y-55715771D02*
X26630286Y-55525295D01*
X26630286Y-55525295D02*
X26677905Y-55430057D01*
X26677905Y-55430057D02*
X26725524Y-55382438D01*
X26725524Y-55382438D02*
X26820762Y-55334819D01*
X28154095Y-56334819D02*
X27820762Y-55858628D01*
X27582667Y-56334819D02*
X27582667Y-55334819D01*
X27582667Y-55334819D02*
X27963619Y-55334819D01*
X27963619Y-55334819D02*
X28058857Y-55382438D01*
X28058857Y-55382438D02*
X28106476Y-55430057D01*
X28106476Y-55430057D02*
X28154095Y-55525295D01*
X28154095Y-55525295D02*
X28154095Y-55668152D01*
X28154095Y-55668152D02*
X28106476Y-55763390D01*
X28106476Y-55763390D02*
X28058857Y-55811009D01*
X28058857Y-55811009D02*
X27963619Y-55858628D01*
X27963619Y-55858628D02*
X27582667Y-55858628D01*
X22352095Y-73845009D02*
X22018762Y-73845009D01*
X22018762Y-74368819D02*
X22018762Y-73368819D01*
X22018762Y-73368819D02*
X22494952Y-73368819D01*
X23304476Y-74368819D02*
X23304476Y-73845009D01*
X23304476Y-73845009D02*
X23256857Y-73749771D01*
X23256857Y-73749771D02*
X23161619Y-73702152D01*
X23161619Y-73702152D02*
X22971143Y-73702152D01*
X22971143Y-73702152D02*
X22875905Y-73749771D01*
X23304476Y-74321200D02*
X23209238Y-74368819D01*
X23209238Y-74368819D02*
X22971143Y-74368819D01*
X22971143Y-74368819D02*
X22875905Y-74321200D01*
X22875905Y-74321200D02*
X22828286Y-74225961D01*
X22828286Y-74225961D02*
X22828286Y-74130723D01*
X22828286Y-74130723D02*
X22875905Y-74035485D01*
X22875905Y-74035485D02*
X22971143Y-73987866D01*
X22971143Y-73987866D02*
X23209238Y-73987866D01*
X23209238Y-73987866D02*
X23304476Y-73940247D01*
X23780667Y-73702152D02*
X23780667Y-74368819D01*
X23780667Y-73797390D02*
X23828286Y-73749771D01*
X23828286Y-73749771D02*
X23923524Y-73702152D01*
X23923524Y-73702152D02*
X24066381Y-73702152D01*
X24066381Y-73702152D02*
X24161619Y-73749771D01*
X24161619Y-73749771D02*
X24209238Y-73845009D01*
X24209238Y-73845009D02*
X24209238Y-74368819D01*
X35305657Y-95383856D02*
X35258038Y-95336237D01*
X35258038Y-95336237D02*
X35210419Y-95240999D01*
X35210419Y-95240999D02*
X35210419Y-95002904D01*
X35210419Y-95002904D02*
X35258038Y-94907666D01*
X35258038Y-94907666D02*
X35305657Y-94860047D01*
X35305657Y-94860047D02*
X35400895Y-94812428D01*
X35400895Y-94812428D02*
X35496133Y-94812428D01*
X35496133Y-94812428D02*
X35638990Y-94860047D01*
X35638990Y-94860047D02*
X36210419Y-95431475D01*
X36210419Y-95431475D02*
X36210419Y-94812428D01*
X35305657Y-94431475D02*
X35258038Y-94383856D01*
X35258038Y-94383856D02*
X35210419Y-94288618D01*
X35210419Y-94288618D02*
X35210419Y-94050523D01*
X35210419Y-94050523D02*
X35258038Y-93955285D01*
X35258038Y-93955285D02*
X35305657Y-93907666D01*
X35305657Y-93907666D02*
X35400895Y-93860047D01*
X35400895Y-93860047D02*
X35496133Y-93860047D01*
X35496133Y-93860047D02*
X35638990Y-93907666D01*
X35638990Y-93907666D02*
X36210419Y-94479094D01*
X36210419Y-94479094D02*
X36210419Y-93860047D01*
X35543752Y-93431475D02*
X36543752Y-93431475D01*
X35591371Y-93431475D02*
X35543752Y-93336237D01*
X35543752Y-93336237D02*
X35543752Y-93145761D01*
X35543752Y-93145761D02*
X35591371Y-93050523D01*
X35591371Y-93050523D02*
X35638990Y-93002904D01*
X35638990Y-93002904D02*
X35734228Y-92955285D01*
X35734228Y-92955285D02*
X36019942Y-92955285D01*
X36019942Y-92955285D02*
X36115180Y-93002904D01*
X36115180Y-93002904D02*
X36162800Y-93050523D01*
X36162800Y-93050523D02*
X36210419Y-93145761D01*
X36210419Y-93145761D02*
X36210419Y-93336237D01*
X36210419Y-93336237D02*
X36162800Y-93431475D01*
X35686609Y-92193380D02*
X35686609Y-92526713D01*
X36210419Y-92526713D02*
X35210419Y-92526713D01*
X35210419Y-92526713D02*
X35210419Y-92050523D01*
X46712667Y-62684819D02*
X46712667Y-61684819D01*
X46712667Y-61684819D02*
X47046000Y-62399104D01*
X47046000Y-62399104D02*
X47379333Y-61684819D01*
X47379333Y-61684819D02*
X47379333Y-62684819D01*
X48046000Y-61684819D02*
X48236476Y-61684819D01*
X48236476Y-61684819D02*
X48331714Y-61732438D01*
X48331714Y-61732438D02*
X48426952Y-61827676D01*
X48426952Y-61827676D02*
X48474571Y-62018152D01*
X48474571Y-62018152D02*
X48474571Y-62351485D01*
X48474571Y-62351485D02*
X48426952Y-62541961D01*
X48426952Y-62541961D02*
X48331714Y-62637200D01*
X48331714Y-62637200D02*
X48236476Y-62684819D01*
X48236476Y-62684819D02*
X48046000Y-62684819D01*
X48046000Y-62684819D02*
X47950762Y-62637200D01*
X47950762Y-62637200D02*
X47855524Y-62541961D01*
X47855524Y-62541961D02*
X47807905Y-62351485D01*
X47807905Y-62351485D02*
X47807905Y-62018152D01*
X47807905Y-62018152D02*
X47855524Y-61827676D01*
X47855524Y-61827676D02*
X47950762Y-61732438D01*
X47950762Y-61732438D02*
X48046000Y-61684819D01*
X49474571Y-62589580D02*
X49426952Y-62637200D01*
X49426952Y-62637200D02*
X49284095Y-62684819D01*
X49284095Y-62684819D02*
X49188857Y-62684819D01*
X49188857Y-62684819D02*
X49046000Y-62637200D01*
X49046000Y-62637200D02*
X48950762Y-62541961D01*
X48950762Y-62541961D02*
X48903143Y-62446723D01*
X48903143Y-62446723D02*
X48855524Y-62256247D01*
X48855524Y-62256247D02*
X48855524Y-62113390D01*
X48855524Y-62113390D02*
X48903143Y-61922914D01*
X48903143Y-61922914D02*
X48950762Y-61827676D01*
X48950762Y-61827676D02*
X49046000Y-61732438D01*
X49046000Y-61732438D02*
X49188857Y-61684819D01*
X49188857Y-61684819D02*
X49284095Y-61684819D01*
X49284095Y-61684819D02*
X49426952Y-61732438D01*
X49426952Y-61732438D02*
X49474571Y-61780057D01*
X49807905Y-61684819D02*
X50426952Y-61684819D01*
X50426952Y-61684819D02*
X50093619Y-62065771D01*
X50093619Y-62065771D02*
X50236476Y-62065771D01*
X50236476Y-62065771D02*
X50331714Y-62113390D01*
X50331714Y-62113390D02*
X50379333Y-62161009D01*
X50379333Y-62161009D02*
X50426952Y-62256247D01*
X50426952Y-62256247D02*
X50426952Y-62494342D01*
X50426952Y-62494342D02*
X50379333Y-62589580D01*
X50379333Y-62589580D02*
X50331714Y-62637200D01*
X50331714Y-62637200D02*
X50236476Y-62684819D01*
X50236476Y-62684819D02*
X49950762Y-62684819D01*
X49950762Y-62684819D02*
X49855524Y-62637200D01*
X49855524Y-62637200D02*
X49807905Y-62589580D01*
X51046000Y-61684819D02*
X51141238Y-61684819D01*
X51141238Y-61684819D02*
X51236476Y-61732438D01*
X51236476Y-61732438D02*
X51284095Y-61780057D01*
X51284095Y-61780057D02*
X51331714Y-61875295D01*
X51331714Y-61875295D02*
X51379333Y-62065771D01*
X51379333Y-62065771D02*
X51379333Y-62303866D01*
X51379333Y-62303866D02*
X51331714Y-62494342D01*
X51331714Y-62494342D02*
X51284095Y-62589580D01*
X51284095Y-62589580D02*
X51236476Y-62637200D01*
X51236476Y-62637200D02*
X51141238Y-62684819D01*
X51141238Y-62684819D02*
X51046000Y-62684819D01*
X51046000Y-62684819D02*
X50950762Y-62637200D01*
X50950762Y-62637200D02*
X50903143Y-62589580D01*
X50903143Y-62589580D02*
X50855524Y-62494342D01*
X50855524Y-62494342D02*
X50807905Y-62303866D01*
X50807905Y-62303866D02*
X50807905Y-62065771D01*
X50807905Y-62065771D02*
X50855524Y-61875295D01*
X50855524Y-61875295D02*
X50903143Y-61780057D01*
X50903143Y-61780057D02*
X50950762Y-61732438D01*
X50950762Y-61732438D02*
X51046000Y-61684819D01*
X52236476Y-62018152D02*
X52236476Y-62684819D01*
X51998381Y-61637200D02*
X51760286Y-62351485D01*
X51760286Y-62351485D02*
X52379333Y-62351485D01*
X52665048Y-61684819D02*
X53284095Y-61684819D01*
X53284095Y-61684819D02*
X52950762Y-62065771D01*
X52950762Y-62065771D02*
X53093619Y-62065771D01*
X53093619Y-62065771D02*
X53188857Y-62113390D01*
X53188857Y-62113390D02*
X53236476Y-62161009D01*
X53236476Y-62161009D02*
X53284095Y-62256247D01*
X53284095Y-62256247D02*
X53284095Y-62494342D01*
X53284095Y-62494342D02*
X53236476Y-62589580D01*
X53236476Y-62589580D02*
X53188857Y-62637200D01*
X53188857Y-62637200D02*
X53093619Y-62684819D01*
X53093619Y-62684819D02*
X52807905Y-62684819D01*
X52807905Y-62684819D02*
X52712667Y-62637200D01*
X52712667Y-62637200D02*
X52665048Y-62589580D01*
X53712667Y-62684819D02*
X53712667Y-61684819D01*
X53712667Y-61684819D02*
X54046000Y-62399104D01*
X54046000Y-62399104D02*
X54379333Y-61684819D01*
X54379333Y-61684819D02*
X54379333Y-62684819D01*
D10*
X42862743Y-101110371D02*
X42862743Y-100510371D01*
X42862743Y-100510371D02*
X43091314Y-100510371D01*
X43091314Y-100510371D02*
X43148457Y-100538942D01*
X43148457Y-100538942D02*
X43177028Y-100567514D01*
X43177028Y-100567514D02*
X43205600Y-100624657D01*
X43205600Y-100624657D02*
X43205600Y-100710371D01*
X43205600Y-100710371D02*
X43177028Y-100767514D01*
X43177028Y-100767514D02*
X43148457Y-100796085D01*
X43148457Y-100796085D02*
X43091314Y-100824657D01*
X43091314Y-100824657D02*
X42862743Y-100824657D01*
X43462743Y-101110371D02*
X43462743Y-100510371D01*
X43462743Y-100510371D02*
X43605600Y-100510371D01*
X43605600Y-100510371D02*
X43691314Y-100538942D01*
X43691314Y-100538942D02*
X43748457Y-100596085D01*
X43748457Y-100596085D02*
X43777028Y-100653228D01*
X43777028Y-100653228D02*
X43805600Y-100767514D01*
X43805600Y-100767514D02*
X43805600Y-100853228D01*
X43805600Y-100853228D02*
X43777028Y-100967514D01*
X43777028Y-100967514D02*
X43748457Y-101024657D01*
X43748457Y-101024657D02*
X43691314Y-101081800D01*
X43691314Y-101081800D02*
X43605600Y-101110371D01*
X43605600Y-101110371D02*
X43462743Y-101110371D01*
X44005600Y-100510371D02*
X44405600Y-100510371D01*
X44405600Y-100510371D02*
X44148457Y-101110371D01*
X60725143Y-79520371D02*
X60725143Y-78920371D01*
X60725143Y-78920371D02*
X60953714Y-78920371D01*
X60953714Y-78920371D02*
X61010857Y-78948942D01*
X61010857Y-78948942D02*
X61039428Y-78977514D01*
X61039428Y-78977514D02*
X61068000Y-79034657D01*
X61068000Y-79034657D02*
X61068000Y-79120371D01*
X61068000Y-79120371D02*
X61039428Y-79177514D01*
X61039428Y-79177514D02*
X61010857Y-79206085D01*
X61010857Y-79206085D02*
X60953714Y-79234657D01*
X60953714Y-79234657D02*
X60725143Y-79234657D01*
X61668000Y-79463228D02*
X61639428Y-79491800D01*
X61639428Y-79491800D02*
X61553714Y-79520371D01*
X61553714Y-79520371D02*
X61496571Y-79520371D01*
X61496571Y-79520371D02*
X61410857Y-79491800D01*
X61410857Y-79491800D02*
X61353714Y-79434657D01*
X61353714Y-79434657D02*
X61325143Y-79377514D01*
X61325143Y-79377514D02*
X61296571Y-79263228D01*
X61296571Y-79263228D02*
X61296571Y-79177514D01*
X61296571Y-79177514D02*
X61325143Y-79063228D01*
X61325143Y-79063228D02*
X61353714Y-79006085D01*
X61353714Y-79006085D02*
X61410857Y-78948942D01*
X61410857Y-78948942D02*
X61496571Y-78920371D01*
X61496571Y-78920371D02*
X61553714Y-78920371D01*
X61553714Y-78920371D02*
X61639428Y-78948942D01*
X61639428Y-78948942D02*
X61668000Y-78977514D01*
X62239428Y-79520371D02*
X61896571Y-79520371D01*
X62068000Y-79520371D02*
X62068000Y-78920371D01*
X62068000Y-78920371D02*
X62010857Y-79006085D01*
X62010857Y-79006085D02*
X61953714Y-79063228D01*
X61953714Y-79063228D02*
X61896571Y-79091800D01*
X42862743Y-75710371D02*
X42862743Y-75110371D01*
X42862743Y-75110371D02*
X43091314Y-75110371D01*
X43091314Y-75110371D02*
X43148457Y-75138942D01*
X43148457Y-75138942D02*
X43177028Y-75167514D01*
X43177028Y-75167514D02*
X43205600Y-75224657D01*
X43205600Y-75224657D02*
X43205600Y-75310371D01*
X43205600Y-75310371D02*
X43177028Y-75367514D01*
X43177028Y-75367514D02*
X43148457Y-75396085D01*
X43148457Y-75396085D02*
X43091314Y-75424657D01*
X43091314Y-75424657D02*
X42862743Y-75424657D01*
X43462743Y-75710371D02*
X43462743Y-75110371D01*
X43462743Y-75110371D02*
X43605600Y-75110371D01*
X43605600Y-75110371D02*
X43691314Y-75138942D01*
X43691314Y-75138942D02*
X43748457Y-75196085D01*
X43748457Y-75196085D02*
X43777028Y-75253228D01*
X43777028Y-75253228D02*
X43805600Y-75367514D01*
X43805600Y-75367514D02*
X43805600Y-75453228D01*
X43805600Y-75453228D02*
X43777028Y-75567514D01*
X43777028Y-75567514D02*
X43748457Y-75624657D01*
X43748457Y-75624657D02*
X43691314Y-75681800D01*
X43691314Y-75681800D02*
X43605600Y-75710371D01*
X43605600Y-75710371D02*
X43462743Y-75710371D01*
X44377028Y-75710371D02*
X44034171Y-75710371D01*
X44205600Y-75710371D02*
X44205600Y-75110371D01*
X44205600Y-75110371D02*
X44148457Y-75196085D01*
X44148457Y-75196085D02*
X44091314Y-75253228D01*
X44091314Y-75253228D02*
X44034171Y-75281800D01*
X42862743Y-70630371D02*
X42862743Y-70030371D01*
X42862743Y-70030371D02*
X43091314Y-70030371D01*
X43091314Y-70030371D02*
X43148457Y-70058942D01*
X43148457Y-70058942D02*
X43177028Y-70087514D01*
X43177028Y-70087514D02*
X43205600Y-70144657D01*
X43205600Y-70144657D02*
X43205600Y-70230371D01*
X43205600Y-70230371D02*
X43177028Y-70287514D01*
X43177028Y-70287514D02*
X43148457Y-70316085D01*
X43148457Y-70316085D02*
X43091314Y-70344657D01*
X43091314Y-70344657D02*
X42862743Y-70344657D01*
X43805600Y-70573228D02*
X43777028Y-70601800D01*
X43777028Y-70601800D02*
X43691314Y-70630371D01*
X43691314Y-70630371D02*
X43634171Y-70630371D01*
X43634171Y-70630371D02*
X43548457Y-70601800D01*
X43548457Y-70601800D02*
X43491314Y-70544657D01*
X43491314Y-70544657D02*
X43462743Y-70487514D01*
X43462743Y-70487514D02*
X43434171Y-70373228D01*
X43434171Y-70373228D02*
X43434171Y-70287514D01*
X43434171Y-70287514D02*
X43462743Y-70173228D01*
X43462743Y-70173228D02*
X43491314Y-70116085D01*
X43491314Y-70116085D02*
X43548457Y-70058942D01*
X43548457Y-70058942D02*
X43634171Y-70030371D01*
X43634171Y-70030371D02*
X43691314Y-70030371D01*
X43691314Y-70030371D02*
X43777028Y-70058942D01*
X43777028Y-70058942D02*
X43805600Y-70087514D01*
X44319886Y-70030371D02*
X44205600Y-70030371D01*
X44205600Y-70030371D02*
X44148457Y-70058942D01*
X44148457Y-70058942D02*
X44119886Y-70087514D01*
X44119886Y-70087514D02*
X44062743Y-70173228D01*
X44062743Y-70173228D02*
X44034171Y-70287514D01*
X44034171Y-70287514D02*
X44034171Y-70516085D01*
X44034171Y-70516085D02*
X44062743Y-70573228D01*
X44062743Y-70573228D02*
X44091314Y-70601800D01*
X44091314Y-70601800D02*
X44148457Y-70630371D01*
X44148457Y-70630371D02*
X44262743Y-70630371D01*
X44262743Y-70630371D02*
X44319886Y-70601800D01*
X44319886Y-70601800D02*
X44348457Y-70573228D01*
X44348457Y-70573228D02*
X44377028Y-70516085D01*
X44377028Y-70516085D02*
X44377028Y-70373228D01*
X44377028Y-70373228D02*
X44348457Y-70316085D01*
X44348457Y-70316085D02*
X44319886Y-70287514D01*
X44319886Y-70287514D02*
X44262743Y-70258942D01*
X44262743Y-70258942D02*
X44148457Y-70258942D01*
X44148457Y-70258942D02*
X44091314Y-70287514D01*
X44091314Y-70287514D02*
X44062743Y-70316085D01*
X44062743Y-70316085D02*
X44034171Y-70373228D01*
D12*
X59888571Y-84062819D02*
X59317143Y-84062819D01*
X59602857Y-84062819D02*
X59602857Y-83062819D01*
X59602857Y-83062819D02*
X59507619Y-83205676D01*
X59507619Y-83205676D02*
X59412381Y-83300914D01*
X59412381Y-83300914D02*
X59317143Y-83348533D01*
X60507619Y-83062819D02*
X60602857Y-83062819D01*
X60602857Y-83062819D02*
X60698095Y-83110438D01*
X60698095Y-83110438D02*
X60745714Y-83158057D01*
X60745714Y-83158057D02*
X60793333Y-83253295D01*
X60793333Y-83253295D02*
X60840952Y-83443771D01*
X60840952Y-83443771D02*
X60840952Y-83681866D01*
X60840952Y-83681866D02*
X60793333Y-83872342D01*
X60793333Y-83872342D02*
X60745714Y-83967580D01*
X60745714Y-83967580D02*
X60698095Y-84015200D01*
X60698095Y-84015200D02*
X60602857Y-84062819D01*
X60602857Y-84062819D02*
X60507619Y-84062819D01*
X60507619Y-84062819D02*
X60412381Y-84015200D01*
X60412381Y-84015200D02*
X60364762Y-83967580D01*
X60364762Y-83967580D02*
X60317143Y-83872342D01*
X60317143Y-83872342D02*
X60269524Y-83681866D01*
X60269524Y-83681866D02*
X60269524Y-83443771D01*
X60269524Y-83443771D02*
X60317143Y-83253295D01*
X60317143Y-83253295D02*
X60364762Y-83158057D01*
X60364762Y-83158057D02*
X60412381Y-83110438D01*
X60412381Y-83110438D02*
X60507619Y-83062819D01*
X61460000Y-83062819D02*
X61555238Y-83062819D01*
X61555238Y-83062819D02*
X61650476Y-83110438D01*
X61650476Y-83110438D02*
X61698095Y-83158057D01*
X61698095Y-83158057D02*
X61745714Y-83253295D01*
X61745714Y-83253295D02*
X61793333Y-83443771D01*
X61793333Y-83443771D02*
X61793333Y-83681866D01*
X61793333Y-83681866D02*
X61745714Y-83872342D01*
X61745714Y-83872342D02*
X61698095Y-83967580D01*
X61698095Y-83967580D02*
X61650476Y-84015200D01*
X61650476Y-84015200D02*
X61555238Y-84062819D01*
X61555238Y-84062819D02*
X61460000Y-84062819D01*
X61460000Y-84062819D02*
X61364762Y-84015200D01*
X61364762Y-84015200D02*
X61317143Y-83967580D01*
X61317143Y-83967580D02*
X61269524Y-83872342D01*
X61269524Y-83872342D02*
X61221905Y-83681866D01*
X61221905Y-83681866D02*
X61221905Y-83443771D01*
X61221905Y-83443771D02*
X61269524Y-83253295D01*
X61269524Y-83253295D02*
X61317143Y-83158057D01*
X61317143Y-83158057D02*
X61364762Y-83110438D01*
X61364762Y-83110438D02*
X61460000Y-83062819D01*
X62221905Y-84062819D02*
X62221905Y-83062819D01*
X62317143Y-83681866D02*
X62602857Y-84062819D01*
X62602857Y-83396152D02*
X62221905Y-83777104D01*
X65196819Y-56662189D02*
X64196819Y-56662189D01*
X64292057Y-56233618D02*
X64244438Y-56185999D01*
X64244438Y-56185999D02*
X64196819Y-56090761D01*
X64196819Y-56090761D02*
X64196819Y-55852666D01*
X64196819Y-55852666D02*
X64244438Y-55757428D01*
X64244438Y-55757428D02*
X64292057Y-55709809D01*
X64292057Y-55709809D02*
X64387295Y-55662190D01*
X64387295Y-55662190D02*
X64482533Y-55662190D01*
X64482533Y-55662190D02*
X64625390Y-55709809D01*
X64625390Y-55709809D02*
X65196819Y-56281237D01*
X65196819Y-56281237D02*
X65196819Y-55662190D01*
X65101580Y-54662190D02*
X65149200Y-54709809D01*
X65149200Y-54709809D02*
X65196819Y-54852666D01*
X65196819Y-54852666D02*
X65196819Y-54947904D01*
X65196819Y-54947904D02*
X65149200Y-55090761D01*
X65149200Y-55090761D02*
X65053961Y-55185999D01*
X65053961Y-55185999D02*
X64958723Y-55233618D01*
X64958723Y-55233618D02*
X64768247Y-55281237D01*
X64768247Y-55281237D02*
X64625390Y-55281237D01*
X64625390Y-55281237D02*
X64434914Y-55233618D01*
X64434914Y-55233618D02*
X64339676Y-55185999D01*
X64339676Y-55185999D02*
X64244438Y-55090761D01*
X64244438Y-55090761D02*
X64196819Y-54947904D01*
X64196819Y-54947904D02*
X64196819Y-54852666D01*
X64196819Y-54852666D02*
X64244438Y-54709809D01*
X64244438Y-54709809D02*
X64292057Y-54662190D01*
X65196819Y-83855428D02*
X65196819Y-84426856D01*
X65196819Y-84141142D02*
X64196819Y-84141142D01*
X64196819Y-84141142D02*
X64339676Y-84236380D01*
X64339676Y-84236380D02*
X64434914Y-84331618D01*
X64434914Y-84331618D02*
X64482533Y-84426856D01*
X64196819Y-83236380D02*
X64196819Y-83141142D01*
X64196819Y-83141142D02*
X64244438Y-83045904D01*
X64244438Y-83045904D02*
X64292057Y-82998285D01*
X64292057Y-82998285D02*
X64387295Y-82950666D01*
X64387295Y-82950666D02*
X64577771Y-82903047D01*
X64577771Y-82903047D02*
X64815866Y-82903047D01*
X64815866Y-82903047D02*
X65006342Y-82950666D01*
X65006342Y-82950666D02*
X65101580Y-82998285D01*
X65101580Y-82998285D02*
X65149200Y-83045904D01*
X65149200Y-83045904D02*
X65196819Y-83141142D01*
X65196819Y-83141142D02*
X65196819Y-83236380D01*
X65196819Y-83236380D02*
X65149200Y-83331618D01*
X65149200Y-83331618D02*
X65101580Y-83379237D01*
X65101580Y-83379237D02*
X65006342Y-83426856D01*
X65006342Y-83426856D02*
X64815866Y-83474475D01*
X64815866Y-83474475D02*
X64577771Y-83474475D01*
X64577771Y-83474475D02*
X64387295Y-83426856D01*
X64387295Y-83426856D02*
X64292057Y-83379237D01*
X64292057Y-83379237D02*
X64244438Y-83331618D01*
X64244438Y-83331618D02*
X64196819Y-83236380D01*
X64196819Y-82283999D02*
X64196819Y-82188761D01*
X64196819Y-82188761D02*
X64244438Y-82093523D01*
X64244438Y-82093523D02*
X64292057Y-82045904D01*
X64292057Y-82045904D02*
X64387295Y-81998285D01*
X64387295Y-81998285D02*
X64577771Y-81950666D01*
X64577771Y-81950666D02*
X64815866Y-81950666D01*
X64815866Y-81950666D02*
X65006342Y-81998285D01*
X65006342Y-81998285D02*
X65101580Y-82045904D01*
X65101580Y-82045904D02*
X65149200Y-82093523D01*
X65149200Y-82093523D02*
X65196819Y-82188761D01*
X65196819Y-82188761D02*
X65196819Y-82283999D01*
X65196819Y-82283999D02*
X65149200Y-82379237D01*
X65149200Y-82379237D02*
X65101580Y-82426856D01*
X65101580Y-82426856D02*
X65006342Y-82474475D01*
X65006342Y-82474475D02*
X64815866Y-82522094D01*
X64815866Y-82522094D02*
X64577771Y-82522094D01*
X64577771Y-82522094D02*
X64387295Y-82474475D01*
X64387295Y-82474475D02*
X64292057Y-82426856D01*
X64292057Y-82426856D02*
X64244438Y-82379237D01*
X64244438Y-82379237D02*
X64196819Y-82283999D01*
X65196819Y-81522094D02*
X64196819Y-81522094D01*
X64815866Y-81426856D02*
X65196819Y-81141142D01*
X64530152Y-81141142D02*
X64911104Y-81522094D01*
D10*
X60725143Y-74440371D02*
X60725143Y-73840371D01*
X60725143Y-73840371D02*
X60953714Y-73840371D01*
X60953714Y-73840371D02*
X61010857Y-73868942D01*
X61010857Y-73868942D02*
X61039428Y-73897514D01*
X61039428Y-73897514D02*
X61068000Y-73954657D01*
X61068000Y-73954657D02*
X61068000Y-74040371D01*
X61068000Y-74040371D02*
X61039428Y-74097514D01*
X61039428Y-74097514D02*
X61010857Y-74126085D01*
X61010857Y-74126085D02*
X60953714Y-74154657D01*
X60953714Y-74154657D02*
X60725143Y-74154657D01*
X61668000Y-74383228D02*
X61639428Y-74411800D01*
X61639428Y-74411800D02*
X61553714Y-74440371D01*
X61553714Y-74440371D02*
X61496571Y-74440371D01*
X61496571Y-74440371D02*
X61410857Y-74411800D01*
X61410857Y-74411800D02*
X61353714Y-74354657D01*
X61353714Y-74354657D02*
X61325143Y-74297514D01*
X61325143Y-74297514D02*
X61296571Y-74183228D01*
X61296571Y-74183228D02*
X61296571Y-74097514D01*
X61296571Y-74097514D02*
X61325143Y-73983228D01*
X61325143Y-73983228D02*
X61353714Y-73926085D01*
X61353714Y-73926085D02*
X61410857Y-73868942D01*
X61410857Y-73868942D02*
X61496571Y-73840371D01*
X61496571Y-73840371D02*
X61553714Y-73840371D01*
X61553714Y-73840371D02*
X61639428Y-73868942D01*
X61639428Y-73868942D02*
X61668000Y-73897514D01*
X61868000Y-73840371D02*
X62239428Y-73840371D01*
X62239428Y-73840371D02*
X62039428Y-74068942D01*
X62039428Y-74068942D02*
X62125143Y-74068942D01*
X62125143Y-74068942D02*
X62182286Y-74097514D01*
X62182286Y-74097514D02*
X62210857Y-74126085D01*
X62210857Y-74126085D02*
X62239428Y-74183228D01*
X62239428Y-74183228D02*
X62239428Y-74326085D01*
X62239428Y-74326085D02*
X62210857Y-74383228D01*
X62210857Y-74383228D02*
X62182286Y-74411800D01*
X62182286Y-74411800D02*
X62125143Y-74440371D01*
X62125143Y-74440371D02*
X61953714Y-74440371D01*
X61953714Y-74440371D02*
X61896571Y-74411800D01*
X61896571Y-74411800D02*
X61868000Y-74383228D01*
D12*
X71320819Y-94384666D02*
X71320819Y-94956094D01*
X71320819Y-94670380D02*
X70320819Y-94670380D01*
X70320819Y-94670380D02*
X70463676Y-94765618D01*
X70463676Y-94765618D02*
X70558914Y-94860856D01*
X70558914Y-94860856D02*
X70606533Y-94956094D01*
X70320819Y-93765618D02*
X70320819Y-93670380D01*
X70320819Y-93670380D02*
X70368438Y-93575142D01*
X70368438Y-93575142D02*
X70416057Y-93527523D01*
X70416057Y-93527523D02*
X70511295Y-93479904D01*
X70511295Y-93479904D02*
X70701771Y-93432285D01*
X70701771Y-93432285D02*
X70939866Y-93432285D01*
X70939866Y-93432285D02*
X71130342Y-93479904D01*
X71130342Y-93479904D02*
X71225580Y-93527523D01*
X71225580Y-93527523D02*
X71273200Y-93575142D01*
X71273200Y-93575142D02*
X71320819Y-93670380D01*
X71320819Y-93670380D02*
X71320819Y-93765618D01*
X71320819Y-93765618D02*
X71273200Y-93860856D01*
X71273200Y-93860856D02*
X71225580Y-93908475D01*
X71225580Y-93908475D02*
X71130342Y-93956094D01*
X71130342Y-93956094D02*
X70939866Y-94003713D01*
X70939866Y-94003713D02*
X70701771Y-94003713D01*
X70701771Y-94003713D02*
X70511295Y-93956094D01*
X70511295Y-93956094D02*
X70416057Y-93908475D01*
X70416057Y-93908475D02*
X70368438Y-93860856D01*
X70368438Y-93860856D02*
X70320819Y-93765618D01*
X70320819Y-92813237D02*
X70320819Y-92717999D01*
X70320819Y-92717999D02*
X70368438Y-92622761D01*
X70368438Y-92622761D02*
X70416057Y-92575142D01*
X70416057Y-92575142D02*
X70511295Y-92527523D01*
X70511295Y-92527523D02*
X70701771Y-92479904D01*
X70701771Y-92479904D02*
X70939866Y-92479904D01*
X70939866Y-92479904D02*
X71130342Y-92527523D01*
X71130342Y-92527523D02*
X71225580Y-92575142D01*
X71225580Y-92575142D02*
X71273200Y-92622761D01*
X71273200Y-92622761D02*
X71320819Y-92717999D01*
X71320819Y-92717999D02*
X71320819Y-92813237D01*
X71320819Y-92813237D02*
X71273200Y-92908475D01*
X71273200Y-92908475D02*
X71225580Y-92956094D01*
X71225580Y-92956094D02*
X71130342Y-93003713D01*
X71130342Y-93003713D02*
X70939866Y-93051332D01*
X70939866Y-93051332D02*
X70701771Y-93051332D01*
X70701771Y-93051332D02*
X70511295Y-93003713D01*
X70511295Y-93003713D02*
X70416057Y-92956094D01*
X70416057Y-92956094D02*
X70368438Y-92908475D01*
X70368438Y-92908475D02*
X70320819Y-92813237D01*
X71320819Y-91479904D02*
X70844628Y-91813237D01*
X71320819Y-92051332D02*
X70320819Y-92051332D01*
X70320819Y-92051332D02*
X70320819Y-91670380D01*
X70320819Y-91670380D02*
X70368438Y-91575142D01*
X70368438Y-91575142D02*
X70416057Y-91527523D01*
X70416057Y-91527523D02*
X70511295Y-91479904D01*
X70511295Y-91479904D02*
X70654152Y-91479904D01*
X70654152Y-91479904D02*
X70749390Y-91527523D01*
X70749390Y-91527523D02*
X70797009Y-91575142D01*
X70797009Y-91575142D02*
X70844628Y-91670380D01*
X70844628Y-91670380D02*
X70844628Y-92051332D01*
X58412286Y-54784819D02*
X59031333Y-54784819D01*
X59031333Y-54784819D02*
X58698000Y-55165771D01*
X58698000Y-55165771D02*
X58840857Y-55165771D01*
X58840857Y-55165771D02*
X58936095Y-55213390D01*
X58936095Y-55213390D02*
X58983714Y-55261009D01*
X58983714Y-55261009D02*
X59031333Y-55356247D01*
X59031333Y-55356247D02*
X59031333Y-55594342D01*
X59031333Y-55594342D02*
X58983714Y-55689580D01*
X58983714Y-55689580D02*
X58936095Y-55737200D01*
X58936095Y-55737200D02*
X58840857Y-55784819D01*
X58840857Y-55784819D02*
X58555143Y-55784819D01*
X58555143Y-55784819D02*
X58459905Y-55737200D01*
X58459905Y-55737200D02*
X58412286Y-55689580D01*
X59364667Y-54784819D02*
X59983714Y-54784819D01*
X59983714Y-54784819D02*
X59650381Y-55165771D01*
X59650381Y-55165771D02*
X59793238Y-55165771D01*
X59793238Y-55165771D02*
X59888476Y-55213390D01*
X59888476Y-55213390D02*
X59936095Y-55261009D01*
X59936095Y-55261009D02*
X59983714Y-55356247D01*
X59983714Y-55356247D02*
X59983714Y-55594342D01*
X59983714Y-55594342D02*
X59936095Y-55689580D01*
X59936095Y-55689580D02*
X59888476Y-55737200D01*
X59888476Y-55737200D02*
X59793238Y-55784819D01*
X59793238Y-55784819D02*
X59507524Y-55784819D01*
X59507524Y-55784819D02*
X59412286Y-55737200D01*
X59412286Y-55737200D02*
X59364667Y-55689580D01*
X60602762Y-54784819D02*
X60698000Y-54784819D01*
X60698000Y-54784819D02*
X60793238Y-54832438D01*
X60793238Y-54832438D02*
X60840857Y-54880057D01*
X60840857Y-54880057D02*
X60888476Y-54975295D01*
X60888476Y-54975295D02*
X60936095Y-55165771D01*
X60936095Y-55165771D02*
X60936095Y-55403866D01*
X60936095Y-55403866D02*
X60888476Y-55594342D01*
X60888476Y-55594342D02*
X60840857Y-55689580D01*
X60840857Y-55689580D02*
X60793238Y-55737200D01*
X60793238Y-55737200D02*
X60698000Y-55784819D01*
X60698000Y-55784819D02*
X60602762Y-55784819D01*
X60602762Y-55784819D02*
X60507524Y-55737200D01*
X60507524Y-55737200D02*
X60459905Y-55689580D01*
X60459905Y-55689580D02*
X60412286Y-55594342D01*
X60412286Y-55594342D02*
X60364667Y-55403866D01*
X60364667Y-55403866D02*
X60364667Y-55165771D01*
X60364667Y-55165771D02*
X60412286Y-54975295D01*
X60412286Y-54975295D02*
X60459905Y-54880057D01*
X60459905Y-54880057D02*
X60507524Y-54832438D01*
X60507524Y-54832438D02*
X60602762Y-54784819D01*
X61936095Y-55784819D02*
X61602762Y-55308628D01*
X61364667Y-55784819D02*
X61364667Y-54784819D01*
X61364667Y-54784819D02*
X61745619Y-54784819D01*
X61745619Y-54784819D02*
X61840857Y-54832438D01*
X61840857Y-54832438D02*
X61888476Y-54880057D01*
X61888476Y-54880057D02*
X61936095Y-54975295D01*
X61936095Y-54975295D02*
X61936095Y-55118152D01*
X61936095Y-55118152D02*
X61888476Y-55213390D01*
X61888476Y-55213390D02*
X61840857Y-55261009D01*
X61840857Y-55261009D02*
X61745619Y-55308628D01*
X61745619Y-55308628D02*
X61364667Y-55308628D01*
X40473523Y-97482819D02*
X39902095Y-97482819D01*
X40187809Y-97482819D02*
X40187809Y-96482819D01*
X40187809Y-96482819D02*
X40092571Y-96625676D01*
X40092571Y-96625676D02*
X39997333Y-96720914D01*
X39997333Y-96720914D02*
X39902095Y-96768533D01*
X41330666Y-96482819D02*
X41140190Y-96482819D01*
X41140190Y-96482819D02*
X41044952Y-96530438D01*
X41044952Y-96530438D02*
X40997333Y-96578057D01*
X40997333Y-96578057D02*
X40902095Y-96720914D01*
X40902095Y-96720914D02*
X40854476Y-96911390D01*
X40854476Y-96911390D02*
X40854476Y-97292342D01*
X40854476Y-97292342D02*
X40902095Y-97387580D01*
X40902095Y-97387580D02*
X40949714Y-97435200D01*
X40949714Y-97435200D02*
X41044952Y-97482819D01*
X41044952Y-97482819D02*
X41235428Y-97482819D01*
X41235428Y-97482819D02*
X41330666Y-97435200D01*
X41330666Y-97435200D02*
X41378285Y-97387580D01*
X41378285Y-97387580D02*
X41425904Y-97292342D01*
X41425904Y-97292342D02*
X41425904Y-97054247D01*
X41425904Y-97054247D02*
X41378285Y-96959009D01*
X41378285Y-96959009D02*
X41330666Y-96911390D01*
X41330666Y-96911390D02*
X41235428Y-96863771D01*
X41235428Y-96863771D02*
X41044952Y-96863771D01*
X41044952Y-96863771D02*
X40949714Y-96911390D01*
X40949714Y-96911390D02*
X40902095Y-96959009D01*
X40902095Y-96959009D02*
X40854476Y-97054247D01*
X41854476Y-97482819D02*
X41854476Y-96482819D01*
X41854476Y-96482819D02*
X42187809Y-97197104D01*
X42187809Y-97197104D02*
X42521142Y-96482819D01*
X42521142Y-96482819D02*
X42521142Y-97482819D01*
X42997333Y-97482819D02*
X42997333Y-96482819D01*
X42997333Y-96959009D02*
X43568761Y-96959009D01*
X43568761Y-97482819D02*
X43568761Y-96482819D01*
X43949714Y-96816152D02*
X44473523Y-96816152D01*
X44473523Y-96816152D02*
X43949714Y-97482819D01*
X43949714Y-97482819D02*
X44473523Y-97482819D01*
X31893171Y-75277819D02*
X31893171Y-74277819D01*
X31893171Y-74277819D02*
X32274123Y-74277819D01*
X32274123Y-74277819D02*
X32369361Y-74325438D01*
X32369361Y-74325438D02*
X32416980Y-74373057D01*
X32416980Y-74373057D02*
X32464599Y-74468295D01*
X32464599Y-74468295D02*
X32464599Y-74611152D01*
X32464599Y-74611152D02*
X32416980Y-74706390D01*
X32416980Y-74706390D02*
X32369361Y-74754009D01*
X32369361Y-74754009D02*
X32274123Y-74801628D01*
X32274123Y-74801628D02*
X31893171Y-74801628D01*
X33321742Y-74611152D02*
X33321742Y-75277819D01*
X32893171Y-74611152D02*
X32893171Y-75134961D01*
X32893171Y-75134961D02*
X32940790Y-75230200D01*
X32940790Y-75230200D02*
X33036028Y-75277819D01*
X33036028Y-75277819D02*
X33178885Y-75277819D01*
X33178885Y-75277819D02*
X33274123Y-75230200D01*
X33274123Y-75230200D02*
X33321742Y-75182580D01*
X33750314Y-75230200D02*
X33845552Y-75277819D01*
X33845552Y-75277819D02*
X34036028Y-75277819D01*
X34036028Y-75277819D02*
X34131266Y-75230200D01*
X34131266Y-75230200D02*
X34178885Y-75134961D01*
X34178885Y-75134961D02*
X34178885Y-75087342D01*
X34178885Y-75087342D02*
X34131266Y-74992104D01*
X34131266Y-74992104D02*
X34036028Y-74944485D01*
X34036028Y-74944485D02*
X33893171Y-74944485D01*
X33893171Y-74944485D02*
X33797933Y-74896866D01*
X33797933Y-74896866D02*
X33750314Y-74801628D01*
X33750314Y-74801628D02*
X33750314Y-74754009D01*
X33750314Y-74754009D02*
X33797933Y-74658771D01*
X33797933Y-74658771D02*
X33893171Y-74611152D01*
X33893171Y-74611152D02*
X34036028Y-74611152D01*
X34036028Y-74611152D02*
X34131266Y-74658771D01*
X34607457Y-75277819D02*
X34607457Y-74277819D01*
X35036028Y-75277819D02*
X35036028Y-74754009D01*
X35036028Y-74754009D02*
X34988409Y-74658771D01*
X34988409Y-74658771D02*
X34893171Y-74611152D01*
X34893171Y-74611152D02*
X34750314Y-74611152D01*
X34750314Y-74611152D02*
X34655076Y-74658771D01*
X34655076Y-74658771D02*
X34607457Y-74706390D01*
D10*
X42862743Y-73170371D02*
X42862743Y-72570371D01*
X42862743Y-72570371D02*
X43091314Y-72570371D01*
X43091314Y-72570371D02*
X43148457Y-72598942D01*
X43148457Y-72598942D02*
X43177028Y-72627514D01*
X43177028Y-72627514D02*
X43205600Y-72684657D01*
X43205600Y-72684657D02*
X43205600Y-72770371D01*
X43205600Y-72770371D02*
X43177028Y-72827514D01*
X43177028Y-72827514D02*
X43148457Y-72856085D01*
X43148457Y-72856085D02*
X43091314Y-72884657D01*
X43091314Y-72884657D02*
X42862743Y-72884657D01*
X43462743Y-73170371D02*
X43462743Y-72570371D01*
X43462743Y-72570371D02*
X43605600Y-72570371D01*
X43605600Y-72570371D02*
X43691314Y-72598942D01*
X43691314Y-72598942D02*
X43748457Y-72656085D01*
X43748457Y-72656085D02*
X43777028Y-72713228D01*
X43777028Y-72713228D02*
X43805600Y-72827514D01*
X43805600Y-72827514D02*
X43805600Y-72913228D01*
X43805600Y-72913228D02*
X43777028Y-73027514D01*
X43777028Y-73027514D02*
X43748457Y-73084657D01*
X43748457Y-73084657D02*
X43691314Y-73141800D01*
X43691314Y-73141800D02*
X43605600Y-73170371D01*
X43605600Y-73170371D02*
X43462743Y-73170371D01*
X44177028Y-72570371D02*
X44234171Y-72570371D01*
X44234171Y-72570371D02*
X44291314Y-72598942D01*
X44291314Y-72598942D02*
X44319886Y-72627514D01*
X44319886Y-72627514D02*
X44348457Y-72684657D01*
X44348457Y-72684657D02*
X44377028Y-72798942D01*
X44377028Y-72798942D02*
X44377028Y-72941800D01*
X44377028Y-72941800D02*
X44348457Y-73056085D01*
X44348457Y-73056085D02*
X44319886Y-73113228D01*
X44319886Y-73113228D02*
X44291314Y-73141800D01*
X44291314Y-73141800D02*
X44234171Y-73170371D01*
X44234171Y-73170371D02*
X44177028Y-73170371D01*
X44177028Y-73170371D02*
X44119886Y-73141800D01*
X44119886Y-73141800D02*
X44091314Y-73113228D01*
X44091314Y-73113228D02*
X44062743Y-73056085D01*
X44062743Y-73056085D02*
X44034171Y-72941800D01*
X44034171Y-72941800D02*
X44034171Y-72798942D01*
X44034171Y-72798942D02*
X44062743Y-72684657D01*
X44062743Y-72684657D02*
X44091314Y-72627514D01*
X44091314Y-72627514D02*
X44119886Y-72598942D01*
X44119886Y-72598942D02*
X44177028Y-72570371D01*
D12*
X67276742Y-88689819D02*
X66943409Y-88213628D01*
X66705314Y-88689819D02*
X66705314Y-87689819D01*
X66705314Y-87689819D02*
X67086266Y-87689819D01*
X67086266Y-87689819D02*
X67181504Y-87737438D01*
X67181504Y-87737438D02*
X67229123Y-87785057D01*
X67229123Y-87785057D02*
X67276742Y-87880295D01*
X67276742Y-87880295D02*
X67276742Y-88023152D01*
X67276742Y-88023152D02*
X67229123Y-88118390D01*
X67229123Y-88118390D02*
X67181504Y-88166009D01*
X67181504Y-88166009D02*
X67086266Y-88213628D01*
X67086266Y-88213628D02*
X66705314Y-88213628D01*
X67705314Y-88166009D02*
X68038647Y-88166009D01*
X68181504Y-88689819D02*
X67705314Y-88689819D01*
X67705314Y-88689819D02*
X67705314Y-87689819D01*
X67705314Y-87689819D02*
X68181504Y-87689819D01*
X68610076Y-88689819D02*
X68610076Y-87689819D01*
X68610076Y-87689819D02*
X68848171Y-87689819D01*
X68848171Y-87689819D02*
X68991028Y-87737438D01*
X68991028Y-87737438D02*
X69086266Y-87832676D01*
X69086266Y-87832676D02*
X69133885Y-87927914D01*
X69133885Y-87927914D02*
X69181504Y-88118390D01*
X69181504Y-88118390D02*
X69181504Y-88261247D01*
X69181504Y-88261247D02*
X69133885Y-88451723D01*
X69133885Y-88451723D02*
X69086266Y-88546961D01*
X69086266Y-88546961D02*
X68991028Y-88642200D01*
X68991028Y-88642200D02*
X68848171Y-88689819D01*
X68848171Y-88689819D02*
X68610076Y-88689819D01*
D10*
X42945143Y-103650371D02*
X42945143Y-103050371D01*
X42945143Y-103050371D02*
X43173714Y-103050371D01*
X43173714Y-103050371D02*
X43230857Y-103078942D01*
X43230857Y-103078942D02*
X43259428Y-103107514D01*
X43259428Y-103107514D02*
X43288000Y-103164657D01*
X43288000Y-103164657D02*
X43288000Y-103250371D01*
X43288000Y-103250371D02*
X43259428Y-103307514D01*
X43259428Y-103307514D02*
X43230857Y-103336085D01*
X43230857Y-103336085D02*
X43173714Y-103364657D01*
X43173714Y-103364657D02*
X42945143Y-103364657D01*
X43745143Y-103336085D02*
X43830857Y-103364657D01*
X43830857Y-103364657D02*
X43859428Y-103393228D01*
X43859428Y-103393228D02*
X43888000Y-103450371D01*
X43888000Y-103450371D02*
X43888000Y-103536085D01*
X43888000Y-103536085D02*
X43859428Y-103593228D01*
X43859428Y-103593228D02*
X43830857Y-103621800D01*
X43830857Y-103621800D02*
X43773714Y-103650371D01*
X43773714Y-103650371D02*
X43545143Y-103650371D01*
X43545143Y-103650371D02*
X43545143Y-103050371D01*
X43545143Y-103050371D02*
X43745143Y-103050371D01*
X43745143Y-103050371D02*
X43802286Y-103078942D01*
X43802286Y-103078942D02*
X43830857Y-103107514D01*
X43830857Y-103107514D02*
X43859428Y-103164657D01*
X43859428Y-103164657D02*
X43859428Y-103221800D01*
X43859428Y-103221800D02*
X43830857Y-103278942D01*
X43830857Y-103278942D02*
X43802286Y-103307514D01*
X43802286Y-103307514D02*
X43745143Y-103336085D01*
X43745143Y-103336085D02*
X43545143Y-103336085D01*
X44259428Y-103050371D02*
X44316571Y-103050371D01*
X44316571Y-103050371D02*
X44373714Y-103078942D01*
X44373714Y-103078942D02*
X44402286Y-103107514D01*
X44402286Y-103107514D02*
X44430857Y-103164657D01*
X44430857Y-103164657D02*
X44459428Y-103278942D01*
X44459428Y-103278942D02*
X44459428Y-103421800D01*
X44459428Y-103421800D02*
X44430857Y-103536085D01*
X44430857Y-103536085D02*
X44402286Y-103593228D01*
X44402286Y-103593228D02*
X44373714Y-103621800D01*
X44373714Y-103621800D02*
X44316571Y-103650371D01*
X44316571Y-103650371D02*
X44259428Y-103650371D01*
X44259428Y-103650371D02*
X44202286Y-103621800D01*
X44202286Y-103621800D02*
X44173714Y-103593228D01*
X44173714Y-103593228D02*
X44145143Y-103536085D01*
X44145143Y-103536085D02*
X44116571Y-103421800D01*
X44116571Y-103421800D02*
X44116571Y-103278942D01*
X44116571Y-103278942D02*
X44145143Y-103164657D01*
X44145143Y-103164657D02*
X44173714Y-103107514D01*
X44173714Y-103107514D02*
X44202286Y-103078942D01*
X44202286Y-103078942D02*
X44259428Y-103050371D01*
D12*
X66943409Y-98163628D02*
X66943409Y-98639819D01*
X66610076Y-97639819D02*
X66943409Y-98163628D01*
X66943409Y-98163628D02*
X67276742Y-97639819D01*
X68086266Y-98639819D02*
X67610076Y-98639819D01*
X67610076Y-98639819D02*
X67610076Y-97639819D01*
X68324362Y-97639819D02*
X68562457Y-98639819D01*
X68562457Y-98639819D02*
X68752933Y-97925533D01*
X68752933Y-97925533D02*
X68943409Y-98639819D01*
X68943409Y-98639819D02*
X69181505Y-97639819D01*
X65196819Y-71394189D02*
X64196819Y-71394189D01*
X64292057Y-70965618D02*
X64244438Y-70917999D01*
X64244438Y-70917999D02*
X64196819Y-70822761D01*
X64196819Y-70822761D02*
X64196819Y-70584666D01*
X64196819Y-70584666D02*
X64244438Y-70489428D01*
X64244438Y-70489428D02*
X64292057Y-70441809D01*
X64292057Y-70441809D02*
X64387295Y-70394190D01*
X64387295Y-70394190D02*
X64482533Y-70394190D01*
X64482533Y-70394190D02*
X64625390Y-70441809D01*
X64625390Y-70441809D02*
X65196819Y-71013237D01*
X65196819Y-71013237D02*
X65196819Y-70394190D01*
X65101580Y-69394190D02*
X65149200Y-69441809D01*
X65149200Y-69441809D02*
X65196819Y-69584666D01*
X65196819Y-69584666D02*
X65196819Y-69679904D01*
X65196819Y-69679904D02*
X65149200Y-69822761D01*
X65149200Y-69822761D02*
X65053961Y-69917999D01*
X65053961Y-69917999D02*
X64958723Y-69965618D01*
X64958723Y-69965618D02*
X64768247Y-70013237D01*
X64768247Y-70013237D02*
X64625390Y-70013237D01*
X64625390Y-70013237D02*
X64434914Y-69965618D01*
X64434914Y-69965618D02*
X64339676Y-69917999D01*
X64339676Y-69917999D02*
X64244438Y-69822761D01*
X64244438Y-69822761D02*
X64196819Y-69679904D01*
X64196819Y-69679904D02*
X64196819Y-69584666D01*
X64196819Y-69584666D02*
X64244438Y-69441809D01*
X64244438Y-69441809D02*
X64292057Y-69394190D01*
X32138095Y-57297319D02*
X32709523Y-57297319D01*
X32423809Y-58297319D02*
X32423809Y-57297319D01*
X33185714Y-57725890D02*
X33090476Y-57678271D01*
X33090476Y-57678271D02*
X33042857Y-57630652D01*
X33042857Y-57630652D02*
X32995238Y-57535414D01*
X32995238Y-57535414D02*
X32995238Y-57487795D01*
X32995238Y-57487795D02*
X33042857Y-57392557D01*
X33042857Y-57392557D02*
X33090476Y-57344938D01*
X33090476Y-57344938D02*
X33185714Y-57297319D01*
X33185714Y-57297319D02*
X33376190Y-57297319D01*
X33376190Y-57297319D02*
X33471428Y-57344938D01*
X33471428Y-57344938D02*
X33519047Y-57392557D01*
X33519047Y-57392557D02*
X33566666Y-57487795D01*
X33566666Y-57487795D02*
X33566666Y-57535414D01*
X33566666Y-57535414D02*
X33519047Y-57630652D01*
X33519047Y-57630652D02*
X33471428Y-57678271D01*
X33471428Y-57678271D02*
X33376190Y-57725890D01*
X33376190Y-57725890D02*
X33185714Y-57725890D01*
X33185714Y-57725890D02*
X33090476Y-57773509D01*
X33090476Y-57773509D02*
X33042857Y-57821128D01*
X33042857Y-57821128D02*
X32995238Y-57916366D01*
X32995238Y-57916366D02*
X32995238Y-58106842D01*
X32995238Y-58106842D02*
X33042857Y-58202080D01*
X33042857Y-58202080D02*
X33090476Y-58249700D01*
X33090476Y-58249700D02*
X33185714Y-58297319D01*
X33185714Y-58297319D02*
X33376190Y-58297319D01*
X33376190Y-58297319D02*
X33471428Y-58249700D01*
X33471428Y-58249700D02*
X33519047Y-58202080D01*
X33519047Y-58202080D02*
X33566666Y-58106842D01*
X33566666Y-58106842D02*
X33566666Y-57916366D01*
X33566666Y-57916366D02*
X33519047Y-57821128D01*
X33519047Y-57821128D02*
X33471428Y-57773509D01*
X33471428Y-57773509D02*
X33376190Y-57725890D01*
X33900000Y-57297319D02*
X34519047Y-57297319D01*
X34519047Y-57297319D02*
X34185714Y-57678271D01*
X34185714Y-57678271D02*
X34328571Y-57678271D01*
X34328571Y-57678271D02*
X34423809Y-57725890D01*
X34423809Y-57725890D02*
X34471428Y-57773509D01*
X34471428Y-57773509D02*
X34519047Y-57868747D01*
X34519047Y-57868747D02*
X34519047Y-58106842D01*
X34519047Y-58106842D02*
X34471428Y-58202080D01*
X34471428Y-58202080D02*
X34423809Y-58249700D01*
X34423809Y-58249700D02*
X34328571Y-58297319D01*
X34328571Y-58297319D02*
X34042857Y-58297319D01*
X34042857Y-58297319D02*
X33947619Y-58249700D01*
X33947619Y-58249700D02*
X33900000Y-58202080D01*
X35423809Y-57297319D02*
X34947619Y-57297319D01*
X34947619Y-57297319D02*
X34900000Y-57773509D01*
X34900000Y-57773509D02*
X34947619Y-57725890D01*
X34947619Y-57725890D02*
X35042857Y-57678271D01*
X35042857Y-57678271D02*
X35280952Y-57678271D01*
X35280952Y-57678271D02*
X35376190Y-57725890D01*
X35376190Y-57725890D02*
X35423809Y-57773509D01*
X35423809Y-57773509D02*
X35471428Y-57868747D01*
X35471428Y-57868747D02*
X35471428Y-58106842D01*
X35471428Y-58106842D02*
X35423809Y-58202080D01*
X35423809Y-58202080D02*
X35376190Y-58249700D01*
X35376190Y-58249700D02*
X35280952Y-58297319D01*
X35280952Y-58297319D02*
X35042857Y-58297319D01*
X35042857Y-58297319D02*
X34947619Y-58249700D01*
X34947619Y-58249700D02*
X34900000Y-58202080D01*
X35900000Y-57916366D02*
X36661905Y-57916366D01*
X37566666Y-57297319D02*
X37376190Y-57297319D01*
X37376190Y-57297319D02*
X37280952Y-57344938D01*
X37280952Y-57344938D02*
X37233333Y-57392557D01*
X37233333Y-57392557D02*
X37138095Y-57535414D01*
X37138095Y-57535414D02*
X37090476Y-57725890D01*
X37090476Y-57725890D02*
X37090476Y-58106842D01*
X37090476Y-58106842D02*
X37138095Y-58202080D01*
X37138095Y-58202080D02*
X37185714Y-58249700D01*
X37185714Y-58249700D02*
X37280952Y-58297319D01*
X37280952Y-58297319D02*
X37471428Y-58297319D01*
X37471428Y-58297319D02*
X37566666Y-58249700D01*
X37566666Y-58249700D02*
X37614285Y-58202080D01*
X37614285Y-58202080D02*
X37661904Y-58106842D01*
X37661904Y-58106842D02*
X37661904Y-57868747D01*
X37661904Y-57868747D02*
X37614285Y-57773509D01*
X37614285Y-57773509D02*
X37566666Y-57725890D01*
X37566666Y-57725890D02*
X37471428Y-57678271D01*
X37471428Y-57678271D02*
X37280952Y-57678271D01*
X37280952Y-57678271D02*
X37185714Y-57725890D01*
X37185714Y-57725890D02*
X37138095Y-57773509D01*
X37138095Y-57773509D02*
X37090476Y-57868747D01*
X38280952Y-57297319D02*
X38376190Y-57297319D01*
X38376190Y-57297319D02*
X38471428Y-57344938D01*
X38471428Y-57344938D02*
X38519047Y-57392557D01*
X38519047Y-57392557D02*
X38566666Y-57487795D01*
X38566666Y-57487795D02*
X38614285Y-57678271D01*
X38614285Y-57678271D02*
X38614285Y-57916366D01*
X38614285Y-57916366D02*
X38566666Y-58106842D01*
X38566666Y-58106842D02*
X38519047Y-58202080D01*
X38519047Y-58202080D02*
X38471428Y-58249700D01*
X38471428Y-58249700D02*
X38376190Y-58297319D01*
X38376190Y-58297319D02*
X38280952Y-58297319D01*
X38280952Y-58297319D02*
X38185714Y-58249700D01*
X38185714Y-58249700D02*
X38138095Y-58202080D01*
X38138095Y-58202080D02*
X38090476Y-58106842D01*
X38090476Y-58106842D02*
X38042857Y-57916366D01*
X38042857Y-57916366D02*
X38042857Y-57678271D01*
X38042857Y-57678271D02*
X38090476Y-57487795D01*
X38090476Y-57487795D02*
X38138095Y-57392557D01*
X38138095Y-57392557D02*
X38185714Y-57344938D01*
X38185714Y-57344938D02*
X38280952Y-57297319D01*
X39233333Y-57297319D02*
X39328571Y-57297319D01*
X39328571Y-57297319D02*
X39423809Y-57344938D01*
X39423809Y-57344938D02*
X39471428Y-57392557D01*
X39471428Y-57392557D02*
X39519047Y-57487795D01*
X39519047Y-57487795D02*
X39566666Y-57678271D01*
X39566666Y-57678271D02*
X39566666Y-57916366D01*
X39566666Y-57916366D02*
X39519047Y-58106842D01*
X39519047Y-58106842D02*
X39471428Y-58202080D01*
X39471428Y-58202080D02*
X39423809Y-58249700D01*
X39423809Y-58249700D02*
X39328571Y-58297319D01*
X39328571Y-58297319D02*
X39233333Y-58297319D01*
X39233333Y-58297319D02*
X39138095Y-58249700D01*
X39138095Y-58249700D02*
X39090476Y-58202080D01*
X39090476Y-58202080D02*
X39042857Y-58106842D01*
X39042857Y-58106842D02*
X38995238Y-57916366D01*
X38995238Y-57916366D02*
X38995238Y-57678271D01*
X38995238Y-57678271D02*
X39042857Y-57487795D01*
X39042857Y-57487795D02*
X39090476Y-57392557D01*
X39090476Y-57392557D02*
X39138095Y-57344938D01*
X39138095Y-57344938D02*
X39233333Y-57297319D01*
X40328571Y-57773509D02*
X40471428Y-57821128D01*
X40471428Y-57821128D02*
X40519047Y-57868747D01*
X40519047Y-57868747D02*
X40566666Y-57963985D01*
X40566666Y-57963985D02*
X40566666Y-58106842D01*
X40566666Y-58106842D02*
X40519047Y-58202080D01*
X40519047Y-58202080D02*
X40471428Y-58249700D01*
X40471428Y-58249700D02*
X40376190Y-58297319D01*
X40376190Y-58297319D02*
X39995238Y-58297319D01*
X39995238Y-58297319D02*
X39995238Y-57297319D01*
X39995238Y-57297319D02*
X40328571Y-57297319D01*
X40328571Y-57297319D02*
X40423809Y-57344938D01*
X40423809Y-57344938D02*
X40471428Y-57392557D01*
X40471428Y-57392557D02*
X40519047Y-57487795D01*
X40519047Y-57487795D02*
X40519047Y-57583033D01*
X40519047Y-57583033D02*
X40471428Y-57678271D01*
X40471428Y-57678271D02*
X40423809Y-57725890D01*
X40423809Y-57725890D02*
X40328571Y-57773509D01*
X40328571Y-57773509D02*
X39995238Y-57773509D01*
X34012667Y-31188819D02*
X34012667Y-30188819D01*
X34012667Y-30665009D02*
X34584095Y-30665009D01*
X34584095Y-31188819D02*
X34584095Y-30188819D01*
X35536476Y-31188819D02*
X35060286Y-31188819D01*
X35060286Y-31188819D02*
X35060286Y-30188819D01*
X35869810Y-31188819D02*
X35869810Y-30188819D01*
X36441238Y-31188819D02*
X36012667Y-30617390D01*
X36441238Y-30188819D02*
X35869810Y-30760247D01*
X36869810Y-30807866D02*
X37631715Y-30807866D01*
X38107905Y-31188819D02*
X38107905Y-30188819D01*
X38107905Y-30188819D02*
X38488857Y-30188819D01*
X38488857Y-30188819D02*
X38584095Y-30236438D01*
X38584095Y-30236438D02*
X38631714Y-30284057D01*
X38631714Y-30284057D02*
X38679333Y-30379295D01*
X38679333Y-30379295D02*
X38679333Y-30522152D01*
X38679333Y-30522152D02*
X38631714Y-30617390D01*
X38631714Y-30617390D02*
X38584095Y-30665009D01*
X38584095Y-30665009D02*
X38488857Y-30712628D01*
X38488857Y-30712628D02*
X38107905Y-30712628D01*
X39107905Y-31188819D02*
X39107905Y-30188819D01*
X39107905Y-30188819D02*
X39441238Y-30903104D01*
X39441238Y-30903104D02*
X39774571Y-30188819D01*
X39774571Y-30188819D02*
X39774571Y-31188819D01*
X40441238Y-30188819D02*
X40536476Y-30188819D01*
X40536476Y-30188819D02*
X40631714Y-30236438D01*
X40631714Y-30236438D02*
X40679333Y-30284057D01*
X40679333Y-30284057D02*
X40726952Y-30379295D01*
X40726952Y-30379295D02*
X40774571Y-30569771D01*
X40774571Y-30569771D02*
X40774571Y-30807866D01*
X40774571Y-30807866D02*
X40726952Y-30998342D01*
X40726952Y-30998342D02*
X40679333Y-31093580D01*
X40679333Y-31093580D02*
X40631714Y-31141200D01*
X40631714Y-31141200D02*
X40536476Y-31188819D01*
X40536476Y-31188819D02*
X40441238Y-31188819D01*
X40441238Y-31188819D02*
X40346000Y-31141200D01*
X40346000Y-31141200D02*
X40298381Y-31093580D01*
X40298381Y-31093580D02*
X40250762Y-30998342D01*
X40250762Y-30998342D02*
X40203143Y-30807866D01*
X40203143Y-30807866D02*
X40203143Y-30569771D01*
X40203143Y-30569771D02*
X40250762Y-30379295D01*
X40250762Y-30379295D02*
X40298381Y-30284057D01*
X40298381Y-30284057D02*
X40346000Y-30236438D01*
X40346000Y-30236438D02*
X40441238Y-30188819D01*
X41726952Y-31188819D02*
X41155524Y-31188819D01*
X41441238Y-31188819D02*
X41441238Y-30188819D01*
X41441238Y-30188819D02*
X41346000Y-30331676D01*
X41346000Y-30331676D02*
X41250762Y-30426914D01*
X41250762Y-30426914D02*
X41155524Y-30474533D01*
X44950286Y-51312819D02*
X45569333Y-51312819D01*
X45569333Y-51312819D02*
X45236000Y-51693771D01*
X45236000Y-51693771D02*
X45378857Y-51693771D01*
X45378857Y-51693771D02*
X45474095Y-51741390D01*
X45474095Y-51741390D02*
X45521714Y-51789009D01*
X45521714Y-51789009D02*
X45569333Y-51884247D01*
X45569333Y-51884247D02*
X45569333Y-52122342D01*
X45569333Y-52122342D02*
X45521714Y-52217580D01*
X45521714Y-52217580D02*
X45474095Y-52265200D01*
X45474095Y-52265200D02*
X45378857Y-52312819D01*
X45378857Y-52312819D02*
X45093143Y-52312819D01*
X45093143Y-52312819D02*
X44997905Y-52265200D01*
X44997905Y-52265200D02*
X44950286Y-52217580D01*
X46426476Y-51312819D02*
X46236000Y-51312819D01*
X46236000Y-51312819D02*
X46140762Y-51360438D01*
X46140762Y-51360438D02*
X46093143Y-51408057D01*
X46093143Y-51408057D02*
X45997905Y-51550914D01*
X45997905Y-51550914D02*
X45950286Y-51741390D01*
X45950286Y-51741390D02*
X45950286Y-52122342D01*
X45950286Y-52122342D02*
X45997905Y-52217580D01*
X45997905Y-52217580D02*
X46045524Y-52265200D01*
X46045524Y-52265200D02*
X46140762Y-52312819D01*
X46140762Y-52312819D02*
X46331238Y-52312819D01*
X46331238Y-52312819D02*
X46426476Y-52265200D01*
X46426476Y-52265200D02*
X46474095Y-52217580D01*
X46474095Y-52217580D02*
X46521714Y-52122342D01*
X46521714Y-52122342D02*
X46521714Y-51884247D01*
X46521714Y-51884247D02*
X46474095Y-51789009D01*
X46474095Y-51789009D02*
X46426476Y-51741390D01*
X46426476Y-51741390D02*
X46331238Y-51693771D01*
X46331238Y-51693771D02*
X46140762Y-51693771D01*
X46140762Y-51693771D02*
X46045524Y-51741390D01*
X46045524Y-51741390D02*
X45997905Y-51789009D01*
X45997905Y-51789009D02*
X45950286Y-51884247D01*
X47140762Y-51312819D02*
X47236000Y-51312819D01*
X47236000Y-51312819D02*
X47331238Y-51360438D01*
X47331238Y-51360438D02*
X47378857Y-51408057D01*
X47378857Y-51408057D02*
X47426476Y-51503295D01*
X47426476Y-51503295D02*
X47474095Y-51693771D01*
X47474095Y-51693771D02*
X47474095Y-51931866D01*
X47474095Y-51931866D02*
X47426476Y-52122342D01*
X47426476Y-52122342D02*
X47378857Y-52217580D01*
X47378857Y-52217580D02*
X47331238Y-52265200D01*
X47331238Y-52265200D02*
X47236000Y-52312819D01*
X47236000Y-52312819D02*
X47140762Y-52312819D01*
X47140762Y-52312819D02*
X47045524Y-52265200D01*
X47045524Y-52265200D02*
X46997905Y-52217580D01*
X46997905Y-52217580D02*
X46950286Y-52122342D01*
X46950286Y-52122342D02*
X46902667Y-51931866D01*
X46902667Y-51931866D02*
X46902667Y-51693771D01*
X46902667Y-51693771D02*
X46950286Y-51503295D01*
X46950286Y-51503295D02*
X46997905Y-51408057D01*
X46997905Y-51408057D02*
X47045524Y-51360438D01*
X47045524Y-51360438D02*
X47140762Y-51312819D01*
X48474095Y-52312819D02*
X48140762Y-51836628D01*
X47902667Y-52312819D02*
X47902667Y-51312819D01*
X47902667Y-51312819D02*
X48283619Y-51312819D01*
X48283619Y-51312819D02*
X48378857Y-51360438D01*
X48378857Y-51360438D02*
X48426476Y-51408057D01*
X48426476Y-51408057D02*
X48474095Y-51503295D01*
X48474095Y-51503295D02*
X48474095Y-51646152D01*
X48474095Y-51646152D02*
X48426476Y-51741390D01*
X48426476Y-51741390D02*
X48378857Y-51789009D01*
X48378857Y-51789009D02*
X48283619Y-51836628D01*
X48283619Y-51836628D02*
X47902667Y-51836628D01*
D10*
X39897143Y-101110371D02*
X39897143Y-100510371D01*
X39897143Y-100510371D02*
X40125714Y-100510371D01*
X40125714Y-100510371D02*
X40182857Y-100538942D01*
X40182857Y-100538942D02*
X40211428Y-100567514D01*
X40211428Y-100567514D02*
X40240000Y-100624657D01*
X40240000Y-100624657D02*
X40240000Y-100710371D01*
X40240000Y-100710371D02*
X40211428Y-100767514D01*
X40211428Y-100767514D02*
X40182857Y-100796085D01*
X40182857Y-100796085D02*
X40125714Y-100824657D01*
X40125714Y-100824657D02*
X39897143Y-100824657D01*
X40497143Y-101110371D02*
X40497143Y-100510371D01*
X40497143Y-100510371D02*
X40640000Y-100510371D01*
X40640000Y-100510371D02*
X40725714Y-100538942D01*
X40725714Y-100538942D02*
X40782857Y-100596085D01*
X40782857Y-100596085D02*
X40811428Y-100653228D01*
X40811428Y-100653228D02*
X40840000Y-100767514D01*
X40840000Y-100767514D02*
X40840000Y-100853228D01*
X40840000Y-100853228D02*
X40811428Y-100967514D01*
X40811428Y-100967514D02*
X40782857Y-101024657D01*
X40782857Y-101024657D02*
X40725714Y-101081800D01*
X40725714Y-101081800D02*
X40640000Y-101110371D01*
X40640000Y-101110371D02*
X40497143Y-101110371D01*
X41354286Y-100510371D02*
X41240000Y-100510371D01*
X41240000Y-100510371D02*
X41182857Y-100538942D01*
X41182857Y-100538942D02*
X41154286Y-100567514D01*
X41154286Y-100567514D02*
X41097143Y-100653228D01*
X41097143Y-100653228D02*
X41068571Y-100767514D01*
X41068571Y-100767514D02*
X41068571Y-100996085D01*
X41068571Y-100996085D02*
X41097143Y-101053228D01*
X41097143Y-101053228D02*
X41125714Y-101081800D01*
X41125714Y-101081800D02*
X41182857Y-101110371D01*
X41182857Y-101110371D02*
X41297143Y-101110371D01*
X41297143Y-101110371D02*
X41354286Y-101081800D01*
X41354286Y-101081800D02*
X41382857Y-101053228D01*
X41382857Y-101053228D02*
X41411428Y-100996085D01*
X41411428Y-100996085D02*
X41411428Y-100853228D01*
X41411428Y-100853228D02*
X41382857Y-100796085D01*
X41382857Y-100796085D02*
X41354286Y-100767514D01*
X41354286Y-100767514D02*
X41297143Y-100738942D01*
X41297143Y-100738942D02*
X41182857Y-100738942D01*
X41182857Y-100738942D02*
X41125714Y-100767514D01*
X41125714Y-100767514D02*
X41097143Y-100796085D01*
X41097143Y-100796085D02*
X41068571Y-100853228D01*
X58862743Y-101110371D02*
X58862743Y-100510371D01*
X58862743Y-100510371D02*
X59091314Y-100510371D01*
X59091314Y-100510371D02*
X59148457Y-100538942D01*
X59148457Y-100538942D02*
X59177028Y-100567514D01*
X59177028Y-100567514D02*
X59205600Y-100624657D01*
X59205600Y-100624657D02*
X59205600Y-100710371D01*
X59205600Y-100710371D02*
X59177028Y-100767514D01*
X59177028Y-100767514D02*
X59148457Y-100796085D01*
X59148457Y-100796085D02*
X59091314Y-100824657D01*
X59091314Y-100824657D02*
X58862743Y-100824657D01*
X59662743Y-100796085D02*
X59748457Y-100824657D01*
X59748457Y-100824657D02*
X59777028Y-100853228D01*
X59777028Y-100853228D02*
X59805600Y-100910371D01*
X59805600Y-100910371D02*
X59805600Y-100996085D01*
X59805600Y-100996085D02*
X59777028Y-101053228D01*
X59777028Y-101053228D02*
X59748457Y-101081800D01*
X59748457Y-101081800D02*
X59691314Y-101110371D01*
X59691314Y-101110371D02*
X59462743Y-101110371D01*
X59462743Y-101110371D02*
X59462743Y-100510371D01*
X59462743Y-100510371D02*
X59662743Y-100510371D01*
X59662743Y-100510371D02*
X59719886Y-100538942D01*
X59719886Y-100538942D02*
X59748457Y-100567514D01*
X59748457Y-100567514D02*
X59777028Y-100624657D01*
X59777028Y-100624657D02*
X59777028Y-100681800D01*
X59777028Y-100681800D02*
X59748457Y-100738942D01*
X59748457Y-100738942D02*
X59719886Y-100767514D01*
X59719886Y-100767514D02*
X59662743Y-100796085D01*
X59662743Y-100796085D02*
X59462743Y-100796085D01*
X60034171Y-100567514D02*
X60062743Y-100538942D01*
X60062743Y-100538942D02*
X60119886Y-100510371D01*
X60119886Y-100510371D02*
X60262743Y-100510371D01*
X60262743Y-100510371D02*
X60319886Y-100538942D01*
X60319886Y-100538942D02*
X60348457Y-100567514D01*
X60348457Y-100567514D02*
X60377028Y-100624657D01*
X60377028Y-100624657D02*
X60377028Y-100681800D01*
X60377028Y-100681800D02*
X60348457Y-100767514D01*
X60348457Y-100767514D02*
X60005600Y-101110371D01*
X60005600Y-101110371D02*
X60377028Y-101110371D01*
D12*
X63316200Y-103333048D02*
X63354295Y-103218762D01*
X63354295Y-103218762D02*
X63354295Y-103028286D01*
X63354295Y-103028286D02*
X63316200Y-102952095D01*
X63316200Y-102952095D02*
X63278104Y-102914000D01*
X63278104Y-102914000D02*
X63201914Y-102875905D01*
X63201914Y-102875905D02*
X63125723Y-102875905D01*
X63125723Y-102875905D02*
X63049533Y-102914000D01*
X63049533Y-102914000D02*
X63011438Y-102952095D01*
X63011438Y-102952095D02*
X62973342Y-103028286D01*
X62973342Y-103028286D02*
X62935247Y-103180667D01*
X62935247Y-103180667D02*
X62897152Y-103256857D01*
X62897152Y-103256857D02*
X62859057Y-103294952D01*
X62859057Y-103294952D02*
X62782866Y-103333048D01*
X62782866Y-103333048D02*
X62706676Y-103333048D01*
X62706676Y-103333048D02*
X62630485Y-103294952D01*
X62630485Y-103294952D02*
X62592390Y-103256857D01*
X62592390Y-103256857D02*
X62554295Y-103180667D01*
X62554295Y-103180667D02*
X62554295Y-102990190D01*
X62554295Y-102990190D02*
X62592390Y-102875905D01*
X63354295Y-102533047D02*
X62554295Y-102533047D01*
X62554295Y-102533047D02*
X63354295Y-102075904D01*
X63354295Y-102075904D02*
X62554295Y-102075904D01*
X62554295Y-101771143D02*
X62554295Y-101237809D01*
X62554295Y-101237809D02*
X63354295Y-101580667D01*
X62820961Y-100590190D02*
X63354295Y-100590190D01*
X62516200Y-100780666D02*
X63087628Y-100971143D01*
X63087628Y-100971143D02*
X63087628Y-100475904D01*
X63354295Y-99790190D02*
X63354295Y-100171142D01*
X63354295Y-100171142D02*
X62554295Y-100171142D01*
X62554295Y-99637809D02*
X63354295Y-99371142D01*
X63354295Y-99371142D02*
X62554295Y-99104476D01*
X63278104Y-98380666D02*
X63316200Y-98418762D01*
X63316200Y-98418762D02*
X63354295Y-98533047D01*
X63354295Y-98533047D02*
X63354295Y-98609238D01*
X63354295Y-98609238D02*
X63316200Y-98723524D01*
X63316200Y-98723524D02*
X63240009Y-98799714D01*
X63240009Y-98799714D02*
X63163819Y-98837809D01*
X63163819Y-98837809D02*
X63011438Y-98875905D01*
X63011438Y-98875905D02*
X62897152Y-98875905D01*
X62897152Y-98875905D02*
X62744771Y-98837809D01*
X62744771Y-98837809D02*
X62668580Y-98799714D01*
X62668580Y-98799714D02*
X62592390Y-98723524D01*
X62592390Y-98723524D02*
X62554295Y-98609238D01*
X62554295Y-98609238D02*
X62554295Y-98533047D01*
X62554295Y-98533047D02*
X62592390Y-98418762D01*
X62592390Y-98418762D02*
X62630485Y-98380666D01*
X62630485Y-98075905D02*
X62592390Y-98037809D01*
X62592390Y-98037809D02*
X62554295Y-97961619D01*
X62554295Y-97961619D02*
X62554295Y-97771143D01*
X62554295Y-97771143D02*
X62592390Y-97694952D01*
X62592390Y-97694952D02*
X62630485Y-97656857D01*
X62630485Y-97656857D02*
X62706676Y-97618762D01*
X62706676Y-97618762D02*
X62782866Y-97618762D01*
X62782866Y-97618762D02*
X62897152Y-97656857D01*
X62897152Y-97656857D02*
X63354295Y-98114000D01*
X63354295Y-98114000D02*
X63354295Y-97618762D01*
X62592390Y-96856857D02*
X62554295Y-96933047D01*
X62554295Y-96933047D02*
X62554295Y-97047333D01*
X62554295Y-97047333D02*
X62592390Y-97161619D01*
X62592390Y-97161619D02*
X62668580Y-97237809D01*
X62668580Y-97237809D02*
X62744771Y-97275904D01*
X62744771Y-97275904D02*
X62897152Y-97314000D01*
X62897152Y-97314000D02*
X63011438Y-97314000D01*
X63011438Y-97314000D02*
X63163819Y-97275904D01*
X63163819Y-97275904D02*
X63240009Y-97237809D01*
X63240009Y-97237809D02*
X63316200Y-97161619D01*
X63316200Y-97161619D02*
X63354295Y-97047333D01*
X63354295Y-97047333D02*
X63354295Y-96971142D01*
X63354295Y-96971142D02*
X63316200Y-96856857D01*
X63316200Y-96856857D02*
X63278104Y-96818761D01*
X63278104Y-96818761D02*
X63011438Y-96818761D01*
X63011438Y-96818761D02*
X63011438Y-96971142D01*
X62554295Y-96323523D02*
X62554295Y-96247333D01*
X62554295Y-96247333D02*
X62592390Y-96171142D01*
X62592390Y-96171142D02*
X62630485Y-96133047D01*
X62630485Y-96133047D02*
X62706676Y-96094952D01*
X62706676Y-96094952D02*
X62859057Y-96056857D01*
X62859057Y-96056857D02*
X63049533Y-96056857D01*
X63049533Y-96056857D02*
X63201914Y-96094952D01*
X63201914Y-96094952D02*
X63278104Y-96133047D01*
X63278104Y-96133047D02*
X63316200Y-96171142D01*
X63316200Y-96171142D02*
X63354295Y-96247333D01*
X63354295Y-96247333D02*
X63354295Y-96323523D01*
X63354295Y-96323523D02*
X63316200Y-96399714D01*
X63316200Y-96399714D02*
X63278104Y-96437809D01*
X63278104Y-96437809D02*
X63201914Y-96475904D01*
X63201914Y-96475904D02*
X63049533Y-96514000D01*
X63049533Y-96514000D02*
X62859057Y-96514000D01*
X62859057Y-96514000D02*
X62706676Y-96475904D01*
X62706676Y-96475904D02*
X62630485Y-96437809D01*
X62630485Y-96437809D02*
X62592390Y-96399714D01*
X62592390Y-96399714D02*
X62554295Y-96323523D01*
X62554295Y-95371142D02*
X62554295Y-95523523D01*
X62554295Y-95523523D02*
X62592390Y-95599714D01*
X62592390Y-95599714D02*
X62630485Y-95637809D01*
X62630485Y-95637809D02*
X62744771Y-95713999D01*
X62744771Y-95713999D02*
X62897152Y-95752095D01*
X62897152Y-95752095D02*
X63201914Y-95752095D01*
X63201914Y-95752095D02*
X63278104Y-95713999D01*
X63278104Y-95713999D02*
X63316200Y-95675904D01*
X63316200Y-95675904D02*
X63354295Y-95599714D01*
X63354295Y-95599714D02*
X63354295Y-95447333D01*
X63354295Y-95447333D02*
X63316200Y-95371142D01*
X63316200Y-95371142D02*
X63278104Y-95333047D01*
X63278104Y-95333047D02*
X63201914Y-95294952D01*
X63201914Y-95294952D02*
X63011438Y-95294952D01*
X63011438Y-95294952D02*
X62935247Y-95333047D01*
X62935247Y-95333047D02*
X62897152Y-95371142D01*
X62897152Y-95371142D02*
X62859057Y-95447333D01*
X62859057Y-95447333D02*
X62859057Y-95599714D01*
X62859057Y-95599714D02*
X62897152Y-95675904D01*
X62897152Y-95675904D02*
X62935247Y-95713999D01*
X62935247Y-95713999D02*
X63011438Y-95752095D01*
X28837333Y-65365009D02*
X28504000Y-65365009D01*
X28504000Y-65888819D02*
X28504000Y-64888819D01*
X28504000Y-64888819D02*
X28980190Y-64888819D01*
X29361143Y-65888819D02*
X29361143Y-64888819D01*
X29361143Y-64888819D02*
X29599238Y-64888819D01*
X29599238Y-64888819D02*
X29742095Y-64936438D01*
X29742095Y-64936438D02*
X29837333Y-65031676D01*
X29837333Y-65031676D02*
X29884952Y-65126914D01*
X29884952Y-65126914D02*
X29932571Y-65317390D01*
X29932571Y-65317390D02*
X29932571Y-65460247D01*
X29932571Y-65460247D02*
X29884952Y-65650723D01*
X29884952Y-65650723D02*
X29837333Y-65745961D01*
X29837333Y-65745961D02*
X29742095Y-65841200D01*
X29742095Y-65841200D02*
X29599238Y-65888819D01*
X29599238Y-65888819D02*
X29361143Y-65888819D01*
X30313524Y-65841200D02*
X30456381Y-65888819D01*
X30456381Y-65888819D02*
X30694476Y-65888819D01*
X30694476Y-65888819D02*
X30789714Y-65841200D01*
X30789714Y-65841200D02*
X30837333Y-65793580D01*
X30837333Y-65793580D02*
X30884952Y-65698342D01*
X30884952Y-65698342D02*
X30884952Y-65603104D01*
X30884952Y-65603104D02*
X30837333Y-65507866D01*
X30837333Y-65507866D02*
X30789714Y-65460247D01*
X30789714Y-65460247D02*
X30694476Y-65412628D01*
X30694476Y-65412628D02*
X30504000Y-65365009D01*
X30504000Y-65365009D02*
X30408762Y-65317390D01*
X30408762Y-65317390D02*
X30361143Y-65269771D01*
X30361143Y-65269771D02*
X30313524Y-65174533D01*
X30313524Y-65174533D02*
X30313524Y-65079295D01*
X30313524Y-65079295D02*
X30361143Y-64984057D01*
X30361143Y-64984057D02*
X30408762Y-64936438D01*
X30408762Y-64936438D02*
X30504000Y-64888819D01*
X30504000Y-64888819D02*
X30742095Y-64888819D01*
X30742095Y-64888819D02*
X30884952Y-64936438D01*
X31742095Y-64888819D02*
X31551619Y-64888819D01*
X31551619Y-64888819D02*
X31456381Y-64936438D01*
X31456381Y-64936438D02*
X31408762Y-64984057D01*
X31408762Y-64984057D02*
X31313524Y-65126914D01*
X31313524Y-65126914D02*
X31265905Y-65317390D01*
X31265905Y-65317390D02*
X31265905Y-65698342D01*
X31265905Y-65698342D02*
X31313524Y-65793580D01*
X31313524Y-65793580D02*
X31361143Y-65841200D01*
X31361143Y-65841200D02*
X31456381Y-65888819D01*
X31456381Y-65888819D02*
X31646857Y-65888819D01*
X31646857Y-65888819D02*
X31742095Y-65841200D01*
X31742095Y-65841200D02*
X31789714Y-65793580D01*
X31789714Y-65793580D02*
X31837333Y-65698342D01*
X31837333Y-65698342D02*
X31837333Y-65460247D01*
X31837333Y-65460247D02*
X31789714Y-65365009D01*
X31789714Y-65365009D02*
X31742095Y-65317390D01*
X31742095Y-65317390D02*
X31646857Y-65269771D01*
X31646857Y-65269771D02*
X31456381Y-65269771D01*
X31456381Y-65269771D02*
X31361143Y-65317390D01*
X31361143Y-65317390D02*
X31313524Y-65365009D01*
X31313524Y-65365009D02*
X31265905Y-65460247D01*
X32694476Y-64888819D02*
X32504000Y-64888819D01*
X32504000Y-64888819D02*
X32408762Y-64936438D01*
X32408762Y-64936438D02*
X32361143Y-64984057D01*
X32361143Y-64984057D02*
X32265905Y-65126914D01*
X32265905Y-65126914D02*
X32218286Y-65317390D01*
X32218286Y-65317390D02*
X32218286Y-65698342D01*
X32218286Y-65698342D02*
X32265905Y-65793580D01*
X32265905Y-65793580D02*
X32313524Y-65841200D01*
X32313524Y-65841200D02*
X32408762Y-65888819D01*
X32408762Y-65888819D02*
X32599238Y-65888819D01*
X32599238Y-65888819D02*
X32694476Y-65841200D01*
X32694476Y-65841200D02*
X32742095Y-65793580D01*
X32742095Y-65793580D02*
X32789714Y-65698342D01*
X32789714Y-65698342D02*
X32789714Y-65460247D01*
X32789714Y-65460247D02*
X32742095Y-65365009D01*
X32742095Y-65365009D02*
X32694476Y-65317390D01*
X32694476Y-65317390D02*
X32599238Y-65269771D01*
X32599238Y-65269771D02*
X32408762Y-65269771D01*
X32408762Y-65269771D02*
X32313524Y-65317390D01*
X32313524Y-65317390D02*
X32265905Y-65365009D01*
X32265905Y-65365009D02*
X32218286Y-65460247D01*
X33265905Y-65888819D02*
X33456381Y-65888819D01*
X33456381Y-65888819D02*
X33551619Y-65841200D01*
X33551619Y-65841200D02*
X33599238Y-65793580D01*
X33599238Y-65793580D02*
X33694476Y-65650723D01*
X33694476Y-65650723D02*
X33742095Y-65460247D01*
X33742095Y-65460247D02*
X33742095Y-65079295D01*
X33742095Y-65079295D02*
X33694476Y-64984057D01*
X33694476Y-64984057D02*
X33646857Y-64936438D01*
X33646857Y-64936438D02*
X33551619Y-64888819D01*
X33551619Y-64888819D02*
X33361143Y-64888819D01*
X33361143Y-64888819D02*
X33265905Y-64936438D01*
X33265905Y-64936438D02*
X33218286Y-64984057D01*
X33218286Y-64984057D02*
X33170667Y-65079295D01*
X33170667Y-65079295D02*
X33170667Y-65317390D01*
X33170667Y-65317390D02*
X33218286Y-65412628D01*
X33218286Y-65412628D02*
X33265905Y-65460247D01*
X33265905Y-65460247D02*
X33361143Y-65507866D01*
X33361143Y-65507866D02*
X33551619Y-65507866D01*
X33551619Y-65507866D02*
X33646857Y-65460247D01*
X33646857Y-65460247D02*
X33694476Y-65412628D01*
X33694476Y-65412628D02*
X33742095Y-65317390D01*
X34361143Y-64888819D02*
X34456381Y-64888819D01*
X34456381Y-64888819D02*
X34551619Y-64936438D01*
X34551619Y-64936438D02*
X34599238Y-64984057D01*
X34599238Y-64984057D02*
X34646857Y-65079295D01*
X34646857Y-65079295D02*
X34694476Y-65269771D01*
X34694476Y-65269771D02*
X34694476Y-65507866D01*
X34694476Y-65507866D02*
X34646857Y-65698342D01*
X34646857Y-65698342D02*
X34599238Y-65793580D01*
X34599238Y-65793580D02*
X34551619Y-65841200D01*
X34551619Y-65841200D02*
X34456381Y-65888819D01*
X34456381Y-65888819D02*
X34361143Y-65888819D01*
X34361143Y-65888819D02*
X34265905Y-65841200D01*
X34265905Y-65841200D02*
X34218286Y-65793580D01*
X34218286Y-65793580D02*
X34170667Y-65698342D01*
X34170667Y-65698342D02*
X34123048Y-65507866D01*
X34123048Y-65507866D02*
X34123048Y-65269771D01*
X34123048Y-65269771D02*
X34170667Y-65079295D01*
X34170667Y-65079295D02*
X34218286Y-64984057D01*
X34218286Y-64984057D02*
X34265905Y-64936438D01*
X34265905Y-64936438D02*
X34361143Y-64888819D01*
X35075429Y-65603104D02*
X35551619Y-65603104D01*
X34980191Y-65888819D02*
X35313524Y-64888819D01*
X35313524Y-64888819D02*
X35646857Y-65888819D01*
X46649333Y-65447104D02*
X47125523Y-65447104D01*
X46554095Y-65732819D02*
X46887428Y-64732819D01*
X46887428Y-64732819D02*
X47220761Y-65732819D01*
X47411238Y-64732819D02*
X47982666Y-64732819D01*
X47696952Y-65732819D02*
X47696952Y-64732819D01*
X48316000Y-65732819D02*
X48316000Y-65066152D01*
X48316000Y-65161390D02*
X48363619Y-65113771D01*
X48363619Y-65113771D02*
X48458857Y-65066152D01*
X48458857Y-65066152D02*
X48601714Y-65066152D01*
X48601714Y-65066152D02*
X48696952Y-65113771D01*
X48696952Y-65113771D02*
X48744571Y-65209009D01*
X48744571Y-65209009D02*
X48744571Y-65732819D01*
X48744571Y-65209009D02*
X48792190Y-65113771D01*
X48792190Y-65113771D02*
X48887428Y-65066152D01*
X48887428Y-65066152D02*
X49030285Y-65066152D01*
X49030285Y-65066152D02*
X49125524Y-65113771D01*
X49125524Y-65113771D02*
X49173143Y-65209009D01*
X49173143Y-65209009D02*
X49173143Y-65732819D01*
X50030285Y-65685200D02*
X49935047Y-65732819D01*
X49935047Y-65732819D02*
X49744571Y-65732819D01*
X49744571Y-65732819D02*
X49649333Y-65685200D01*
X49649333Y-65685200D02*
X49601714Y-65589961D01*
X49601714Y-65589961D02*
X49601714Y-65209009D01*
X49601714Y-65209009D02*
X49649333Y-65113771D01*
X49649333Y-65113771D02*
X49744571Y-65066152D01*
X49744571Y-65066152D02*
X49935047Y-65066152D01*
X49935047Y-65066152D02*
X50030285Y-65113771D01*
X50030285Y-65113771D02*
X50077904Y-65209009D01*
X50077904Y-65209009D02*
X50077904Y-65304247D01*
X50077904Y-65304247D02*
X49601714Y-65399485D01*
X50935047Y-65066152D02*
X50935047Y-65875676D01*
X50935047Y-65875676D02*
X50887428Y-65970914D01*
X50887428Y-65970914D02*
X50839809Y-66018533D01*
X50839809Y-66018533D02*
X50744571Y-66066152D01*
X50744571Y-66066152D02*
X50601714Y-66066152D01*
X50601714Y-66066152D02*
X50506476Y-66018533D01*
X50935047Y-65685200D02*
X50839809Y-65732819D01*
X50839809Y-65732819D02*
X50649333Y-65732819D01*
X50649333Y-65732819D02*
X50554095Y-65685200D01*
X50554095Y-65685200D02*
X50506476Y-65637580D01*
X50506476Y-65637580D02*
X50458857Y-65542342D01*
X50458857Y-65542342D02*
X50458857Y-65256628D01*
X50458857Y-65256628D02*
X50506476Y-65161390D01*
X50506476Y-65161390D02*
X50554095Y-65113771D01*
X50554095Y-65113771D02*
X50649333Y-65066152D01*
X50649333Y-65066152D02*
X50839809Y-65066152D01*
X50839809Y-65066152D02*
X50935047Y-65113771D01*
X51839809Y-65732819D02*
X51839809Y-65209009D01*
X51839809Y-65209009D02*
X51792190Y-65113771D01*
X51792190Y-65113771D02*
X51696952Y-65066152D01*
X51696952Y-65066152D02*
X51506476Y-65066152D01*
X51506476Y-65066152D02*
X51411238Y-65113771D01*
X51839809Y-65685200D02*
X51744571Y-65732819D01*
X51744571Y-65732819D02*
X51506476Y-65732819D01*
X51506476Y-65732819D02*
X51411238Y-65685200D01*
X51411238Y-65685200D02*
X51363619Y-65589961D01*
X51363619Y-65589961D02*
X51363619Y-65494723D01*
X51363619Y-65494723D02*
X51411238Y-65399485D01*
X51411238Y-65399485D02*
X51506476Y-65351866D01*
X51506476Y-65351866D02*
X51744571Y-65351866D01*
X51744571Y-65351866D02*
X51839809Y-65304247D01*
X52220762Y-64732819D02*
X52839809Y-64732819D01*
X52839809Y-64732819D02*
X52506476Y-65113771D01*
X52506476Y-65113771D02*
X52649333Y-65113771D01*
X52649333Y-65113771D02*
X52744571Y-65161390D01*
X52744571Y-65161390D02*
X52792190Y-65209009D01*
X52792190Y-65209009D02*
X52839809Y-65304247D01*
X52839809Y-65304247D02*
X52839809Y-65542342D01*
X52839809Y-65542342D02*
X52792190Y-65637580D01*
X52792190Y-65637580D02*
X52744571Y-65685200D01*
X52744571Y-65685200D02*
X52649333Y-65732819D01*
X52649333Y-65732819D02*
X52363619Y-65732819D01*
X52363619Y-65732819D02*
X52268381Y-65685200D01*
X52268381Y-65685200D02*
X52220762Y-65637580D01*
X53220762Y-64828057D02*
X53268381Y-64780438D01*
X53268381Y-64780438D02*
X53363619Y-64732819D01*
X53363619Y-64732819D02*
X53601714Y-64732819D01*
X53601714Y-64732819D02*
X53696952Y-64780438D01*
X53696952Y-64780438D02*
X53744571Y-64828057D01*
X53744571Y-64828057D02*
X53792190Y-64923295D01*
X53792190Y-64923295D02*
X53792190Y-65018533D01*
X53792190Y-65018533D02*
X53744571Y-65161390D01*
X53744571Y-65161390D02*
X53173143Y-65732819D01*
X53173143Y-65732819D02*
X53792190Y-65732819D01*
X54363619Y-65161390D02*
X54268381Y-65113771D01*
X54268381Y-65113771D02*
X54220762Y-65066152D01*
X54220762Y-65066152D02*
X54173143Y-64970914D01*
X54173143Y-64970914D02*
X54173143Y-64923295D01*
X54173143Y-64923295D02*
X54220762Y-64828057D01*
X54220762Y-64828057D02*
X54268381Y-64780438D01*
X54268381Y-64780438D02*
X54363619Y-64732819D01*
X54363619Y-64732819D02*
X54554095Y-64732819D01*
X54554095Y-64732819D02*
X54649333Y-64780438D01*
X54649333Y-64780438D02*
X54696952Y-64828057D01*
X54696952Y-64828057D02*
X54744571Y-64923295D01*
X54744571Y-64923295D02*
X54744571Y-64970914D01*
X54744571Y-64970914D02*
X54696952Y-65066152D01*
X54696952Y-65066152D02*
X54649333Y-65113771D01*
X54649333Y-65113771D02*
X54554095Y-65161390D01*
X54554095Y-65161390D02*
X54363619Y-65161390D01*
X54363619Y-65161390D02*
X54268381Y-65209009D01*
X54268381Y-65209009D02*
X54220762Y-65256628D01*
X54220762Y-65256628D02*
X54173143Y-65351866D01*
X54173143Y-65351866D02*
X54173143Y-65542342D01*
X54173143Y-65542342D02*
X54220762Y-65637580D01*
X54220762Y-65637580D02*
X54268381Y-65685200D01*
X54268381Y-65685200D02*
X54363619Y-65732819D01*
X54363619Y-65732819D02*
X54554095Y-65732819D01*
X54554095Y-65732819D02*
X54649333Y-65685200D01*
X54649333Y-65685200D02*
X54696952Y-65637580D01*
X54696952Y-65637580D02*
X54744571Y-65542342D01*
X54744571Y-65542342D02*
X54744571Y-65351866D01*
X54744571Y-65351866D02*
X54696952Y-65256628D01*
X54696952Y-65256628D02*
X54649333Y-65209009D01*
X54649333Y-65209009D02*
X54554095Y-65161390D01*
X55173143Y-65351866D02*
X55935048Y-65351866D01*
X56411238Y-65732819D02*
X56411238Y-64732819D01*
X56411238Y-64732819D02*
X56792190Y-64732819D01*
X56792190Y-64732819D02*
X56887428Y-64780438D01*
X56887428Y-64780438D02*
X56935047Y-64828057D01*
X56935047Y-64828057D02*
X56982666Y-64923295D01*
X56982666Y-64923295D02*
X56982666Y-65066152D01*
X56982666Y-65066152D02*
X56935047Y-65161390D01*
X56935047Y-65161390D02*
X56887428Y-65209009D01*
X56887428Y-65209009D02*
X56792190Y-65256628D01*
X56792190Y-65256628D02*
X56411238Y-65256628D01*
X37790571Y-72590819D02*
X37219143Y-72590819D01*
X37504857Y-72590819D02*
X37504857Y-71590819D01*
X37504857Y-71590819D02*
X37409619Y-71733676D01*
X37409619Y-71733676D02*
X37314381Y-71828914D01*
X37314381Y-71828914D02*
X37219143Y-71876533D01*
X38409619Y-71590819D02*
X38504857Y-71590819D01*
X38504857Y-71590819D02*
X38600095Y-71638438D01*
X38600095Y-71638438D02*
X38647714Y-71686057D01*
X38647714Y-71686057D02*
X38695333Y-71781295D01*
X38695333Y-71781295D02*
X38742952Y-71971771D01*
X38742952Y-71971771D02*
X38742952Y-72209866D01*
X38742952Y-72209866D02*
X38695333Y-72400342D01*
X38695333Y-72400342D02*
X38647714Y-72495580D01*
X38647714Y-72495580D02*
X38600095Y-72543200D01*
X38600095Y-72543200D02*
X38504857Y-72590819D01*
X38504857Y-72590819D02*
X38409619Y-72590819D01*
X38409619Y-72590819D02*
X38314381Y-72543200D01*
X38314381Y-72543200D02*
X38266762Y-72495580D01*
X38266762Y-72495580D02*
X38219143Y-72400342D01*
X38219143Y-72400342D02*
X38171524Y-72209866D01*
X38171524Y-72209866D02*
X38171524Y-71971771D01*
X38171524Y-71971771D02*
X38219143Y-71781295D01*
X38219143Y-71781295D02*
X38266762Y-71686057D01*
X38266762Y-71686057D02*
X38314381Y-71638438D01*
X38314381Y-71638438D02*
X38409619Y-71590819D01*
X39362000Y-71590819D02*
X39457238Y-71590819D01*
X39457238Y-71590819D02*
X39552476Y-71638438D01*
X39552476Y-71638438D02*
X39600095Y-71686057D01*
X39600095Y-71686057D02*
X39647714Y-71781295D01*
X39647714Y-71781295D02*
X39695333Y-71971771D01*
X39695333Y-71971771D02*
X39695333Y-72209866D01*
X39695333Y-72209866D02*
X39647714Y-72400342D01*
X39647714Y-72400342D02*
X39600095Y-72495580D01*
X39600095Y-72495580D02*
X39552476Y-72543200D01*
X39552476Y-72543200D02*
X39457238Y-72590819D01*
X39457238Y-72590819D02*
X39362000Y-72590819D01*
X39362000Y-72590819D02*
X39266762Y-72543200D01*
X39266762Y-72543200D02*
X39219143Y-72495580D01*
X39219143Y-72495580D02*
X39171524Y-72400342D01*
X39171524Y-72400342D02*
X39123905Y-72209866D01*
X39123905Y-72209866D02*
X39123905Y-71971771D01*
X39123905Y-71971771D02*
X39171524Y-71781295D01*
X39171524Y-71781295D02*
X39219143Y-71686057D01*
X39219143Y-71686057D02*
X39266762Y-71638438D01*
X39266762Y-71638438D02*
X39362000Y-71590819D01*
X40123905Y-72590819D02*
X40123905Y-71590819D01*
X40219143Y-72209866D02*
X40504857Y-72590819D01*
X40504857Y-71924152D02*
X40123905Y-72305104D01*
X35305657Y-89287856D02*
X35258038Y-89240237D01*
X35258038Y-89240237D02*
X35210419Y-89144999D01*
X35210419Y-89144999D02*
X35210419Y-88906904D01*
X35210419Y-88906904D02*
X35258038Y-88811666D01*
X35258038Y-88811666D02*
X35305657Y-88764047D01*
X35305657Y-88764047D02*
X35400895Y-88716428D01*
X35400895Y-88716428D02*
X35496133Y-88716428D01*
X35496133Y-88716428D02*
X35638990Y-88764047D01*
X35638990Y-88764047D02*
X36210419Y-89335475D01*
X36210419Y-89335475D02*
X36210419Y-88716428D01*
X35305657Y-88335475D02*
X35258038Y-88287856D01*
X35258038Y-88287856D02*
X35210419Y-88192618D01*
X35210419Y-88192618D02*
X35210419Y-87954523D01*
X35210419Y-87954523D02*
X35258038Y-87859285D01*
X35258038Y-87859285D02*
X35305657Y-87811666D01*
X35305657Y-87811666D02*
X35400895Y-87764047D01*
X35400895Y-87764047D02*
X35496133Y-87764047D01*
X35496133Y-87764047D02*
X35638990Y-87811666D01*
X35638990Y-87811666D02*
X36210419Y-88383094D01*
X36210419Y-88383094D02*
X36210419Y-87764047D01*
X35543752Y-87335475D02*
X36543752Y-87335475D01*
X35591371Y-87335475D02*
X35543752Y-87240237D01*
X35543752Y-87240237D02*
X35543752Y-87049761D01*
X35543752Y-87049761D02*
X35591371Y-86954523D01*
X35591371Y-86954523D02*
X35638990Y-86906904D01*
X35638990Y-86906904D02*
X35734228Y-86859285D01*
X35734228Y-86859285D02*
X36019942Y-86859285D01*
X36019942Y-86859285D02*
X36115180Y-86906904D01*
X36115180Y-86906904D02*
X36162800Y-86954523D01*
X36162800Y-86954523D02*
X36210419Y-87049761D01*
X36210419Y-87049761D02*
X36210419Y-87240237D01*
X36210419Y-87240237D02*
X36162800Y-87335475D01*
X35686609Y-86097380D02*
X35686609Y-86430713D01*
X36210419Y-86430713D02*
X35210419Y-86430713D01*
X35210419Y-86430713D02*
X35210419Y-85954523D01*
X61994819Y-88210619D02*
X61994819Y-88782047D01*
X61994819Y-88496333D02*
X60994819Y-88496333D01*
X60994819Y-88496333D02*
X61137676Y-88591571D01*
X61137676Y-88591571D02*
X61232914Y-88686809D01*
X61232914Y-88686809D02*
X61280533Y-88782047D01*
X60994819Y-87591571D02*
X60994819Y-87496333D01*
X60994819Y-87496333D02*
X61042438Y-87401095D01*
X61042438Y-87401095D02*
X61090057Y-87353476D01*
X61090057Y-87353476D02*
X61185295Y-87305857D01*
X61185295Y-87305857D02*
X61375771Y-87258238D01*
X61375771Y-87258238D02*
X61613866Y-87258238D01*
X61613866Y-87258238D02*
X61804342Y-87305857D01*
X61804342Y-87305857D02*
X61899580Y-87353476D01*
X61899580Y-87353476D02*
X61947200Y-87401095D01*
X61947200Y-87401095D02*
X61994819Y-87496333D01*
X61994819Y-87496333D02*
X61994819Y-87591571D01*
X61994819Y-87591571D02*
X61947200Y-87686809D01*
X61947200Y-87686809D02*
X61899580Y-87734428D01*
X61899580Y-87734428D02*
X61804342Y-87782047D01*
X61804342Y-87782047D02*
X61613866Y-87829666D01*
X61613866Y-87829666D02*
X61375771Y-87829666D01*
X61375771Y-87829666D02*
X61185295Y-87782047D01*
X61185295Y-87782047D02*
X61090057Y-87734428D01*
X61090057Y-87734428D02*
X61042438Y-87686809D01*
X61042438Y-87686809D02*
X60994819Y-87591571D01*
X60994819Y-86639190D02*
X60994819Y-86543952D01*
X60994819Y-86543952D02*
X61042438Y-86448714D01*
X61042438Y-86448714D02*
X61090057Y-86401095D01*
X61090057Y-86401095D02*
X61185295Y-86353476D01*
X61185295Y-86353476D02*
X61375771Y-86305857D01*
X61375771Y-86305857D02*
X61613866Y-86305857D01*
X61613866Y-86305857D02*
X61804342Y-86353476D01*
X61804342Y-86353476D02*
X61899580Y-86401095D01*
X61899580Y-86401095D02*
X61947200Y-86448714D01*
X61947200Y-86448714D02*
X61994819Y-86543952D01*
X61994819Y-86543952D02*
X61994819Y-86639190D01*
X61994819Y-86639190D02*
X61947200Y-86734428D01*
X61947200Y-86734428D02*
X61899580Y-86782047D01*
X61899580Y-86782047D02*
X61804342Y-86829666D01*
X61804342Y-86829666D02*
X61613866Y-86877285D01*
X61613866Y-86877285D02*
X61375771Y-86877285D01*
X61375771Y-86877285D02*
X61185295Y-86829666D01*
X61185295Y-86829666D02*
X61090057Y-86782047D01*
X61090057Y-86782047D02*
X61042438Y-86734428D01*
X61042438Y-86734428D02*
X60994819Y-86639190D01*
X61328152Y-85877285D02*
X61994819Y-85877285D01*
X61423390Y-85877285D02*
X61375771Y-85829666D01*
X61375771Y-85829666D02*
X61328152Y-85734428D01*
X61328152Y-85734428D02*
X61328152Y-85591571D01*
X61328152Y-85591571D02*
X61375771Y-85496333D01*
X61375771Y-85496333D02*
X61471009Y-85448714D01*
X61471009Y-85448714D02*
X61994819Y-85448714D01*
X61471009Y-84639190D02*
X61471009Y-84972523D01*
X61994819Y-84972523D02*
X60994819Y-84972523D01*
X60994819Y-84972523D02*
X60994819Y-84496333D01*
X35790380Y-84274819D02*
X35218952Y-84274819D01*
X35504666Y-84274819D02*
X35504666Y-83274819D01*
X35504666Y-83274819D02*
X35409428Y-83417676D01*
X35409428Y-83417676D02*
X35314190Y-83512914D01*
X35314190Y-83512914D02*
X35218952Y-83560533D01*
X36409428Y-83274819D02*
X36504666Y-83274819D01*
X36504666Y-83274819D02*
X36599904Y-83322438D01*
X36599904Y-83322438D02*
X36647523Y-83370057D01*
X36647523Y-83370057D02*
X36695142Y-83465295D01*
X36695142Y-83465295D02*
X36742761Y-83655771D01*
X36742761Y-83655771D02*
X36742761Y-83893866D01*
X36742761Y-83893866D02*
X36695142Y-84084342D01*
X36695142Y-84084342D02*
X36647523Y-84179580D01*
X36647523Y-84179580D02*
X36599904Y-84227200D01*
X36599904Y-84227200D02*
X36504666Y-84274819D01*
X36504666Y-84274819D02*
X36409428Y-84274819D01*
X36409428Y-84274819D02*
X36314190Y-84227200D01*
X36314190Y-84227200D02*
X36266571Y-84179580D01*
X36266571Y-84179580D02*
X36218952Y-84084342D01*
X36218952Y-84084342D02*
X36171333Y-83893866D01*
X36171333Y-83893866D02*
X36171333Y-83655771D01*
X36171333Y-83655771D02*
X36218952Y-83465295D01*
X36218952Y-83465295D02*
X36266571Y-83370057D01*
X36266571Y-83370057D02*
X36314190Y-83322438D01*
X36314190Y-83322438D02*
X36409428Y-83274819D01*
X37361809Y-83274819D02*
X37457047Y-83274819D01*
X37457047Y-83274819D02*
X37552285Y-83322438D01*
X37552285Y-83322438D02*
X37599904Y-83370057D01*
X37599904Y-83370057D02*
X37647523Y-83465295D01*
X37647523Y-83465295D02*
X37695142Y-83655771D01*
X37695142Y-83655771D02*
X37695142Y-83893866D01*
X37695142Y-83893866D02*
X37647523Y-84084342D01*
X37647523Y-84084342D02*
X37599904Y-84179580D01*
X37599904Y-84179580D02*
X37552285Y-84227200D01*
X37552285Y-84227200D02*
X37457047Y-84274819D01*
X37457047Y-84274819D02*
X37361809Y-84274819D01*
X37361809Y-84274819D02*
X37266571Y-84227200D01*
X37266571Y-84227200D02*
X37218952Y-84179580D01*
X37218952Y-84179580D02*
X37171333Y-84084342D01*
X37171333Y-84084342D02*
X37123714Y-83893866D01*
X37123714Y-83893866D02*
X37123714Y-83655771D01*
X37123714Y-83655771D02*
X37171333Y-83465295D01*
X37171333Y-83465295D02*
X37218952Y-83370057D01*
X37218952Y-83370057D02*
X37266571Y-83322438D01*
X37266571Y-83322438D02*
X37361809Y-83274819D01*
X38123714Y-83608152D02*
X38123714Y-84274819D01*
X38123714Y-83703390D02*
X38171333Y-83655771D01*
X38171333Y-83655771D02*
X38266571Y-83608152D01*
X38266571Y-83608152D02*
X38409428Y-83608152D01*
X38409428Y-83608152D02*
X38504666Y-83655771D01*
X38504666Y-83655771D02*
X38552285Y-83751009D01*
X38552285Y-83751009D02*
X38552285Y-84274819D01*
X39361809Y-83751009D02*
X39028476Y-83751009D01*
X39028476Y-84274819D02*
X39028476Y-83274819D01*
X39028476Y-83274819D02*
X39504666Y-83274819D01*
D13*
%TO.C,R4*%
X25760000Y-51850936D02*
X25760000Y-53305064D01*
X27580000Y-51850936D02*
X27580000Y-53305064D01*
%TO.C,J3*%
X19856000Y-71664000D02*
X19856000Y-72914000D01*
X19856000Y-72914000D02*
X21106000Y-72914000D01*
X20146000Y-65004000D02*
X20146000Y-72624000D01*
X20146000Y-72624000D02*
X26116000Y-72624000D01*
X20156000Y-65014000D02*
X20156000Y-66814000D01*
X20156000Y-66814000D02*
X20906000Y-66814000D01*
X20156000Y-68314000D02*
X20156000Y-69314000D01*
X20156000Y-69314000D02*
X20906000Y-69314000D01*
X20156000Y-70814000D02*
X20156000Y-72614000D01*
X20156000Y-72614000D02*
X20906000Y-72614000D01*
X20906000Y-65014000D02*
X20156000Y-65014000D01*
X20906000Y-66814000D02*
X20906000Y-65014000D01*
X20906000Y-68314000D02*
X20156000Y-68314000D01*
X20906000Y-69314000D02*
X20906000Y-68314000D01*
X20906000Y-70814000D02*
X20156000Y-70814000D01*
X20906000Y-72614000D02*
X20906000Y-70814000D01*
X22406000Y-65014000D02*
X22406000Y-65764000D01*
X22406000Y-65764000D02*
X25356000Y-65764000D01*
X22406000Y-71864000D02*
X25356000Y-71864000D01*
X22406000Y-72614000D02*
X22406000Y-71864000D01*
X25356000Y-65764000D02*
X25356000Y-68814000D01*
X25356000Y-71864000D02*
X25356000Y-68814000D01*
X26116000Y-65004000D02*
X20146000Y-65004000D01*
X26116000Y-72624000D02*
X26116000Y-65004000D01*
%TO.C,C5*%
X36695600Y-93029748D02*
X36695600Y-94452252D01*
X38515600Y-93029748D02*
X38515600Y-94452252D01*
%TO.C,U2*%
X47504000Y-53280000D02*
X47504000Y-61020000D01*
X47504000Y-61020000D02*
X49739000Y-61020000D01*
X51739000Y-61020000D02*
X53974000Y-61020000D01*
X53974000Y-53280000D02*
X47504000Y-53280000D01*
X53974000Y-61020000D02*
X53974000Y-53280000D01*
X49739000Y-61020000D02*
G75*
G02*
X51739000Y-61020000I1000000J0D01*
G01*
%TO.C,R2*%
X60232936Y-80878000D02*
X61687064Y-80878000D01*
X60232936Y-82698000D02*
X61687064Y-82698000D01*
%TO.C,J1*%
X65832000Y-49376000D02*
X65832000Y-61996000D01*
X65832000Y-61996000D02*
X71802000Y-61996000D01*
X66592000Y-50136000D02*
X66592000Y-55686000D01*
X66592000Y-61236000D02*
X66592000Y-55686000D01*
X69542000Y-49386000D02*
X69542000Y-50136000D01*
X69542000Y-50136000D02*
X66592000Y-50136000D01*
X69542000Y-61236000D02*
X66592000Y-61236000D01*
X69542000Y-61986000D02*
X69542000Y-61236000D01*
X71042000Y-49386000D02*
X71042000Y-51186000D01*
X71042000Y-51186000D02*
X71792000Y-51186000D01*
X71042000Y-52686000D02*
X71042000Y-58686000D01*
X71042000Y-58686000D02*
X71792000Y-58686000D01*
X71042000Y-60186000D02*
X71042000Y-61986000D01*
X71042000Y-61986000D02*
X71792000Y-61986000D01*
X71792000Y-49386000D02*
X71042000Y-49386000D01*
X71792000Y-51186000D02*
X71792000Y-49386000D01*
X71792000Y-52686000D02*
X71042000Y-52686000D01*
X71792000Y-58686000D02*
X71792000Y-52686000D01*
X71792000Y-60186000D02*
X71042000Y-60186000D01*
X71792000Y-61986000D02*
X71792000Y-60186000D01*
X71802000Y-49376000D02*
X65832000Y-49376000D01*
X71802000Y-61996000D02*
X71802000Y-49376000D01*
X72092000Y-49086000D02*
X70842000Y-49086000D01*
X72092000Y-50336000D02*
X72092000Y-49086000D01*
%TO.C,J4*%
X65832000Y-78974000D02*
X65832000Y-86594000D01*
X65832000Y-86594000D02*
X71802000Y-86594000D01*
X66592000Y-79734000D02*
X66592000Y-82784000D01*
X66592000Y-85834000D02*
X66592000Y-82784000D01*
X69542000Y-78984000D02*
X69542000Y-79734000D01*
X69542000Y-79734000D02*
X66592000Y-79734000D01*
X69542000Y-85834000D02*
X66592000Y-85834000D01*
X69542000Y-86584000D02*
X69542000Y-85834000D01*
X71042000Y-78984000D02*
X71042000Y-80784000D01*
X71042000Y-80784000D02*
X71792000Y-80784000D01*
X71042000Y-82284000D02*
X71042000Y-83284000D01*
X71042000Y-83284000D02*
X71792000Y-83284000D01*
X71042000Y-84784000D02*
X71042000Y-86584000D01*
X71042000Y-86584000D02*
X71792000Y-86584000D01*
X71792000Y-78984000D02*
X71042000Y-78984000D01*
X71792000Y-80784000D02*
X71792000Y-78984000D01*
X71792000Y-82284000D02*
X71042000Y-82284000D01*
X71792000Y-83284000D02*
X71792000Y-82284000D01*
X71792000Y-84784000D02*
X71042000Y-84784000D01*
X71792000Y-86584000D02*
X71792000Y-84784000D01*
X71802000Y-78974000D02*
X65832000Y-78974000D01*
X71802000Y-86594000D02*
X71802000Y-78974000D01*
X72092000Y-78684000D02*
X70842000Y-78684000D01*
X72092000Y-79934000D02*
X72092000Y-78684000D01*
%TO.C,R6*%
X67192536Y-92323000D02*
X68646664Y-92323000D01*
X67192536Y-94143000D02*
X68646664Y-94143000D01*
%TO.C,R3*%
X60925064Y-56240000D02*
X59470936Y-56240000D01*
X60925064Y-58060000D02*
X59470936Y-58060000D01*
%TO.C,Y1*%
X39613600Y-87558000D02*
X39613600Y-93808000D01*
X44663600Y-87558000D02*
X44663600Y-93808000D01*
X39613600Y-87558000D02*
G75*
G02*
X44663600Y-87558000I2525000J0D01*
G01*
X44663600Y-93808000D02*
G75*
G02*
X39613600Y-93808000I-2525000J0D01*
G01*
%TO.C,SW1*%
X30234600Y-75743000D02*
X30234600Y-75773000D01*
X30234600Y-80273000D02*
X30234600Y-77673000D01*
X30234600Y-82203000D02*
X30234600Y-82173000D01*
X36694600Y-75743000D02*
X30234600Y-75743000D01*
X36694600Y-75743000D02*
X36694600Y-75773000D01*
X36694600Y-80273000D02*
X36694600Y-77673000D01*
X36694600Y-82173000D02*
X36694600Y-82203000D01*
X36694600Y-82203000D02*
X30234600Y-82203000D01*
%TO.C,D1*%
X65634600Y-89050000D02*
X65634600Y-91320000D01*
X65634600Y-91320000D02*
X69519600Y-91320000D01*
X69519600Y-89050000D02*
X65634600Y-89050000D01*
D14*
%TO.C,J5*%
X19768000Y-24750000D02*
X20568000Y-24750000D01*
X19768000Y-38750000D02*
X19768000Y-24750000D01*
X20568000Y-24750000D02*
X26768000Y-24750000D01*
X20568000Y-38750000D02*
X19768000Y-38750000D01*
X20568000Y-38750000D02*
X20568000Y-24750000D01*
X26768000Y-24750000D02*
X26768000Y-38750000D01*
X26768000Y-38750000D02*
X20568000Y-38750000D01*
D13*
%TO.C,D2*%
X65634600Y-95050000D02*
X65634600Y-97320000D01*
X65634600Y-97320000D02*
X69519600Y-97320000D01*
X69519600Y-95050000D02*
X65634600Y-95050000D01*
%TO.C,J2*%
X65832000Y-64108000D02*
X65832000Y-76728000D01*
X65832000Y-76728000D02*
X71802000Y-76728000D01*
X66592000Y-64868000D02*
X66592000Y-70418000D01*
X66592000Y-75968000D02*
X66592000Y-70418000D01*
X69542000Y-64118000D02*
X69542000Y-64868000D01*
X69542000Y-64868000D02*
X66592000Y-64868000D01*
X69542000Y-75968000D02*
X66592000Y-75968000D01*
X69542000Y-76718000D02*
X69542000Y-75968000D01*
X71042000Y-64118000D02*
X71042000Y-65918000D01*
X71042000Y-65918000D02*
X71792000Y-65918000D01*
X71042000Y-67418000D02*
X71042000Y-73418000D01*
X71042000Y-73418000D02*
X71792000Y-73418000D01*
X71042000Y-74918000D02*
X71042000Y-76718000D01*
X71042000Y-76718000D02*
X71792000Y-76718000D01*
X71792000Y-64118000D02*
X71042000Y-64118000D01*
X71792000Y-65918000D02*
X71792000Y-64118000D01*
X71792000Y-67418000D02*
X71042000Y-67418000D01*
X71792000Y-73418000D02*
X71792000Y-67418000D01*
X71792000Y-74918000D02*
X71042000Y-74918000D01*
X71792000Y-76718000D02*
X71792000Y-74918000D01*
X71802000Y-64108000D02*
X65832000Y-64108000D01*
X71802000Y-76728000D02*
X71802000Y-64108000D01*
X72092000Y-63818000D02*
X70842000Y-63818000D01*
X72092000Y-65068000D02*
X72092000Y-63818000D01*
%TO.C,Q2*%
X33090000Y-49892500D02*
X33090000Y-50162500D01*
X33090000Y-56792500D02*
X33090000Y-56522500D01*
X39510000Y-49892500D02*
X33090000Y-49892500D01*
X39510000Y-56792500D02*
X33090000Y-56792500D01*
X31670000Y-50202500D02*
X31430000Y-49872500D01*
X31910000Y-49872500D01*
X31670000Y-50202500D01*
G36*
X31670000Y-50202500D02*
G01*
X31430000Y-49872500D01*
X31910000Y-49872500D01*
X31670000Y-50202500D01*
G37*
%TO.C,PS1*%
X29842500Y-24492500D02*
X32842500Y-24492500D01*
X29842500Y-27492500D02*
X29842500Y-24492500D01*
X30082500Y-24732500D02*
X30082500Y-47352500D01*
X30082500Y-24732500D02*
X67002500Y-24732500D01*
X30082500Y-47352500D02*
X67002500Y-47352500D01*
X67002500Y-24732500D02*
X67002500Y-47352500D01*
%TO.C,R5*%
X46008936Y-49128000D02*
X47463064Y-49128000D01*
X46008936Y-50948000D02*
X47463064Y-50948000D01*
%TO.C,U3*%
X61061600Y-91673000D02*
X60261600Y-91673000D01*
X61061600Y-91673000D02*
X61861600Y-91673000D01*
X61061600Y-94793000D02*
X60261600Y-94793000D01*
X61061600Y-94793000D02*
X61861600Y-94793000D01*
X59761600Y-91723000D02*
X59521600Y-91393000D01*
X60001600Y-91393000D01*
X59761600Y-91723000D01*
G36*
X59761600Y-91723000D02*
G01*
X59521600Y-91393000D01*
X60001600Y-91393000D01*
X59761600Y-91723000D01*
G37*
%TO.C,Q1*%
X32004000Y-66274000D02*
X30054000Y-66274000D01*
X32004000Y-66274000D02*
X33954000Y-66274000D01*
X32004000Y-71394000D02*
X30054000Y-71394000D01*
X32004000Y-71394000D02*
X33954000Y-71394000D01*
X34944000Y-71629000D02*
X34464000Y-71629000D01*
X34704000Y-71299000D01*
X34944000Y-71629000D01*
G36*
X34944000Y-71629000D02*
G01*
X34464000Y-71629000D01*
X34704000Y-71299000D01*
X34944000Y-71629000D01*
G37*
%TO.C,U1*%
X46312000Y-67698000D02*
X46312000Y-103498000D01*
X46312000Y-103498000D02*
X56812000Y-103498000D01*
X49312000Y-67758000D02*
X49312000Y-103438000D01*
X49312000Y-103438000D02*
X53812000Y-103438000D01*
X50562000Y-67758000D02*
X49312000Y-67758000D01*
X53812000Y-67758000D02*
X52562000Y-67758000D01*
X53812000Y-103438000D02*
X53812000Y-67758000D01*
X56812000Y-67698000D02*
X46312000Y-67698000D01*
X56812000Y-103498000D02*
X56812000Y-67698000D01*
X52562000Y-67758000D02*
G75*
G02*
X50562000Y-67758000I-1000000J0D01*
G01*
%TO.C,R1*%
X37698000Y-68106936D02*
X37698000Y-69561064D01*
X39518000Y-68106936D02*
X39518000Y-69561064D01*
%TO.C,C4*%
X36695600Y-86933748D02*
X36695600Y-88356252D01*
X38515600Y-86933748D02*
X38515600Y-88356252D01*
%TO.C,C1*%
X58780000Y-87374252D02*
X58780000Y-85951748D01*
X60600000Y-87374252D02*
X60600000Y-85951748D01*
%TO.C,C3*%
X42722852Y-82163000D02*
X41300348Y-82163000D01*
X42722852Y-83983000D02*
X41300348Y-83983000D01*
%TD*%
%LPC*%
D15*
%TO.C,TP5*%
X59605600Y-76708000D03*
%TD*%
%TO.C,TP3*%
X59605600Y-97028000D03*
%TD*%
%TO.C,TP11*%
X40640000Y-79248000D03*
%TD*%
%TO.C,TP10*%
X43605600Y-79248000D03*
%TD*%
D16*
%TO.C,R4*%
X26670000Y-51115500D03*
X26670000Y-54040500D03*
%TD*%
D17*
%TO.C,J3*%
X22606000Y-70064000D03*
D18*
X22606000Y-67564000D03*
%TD*%
D19*
%TO.C,C5*%
X37605600Y-92266000D03*
X37605600Y-95216000D03*
%TD*%
D20*
%TO.C,U2*%
X55504000Y-59690000D03*
X55504000Y-57150000D03*
X55504000Y-54610000D03*
X45974000Y-54610000D03*
X45974000Y-57150000D03*
X45974000Y-59690000D03*
%TD*%
D15*
%TO.C,TP13*%
X43605600Y-99568000D03*
%TD*%
%TO.C,TP4*%
X59605600Y-79248000D03*
%TD*%
%TO.C,TP9*%
X43605600Y-74168000D03*
%TD*%
%TO.C,TP7*%
X43605600Y-69088000D03*
%TD*%
D21*
%TO.C,R2*%
X59497500Y-81788000D03*
X62422500Y-81788000D03*
%TD*%
D22*
%TO.C,J1*%
X69342000Y-51936000D03*
D23*
X69342000Y-54436000D03*
X69342000Y-56936000D03*
X69342000Y-59436000D03*
%TD*%
D24*
%TO.C,J4*%
X69342000Y-81534000D03*
D18*
X69342000Y-84034000D03*
%TD*%
D15*
%TO.C,TP6*%
X59605600Y-74168000D03*
%TD*%
D21*
%TO.C,R6*%
X66457100Y-93233000D03*
X69382100Y-93233000D03*
%TD*%
D25*
%TO.C,R3*%
X61660500Y-57150000D03*
X58735500Y-57150000D03*
%TD*%
D26*
%TO.C,Y1*%
X42138600Y-88243000D03*
X42138600Y-93123000D03*
%TD*%
D27*
%TO.C,SW1*%
X37444600Y-81223000D03*
X29484600Y-81223000D03*
X37444600Y-76723000D03*
X29484600Y-76723000D03*
%TD*%
D15*
%TO.C,TP8*%
X43605600Y-71628000D03*
%TD*%
D28*
%TO.C,D1*%
X66519600Y-90185000D03*
X69319600Y-90185000D03*
%TD*%
D15*
%TO.C,TP1*%
X43688000Y-102108000D03*
%TD*%
D29*
%TO.C,J5*%
X23368000Y-26500000D03*
D30*
X23368000Y-30000000D03*
X23368000Y-33500000D03*
X23368000Y-37000000D03*
%TD*%
D28*
%TO.C,D2*%
X66519600Y-96185000D03*
X69319600Y-96185000D03*
%TD*%
D22*
%TO.C,J2*%
X69342000Y-66668000D03*
D23*
X69342000Y-69168000D03*
X69342000Y-71668000D03*
X69342000Y-74168000D03*
%TD*%
D31*
%TO.C,Q2*%
X31360000Y-51062500D03*
D32*
X37660000Y-53342500D03*
D31*
X31360000Y-55622500D03*
%TD*%
D33*
%TO.C,PS1*%
X34002500Y-33542500D03*
D34*
X34002500Y-38542500D03*
X63082500Y-28542500D03*
X63082500Y-43542500D03*
%TD*%
D21*
%TO.C,R5*%
X45273500Y-50038000D03*
X48198500Y-50038000D03*
%TD*%
D15*
%TO.C,TP12*%
X40640000Y-99568000D03*
%TD*%
%TO.C,TP2*%
X59605600Y-99568000D03*
%TD*%
D35*
%TO.C,U3*%
X59924100Y-92283000D03*
X59924100Y-93233000D03*
X59924100Y-94183000D03*
X62199100Y-94183000D03*
X62199100Y-93233000D03*
X62199100Y-92283000D03*
%TD*%
D36*
%TO.C,Q1*%
X34479000Y-70739000D03*
X34479000Y-69469000D03*
X34479000Y-68199000D03*
X34479000Y-66929000D03*
X29529000Y-66929000D03*
X29529000Y-68199000D03*
X29529000Y-69469000D03*
X29529000Y-70739000D03*
%TD*%
D37*
%TO.C,U1*%
X47752000Y-69088000D03*
D38*
X47752000Y-71628000D03*
X47752000Y-74168000D03*
X47752000Y-76708000D03*
X47752000Y-79248000D03*
X47752000Y-81788000D03*
X47752000Y-84328000D03*
X47752000Y-86868000D03*
X47752000Y-89408000D03*
X47752000Y-91948000D03*
X47752000Y-94488000D03*
X47752000Y-97028000D03*
X47752000Y-99568000D03*
X47752000Y-102108000D03*
X55372000Y-102108000D03*
X55372000Y-99568000D03*
X55372000Y-97028000D03*
X55372000Y-94488000D03*
X55372000Y-91948000D03*
X55372000Y-89408000D03*
X55372000Y-86868000D03*
X55372000Y-84328000D03*
X55372000Y-81788000D03*
X55372000Y-79248000D03*
X55372000Y-76708000D03*
X55372000Y-74168000D03*
X55372000Y-71628000D03*
X55372000Y-69088000D03*
%TD*%
D16*
%TO.C,R1*%
X38608000Y-67371500D03*
X38608000Y-70296500D03*
%TD*%
D19*
%TO.C,C4*%
X37605600Y-86170000D03*
X37605600Y-89120000D03*
%TD*%
D39*
%TO.C,C1*%
X59690000Y-88138000D03*
X59690000Y-85188000D03*
%TD*%
D40*
%TO.C,C3*%
X43486600Y-83073000D03*
X40536600Y-83073000D03*
%TD*%
D41*
X34479000Y-72833000D03*
X57912000Y-93218000D03*
X37592000Y-90678000D03*
X51562000Y-66294000D03*
X64262000Y-93233000D03*
X65024000Y-66294000D03*
X54864000Y-66294000D03*
X65024000Y-71628000D03*
X43434000Y-50546000D03*
X43434000Y-59182000D03*
%LPD*%
M02*
