%TF.GenerationSoftware,KiCad,Pcbnew,8.0.6*%
%TF.CreationDate,2025-01-14T16:33:27+13:00*%
%TF.ProjectId,FilamentDryerController1,46696c61-6d65-46e7-9444-72796572436f,rev?*%
%TF.SameCoordinates,Original*%
%TF.FileFunction,Copper,L2,Bot*%
%TF.FilePolarity,Positive*%
%FSLAX46Y46*%
G04 Gerber Fmt 4.6, Leading zero omitted, Abs format (unit mm)*
G04 Created by KiCad (PCBNEW 8.0.6) date 2025-01-14 16:33:27*
%MOMM*%
%LPD*%
G01*
G04 APERTURE LIST*
G04 Aperture macros list*
%AMRoundRect*
0 Rectangle with rounded corners*
0 $1 Rounding radius*
0 $2 $3 $4 $5 $6 $7 $8 $9 X,Y pos of 4 corners*
0 Add a 4 corners polygon primitive as box body*
4,1,4,$2,$3,$4,$5,$6,$7,$8,$9,$2,$3,0*
0 Add four circle primitives for the rounded corners*
1,1,$1+$1,$2,$3*
1,1,$1+$1,$4,$5*
1,1,$1+$1,$6,$7*
1,1,$1+$1,$8,$9*
0 Add four rect primitives between the rounded corners*
20,1,$1+$1,$2,$3,$4,$5,0*
20,1,$1+$1,$4,$5,$6,$7,0*
20,1,$1+$1,$6,$7,$8,$9,0*
20,1,$1+$1,$8,$9,$2,$3,0*%
G04 Aperture macros list end*
%ADD10C,0.100000*%
%TA.AperFunction,NonConductor*%
%ADD11C,0.100000*%
%TD*%
%TA.AperFunction,ComponentPad*%
%ADD12RoundRect,0.250000X0.750000X-0.600000X0.750000X0.600000X-0.750000X0.600000X-0.750000X-0.600000X0*%
%TD*%
%TA.AperFunction,ComponentPad*%
%ADD13O,2.000000X1.700000*%
%TD*%
%TA.AperFunction,ComponentPad*%
%ADD14RoundRect,0.250000X-0.725000X0.600000X-0.725000X-0.600000X0.725000X-0.600000X0.725000X0.600000X0*%
%TD*%
%TA.AperFunction,ComponentPad*%
%ADD15O,1.950000X1.700000*%
%TD*%
%TA.AperFunction,ComponentPad*%
%ADD16RoundRect,0.250000X-0.750000X0.600000X-0.750000X-0.600000X0.750000X-0.600000X0.750000X0.600000X0*%
%TD*%
%TA.AperFunction,ComponentPad*%
%ADD17C,1.500000*%
%TD*%
%TA.AperFunction,ComponentPad*%
%ADD18R,2.032000X2.032000*%
%TD*%
%TA.AperFunction,ComponentPad*%
%ADD19C,2.032000*%
%TD*%
%TA.AperFunction,ComponentPad*%
%ADD20R,1.700000X2.000000*%
%TD*%
%TA.AperFunction,ComponentPad*%
%ADD21O,1.700000X2.000000*%
%TD*%
%TA.AperFunction,ComponentPad*%
%ADD22R,2.400000X1.600000*%
%TD*%
%TA.AperFunction,ComponentPad*%
%ADD23O,2.400000X1.600000*%
%TD*%
%TA.AperFunction,ViaPad*%
%ADD24C,0.600000*%
%TD*%
%TA.AperFunction,Conductor*%
%ADD25C,0.200000*%
%TD*%
G04 APERTURE END LIST*
D10*
D11*
X39494782Y-102386665D02*
X39828115Y-102386665D01*
X39828115Y-102910475D02*
X39828115Y-101910475D01*
X39828115Y-101910475D02*
X39351925Y-101910475D01*
X38970972Y-102910475D02*
X38970972Y-102243808D01*
X38970972Y-101910475D02*
X39018591Y-101958094D01*
X39018591Y-101958094D02*
X38970972Y-102005713D01*
X38970972Y-102005713D02*
X38923353Y-101958094D01*
X38923353Y-101958094D02*
X38970972Y-101910475D01*
X38970972Y-101910475D02*
X38970972Y-102005713D01*
X38351925Y-102910475D02*
X38447163Y-102862856D01*
X38447163Y-102862856D02*
X38494782Y-102767617D01*
X38494782Y-102767617D02*
X38494782Y-101910475D01*
X37542401Y-102910475D02*
X37542401Y-102386665D01*
X37542401Y-102386665D02*
X37590020Y-102291427D01*
X37590020Y-102291427D02*
X37685258Y-102243808D01*
X37685258Y-102243808D02*
X37875734Y-102243808D01*
X37875734Y-102243808D02*
X37970972Y-102291427D01*
X37542401Y-102862856D02*
X37637639Y-102910475D01*
X37637639Y-102910475D02*
X37875734Y-102910475D01*
X37875734Y-102910475D02*
X37970972Y-102862856D01*
X37970972Y-102862856D02*
X38018591Y-102767617D01*
X38018591Y-102767617D02*
X38018591Y-102672379D01*
X38018591Y-102672379D02*
X37970972Y-102577141D01*
X37970972Y-102577141D02*
X37875734Y-102529522D01*
X37875734Y-102529522D02*
X37637639Y-102529522D01*
X37637639Y-102529522D02*
X37542401Y-102481903D01*
X37066210Y-102910475D02*
X37066210Y-102243808D01*
X37066210Y-102339046D02*
X37018591Y-102291427D01*
X37018591Y-102291427D02*
X36923353Y-102243808D01*
X36923353Y-102243808D02*
X36780496Y-102243808D01*
X36780496Y-102243808D02*
X36685258Y-102291427D01*
X36685258Y-102291427D02*
X36637639Y-102386665D01*
X36637639Y-102386665D02*
X36637639Y-102910475D01*
X36637639Y-102386665D02*
X36590020Y-102291427D01*
X36590020Y-102291427D02*
X36494782Y-102243808D01*
X36494782Y-102243808D02*
X36351925Y-102243808D01*
X36351925Y-102243808D02*
X36256686Y-102291427D01*
X36256686Y-102291427D02*
X36209067Y-102386665D01*
X36209067Y-102386665D02*
X36209067Y-102910475D01*
X35351925Y-102862856D02*
X35447163Y-102910475D01*
X35447163Y-102910475D02*
X35637639Y-102910475D01*
X35637639Y-102910475D02*
X35732877Y-102862856D01*
X35732877Y-102862856D02*
X35780496Y-102767617D01*
X35780496Y-102767617D02*
X35780496Y-102386665D01*
X35780496Y-102386665D02*
X35732877Y-102291427D01*
X35732877Y-102291427D02*
X35637639Y-102243808D01*
X35637639Y-102243808D02*
X35447163Y-102243808D01*
X35447163Y-102243808D02*
X35351925Y-102291427D01*
X35351925Y-102291427D02*
X35304306Y-102386665D01*
X35304306Y-102386665D02*
X35304306Y-102481903D01*
X35304306Y-102481903D02*
X35780496Y-102577141D01*
X34875734Y-102243808D02*
X34875734Y-102910475D01*
X34875734Y-102339046D02*
X34828115Y-102291427D01*
X34828115Y-102291427D02*
X34732877Y-102243808D01*
X34732877Y-102243808D02*
X34590020Y-102243808D01*
X34590020Y-102243808D02*
X34494782Y-102291427D01*
X34494782Y-102291427D02*
X34447163Y-102386665D01*
X34447163Y-102386665D02*
X34447163Y-102910475D01*
X34113829Y-102243808D02*
X33732877Y-102243808D01*
X33970972Y-101910475D02*
X33970972Y-102767617D01*
X33970972Y-102767617D02*
X33923353Y-102862856D01*
X33923353Y-102862856D02*
X33828115Y-102910475D01*
X33828115Y-102910475D02*
X33732877Y-102910475D01*
X32209067Y-102910475D02*
X32209067Y-101910475D01*
X32209067Y-102862856D02*
X32304305Y-102910475D01*
X32304305Y-102910475D02*
X32494781Y-102910475D01*
X32494781Y-102910475D02*
X32590019Y-102862856D01*
X32590019Y-102862856D02*
X32637638Y-102815236D01*
X32637638Y-102815236D02*
X32685257Y-102719998D01*
X32685257Y-102719998D02*
X32685257Y-102434284D01*
X32685257Y-102434284D02*
X32637638Y-102339046D01*
X32637638Y-102339046D02*
X32590019Y-102291427D01*
X32590019Y-102291427D02*
X32494781Y-102243808D01*
X32494781Y-102243808D02*
X32304305Y-102243808D01*
X32304305Y-102243808D02*
X32209067Y-102291427D01*
X31732876Y-102910475D02*
X31732876Y-102243808D01*
X31732876Y-102434284D02*
X31685257Y-102339046D01*
X31685257Y-102339046D02*
X31637638Y-102291427D01*
X31637638Y-102291427D02*
X31542400Y-102243808D01*
X31542400Y-102243808D02*
X31447162Y-102243808D01*
X31209066Y-102243808D02*
X30970971Y-102910475D01*
X30732876Y-102243808D02*
X30970971Y-102910475D01*
X30970971Y-102910475D02*
X31066209Y-103148570D01*
X31066209Y-103148570D02*
X31113828Y-103196189D01*
X31113828Y-103196189D02*
X31209066Y-103243808D01*
X29970971Y-102862856D02*
X30066209Y-102910475D01*
X30066209Y-102910475D02*
X30256685Y-102910475D01*
X30256685Y-102910475D02*
X30351923Y-102862856D01*
X30351923Y-102862856D02*
X30399542Y-102767617D01*
X30399542Y-102767617D02*
X30399542Y-102386665D01*
X30399542Y-102386665D02*
X30351923Y-102291427D01*
X30351923Y-102291427D02*
X30256685Y-102243808D01*
X30256685Y-102243808D02*
X30066209Y-102243808D01*
X30066209Y-102243808D02*
X29970971Y-102291427D01*
X29970971Y-102291427D02*
X29923352Y-102386665D01*
X29923352Y-102386665D02*
X29923352Y-102481903D01*
X29923352Y-102481903D02*
X30399542Y-102577141D01*
X29494780Y-102910475D02*
X29494780Y-102243808D01*
X29494780Y-102434284D02*
X29447161Y-102339046D01*
X29447161Y-102339046D02*
X29399542Y-102291427D01*
X29399542Y-102291427D02*
X29304304Y-102243808D01*
X29304304Y-102243808D02*
X29209066Y-102243808D01*
X28209065Y-102243808D02*
X27970970Y-102910475D01*
X27970970Y-102910475D02*
X27732875Y-102243808D01*
X27161446Y-101910475D02*
X27066208Y-101910475D01*
X27066208Y-101910475D02*
X26970970Y-101958094D01*
X26970970Y-101958094D02*
X26923351Y-102005713D01*
X26923351Y-102005713D02*
X26875732Y-102100951D01*
X26875732Y-102100951D02*
X26828113Y-102291427D01*
X26828113Y-102291427D02*
X26828113Y-102529522D01*
X26828113Y-102529522D02*
X26875732Y-102719998D01*
X26875732Y-102719998D02*
X26923351Y-102815236D01*
X26923351Y-102815236D02*
X26970970Y-102862856D01*
X26970970Y-102862856D02*
X27066208Y-102910475D01*
X27066208Y-102910475D02*
X27161446Y-102910475D01*
X27161446Y-102910475D02*
X27256684Y-102862856D01*
X27256684Y-102862856D02*
X27304303Y-102815236D01*
X27304303Y-102815236D02*
X27351922Y-102719998D01*
X27351922Y-102719998D02*
X27399541Y-102529522D01*
X27399541Y-102529522D02*
X27399541Y-102291427D01*
X27399541Y-102291427D02*
X27351922Y-102100951D01*
X27351922Y-102100951D02*
X27304303Y-102005713D01*
X27304303Y-102005713D02*
X27256684Y-101958094D01*
X27256684Y-101958094D02*
X27161446Y-101910475D01*
X26399541Y-102815236D02*
X26351922Y-102862856D01*
X26351922Y-102862856D02*
X26399541Y-102910475D01*
X26399541Y-102910475D02*
X26447160Y-102862856D01*
X26447160Y-102862856D02*
X26399541Y-102815236D01*
X26399541Y-102815236D02*
X26399541Y-102910475D01*
X25399542Y-102910475D02*
X25970970Y-102910475D01*
X25685256Y-102910475D02*
X25685256Y-101910475D01*
X25685256Y-101910475D02*
X25780494Y-102053332D01*
X25780494Y-102053332D02*
X25875732Y-102148570D01*
X25875732Y-102148570D02*
X25970970Y-102196189D01*
X39875734Y-103615657D02*
X39828115Y-103568038D01*
X39828115Y-103568038D02*
X39732877Y-103520419D01*
X39732877Y-103520419D02*
X39494782Y-103520419D01*
X39494782Y-103520419D02*
X39399544Y-103568038D01*
X39399544Y-103568038D02*
X39351925Y-103615657D01*
X39351925Y-103615657D02*
X39304306Y-103710895D01*
X39304306Y-103710895D02*
X39304306Y-103806133D01*
X39304306Y-103806133D02*
X39351925Y-103948990D01*
X39351925Y-103948990D02*
X39923353Y-104520419D01*
X39923353Y-104520419D02*
X39304306Y-104520419D01*
X38685258Y-103520419D02*
X38590020Y-103520419D01*
X38590020Y-103520419D02*
X38494782Y-103568038D01*
X38494782Y-103568038D02*
X38447163Y-103615657D01*
X38447163Y-103615657D02*
X38399544Y-103710895D01*
X38399544Y-103710895D02*
X38351925Y-103901371D01*
X38351925Y-103901371D02*
X38351925Y-104139466D01*
X38351925Y-104139466D02*
X38399544Y-104329942D01*
X38399544Y-104329942D02*
X38447163Y-104425180D01*
X38447163Y-104425180D02*
X38494782Y-104472800D01*
X38494782Y-104472800D02*
X38590020Y-104520419D01*
X38590020Y-104520419D02*
X38685258Y-104520419D01*
X38685258Y-104520419D02*
X38780496Y-104472800D01*
X38780496Y-104472800D02*
X38828115Y-104425180D01*
X38828115Y-104425180D02*
X38875734Y-104329942D01*
X38875734Y-104329942D02*
X38923353Y-104139466D01*
X38923353Y-104139466D02*
X38923353Y-103901371D01*
X38923353Y-103901371D02*
X38875734Y-103710895D01*
X38875734Y-103710895D02*
X38828115Y-103615657D01*
X38828115Y-103615657D02*
X38780496Y-103568038D01*
X38780496Y-103568038D02*
X38685258Y-103520419D01*
X37970972Y-103615657D02*
X37923353Y-103568038D01*
X37923353Y-103568038D02*
X37828115Y-103520419D01*
X37828115Y-103520419D02*
X37590020Y-103520419D01*
X37590020Y-103520419D02*
X37494782Y-103568038D01*
X37494782Y-103568038D02*
X37447163Y-103615657D01*
X37447163Y-103615657D02*
X37399544Y-103710895D01*
X37399544Y-103710895D02*
X37399544Y-103806133D01*
X37399544Y-103806133D02*
X37447163Y-103948990D01*
X37447163Y-103948990D02*
X38018591Y-104520419D01*
X38018591Y-104520419D02*
X37399544Y-104520419D01*
X36494782Y-103520419D02*
X36970972Y-103520419D01*
X36970972Y-103520419D02*
X37018591Y-103996609D01*
X37018591Y-103996609D02*
X36970972Y-103948990D01*
X36970972Y-103948990D02*
X36875734Y-103901371D01*
X36875734Y-103901371D02*
X36637639Y-103901371D01*
X36637639Y-103901371D02*
X36542401Y-103948990D01*
X36542401Y-103948990D02*
X36494782Y-103996609D01*
X36494782Y-103996609D02*
X36447163Y-104091847D01*
X36447163Y-104091847D02*
X36447163Y-104329942D01*
X36447163Y-104329942D02*
X36494782Y-104425180D01*
X36494782Y-104425180D02*
X36542401Y-104472800D01*
X36542401Y-104472800D02*
X36637639Y-104520419D01*
X36637639Y-104520419D02*
X36875734Y-104520419D01*
X36875734Y-104520419D02*
X36970972Y-104472800D01*
X36970972Y-104472800D02*
X37018591Y-104425180D01*
X35256686Y-104520419D02*
X35256686Y-103520419D01*
X35256686Y-103996609D02*
X34685258Y-103996609D01*
X34685258Y-104520419D02*
X34685258Y-103520419D01*
X33780496Y-104520419D02*
X33780496Y-103996609D01*
X33780496Y-103996609D02*
X33828115Y-103901371D01*
X33828115Y-103901371D02*
X33923353Y-103853752D01*
X33923353Y-103853752D02*
X34113829Y-103853752D01*
X34113829Y-103853752D02*
X34209067Y-103901371D01*
X33780496Y-104472800D02*
X33875734Y-104520419D01*
X33875734Y-104520419D02*
X34113829Y-104520419D01*
X34113829Y-104520419D02*
X34209067Y-104472800D01*
X34209067Y-104472800D02*
X34256686Y-104377561D01*
X34256686Y-104377561D02*
X34256686Y-104282323D01*
X34256686Y-104282323D02*
X34209067Y-104187085D01*
X34209067Y-104187085D02*
X34113829Y-104139466D01*
X34113829Y-104139466D02*
X33875734Y-104139466D01*
X33875734Y-104139466D02*
X33780496Y-104091847D01*
X33161448Y-104520419D02*
X33256686Y-104472800D01*
X33256686Y-104472800D02*
X33304305Y-104377561D01*
X33304305Y-104377561D02*
X33304305Y-103520419D01*
X32637638Y-104520419D02*
X32732876Y-104472800D01*
X32732876Y-104472800D02*
X32780495Y-104425180D01*
X32780495Y-104425180D02*
X32828114Y-104329942D01*
X32828114Y-104329942D02*
X32828114Y-104044228D01*
X32828114Y-104044228D02*
X32780495Y-103948990D01*
X32780495Y-103948990D02*
X32732876Y-103901371D01*
X32732876Y-103901371D02*
X32637638Y-103853752D01*
X32637638Y-103853752D02*
X32494781Y-103853752D01*
X32494781Y-103853752D02*
X32399543Y-103901371D01*
X32399543Y-103901371D02*
X32351924Y-103948990D01*
X32351924Y-103948990D02*
X32304305Y-104044228D01*
X32304305Y-104044228D02*
X32304305Y-104329942D01*
X32304305Y-104329942D02*
X32351924Y-104425180D01*
X32351924Y-104425180D02*
X32399543Y-104472800D01*
X32399543Y-104472800D02*
X32494781Y-104520419D01*
X32494781Y-104520419D02*
X32637638Y-104520419D01*
X31875733Y-103853752D02*
X31875733Y-104710895D01*
X31875733Y-104710895D02*
X31923352Y-104806133D01*
X31923352Y-104806133D02*
X32018590Y-104853752D01*
X32018590Y-104853752D02*
X32066209Y-104853752D01*
X31875733Y-103520419D02*
X31923352Y-103568038D01*
X31923352Y-103568038D02*
X31875733Y-103615657D01*
X31875733Y-103615657D02*
X31828114Y-103568038D01*
X31828114Y-103568038D02*
X31875733Y-103520419D01*
X31875733Y-103520419D02*
X31875733Y-103615657D01*
X31018591Y-104472800D02*
X31113829Y-104520419D01*
X31113829Y-104520419D02*
X31304305Y-104520419D01*
X31304305Y-104520419D02*
X31399543Y-104472800D01*
X31399543Y-104472800D02*
X31447162Y-104377561D01*
X31447162Y-104377561D02*
X31447162Y-103996609D01*
X31447162Y-103996609D02*
X31399543Y-103901371D01*
X31399543Y-103901371D02*
X31304305Y-103853752D01*
X31304305Y-103853752D02*
X31113829Y-103853752D01*
X31113829Y-103853752D02*
X31018591Y-103901371D01*
X31018591Y-103901371D02*
X30970972Y-103996609D01*
X30970972Y-103996609D02*
X30970972Y-104091847D01*
X30970972Y-104091847D02*
X31447162Y-104187085D01*
X30542400Y-103853752D02*
X30542400Y-104520419D01*
X30542400Y-103948990D02*
X30494781Y-103901371D01*
X30494781Y-103901371D02*
X30399543Y-103853752D01*
X30399543Y-103853752D02*
X30256686Y-103853752D01*
X30256686Y-103853752D02*
X30161448Y-103901371D01*
X30161448Y-103901371D02*
X30113829Y-103996609D01*
X30113829Y-103996609D02*
X30113829Y-104520419D01*
X28875733Y-104520419D02*
X28875733Y-103520419D01*
X28875733Y-103520419D02*
X28494781Y-103520419D01*
X28494781Y-103520419D02*
X28399543Y-103568038D01*
X28399543Y-103568038D02*
X28351924Y-103615657D01*
X28351924Y-103615657D02*
X28304305Y-103710895D01*
X28304305Y-103710895D02*
X28304305Y-103853752D01*
X28304305Y-103853752D02*
X28351924Y-103948990D01*
X28351924Y-103948990D02*
X28399543Y-103996609D01*
X28399543Y-103996609D02*
X28494781Y-104044228D01*
X28494781Y-104044228D02*
X28875733Y-104044228D01*
X27875733Y-104520419D02*
X27875733Y-103853752D01*
X27875733Y-104044228D02*
X27828114Y-103948990D01*
X27828114Y-103948990D02*
X27780495Y-103901371D01*
X27780495Y-103901371D02*
X27685257Y-103853752D01*
X27685257Y-103853752D02*
X27590019Y-103853752D01*
X27113828Y-104520419D02*
X27209066Y-104472800D01*
X27209066Y-104472800D02*
X27256685Y-104425180D01*
X27256685Y-104425180D02*
X27304304Y-104329942D01*
X27304304Y-104329942D02*
X27304304Y-104044228D01*
X27304304Y-104044228D02*
X27256685Y-103948990D01*
X27256685Y-103948990D02*
X27209066Y-103901371D01*
X27209066Y-103901371D02*
X27113828Y-103853752D01*
X27113828Y-103853752D02*
X26970971Y-103853752D01*
X26970971Y-103853752D02*
X26875733Y-103901371D01*
X26875733Y-103901371D02*
X26828114Y-103948990D01*
X26828114Y-103948990D02*
X26780495Y-104044228D01*
X26780495Y-104044228D02*
X26780495Y-104329942D01*
X26780495Y-104329942D02*
X26828114Y-104425180D01*
X26828114Y-104425180D02*
X26875733Y-104472800D01*
X26875733Y-104472800D02*
X26970971Y-104520419D01*
X26970971Y-104520419D02*
X27113828Y-104520419D01*
X25923352Y-104520419D02*
X25923352Y-103520419D01*
X25923352Y-104472800D02*
X26018590Y-104520419D01*
X26018590Y-104520419D02*
X26209066Y-104520419D01*
X26209066Y-104520419D02*
X26304304Y-104472800D01*
X26304304Y-104472800D02*
X26351923Y-104425180D01*
X26351923Y-104425180D02*
X26399542Y-104329942D01*
X26399542Y-104329942D02*
X26399542Y-104044228D01*
X26399542Y-104044228D02*
X26351923Y-103948990D01*
X26351923Y-103948990D02*
X26304304Y-103901371D01*
X26304304Y-103901371D02*
X26209066Y-103853752D01*
X26209066Y-103853752D02*
X26018590Y-103853752D01*
X26018590Y-103853752D02*
X25923352Y-103901371D01*
X25018590Y-103853752D02*
X25018590Y-104520419D01*
X25447161Y-103853752D02*
X25447161Y-104377561D01*
X25447161Y-104377561D02*
X25399542Y-104472800D01*
X25399542Y-104472800D02*
X25304304Y-104520419D01*
X25304304Y-104520419D02*
X25161447Y-104520419D01*
X25161447Y-104520419D02*
X25066209Y-104472800D01*
X25066209Y-104472800D02*
X25018590Y-104425180D01*
X24113828Y-104472800D02*
X24209066Y-104520419D01*
X24209066Y-104520419D02*
X24399542Y-104520419D01*
X24399542Y-104520419D02*
X24494780Y-104472800D01*
X24494780Y-104472800D02*
X24542399Y-104425180D01*
X24542399Y-104425180D02*
X24590018Y-104329942D01*
X24590018Y-104329942D02*
X24590018Y-104044228D01*
X24590018Y-104044228D02*
X24542399Y-103948990D01*
X24542399Y-103948990D02*
X24494780Y-103901371D01*
X24494780Y-103901371D02*
X24399542Y-103853752D01*
X24399542Y-103853752D02*
X24209066Y-103853752D01*
X24209066Y-103853752D02*
X24113828Y-103901371D01*
X23828113Y-103853752D02*
X23447161Y-103853752D01*
X23685256Y-103520419D02*
X23685256Y-104377561D01*
X23685256Y-104377561D02*
X23637637Y-104472800D01*
X23637637Y-104472800D02*
X23542399Y-104520419D01*
X23542399Y-104520419D02*
X23447161Y-104520419D01*
X23113827Y-104520419D02*
X23113827Y-103853752D01*
X23113827Y-103520419D02*
X23161446Y-103568038D01*
X23161446Y-103568038D02*
X23113827Y-103615657D01*
X23113827Y-103615657D02*
X23066208Y-103568038D01*
X23066208Y-103568038D02*
X23113827Y-103520419D01*
X23113827Y-103520419D02*
X23113827Y-103615657D01*
X22494780Y-104520419D02*
X22590018Y-104472800D01*
X22590018Y-104472800D02*
X22637637Y-104425180D01*
X22637637Y-104425180D02*
X22685256Y-104329942D01*
X22685256Y-104329942D02*
X22685256Y-104044228D01*
X22685256Y-104044228D02*
X22637637Y-103948990D01*
X22637637Y-103948990D02*
X22590018Y-103901371D01*
X22590018Y-103901371D02*
X22494780Y-103853752D01*
X22494780Y-103853752D02*
X22351923Y-103853752D01*
X22351923Y-103853752D02*
X22256685Y-103901371D01*
X22256685Y-103901371D02*
X22209066Y-103948990D01*
X22209066Y-103948990D02*
X22161447Y-104044228D01*
X22161447Y-104044228D02*
X22161447Y-104329942D01*
X22161447Y-104329942D02*
X22209066Y-104425180D01*
X22209066Y-104425180D02*
X22256685Y-104472800D01*
X22256685Y-104472800D02*
X22351923Y-104520419D01*
X22351923Y-104520419D02*
X22494780Y-104520419D01*
X21732875Y-103853752D02*
X21732875Y-104520419D01*
X21732875Y-103948990D02*
X21685256Y-103901371D01*
X21685256Y-103901371D02*
X21590018Y-103853752D01*
X21590018Y-103853752D02*
X21447161Y-103853752D01*
X21447161Y-103853752D02*
X21351923Y-103901371D01*
X21351923Y-103901371D02*
X21304304Y-103996609D01*
X21304304Y-103996609D02*
X21304304Y-104520419D01*
X20875732Y-104472800D02*
X20780494Y-104520419D01*
X20780494Y-104520419D02*
X20590018Y-104520419D01*
X20590018Y-104520419D02*
X20494780Y-104472800D01*
X20494780Y-104472800D02*
X20447161Y-104377561D01*
X20447161Y-104377561D02*
X20447161Y-104329942D01*
X20447161Y-104329942D02*
X20494780Y-104234704D01*
X20494780Y-104234704D02*
X20590018Y-104187085D01*
X20590018Y-104187085D02*
X20732875Y-104187085D01*
X20732875Y-104187085D02*
X20828113Y-104139466D01*
X20828113Y-104139466D02*
X20875732Y-104044228D01*
X20875732Y-104044228D02*
X20875732Y-103996609D01*
X20875732Y-103996609D02*
X20828113Y-103901371D01*
X20828113Y-103901371D02*
X20732875Y-103853752D01*
X20732875Y-103853752D02*
X20590018Y-103853752D01*
X20590018Y-103853752D02*
X20494780Y-103901371D01*
D10*
G36*
X34338693Y-91871824D02*
G01*
X27563706Y-91871824D01*
X27563706Y-84431364D01*
X28452595Y-84431364D01*
X28452595Y-84677561D01*
X28454313Y-85068518D01*
X28459465Y-85460299D01*
X28468051Y-85852904D01*
X28480073Y-86246333D01*
X28495529Y-86640587D01*
X28501444Y-86772188D01*
X28519762Y-87173174D01*
X28538080Y-87586249D01*
X28556399Y-88011415D01*
X28574717Y-88448671D01*
X28593035Y-88898017D01*
X28599141Y-89050485D01*
X28615742Y-89492298D01*
X28628908Y-89897428D01*
X28639928Y-90323717D01*
X28646797Y-90749769D01*
X28647990Y-90982935D01*
X28877692Y-90613723D01*
X29042900Y-90210975D01*
X29097397Y-90013779D01*
X29173303Y-89590079D01*
X29212107Y-89160169D01*
X29221960Y-88778887D01*
X29213030Y-88363064D01*
X29191945Y-87940982D01*
X29162364Y-87502375D01*
X29158457Y-87450206D01*
X29127760Y-87028137D01*
X29102458Y-86622618D01*
X29094954Y-86408755D01*
X29103655Y-85969972D01*
X29134245Y-85557795D01*
X29209293Y-85142384D01*
X29234173Y-85062488D01*
X29438535Y-84675230D01*
X29814249Y-84374028D01*
X30328495Y-84262154D01*
X30382114Y-84261371D01*
X30877851Y-84276484D01*
X31370835Y-84349633D01*
X31432358Y-84368838D01*
X31803292Y-84630066D01*
X31979462Y-85011685D01*
X32471049Y-84946045D01*
X32895537Y-84722212D01*
X33175749Y-84380883D01*
X33198234Y-84339529D01*
X33341462Y-83943875D01*
X33414427Y-83541160D01*
X33445873Y-83123505D01*
X33449804Y-82893612D01*
X33442935Y-82495740D01*
X33437592Y-82319152D01*
X33424669Y-81926896D01*
X33422937Y-81801357D01*
X33388743Y-81598147D01*
X33352107Y-81459418D01*
X33039476Y-81299194D01*
X32792791Y-81260115D01*
X32485045Y-81383214D01*
X32443524Y-81637226D01*
X32428869Y-81893193D01*
X32428869Y-82192146D01*
X32417897Y-82602398D01*
X32370828Y-82993091D01*
X32316517Y-83169117D01*
X32028005Y-83488350D01*
X31530055Y-83628813D01*
X31349316Y-83636110D01*
X30844019Y-83624501D01*
X30719169Y-83618524D01*
X30215995Y-83595163D01*
X29713847Y-83577852D01*
X29668925Y-83577491D01*
X29515052Y-83464163D01*
X29502840Y-83081190D01*
X29473531Y-82694309D01*
X29492271Y-82291269D01*
X29540394Y-81898496D01*
X29618132Y-81473238D01*
X29710446Y-81074491D01*
X29808220Y-80685795D01*
X29923624Y-80212041D01*
X30021932Y-79789149D01*
X30120774Y-79332062D01*
X30204122Y-78888464D01*
X30255413Y-78475022D01*
X30257550Y-78403451D01*
X30230683Y-78172886D01*
X30159853Y-77893472D01*
X29852107Y-77666815D01*
X29585882Y-77633598D01*
X29180439Y-77823130D01*
X29097397Y-78120129D01*
X29082742Y-78462069D01*
X29090069Y-78686773D01*
X29094954Y-78921246D01*
X29075906Y-79341437D01*
X29031985Y-79770753D01*
X28971535Y-80216985D01*
X28933754Y-80462907D01*
X28863346Y-80908711D01*
X28793171Y-81360499D01*
X28733208Y-81752509D01*
X28673416Y-82148915D01*
X28613796Y-82549718D01*
X28559013Y-82943307D01*
X28509425Y-83378706D01*
X28475264Y-83788487D01*
X28455114Y-84225437D01*
X28452595Y-84431364D01*
X27563706Y-84431364D01*
X27563706Y-76744709D01*
X34338693Y-76744709D01*
X34338693Y-91871824D01*
G37*
D12*
%TO.P,J3,1,Pin_1*%
%TO.N,+5V*%
X22606000Y-70064000D03*
D13*
%TO.P,J3,2,Pin_2*%
%TO.N,Net-(J3-Pin_2)*%
X22606000Y-67564000D03*
%TD*%
D14*
%TO.P,J1,1,Pin_1*%
%TO.N,GND*%
X69342000Y-51936000D03*
D15*
%TO.P,J1,2,Pin_2*%
%TO.N,+5V*%
X69342000Y-54436000D03*
%TO.P,J1,3,Pin_3*%
%TO.N,/pSDA*%
X69342000Y-56936000D03*
%TO.P,J1,4,Pin_4*%
%TO.N,/pSCL*%
X69342000Y-59436000D03*
%TD*%
D16*
%TO.P,J4,1*%
%TO.N,+5V*%
X69342000Y-81534000D03*
D13*
%TO.P,J4,2*%
%TO.N,/pTemp*%
X69342000Y-84034000D03*
%TD*%
D17*
%TO.P,Y1,1,1*%
%TO.N,/pCry1*%
X42138600Y-88243000D03*
%TO.P,Y1,2,2*%
%TO.N,/pCry2*%
X42138600Y-93123000D03*
%TD*%
D18*
%TO.P,J5,1,Pin_1*%
%TO.N,+AC*%
X23368000Y-26500000D03*
D19*
%TO.P,J5,2,Pin_2*%
%TO.N,-AC*%
X23368000Y-30000000D03*
%TO.P,J5,3,Pin_3*%
X23368000Y-33500000D03*
%TO.P,J5,4,Pin_4*%
%TO.N,Heater*%
X23368000Y-37000000D03*
%TD*%
D14*
%TO.P,J2,1,Pin_1*%
%TO.N,GND*%
X69342000Y-66668000D03*
D15*
%TO.P,J2,2,Pin_2*%
%TO.N,+5V*%
X69342000Y-69168000D03*
%TO.P,J2,3,Pin_3*%
%TO.N,/pSDA*%
X69342000Y-71668000D03*
%TO.P,J2,4,Pin_4*%
%TO.N,/pSCL*%
X69342000Y-74168000D03*
%TD*%
D20*
%TO.P,PS1,1,AC/L*%
%TO.N,+AC*%
X34002500Y-33542500D03*
D21*
%TO.P,PS1,2,AC/N*%
%TO.N,-AC*%
X34002500Y-38542500D03*
%TO.P,PS1,3,-Vout*%
%TO.N,GND*%
X63082500Y-28542500D03*
%TO.P,PS1,4,+Vout*%
%TO.N,+5V*%
X63082500Y-43542500D03*
%TD*%
D22*
%TO.P,U1,1,~{RESET}/PC6*%
%TO.N,/pReset*%
X47752000Y-69088000D03*
D23*
%TO.P,U1,2,PD0*%
%TO.N,Net-(U1-PD0)*%
X47752000Y-71628000D03*
%TO.P,U1,3,PD1*%
%TO.N,Net-(U1-PD1)*%
X47752000Y-74168000D03*
%TO.P,U1,4,PD2*%
%TO.N,/pButt*%
X47752000Y-76708000D03*
%TO.P,U1,5,PD3*%
%TO.N,/pFan_sense*%
X47752000Y-79248000D03*
%TO.P,U1,6,PD4*%
%TO.N,Net-(U1-PD4)*%
X47752000Y-81788000D03*
%TO.P,U1,7,VCC*%
%TO.N,+5V*%
X47752000Y-84328000D03*
%TO.P,U1,8,GND*%
%TO.N,GND*%
X47752000Y-86868000D03*
%TO.P,U1,9,XTAL1/PB6*%
%TO.N,/pCry1*%
X47752000Y-89408000D03*
%TO.P,U1,10,XTAL2/PB7*%
%TO.N,/pCry2*%
X47752000Y-91948000D03*
%TO.P,U1,11,PD5*%
%TO.N,/pFan_pwm*%
X47752000Y-94488000D03*
%TO.P,U1,12,PD6*%
%TO.N,Net-(U1-PD6)*%
X47752000Y-97028000D03*
%TO.P,U1,13,PD7*%
%TO.N,Net-(U1-PD7)*%
X47752000Y-99568000D03*
%TO.P,U1,14,PB0*%
%TO.N,Net-(U1-PB0)*%
X47752000Y-102108000D03*
%TO.P,U1,15,PB1*%
%TO.N,/pHeat*%
X55372000Y-102108000D03*
%TO.P,U1,16,PB2*%
%TO.N,Net-(U1-PB2)*%
X55372000Y-99568000D03*
%TO.P,U1,17,PB3*%
%TO.N,Net-(U1-PB3)*%
X55372000Y-97028000D03*
%TO.P,U1,18,PB4*%
%TO.N,/pLed_ok*%
X55372000Y-94488000D03*
%TO.P,U1,19,PB5*%
%TO.N,/pLed_heat*%
X55372000Y-91948000D03*
%TO.P,U1,20,AVCC*%
%TO.N,+5V*%
X55372000Y-89408000D03*
%TO.P,U1,21,AREF*%
X55372000Y-86868000D03*
%TO.P,U1,22,GND*%
%TO.N,GND*%
X55372000Y-84328000D03*
%TO.P,U1,23,PC0*%
%TO.N,/pTemp*%
X55372000Y-81788000D03*
%TO.P,U1,24,PC1*%
%TO.N,Net-(U1-PC1)*%
X55372000Y-79248000D03*
%TO.P,U1,25,PC2*%
%TO.N,Net-(U1-PC2)*%
X55372000Y-76708000D03*
%TO.P,U1,26,PC3*%
%TO.N,Net-(U1-PC3)*%
X55372000Y-74168000D03*
%TO.P,U1,27,PC4*%
%TO.N,/pSDA*%
X55372000Y-71628000D03*
%TO.P,U1,28,PC5*%
%TO.N,/pSCL*%
X55372000Y-69088000D03*
%TD*%
D24*
%TO.N,GND*%
X34479000Y-72833000D03*
X57912000Y-93218000D03*
X37592000Y-90678000D03*
%TO.N,+5V*%
X51562000Y-66294000D03*
X64262000Y-93233000D03*
X65024000Y-66294000D03*
X54864000Y-66294000D03*
%TO.N,/pSDA*%
X65024000Y-71628000D03*
%TO.N,Net-(R5-Pad1)*%
X43434000Y-50546000D03*
X43434000Y-59182000D03*
%TD*%
D25*
%TO.N,+5V*%
X51562000Y-66294000D02*
X51562000Y-84328000D01*
X70946000Y-69168000D02*
X71628000Y-69850000D01*
X51562000Y-84328000D02*
X51816000Y-84328000D01*
X71628000Y-82042000D02*
X71628000Y-85090000D01*
X69342000Y-79756000D02*
X69342000Y-81534000D01*
X64262000Y-88646000D02*
X64262000Y-93233000D01*
X69850000Y-86868000D02*
X66040000Y-86868000D01*
X71628000Y-85090000D02*
X69850000Y-86868000D01*
X69342000Y-69168000D02*
X70946000Y-69168000D01*
X69342000Y-81534000D02*
X71120000Y-81534000D01*
X66040000Y-86868000D02*
X64262000Y-88646000D01*
X65024000Y-66294000D02*
X67898000Y-69168000D01*
X52324000Y-84328000D02*
X54864000Y-86868000D01*
X54864000Y-86868000D02*
X55372000Y-86868000D01*
X51816000Y-84328000D02*
X47752000Y-84328000D01*
X71628000Y-77470000D02*
X69342000Y-79756000D01*
X54864000Y-66294000D02*
X51562000Y-66294000D01*
X71628000Y-69850000D02*
X71628000Y-77470000D01*
X71120000Y-81534000D02*
X71628000Y-82042000D01*
X55372000Y-86868000D02*
X55372000Y-89408000D01*
X67898000Y-69168000D02*
X69342000Y-69168000D01*
X51816000Y-84328000D02*
X52324000Y-84328000D01*
%TO.N,/pSDA*%
X69302000Y-71628000D02*
X69342000Y-71668000D01*
X65024000Y-71628000D02*
X69302000Y-71628000D01*
%TO.N,Net-(R5-Pad1)*%
X43434000Y-50546000D02*
X43434000Y-59182000D01*
%TD*%
%TA.AperFunction,Conductor*%
%TO.N,GND*%
G36*
X71825039Y-24149685D02*
G01*
X71870794Y-24202489D01*
X71882000Y-24254000D01*
X71882000Y-68955402D01*
X71862315Y-69022441D01*
X71809511Y-69068196D01*
X71740353Y-69078140D01*
X71676797Y-69049115D01*
X71670319Y-69043083D01*
X71433590Y-68806355D01*
X71433588Y-68806352D01*
X71314717Y-68687481D01*
X71314716Y-68687480D01*
X71227904Y-68637360D01*
X71227904Y-68637359D01*
X71227900Y-68637358D01*
X71177785Y-68608423D01*
X71025057Y-68567499D01*
X70866943Y-68567499D01*
X70859347Y-68567499D01*
X70859331Y-68567500D01*
X70752719Y-68567500D01*
X70685680Y-68547815D01*
X70642235Y-68499795D01*
X70622052Y-68460185D01*
X70622051Y-68460184D01*
X70497109Y-68288213D01*
X70357931Y-68149035D01*
X70324446Y-68087712D01*
X70329430Y-68018020D01*
X70371302Y-67962087D01*
X70380516Y-67955815D01*
X70535343Y-67860317D01*
X70659315Y-67736345D01*
X70751356Y-67587124D01*
X70751358Y-67587119D01*
X70806505Y-67420697D01*
X70806506Y-67420690D01*
X70816999Y-67317986D01*
X70817000Y-67317973D01*
X70817000Y-66918000D01*
X69746146Y-66918000D01*
X69784630Y-66851343D01*
X69817000Y-66730535D01*
X69817000Y-66605465D01*
X69784630Y-66484657D01*
X69746146Y-66418000D01*
X70816999Y-66418000D01*
X70816999Y-66018028D01*
X70816998Y-66018013D01*
X70806505Y-65915302D01*
X70751358Y-65748880D01*
X70751356Y-65748875D01*
X70659315Y-65599654D01*
X70535345Y-65475684D01*
X70386124Y-65383643D01*
X70386119Y-65383641D01*
X70219697Y-65328494D01*
X70219690Y-65328493D01*
X70116986Y-65318000D01*
X69592000Y-65318000D01*
X69592000Y-66263854D01*
X69525343Y-66225370D01*
X69404535Y-66193000D01*
X69279465Y-66193000D01*
X69158657Y-66225370D01*
X69092000Y-66263854D01*
X69092000Y-65318000D01*
X68567028Y-65318000D01*
X68567012Y-65318001D01*
X68464302Y-65328494D01*
X68297880Y-65383641D01*
X68297875Y-65383643D01*
X68148654Y-65475684D01*
X68024684Y-65599654D01*
X67932643Y-65748875D01*
X67932641Y-65748880D01*
X67877494Y-65915302D01*
X67877493Y-65915309D01*
X67867000Y-66018013D01*
X67867000Y-66418000D01*
X68937854Y-66418000D01*
X68899370Y-66484657D01*
X68867000Y-66605465D01*
X68867000Y-66730535D01*
X68899370Y-66851343D01*
X68937854Y-66918000D01*
X67867001Y-66918000D01*
X67867001Y-67317986D01*
X67877494Y-67420697D01*
X67932641Y-67587119D01*
X67932643Y-67587124D01*
X68024684Y-67736345D01*
X68148654Y-67860315D01*
X68303484Y-67955815D01*
X68350208Y-68007763D01*
X68361431Y-68076726D01*
X68333587Y-68140808D01*
X68326069Y-68149035D01*
X68186892Y-68288212D01*
X68137805Y-68355775D01*
X68082475Y-68398440D01*
X68012861Y-68404419D01*
X67951066Y-68371813D01*
X67949806Y-68370570D01*
X65854700Y-66275465D01*
X65821215Y-66214142D01*
X65819163Y-66201686D01*
X65809368Y-66114745D01*
X65749789Y-65944478D01*
X65653816Y-65791738D01*
X65526262Y-65664184D01*
X65373523Y-65568211D01*
X65203254Y-65508631D01*
X65203249Y-65508630D01*
X65024004Y-65488435D01*
X65023996Y-65488435D01*
X64844750Y-65508630D01*
X64844745Y-65508631D01*
X64674476Y-65568211D01*
X64521737Y-65664184D01*
X64394184Y-65791737D01*
X64298211Y-65944476D01*
X64238631Y-66114745D01*
X64238630Y-66114750D01*
X64218435Y-66293996D01*
X64218435Y-66294003D01*
X64238630Y-66473249D01*
X64238631Y-66473254D01*
X64298211Y-66643523D01*
X64352885Y-66730535D01*
X64394184Y-66796262D01*
X64521738Y-66923816D01*
X64674478Y-67019789D01*
X64844745Y-67079368D01*
X64931669Y-67089161D01*
X64996080Y-67116226D01*
X65005464Y-67124699D01*
X67529284Y-69648520D01*
X67529286Y-69648521D01*
X67529290Y-69648524D01*
X67666209Y-69727573D01*
X67666216Y-69727577D01*
X67818943Y-69768501D01*
X67818945Y-69768501D01*
X67931282Y-69768501D01*
X67998321Y-69788186D01*
X68041767Y-69836206D01*
X68061951Y-69875820D01*
X68186890Y-70047786D01*
X68337209Y-70198105D01*
X68337214Y-70198109D01*
X68501793Y-70317682D01*
X68544459Y-70373011D01*
X68550438Y-70442625D01*
X68517833Y-70504420D01*
X68501793Y-70518318D01*
X68337214Y-70637890D01*
X68337209Y-70637894D01*
X68186890Y-70788213D01*
X68061956Y-70960173D01*
X68059408Y-70964332D01*
X68058428Y-70963731D01*
X68014176Y-71010589D01*
X67951663Y-71027500D01*
X65606412Y-71027500D01*
X65539373Y-71007815D01*
X65529097Y-71000445D01*
X65526263Y-70998185D01*
X65526262Y-70998184D01*
X65465768Y-70960173D01*
X65373523Y-70902211D01*
X65203254Y-70842631D01*
X65203249Y-70842630D01*
X65024004Y-70822435D01*
X65023996Y-70822435D01*
X64844750Y-70842630D01*
X64844745Y-70842631D01*
X64674476Y-70902211D01*
X64521737Y-70998184D01*
X64394184Y-71125737D01*
X64298211Y-71278476D01*
X64238631Y-71448745D01*
X64238630Y-71448750D01*
X64218435Y-71627996D01*
X64218435Y-71628003D01*
X64238630Y-71807249D01*
X64238631Y-71807254D01*
X64298211Y-71977523D01*
X64392272Y-72127219D01*
X64394184Y-72130262D01*
X64521738Y-72257816D01*
X64674478Y-72353789D01*
X64844745Y-72413368D01*
X64844750Y-72413369D01*
X65023996Y-72433565D01*
X65024000Y-72433565D01*
X65024004Y-72433565D01*
X65203249Y-72413369D01*
X65203252Y-72413368D01*
X65203255Y-72413368D01*
X65373522Y-72353789D01*
X65526262Y-72257816D01*
X65526267Y-72257810D01*
X65529097Y-72255555D01*
X65531275Y-72254665D01*
X65532158Y-72254111D01*
X65532255Y-72254265D01*
X65593783Y-72229145D01*
X65606412Y-72228500D01*
X67910900Y-72228500D01*
X67977939Y-72248185D01*
X68021385Y-72296205D01*
X68061951Y-72375819D01*
X68186890Y-72547786D01*
X68337209Y-72698105D01*
X68337214Y-72698109D01*
X68501793Y-72817682D01*
X68544459Y-72873011D01*
X68550438Y-72942625D01*
X68517833Y-73004420D01*
X68501793Y-73018318D01*
X68337214Y-73137890D01*
X68337209Y-73137894D01*
X68186890Y-73288213D01*
X68061951Y-73460179D01*
X67965444Y-73649585D01*
X67899753Y-73851760D01*
X67866500Y-74061713D01*
X67866500Y-74274286D01*
X67899753Y-74484239D01*
X67965444Y-74686414D01*
X68061951Y-74875820D01*
X68186890Y-75047786D01*
X68337213Y-75198109D01*
X68509179Y-75323048D01*
X68509181Y-75323049D01*
X68509184Y-75323051D01*
X68698588Y-75419557D01*
X68900757Y-75485246D01*
X69110713Y-75518500D01*
X69110714Y-75518500D01*
X69573286Y-75518500D01*
X69573287Y-75518500D01*
X69783243Y-75485246D01*
X69985412Y-75419557D01*
X70174816Y-75323051D01*
X70233680Y-75280284D01*
X70346786Y-75198109D01*
X70346788Y-75198106D01*
X70346792Y-75198104D01*
X70497104Y-75047792D01*
X70497106Y-75047788D01*
X70497109Y-75047786D01*
X70622048Y-74875820D01*
X70622047Y-74875820D01*
X70622051Y-74875816D01*
X70718557Y-74686412D01*
X70784246Y-74484243D01*
X70784247Y-74484239D01*
X70785569Y-74480170D01*
X70825007Y-74422494D01*
X70889365Y-74395296D01*
X70958212Y-74407211D01*
X71009687Y-74454455D01*
X71027500Y-74518488D01*
X71027500Y-77169902D01*
X71007815Y-77236941D01*
X70991181Y-77257583D01*
X68861481Y-79387282D01*
X68861479Y-79387285D01*
X68811361Y-79474094D01*
X68811359Y-79474096D01*
X68782425Y-79524209D01*
X68782424Y-79524210D01*
X68782423Y-79524215D01*
X68741499Y-79676943D01*
X68741499Y-79676945D01*
X68741499Y-79845046D01*
X68741500Y-79845059D01*
X68741500Y-80059500D01*
X68721815Y-80126539D01*
X68669011Y-80172294D01*
X68617502Y-80183500D01*
X68541999Y-80183500D01*
X68541980Y-80183501D01*
X68439203Y-80194000D01*
X68439200Y-80194001D01*
X68272668Y-80249185D01*
X68272663Y-80249187D01*
X68123342Y-80341289D01*
X67999289Y-80465342D01*
X67907187Y-80614663D01*
X67907186Y-80614666D01*
X67852001Y-80781203D01*
X67852001Y-80781204D01*
X67852000Y-80781204D01*
X67841500Y-80883983D01*
X67841500Y-82184001D01*
X67841501Y-82184018D01*
X67852000Y-82286796D01*
X67852001Y-82286799D01*
X67907185Y-82453331D01*
X67907187Y-82453336D01*
X67999289Y-82602657D01*
X68123344Y-82726712D01*
X68278120Y-82822178D01*
X68324845Y-82874126D01*
X68336068Y-82943088D01*
X68308224Y-83007171D01*
X68300706Y-83015398D01*
X68161889Y-83154215D01*
X68036951Y-83326179D01*
X67940444Y-83515585D01*
X67874753Y-83717760D01*
X67841500Y-83927713D01*
X67841500Y-84140286D01*
X67874739Y-84350152D01*
X67874754Y-84350243D01*
X67898430Y-84423111D01*
X67940444Y-84552414D01*
X68036951Y-84741820D01*
X68161890Y-84913786D01*
X68312213Y-85064109D01*
X68484179Y-85189048D01*
X68484181Y-85189049D01*
X68484184Y-85189051D01*
X68673588Y-85285557D01*
X68875757Y-85351246D01*
X69085713Y-85384500D01*
X69085714Y-85384500D01*
X69598286Y-85384500D01*
X69598287Y-85384500D01*
X69808243Y-85351246D01*
X70010412Y-85285557D01*
X70199816Y-85189051D01*
X70221789Y-85173086D01*
X70371786Y-85064109D01*
X70371788Y-85064106D01*
X70371792Y-85064104D01*
X70522104Y-84913792D01*
X70522106Y-84913788D01*
X70522109Y-84913786D01*
X70647048Y-84741820D01*
X70647047Y-84741820D01*
X70647051Y-84741816D01*
X70743557Y-84552412D01*
X70785570Y-84423109D01*
X70825006Y-84365436D01*
X70889365Y-84338237D01*
X70958211Y-84350152D01*
X71009687Y-84397396D01*
X71027500Y-84461429D01*
X71027500Y-84789902D01*
X71007815Y-84856941D01*
X70991181Y-84877583D01*
X69637584Y-86231181D01*
X69576261Y-86264666D01*
X69549903Y-86267500D01*
X66126670Y-86267500D01*
X66126654Y-86267499D01*
X66119058Y-86267499D01*
X65960943Y-86267499D01*
X65884579Y-86287961D01*
X65808214Y-86308423D01*
X65808209Y-86308426D01*
X65671290Y-86387475D01*
X65671282Y-86387481D01*
X63781481Y-88277282D01*
X63781479Y-88277285D01*
X63731361Y-88364094D01*
X63731359Y-88364096D01*
X63702425Y-88414209D01*
X63702424Y-88414210D01*
X63689893Y-88460975D01*
X63661499Y-88566943D01*
X63661499Y-88566945D01*
X63661499Y-88735046D01*
X63661500Y-88735059D01*
X63661500Y-92650587D01*
X63641815Y-92717626D01*
X63634450Y-92727896D01*
X63632186Y-92730734D01*
X63536211Y-92883476D01*
X63476631Y-93053745D01*
X63476630Y-93053750D01*
X63456435Y-93232996D01*
X63456435Y-93233003D01*
X63476630Y-93412249D01*
X63476631Y-93412254D01*
X63536211Y-93582523D01*
X63632184Y-93735262D01*
X63759738Y-93862816D01*
X63912478Y-93958789D01*
X64082745Y-94018368D01*
X64082750Y-94018369D01*
X64261996Y-94038565D01*
X64262000Y-94038565D01*
X64262004Y-94038565D01*
X64441249Y-94018369D01*
X64441252Y-94018368D01*
X64441255Y-94018368D01*
X64611522Y-93958789D01*
X64764262Y-93862816D01*
X64891816Y-93735262D01*
X64987789Y-93582522D01*
X65047368Y-93412255D01*
X65051485Y-93375715D01*
X65067565Y-93233003D01*
X65067565Y-93232996D01*
X65047369Y-93053750D01*
X65047368Y-93053745D01*
X64987788Y-92883476D01*
X64891813Y-92730734D01*
X64889550Y-92727896D01*
X64888659Y-92725715D01*
X64888111Y-92724842D01*
X64888264Y-92724745D01*
X64863144Y-92663209D01*
X64862500Y-92650587D01*
X64862500Y-88946097D01*
X64882185Y-88879058D01*
X64898819Y-88858416D01*
X66252417Y-87504819D01*
X66313740Y-87471334D01*
X66340098Y-87468500D01*
X69763331Y-87468500D01*
X69763347Y-87468501D01*
X69770943Y-87468501D01*
X69929054Y-87468501D01*
X69929057Y-87468501D01*
X70081785Y-87427577D01*
X70131904Y-87398639D01*
X70218716Y-87348520D01*
X70330520Y-87236716D01*
X70330520Y-87236714D01*
X70340728Y-87226507D01*
X70340729Y-87226504D01*
X71670322Y-85896913D01*
X71731642Y-85863430D01*
X71801334Y-85868414D01*
X71857267Y-85910286D01*
X71881684Y-85975750D01*
X71882000Y-85984596D01*
X71882000Y-105032000D01*
X71862315Y-105099039D01*
X71809511Y-105144794D01*
X71758000Y-105156000D01*
X40602853Y-105156000D01*
X40535814Y-105136315D01*
X40490059Y-105083511D01*
X40478853Y-105032000D01*
X40478853Y-101351248D01*
X19936000Y-101351248D01*
X19868961Y-101331563D01*
X19823206Y-101278759D01*
X19812000Y-101227248D01*
X19812000Y-93122997D01*
X40883323Y-93122997D01*
X40883323Y-93123002D01*
X40902393Y-93340975D01*
X40902393Y-93340979D01*
X40959022Y-93552322D01*
X40959024Y-93552326D01*
X40959025Y-93552330D01*
X41000270Y-93640781D01*
X41051497Y-93750638D01*
X41051498Y-93750639D01*
X41177002Y-93929877D01*
X41331723Y-94084598D01*
X41510961Y-94210102D01*
X41709270Y-94302575D01*
X41920623Y-94359207D01*
X42103526Y-94375208D01*
X42138598Y-94378277D01*
X42138600Y-94378277D01*
X42138602Y-94378277D01*
X42166854Y-94375805D01*
X42356577Y-94359207D01*
X42567930Y-94302575D01*
X42766239Y-94210102D01*
X42945477Y-94084598D01*
X43100198Y-93929877D01*
X43225702Y-93750639D01*
X43318175Y-93552330D01*
X43374807Y-93340977D01*
X43393877Y-93123000D01*
X43374807Y-92905023D01*
X43327346Y-92727896D01*
X43318177Y-92693677D01*
X43318176Y-92693676D01*
X43318175Y-92693670D01*
X43225702Y-92495362D01*
X43225700Y-92495359D01*
X43225699Y-92495357D01*
X43100199Y-92316124D01*
X43036609Y-92252534D01*
X42945477Y-92161402D01*
X42807578Y-92064844D01*
X42766238Y-92035897D01*
X42667084Y-91989661D01*
X42567930Y-91943425D01*
X42567926Y-91943424D01*
X42567922Y-91943422D01*
X42356577Y-91886793D01*
X42138602Y-91867723D01*
X42138598Y-91867723D01*
X41993282Y-91880436D01*
X41920623Y-91886793D01*
X41920620Y-91886793D01*
X41709277Y-91943422D01*
X41709268Y-91943426D01*
X41510961Y-92035898D01*
X41510957Y-92035900D01*
X41331721Y-92161402D01*
X41177002Y-92316121D01*
X41051500Y-92495357D01*
X41051498Y-92495361D01*
X40959026Y-92693668D01*
X40959022Y-92693677D01*
X40902393Y-92905020D01*
X40902393Y-92905024D01*
X40883323Y-93122997D01*
X19812000Y-93122997D01*
X19812000Y-90987805D01*
X28447595Y-90987805D01*
X33454803Y-90987805D01*
X33454803Y-88243000D01*
X40883323Y-88243000D01*
X40898301Y-88414209D01*
X40902393Y-88460975D01*
X40902393Y-88460979D01*
X40959022Y-88672322D01*
X40959024Y-88672326D01*
X40959025Y-88672330D01*
X40984232Y-88726386D01*
X41051497Y-88870638D01*
X41051498Y-88870639D01*
X41177002Y-89049877D01*
X41331723Y-89204598D01*
X41510961Y-89330102D01*
X41709270Y-89422575D01*
X41920623Y-89479207D01*
X42103526Y-89495208D01*
X42138598Y-89498277D01*
X42138600Y-89498277D01*
X42138602Y-89498277D01*
X42166854Y-89495805D01*
X42356577Y-89479207D01*
X42567930Y-89422575D01*
X42766239Y-89330102D01*
X42945477Y-89204598D01*
X43100198Y-89049877D01*
X43225702Y-88870639D01*
X43318175Y-88672330D01*
X43374807Y-88460977D01*
X43393877Y-88243000D01*
X43390941Y-88209446D01*
X43387095Y-88165478D01*
X43374807Y-88025023D01*
X43318175Y-87813670D01*
X43225702Y-87615362D01*
X43225700Y-87615359D01*
X43225699Y-87615357D01*
X43100199Y-87436124D01*
X43031104Y-87367029D01*
X42945477Y-87281402D01*
X42766239Y-87155898D01*
X42766240Y-87155898D01*
X42766238Y-87155897D01*
X42667084Y-87109661D01*
X42567930Y-87063425D01*
X42567926Y-87063424D01*
X42567922Y-87063422D01*
X42356577Y-87006793D01*
X42138602Y-86987723D01*
X42138598Y-86987723D01*
X41993282Y-87000436D01*
X41920623Y-87006793D01*
X41920620Y-87006793D01*
X41709277Y-87063422D01*
X41709268Y-87063426D01*
X41510961Y-87155898D01*
X41510957Y-87155900D01*
X41331721Y-87281402D01*
X41177002Y-87436121D01*
X41051500Y-87615357D01*
X41051498Y-87615361D01*
X40959026Y-87813668D01*
X40959022Y-87813677D01*
X40902393Y-88025020D01*
X40902393Y-88025024D01*
X40886259Y-88209446D01*
X40883323Y-88243000D01*
X33454803Y-88243000D01*
X33454803Y-77628636D01*
X28447595Y-77628636D01*
X28447595Y-90987805D01*
X19812000Y-90987805D01*
X19812000Y-67457713D01*
X21105500Y-67457713D01*
X21105500Y-67670286D01*
X21135597Y-67860315D01*
X21138754Y-67880243D01*
X21202595Y-68076726D01*
X21204444Y-68082414D01*
X21300951Y-68271820D01*
X21425890Y-68443786D01*
X21564705Y-68582601D01*
X21598190Y-68643924D01*
X21593206Y-68713616D01*
X21551334Y-68769549D01*
X21542121Y-68775821D01*
X21387342Y-68871289D01*
X21263289Y-68995342D01*
X21171187Y-69144663D01*
X21171186Y-69144666D01*
X21116001Y-69311203D01*
X21116001Y-69311204D01*
X21116000Y-69311204D01*
X21105500Y-69413983D01*
X21105500Y-70714001D01*
X21105501Y-70714018D01*
X21116000Y-70816796D01*
X21116001Y-70816799D01*
X21158944Y-70946390D01*
X21171186Y-70983334D01*
X21263288Y-71132656D01*
X21387344Y-71256712D01*
X21536666Y-71348814D01*
X21703203Y-71403999D01*
X21805991Y-71414500D01*
X23406008Y-71414499D01*
X23508797Y-71403999D01*
X23675334Y-71348814D01*
X23824656Y-71256712D01*
X23948712Y-71132656D01*
X24040814Y-70983334D01*
X24095999Y-70816797D01*
X24106500Y-70714009D01*
X24106499Y-69413992D01*
X24095999Y-69311203D01*
X24040814Y-69144666D01*
X23948712Y-68995344D01*
X23824656Y-68871288D01*
X23675334Y-68779186D01*
X23675333Y-68779185D01*
X23669878Y-68775821D01*
X23623154Y-68723873D01*
X23611931Y-68654910D01*
X23639775Y-68590828D01*
X23647272Y-68582623D01*
X23786104Y-68443792D01*
X23838400Y-68371813D01*
X23911048Y-68271820D01*
X23911047Y-68271820D01*
X23911051Y-68271816D01*
X23927193Y-68240135D01*
X46051500Y-68240135D01*
X46051500Y-69935870D01*
X46051501Y-69935876D01*
X46057908Y-69995483D01*
X46108202Y-70130328D01*
X46108206Y-70130335D01*
X46194452Y-70245544D01*
X46194455Y-70245547D01*
X46309664Y-70331793D01*
X46309671Y-70331797D01*
X46354618Y-70348561D01*
X46444517Y-70382091D01*
X46481441Y-70386060D01*
X46545989Y-70412796D01*
X46585838Y-70470188D01*
X46588333Y-70540013D01*
X46552681Y-70600102D01*
X46541071Y-70609666D01*
X46504784Y-70636030D01*
X46360028Y-70780786D01*
X46239715Y-70946386D01*
X46146781Y-71128776D01*
X46083522Y-71323465D01*
X46051500Y-71525648D01*
X46051500Y-71730351D01*
X46083522Y-71932534D01*
X46146781Y-72127223D01*
X46239715Y-72309613D01*
X46360028Y-72475213D01*
X46504786Y-72619971D01*
X46612336Y-72698109D01*
X46670390Y-72740287D01*
X46761840Y-72786883D01*
X46763080Y-72787515D01*
X46813876Y-72835490D01*
X46830671Y-72903311D01*
X46808134Y-72969446D01*
X46763080Y-73008485D01*
X46670386Y-73055715D01*
X46504786Y-73176028D01*
X46360028Y-73320786D01*
X46239715Y-73486386D01*
X46146781Y-73668776D01*
X46083522Y-73863465D01*
X46051500Y-74065648D01*
X46051500Y-74270351D01*
X46083522Y-74472534D01*
X46146781Y-74667223D01*
X46239715Y-74849613D01*
X46360028Y-75015213D01*
X46504786Y-75159971D01*
X46659749Y-75272556D01*
X46670390Y-75280287D01*
X46754313Y-75323048D01*
X46763080Y-75327515D01*
X46813876Y-75375490D01*
X46830671Y-75443311D01*
X46808134Y-75509446D01*
X46763080Y-75548485D01*
X46670386Y-75595715D01*
X46504786Y-75716028D01*
X46360028Y-75860786D01*
X46239715Y-76026386D01*
X46146781Y-76208776D01*
X46083522Y-76403465D01*
X46051500Y-76605648D01*
X46051500Y-76810351D01*
X46083522Y-77012534D01*
X46146781Y-77207223D01*
X46239715Y-77389613D01*
X46360028Y-77555213D01*
X46504786Y-77699971D01*
X46659749Y-77812556D01*
X46670390Y-77820287D01*
X46761840Y-77866883D01*
X46763080Y-77867515D01*
X46813876Y-77915490D01*
X46830671Y-77983311D01*
X46808134Y-78049446D01*
X46763080Y-78088485D01*
X46670386Y-78135715D01*
X46504786Y-78256028D01*
X46360028Y-78400786D01*
X46239715Y-78566386D01*
X46146781Y-78748776D01*
X46083522Y-78943465D01*
X46051500Y-79145648D01*
X46051500Y-79350351D01*
X46083522Y-79552534D01*
X46146781Y-79747223D01*
X46239715Y-79929613D01*
X46360028Y-80095213D01*
X46504786Y-80239971D01*
X46644240Y-80341288D01*
X46670390Y-80360287D01*
X46761840Y-80406883D01*
X46763080Y-80407515D01*
X46813876Y-80455490D01*
X46830671Y-80523311D01*
X46808134Y-80589446D01*
X46763080Y-80628485D01*
X46670386Y-80675715D01*
X46504786Y-80796028D01*
X46360028Y-80940786D01*
X46239715Y-81106386D01*
X46146781Y-81288776D01*
X46083522Y-81483465D01*
X46051500Y-81685648D01*
X46051500Y-81890351D01*
X46083522Y-82092534D01*
X46146781Y-82287223D01*
X46205173Y-82401821D01*
X46237484Y-82465236D01*
X46239715Y-82469613D01*
X46360028Y-82635213D01*
X46504786Y-82779971D01*
X46648500Y-82884383D01*
X46670390Y-82900287D01*
X46754392Y-82943088D01*
X46763080Y-82947515D01*
X46813876Y-82995490D01*
X46830671Y-83063311D01*
X46808134Y-83129446D01*
X46763080Y-83168485D01*
X46670386Y-83215715D01*
X46504786Y-83336028D01*
X46360028Y-83480786D01*
X46239715Y-83646386D01*
X46146781Y-83828776D01*
X46083522Y-84023465D01*
X46051500Y-84225648D01*
X46051500Y-84430351D01*
X46083522Y-84632534D01*
X46146781Y-84827223D01*
X46239715Y-85009613D01*
X46360028Y-85175213D01*
X46504786Y-85319971D01*
X46659749Y-85432556D01*
X46670390Y-85440287D01*
X46742424Y-85476990D01*
X46763629Y-85487795D01*
X46814425Y-85535770D01*
X46831220Y-85603591D01*
X46808682Y-85669726D01*
X46763629Y-85708765D01*
X46670650Y-85756140D01*
X46505105Y-85876417D01*
X46505104Y-85876417D01*
X46360417Y-86021104D01*
X46360417Y-86021105D01*
X46240140Y-86186650D01*
X46147244Y-86368970D01*
X46084009Y-86563586D01*
X46075391Y-86618000D01*
X47436314Y-86618000D01*
X47431920Y-86622394D01*
X47379259Y-86713606D01*
X47352000Y-86815339D01*
X47352000Y-86920661D01*
X47379259Y-87022394D01*
X47431920Y-87113606D01*
X47436314Y-87118000D01*
X46075391Y-87118000D01*
X46084009Y-87172413D01*
X46147244Y-87367029D01*
X46240140Y-87549349D01*
X46360417Y-87714894D01*
X46360417Y-87714895D01*
X46505104Y-87859582D01*
X46670652Y-87979861D01*
X46763628Y-88027234D01*
X46814425Y-88075208D01*
X46831220Y-88143029D01*
X46808683Y-88209164D01*
X46763630Y-88248203D01*
X46670388Y-88295713D01*
X46504786Y-88416028D01*
X46360028Y-88560786D01*
X46239715Y-88726386D01*
X46146781Y-88908776D01*
X46083522Y-89103465D01*
X46051500Y-89305648D01*
X46051500Y-89510351D01*
X46083522Y-89712534D01*
X46146781Y-89907223D01*
X46239715Y-90089613D01*
X46360028Y-90255213D01*
X46504786Y-90399971D01*
X46659749Y-90512556D01*
X46670390Y-90520287D01*
X46761840Y-90566883D01*
X46763080Y-90567515D01*
X46813876Y-90615490D01*
X46830671Y-90683311D01*
X46808134Y-90749446D01*
X46763080Y-90788485D01*
X46670386Y-90835715D01*
X46504786Y-90956028D01*
X46360028Y-91100786D01*
X46239715Y-91266386D01*
X46146781Y-91448776D01*
X46083522Y-91643465D01*
X46051500Y-91845648D01*
X46051500Y-92050351D01*
X46083522Y-92252534D01*
X46146781Y-92447223D01*
X46239715Y-92629613D01*
X46360028Y-92795213D01*
X46504786Y-92939971D01*
X46659749Y-93052556D01*
X46670390Y-93060287D01*
X46761840Y-93106883D01*
X46763080Y-93107515D01*
X46813876Y-93155490D01*
X46830671Y-93223311D01*
X46808134Y-93289446D01*
X46763080Y-93328485D01*
X46670386Y-93375715D01*
X46504786Y-93496028D01*
X46360028Y-93640786D01*
X46239715Y-93806386D01*
X46146781Y-93988776D01*
X46083522Y-94183465D01*
X46051500Y-94385648D01*
X46051500Y-94590351D01*
X46083522Y-94792534D01*
X46146781Y-94987223D01*
X46239715Y-95169613D01*
X46360028Y-95335213D01*
X46504786Y-95479971D01*
X46659749Y-95592556D01*
X46670390Y-95600287D01*
X46761840Y-95646883D01*
X46763080Y-95647515D01*
X46813876Y-95695490D01*
X46830671Y-95763311D01*
X46808134Y-95829446D01*
X46763080Y-95868485D01*
X46670386Y-95915715D01*
X46504786Y-96036028D01*
X46360028Y-96180786D01*
X46239715Y-96346386D01*
X46146781Y-96528776D01*
X46083522Y-96723465D01*
X46051500Y-96925648D01*
X46051500Y-97130351D01*
X46083522Y-97332534D01*
X46146781Y-97527223D01*
X46239715Y-97709613D01*
X46360028Y-97875213D01*
X46504786Y-98019971D01*
X46659749Y-98132556D01*
X46670390Y-98140287D01*
X46761840Y-98186883D01*
X46763080Y-98187515D01*
X46813876Y-98235490D01*
X46830671Y-98303311D01*
X46808134Y-98369446D01*
X46763080Y-98408485D01*
X46670386Y-98455715D01*
X46504786Y-98576028D01*
X46360028Y-98720786D01*
X46239715Y-98886386D01*
X46146781Y-99068776D01*
X46083522Y-99263465D01*
X46051500Y-99465648D01*
X46051500Y-99670351D01*
X46083522Y-99872534D01*
X46146781Y-100067223D01*
X46239715Y-100249613D01*
X46360028Y-100415213D01*
X46504786Y-100559971D01*
X46659749Y-100672556D01*
X46670390Y-100680287D01*
X46761840Y-100726883D01*
X46763080Y-100727515D01*
X46813876Y-100775490D01*
X46830671Y-100843311D01*
X46808134Y-100909446D01*
X46763080Y-100948485D01*
X46670386Y-100995715D01*
X46504786Y-101116028D01*
X46360028Y-101260786D01*
X46239715Y-101426386D01*
X46146781Y-101608776D01*
X46083522Y-101803465D01*
X46051500Y-102005648D01*
X46051500Y-102210351D01*
X46083522Y-102412534D01*
X46146781Y-102607223D01*
X46239715Y-102789613D01*
X46360028Y-102955213D01*
X46504786Y-103099971D01*
X46659749Y-103212556D01*
X46670390Y-103220287D01*
X46786607Y-103279503D01*
X46852776Y-103313218D01*
X46852778Y-103313218D01*
X46852781Y-103313220D01*
X46957137Y-103347127D01*
X47047465Y-103376477D01*
X47148557Y-103392488D01*
X47249648Y-103408500D01*
X47249649Y-103408500D01*
X48254351Y-103408500D01*
X48254352Y-103408500D01*
X48456534Y-103376477D01*
X48651219Y-103313220D01*
X48833610Y-103220287D01*
X48926590Y-103152732D01*
X48999213Y-103099971D01*
X48999215Y-103099968D01*
X48999219Y-103099966D01*
X49143966Y-102955219D01*
X49143968Y-102955215D01*
X49143971Y-102955213D01*
X49196732Y-102882590D01*
X49264287Y-102789610D01*
X49357220Y-102607219D01*
X49420477Y-102412534D01*
X49452500Y-102210352D01*
X49452500Y-102005648D01*
X49420477Y-101803466D01*
X49357220Y-101608781D01*
X49357218Y-101608778D01*
X49357218Y-101608776D01*
X49323503Y-101542607D01*
X49264287Y-101426390D01*
X49195392Y-101331563D01*
X49143971Y-101260786D01*
X48999213Y-101116028D01*
X48833614Y-100995715D01*
X48827006Y-100992348D01*
X48740917Y-100948483D01*
X48690123Y-100900511D01*
X48673328Y-100832690D01*
X48695865Y-100766555D01*
X48740917Y-100727516D01*
X48833610Y-100680287D01*
X48854770Y-100664913D01*
X48999213Y-100559971D01*
X48999215Y-100559968D01*
X48999219Y-100559966D01*
X49143966Y-100415219D01*
X49143968Y-100415215D01*
X49143971Y-100415213D01*
X49196732Y-100342590D01*
X49264287Y-100249610D01*
X49357220Y-100067219D01*
X49420477Y-99872534D01*
X49452500Y-99670352D01*
X49452500Y-99465648D01*
X49420477Y-99263466D01*
X49357220Y-99068781D01*
X49357218Y-99068778D01*
X49357218Y-99068776D01*
X49323503Y-99002607D01*
X49264287Y-98886390D01*
X49256556Y-98875749D01*
X49143971Y-98720786D01*
X48999213Y-98576028D01*
X48833614Y-98455715D01*
X48827006Y-98452348D01*
X48740917Y-98408483D01*
X48690123Y-98360511D01*
X48673328Y-98292690D01*
X48695865Y-98226555D01*
X48740917Y-98187516D01*
X48833610Y-98140287D01*
X48854770Y-98124913D01*
X48999213Y-98019971D01*
X48999215Y-98019968D01*
X48999219Y-98019966D01*
X49143966Y-97875219D01*
X49143968Y-97875215D01*
X49143971Y-97875213D01*
X49196732Y-97802590D01*
X49264287Y-97709610D01*
X49357220Y-97527219D01*
X49420477Y-97332534D01*
X49452500Y-97130352D01*
X49452500Y-96925648D01*
X49420477Y-96723466D01*
X49357220Y-96528781D01*
X49357218Y-96528778D01*
X49357218Y-96528776D01*
X49323503Y-96462607D01*
X49264287Y-96346390D01*
X49256556Y-96335749D01*
X49143971Y-96180786D01*
X48999213Y-96036028D01*
X48833614Y-95915715D01*
X48827006Y-95912348D01*
X48740917Y-95868483D01*
X48690123Y-95820511D01*
X48673328Y-95752690D01*
X48695865Y-95686555D01*
X48740917Y-95647516D01*
X48833610Y-95600287D01*
X48854770Y-95584913D01*
X48999213Y-95479971D01*
X48999215Y-95479968D01*
X48999219Y-95479966D01*
X49143966Y-95335219D01*
X49143968Y-95335215D01*
X49143971Y-95335213D01*
X49196732Y-95262590D01*
X49264287Y-95169610D01*
X49357220Y-94987219D01*
X49420477Y-94792534D01*
X49452500Y-94590352D01*
X49452500Y-94385648D01*
X49420477Y-94183466D01*
X49357220Y-93988781D01*
X49357218Y-93988778D01*
X49357218Y-93988776D01*
X49323503Y-93922607D01*
X49264287Y-93806390D01*
X49223782Y-93750639D01*
X49143971Y-93640786D01*
X48999213Y-93496028D01*
X48833614Y-93375715D01*
X48827006Y-93372348D01*
X48740917Y-93328483D01*
X48690123Y-93280511D01*
X48673328Y-93212690D01*
X48695865Y-93146555D01*
X48740917Y-93107516D01*
X48833610Y-93060287D01*
X48854770Y-93044913D01*
X48999213Y-92939971D01*
X48999215Y-92939968D01*
X48999219Y-92939966D01*
X49143966Y-92795219D01*
X49143968Y-92795215D01*
X49143971Y-92795213D01*
X49217745Y-92693670D01*
X49264287Y-92629610D01*
X49357220Y-92447219D01*
X49420477Y-92252534D01*
X49452500Y-92050352D01*
X49452500Y-91845648D01*
X49420477Y-91643466D01*
X49357220Y-91448781D01*
X49357218Y-91448778D01*
X49357218Y-91448776D01*
X49323503Y-91382607D01*
X49264287Y-91266390D01*
X49256556Y-91255749D01*
X49143971Y-91100786D01*
X48999213Y-90956028D01*
X48833614Y-90835715D01*
X48827006Y-90832348D01*
X48740917Y-90788483D01*
X48690123Y-90740511D01*
X48673328Y-90672690D01*
X48695865Y-90606555D01*
X48740917Y-90567516D01*
X48833610Y-90520287D01*
X48854770Y-90504913D01*
X48999213Y-90399971D01*
X48999215Y-90399968D01*
X48999219Y-90399966D01*
X49143966Y-90255219D01*
X49143968Y-90255215D01*
X49143971Y-90255213D01*
X49196732Y-90182590D01*
X49264287Y-90089610D01*
X49357220Y-89907219D01*
X49420477Y-89712534D01*
X49452500Y-89510352D01*
X49452500Y-89305648D01*
X49420477Y-89103466D01*
X49357220Y-88908781D01*
X49357218Y-88908778D01*
X49357218Y-88908776D01*
X49323503Y-88842607D01*
X49264287Y-88726390D01*
X49256556Y-88715749D01*
X49143971Y-88560786D01*
X48999213Y-88416028D01*
X48833611Y-88295713D01*
X48740369Y-88248203D01*
X48689574Y-88200229D01*
X48672779Y-88132407D01*
X48695317Y-88066273D01*
X48740371Y-88027234D01*
X48833347Y-87979861D01*
X48998894Y-87859582D01*
X48998895Y-87859582D01*
X49143582Y-87714895D01*
X49143582Y-87714894D01*
X49263859Y-87549349D01*
X49356755Y-87367029D01*
X49419990Y-87172413D01*
X49428609Y-87118000D01*
X48067686Y-87118000D01*
X48072080Y-87113606D01*
X48124741Y-87022394D01*
X48152000Y-86920661D01*
X48152000Y-86815339D01*
X48124741Y-86713606D01*
X48072080Y-86622394D01*
X48067686Y-86618000D01*
X49428609Y-86618000D01*
X49419990Y-86563586D01*
X49356755Y-86368970D01*
X49263859Y-86186650D01*
X49143582Y-86021105D01*
X49143582Y-86021104D01*
X48998895Y-85876417D01*
X48833349Y-85756140D01*
X48740370Y-85708765D01*
X48689574Y-85660790D01*
X48672779Y-85592969D01*
X48695316Y-85526835D01*
X48740370Y-85487795D01*
X48741471Y-85487234D01*
X48833610Y-85440287D01*
X48854770Y-85424913D01*
X48999213Y-85319971D01*
X48999215Y-85319968D01*
X48999219Y-85319966D01*
X49143966Y-85175219D01*
X49143968Y-85175215D01*
X49143971Y-85175213D01*
X49264284Y-85009614D01*
X49264285Y-85009613D01*
X49264287Y-85009610D01*
X49271117Y-84996204D01*
X49319091Y-84945409D01*
X49381602Y-84928500D01*
X51482943Y-84928500D01*
X51736943Y-84928500D01*
X52023903Y-84928500D01*
X52090942Y-84948185D01*
X52111584Y-84964819D01*
X53659764Y-86512999D01*
X53693249Y-86574322D01*
X53694556Y-86620078D01*
X53671500Y-86765648D01*
X53671500Y-86970351D01*
X53703522Y-87172534D01*
X53766781Y-87367223D01*
X53859715Y-87549613D01*
X53980028Y-87715213D01*
X54124786Y-87859971D01*
X54279749Y-87972556D01*
X54290390Y-87980287D01*
X54378183Y-88025020D01*
X54383080Y-88027515D01*
X54433876Y-88075490D01*
X54450671Y-88143311D01*
X54428134Y-88209446D01*
X54383080Y-88248485D01*
X54290386Y-88295715D01*
X54124786Y-88416028D01*
X53980028Y-88560786D01*
X53859715Y-88726386D01*
X53766781Y-88908776D01*
X53703522Y-89103465D01*
X53671500Y-89305648D01*
X53671500Y-89510351D01*
X53703522Y-89712534D01*
X53766781Y-89907223D01*
X53859715Y-90089613D01*
X53980028Y-90255213D01*
X54124786Y-90399971D01*
X54279749Y-90512556D01*
X54290390Y-90520287D01*
X54381840Y-90566883D01*
X54383080Y-90567515D01*
X54433876Y-90615490D01*
X54450671Y-90683311D01*
X54428134Y-90749446D01*
X54383080Y-90788485D01*
X54290386Y-90835715D01*
X54124786Y-90956028D01*
X53980028Y-91100786D01*
X53859715Y-91266386D01*
X53766781Y-91448776D01*
X53703522Y-91643465D01*
X53671500Y-91845648D01*
X53671500Y-92050351D01*
X53703522Y-92252534D01*
X53766781Y-92447223D01*
X53859715Y-92629613D01*
X53980028Y-92795213D01*
X54124786Y-92939971D01*
X54279749Y-93052556D01*
X54290390Y-93060287D01*
X54381840Y-93106883D01*
X54383080Y-93107515D01*
X54433876Y-93155490D01*
X54450671Y-93223311D01*
X54428134Y-93289446D01*
X54383080Y-93328485D01*
X54290386Y-93375715D01*
X54124786Y-93496028D01*
X53980028Y-93640786D01*
X53859715Y-93806386D01*
X53766781Y-93988776D01*
X53703522Y-94183465D01*
X53671500Y-94385648D01*
X53671500Y-94590351D01*
X53703522Y-94792534D01*
X53766781Y-94987223D01*
X53859715Y-95169613D01*
X53980028Y-95335213D01*
X54124786Y-95479971D01*
X54279749Y-95592556D01*
X54290390Y-95600287D01*
X54381840Y-95646883D01*
X54383080Y-95647515D01*
X54433876Y-95695490D01*
X54450671Y-95763311D01*
X54428134Y-95829446D01*
X54383080Y-95868485D01*
X54290386Y-95915715D01*
X54124786Y-96036028D01*
X53980028Y-96180786D01*
X53859715Y-96346386D01*
X53766781Y-96528776D01*
X53703522Y-96723465D01*
X53671500Y-96925648D01*
X53671500Y-97130351D01*
X53703522Y-97332534D01*
X53766781Y-97527223D01*
X53859715Y-97709613D01*
X53980028Y-97875213D01*
X54124786Y-98019971D01*
X54279749Y-98132556D01*
X54290390Y-98140287D01*
X54381840Y-98186883D01*
X54383080Y-98187515D01*
X54433876Y-98235490D01*
X54450671Y-98303311D01*
X54428134Y-98369446D01*
X54383080Y-98408485D01*
X54290386Y-98455715D01*
X54124786Y-98576028D01*
X53980028Y-98720786D01*
X53859715Y-98886386D01*
X53766781Y-99068776D01*
X53703522Y-99263465D01*
X53671500Y-99465648D01*
X53671500Y-99670351D01*
X53703522Y-99872534D01*
X53766781Y-100067223D01*
X53859715Y-100249613D01*
X53980028Y-100415213D01*
X54124786Y-100559971D01*
X54279749Y-100672556D01*
X54290390Y-100680287D01*
X54381840Y-100726883D01*
X54383080Y-100727515D01*
X54433876Y-100775490D01*
X54450671Y-100843311D01*
X54428134Y-100909446D01*
X54383080Y-100948485D01*
X54290386Y-100995715D01*
X54124786Y-101116028D01*
X53980028Y-101260786D01*
X53859715Y-101426386D01*
X53766781Y-101608776D01*
X53703522Y-101803465D01*
X53671500Y-102005648D01*
X53671500Y-102210351D01*
X53703522Y-102412534D01*
X53766781Y-102607223D01*
X53859715Y-102789613D01*
X53980028Y-102955213D01*
X54124786Y-103099971D01*
X54279749Y-103212556D01*
X54290390Y-103220287D01*
X54406607Y-103279503D01*
X54472776Y-103313218D01*
X54472778Y-103313218D01*
X54472781Y-103313220D01*
X54577137Y-103347127D01*
X54667465Y-103376477D01*
X54768557Y-103392488D01*
X54869648Y-103408500D01*
X54869649Y-103408500D01*
X55874351Y-103408500D01*
X55874352Y-103408500D01*
X56076534Y-103376477D01*
X56271219Y-103313220D01*
X56453610Y-103220287D01*
X56546590Y-103152732D01*
X56619213Y-103099971D01*
X56619215Y-103099968D01*
X56619219Y-103099966D01*
X56763966Y-102955219D01*
X56763968Y-102955215D01*
X56763971Y-102955213D01*
X56816732Y-102882590D01*
X56884287Y-102789610D01*
X56977220Y-102607219D01*
X57040477Y-102412534D01*
X57072500Y-102210352D01*
X57072500Y-102005648D01*
X57040477Y-101803466D01*
X56977220Y-101608781D01*
X56977218Y-101608778D01*
X56977218Y-101608776D01*
X56943503Y-101542607D01*
X56884287Y-101426390D01*
X56815392Y-101331563D01*
X56763971Y-101260786D01*
X56619213Y-101116028D01*
X56453614Y-100995715D01*
X56447006Y-100992348D01*
X56360917Y-100948483D01*
X56310123Y-100900511D01*
X56293328Y-100832690D01*
X56315865Y-100766555D01*
X56360917Y-100727516D01*
X56453610Y-100680287D01*
X56474770Y-100664913D01*
X56619213Y-100559971D01*
X56619215Y-100559968D01*
X56619219Y-100559966D01*
X56763966Y-100415219D01*
X56763968Y-100415215D01*
X56763971Y-100415213D01*
X56816732Y-100342590D01*
X56884287Y-100249610D01*
X56977220Y-100067219D01*
X57040477Y-99872534D01*
X57072500Y-99670352D01*
X57072500Y-99465648D01*
X57040477Y-99263466D01*
X56977220Y-99068781D01*
X56977218Y-99068778D01*
X56977218Y-99068776D01*
X56943503Y-99002607D01*
X56884287Y-98886390D01*
X56876556Y-98875749D01*
X56763971Y-98720786D01*
X56619213Y-98576028D01*
X56453614Y-98455715D01*
X56447006Y-98452348D01*
X56360917Y-98408483D01*
X56310123Y-98360511D01*
X56293328Y-98292690D01*
X56315865Y-98226555D01*
X56360917Y-98187516D01*
X56453610Y-98140287D01*
X56474770Y-98124913D01*
X56619213Y-98019971D01*
X56619215Y-98019968D01*
X56619219Y-98019966D01*
X56763966Y-97875219D01*
X56763968Y-97875215D01*
X56763971Y-97875213D01*
X56816732Y-97802590D01*
X56884287Y-97709610D01*
X56977220Y-97527219D01*
X57040477Y-97332534D01*
X57072500Y-97130352D01*
X57072500Y-96925648D01*
X57040477Y-96723466D01*
X56977220Y-96528781D01*
X56977218Y-96528778D01*
X56977218Y-96528776D01*
X56943503Y-96462607D01*
X56884287Y-96346390D01*
X56876556Y-96335749D01*
X56763971Y-96180786D01*
X56619213Y-96036028D01*
X56453614Y-95915715D01*
X56447006Y-95912348D01*
X56360917Y-95868483D01*
X56310123Y-95820511D01*
X56293328Y-95752690D01*
X56315865Y-95686555D01*
X56360917Y-95647516D01*
X56453610Y-95600287D01*
X56474770Y-95584913D01*
X56619213Y-95479971D01*
X56619215Y-95479968D01*
X56619219Y-95479966D01*
X56763966Y-95335219D01*
X56763968Y-95335215D01*
X56763971Y-95335213D01*
X56816732Y-95262590D01*
X56884287Y-95169610D01*
X56977220Y-94987219D01*
X57040477Y-94792534D01*
X57072500Y-94590352D01*
X57072500Y-94385648D01*
X57040477Y-94183466D01*
X56977220Y-93988781D01*
X56977218Y-93988778D01*
X56977218Y-93988776D01*
X56943503Y-93922607D01*
X56884287Y-93806390D01*
X56843782Y-93750639D01*
X56763971Y-93640786D01*
X56619213Y-93496028D01*
X56453614Y-93375715D01*
X56447006Y-93372348D01*
X56360917Y-93328483D01*
X56310123Y-93280511D01*
X56293328Y-93212690D01*
X56315865Y-93146555D01*
X56360917Y-93107516D01*
X56453610Y-93060287D01*
X56474770Y-93044913D01*
X56619213Y-92939971D01*
X56619215Y-92939968D01*
X56619219Y-92939966D01*
X56763966Y-92795219D01*
X56763968Y-92795215D01*
X56763971Y-92795213D01*
X56837745Y-92693670D01*
X56884287Y-92629610D01*
X56977220Y-92447219D01*
X57040477Y-92252534D01*
X57072500Y-92050352D01*
X57072500Y-91845648D01*
X57040477Y-91643466D01*
X56977220Y-91448781D01*
X56977218Y-91448778D01*
X56977218Y-91448776D01*
X56943503Y-91382607D01*
X56884287Y-91266390D01*
X56876556Y-91255749D01*
X56763971Y-91100786D01*
X56619213Y-90956028D01*
X56453614Y-90835715D01*
X56447006Y-90832348D01*
X56360917Y-90788483D01*
X56310123Y-90740511D01*
X56293328Y-90672690D01*
X56315865Y-90606555D01*
X56360917Y-90567516D01*
X56453610Y-90520287D01*
X56474770Y-90504913D01*
X56619213Y-90399971D01*
X56619215Y-90399968D01*
X56619219Y-90399966D01*
X56763966Y-90255219D01*
X56763968Y-90255215D01*
X56763971Y-90255213D01*
X56816732Y-90182590D01*
X56884287Y-90089610D01*
X56977220Y-89907219D01*
X57040477Y-89712534D01*
X57072500Y-89510352D01*
X57072500Y-89305648D01*
X57040477Y-89103466D01*
X56977220Y-88908781D01*
X56977218Y-88908778D01*
X56977218Y-88908776D01*
X56943503Y-88842607D01*
X56884287Y-88726390D01*
X56876556Y-88715749D01*
X56763971Y-88560786D01*
X56619213Y-88416028D01*
X56453614Y-88295715D01*
X56417437Y-88277282D01*
X56360917Y-88248483D01*
X56310123Y-88200511D01*
X56293328Y-88132690D01*
X56315865Y-88066555D01*
X56360917Y-88027516D01*
X56453610Y-87980287D01*
X56474770Y-87964913D01*
X56619213Y-87859971D01*
X56619215Y-87859968D01*
X56619219Y-87859966D01*
X56763966Y-87715219D01*
X56763968Y-87715215D01*
X56763971Y-87715213D01*
X56836519Y-87615357D01*
X56884287Y-87549610D01*
X56977220Y-87367219D01*
X57040477Y-87172534D01*
X57072500Y-86970352D01*
X57072500Y-86765648D01*
X57064257Y-86713606D01*
X57040477Y-86563465D01*
X56983296Y-86387481D01*
X56977220Y-86368781D01*
X56977218Y-86368778D01*
X56977218Y-86368776D01*
X56943503Y-86302607D01*
X56884287Y-86186390D01*
X56876556Y-86175749D01*
X56763971Y-86020786D01*
X56619213Y-85876028D01*
X56453611Y-85755713D01*
X56360369Y-85708203D01*
X56309574Y-85660229D01*
X56292779Y-85592407D01*
X56315317Y-85526273D01*
X56360371Y-85487234D01*
X56453347Y-85439861D01*
X56618894Y-85319582D01*
X56618895Y-85319582D01*
X56763582Y-85174895D01*
X56763582Y-85174894D01*
X56883859Y-85009349D01*
X56976755Y-84827029D01*
X57039990Y-84632413D01*
X57048609Y-84578000D01*
X55687686Y-84578000D01*
X55692080Y-84573606D01*
X55744741Y-84482394D01*
X55772000Y-84380661D01*
X55772000Y-84275339D01*
X55744741Y-84173606D01*
X55692080Y-84082394D01*
X55687686Y-84078000D01*
X57048609Y-84078000D01*
X57039990Y-84023586D01*
X56976755Y-83828970D01*
X56883859Y-83646650D01*
X56763582Y-83481105D01*
X56763582Y-83481104D01*
X56618895Y-83336417D01*
X56453349Y-83216140D01*
X56360370Y-83168765D01*
X56309574Y-83120790D01*
X56292779Y-83052969D01*
X56315316Y-82986835D01*
X56360370Y-82947795D01*
X56369608Y-82943088D01*
X56453610Y-82900287D01*
X56475500Y-82884383D01*
X56619213Y-82779971D01*
X56619215Y-82779968D01*
X56619219Y-82779966D01*
X56763966Y-82635219D01*
X56763968Y-82635215D01*
X56763971Y-82635213D01*
X56816732Y-82562590D01*
X56884287Y-82469610D01*
X56977220Y-82287219D01*
X57040477Y-82092534D01*
X57072500Y-81890352D01*
X57072500Y-81685648D01*
X57070542Y-81673284D01*
X57040477Y-81483465D01*
X56977218Y-81288776D01*
X56939342Y-81214442D01*
X56884287Y-81106390D01*
X56845846Y-81053480D01*
X56763971Y-80940786D01*
X56619213Y-80796028D01*
X56453614Y-80675715D01*
X56447006Y-80672348D01*
X56360917Y-80628483D01*
X56310123Y-80580511D01*
X56293328Y-80512690D01*
X56315865Y-80446555D01*
X56360917Y-80407516D01*
X56453610Y-80360287D01*
X56479760Y-80341288D01*
X56619213Y-80239971D01*
X56619215Y-80239968D01*
X56619219Y-80239966D01*
X56763966Y-80095219D01*
X56763968Y-80095215D01*
X56763971Y-80095213D01*
X56829706Y-80004735D01*
X56884287Y-79929610D01*
X56977220Y-79747219D01*
X57040477Y-79552534D01*
X57072500Y-79350352D01*
X57072500Y-79145648D01*
X57040477Y-78943466D01*
X56977220Y-78748781D01*
X56977218Y-78748778D01*
X56977218Y-78748776D01*
X56943503Y-78682607D01*
X56884287Y-78566390D01*
X56876556Y-78555749D01*
X56763971Y-78400786D01*
X56619213Y-78256028D01*
X56453614Y-78135715D01*
X56447006Y-78132348D01*
X56360917Y-78088483D01*
X56310123Y-78040511D01*
X56293328Y-77972690D01*
X56315865Y-77906555D01*
X56360917Y-77867516D01*
X56453610Y-77820287D01*
X56474770Y-77804913D01*
X56619213Y-77699971D01*
X56619215Y-77699968D01*
X56619219Y-77699966D01*
X56763966Y-77555219D01*
X56763968Y-77555215D01*
X56763971Y-77555213D01*
X56816732Y-77482590D01*
X56884287Y-77389610D01*
X56977220Y-77207219D01*
X57040477Y-77012534D01*
X57072500Y-76810352D01*
X57072500Y-76605648D01*
X57040477Y-76403466D01*
X56977220Y-76208781D01*
X56977218Y-76208778D01*
X56977218Y-76208776D01*
X56943503Y-76142607D01*
X56884287Y-76026390D01*
X56876556Y-76015749D01*
X56763971Y-75860786D01*
X56619213Y-75716028D01*
X56453614Y-75595715D01*
X56447006Y-75592348D01*
X56360917Y-75548483D01*
X56310123Y-75500511D01*
X56293328Y-75432690D01*
X56315865Y-75366555D01*
X56360917Y-75327516D01*
X56453610Y-75280287D01*
X56474770Y-75264913D01*
X56619213Y-75159971D01*
X56619215Y-75159968D01*
X56619219Y-75159966D01*
X56763966Y-75015219D01*
X56763968Y-75015215D01*
X56763971Y-75015213D01*
X56865247Y-74875816D01*
X56884287Y-74849610D01*
X56977220Y-74667219D01*
X57040477Y-74472534D01*
X57072500Y-74270352D01*
X57072500Y-74065648D01*
X57071877Y-74061713D01*
X57040477Y-73863465D01*
X56977218Y-73668776D01*
X56943503Y-73602607D01*
X56884287Y-73486390D01*
X56876556Y-73475749D01*
X56763971Y-73320786D01*
X56619213Y-73176028D01*
X56453614Y-73055715D01*
X56380218Y-73018318D01*
X56360917Y-73008483D01*
X56310123Y-72960511D01*
X56293328Y-72892690D01*
X56315865Y-72826555D01*
X56360917Y-72787516D01*
X56453610Y-72740287D01*
X56511669Y-72698105D01*
X56619213Y-72619971D01*
X56619215Y-72619968D01*
X56619219Y-72619966D01*
X56763966Y-72475219D01*
X56763968Y-72475215D01*
X56763971Y-72475213D01*
X56852190Y-72353788D01*
X56884287Y-72309610D01*
X56977220Y-72127219D01*
X57040477Y-71932534D01*
X57072500Y-71730352D01*
X57072500Y-71525648D01*
X57054896Y-71414500D01*
X57040477Y-71323465D01*
X57011127Y-71233137D01*
X56977220Y-71128781D01*
X56977218Y-71128778D01*
X56977218Y-71128776D01*
X56943503Y-71062607D01*
X56884287Y-70946390D01*
X56876556Y-70935749D01*
X56763971Y-70780786D01*
X56619213Y-70636028D01*
X56453614Y-70515715D01*
X56431446Y-70504420D01*
X56360917Y-70468483D01*
X56310123Y-70420511D01*
X56293328Y-70352690D01*
X56315865Y-70286555D01*
X56360917Y-70247516D01*
X56453610Y-70200287D01*
X56522691Y-70150097D01*
X56619213Y-70079971D01*
X56619215Y-70079968D01*
X56619219Y-70079966D01*
X56763966Y-69935219D01*
X56763968Y-69935215D01*
X56763971Y-69935213D01*
X56816732Y-69862590D01*
X56884287Y-69769610D01*
X56977220Y-69587219D01*
X57040477Y-69392534D01*
X57072500Y-69190352D01*
X57072500Y-68985648D01*
X57042983Y-68799286D01*
X57040477Y-68783465D01*
X57009289Y-68687479D01*
X56977220Y-68588781D01*
X56977218Y-68588778D01*
X56977218Y-68588776D01*
X56931879Y-68499795D01*
X56884287Y-68406390D01*
X56859166Y-68371813D01*
X56763971Y-68240786D01*
X56619213Y-68096028D01*
X56453613Y-67975715D01*
X56453612Y-67975714D01*
X56453610Y-67975713D01*
X56396653Y-67946691D01*
X56271223Y-67882781D01*
X56076534Y-67819522D01*
X55901995Y-67791878D01*
X55874352Y-67787500D01*
X54869648Y-67787500D01*
X54845329Y-67791351D01*
X54667465Y-67819522D01*
X54472776Y-67882781D01*
X54290386Y-67975715D01*
X54124786Y-68096028D01*
X53980028Y-68240786D01*
X53859715Y-68406386D01*
X53766781Y-68588776D01*
X53703522Y-68783465D01*
X53671500Y-68985648D01*
X53671500Y-69190351D01*
X53703522Y-69392534D01*
X53766781Y-69587223D01*
X53830691Y-69712653D01*
X53859147Y-69768500D01*
X53859715Y-69769613D01*
X53980028Y-69935213D01*
X54124786Y-70079971D01*
X54279749Y-70192556D01*
X54290390Y-70200287D01*
X54379212Y-70245544D01*
X54383080Y-70247515D01*
X54433876Y-70295490D01*
X54450671Y-70363311D01*
X54428134Y-70429446D01*
X54383080Y-70468485D01*
X54290386Y-70515715D01*
X54124786Y-70636028D01*
X53980028Y-70780786D01*
X53859715Y-70946386D01*
X53766781Y-71128776D01*
X53703522Y-71323465D01*
X53671500Y-71525648D01*
X53671500Y-71730351D01*
X53703522Y-71932534D01*
X53766781Y-72127223D01*
X53859715Y-72309613D01*
X53980028Y-72475213D01*
X54124786Y-72619971D01*
X54232336Y-72698109D01*
X54290390Y-72740287D01*
X54381840Y-72786883D01*
X54383080Y-72787515D01*
X54433876Y-72835490D01*
X54450671Y-72903311D01*
X54428134Y-72969446D01*
X54383080Y-73008485D01*
X54290386Y-73055715D01*
X54124786Y-73176028D01*
X53980028Y-73320786D01*
X53859715Y-73486386D01*
X53766781Y-73668776D01*
X53703522Y-73863465D01*
X53671500Y-74065648D01*
X53671500Y-74270351D01*
X53703522Y-74472534D01*
X53766781Y-74667223D01*
X53859715Y-74849613D01*
X53980028Y-75015213D01*
X54124786Y-75159971D01*
X54279749Y-75272556D01*
X54290390Y-75280287D01*
X54374313Y-75323048D01*
X54383080Y-75327515D01*
X54433876Y-75375490D01*
X54450671Y-75443311D01*
X54428134Y-75509446D01*
X54383080Y-75548485D01*
X54290386Y-75595715D01*
X54124786Y-75716028D01*
X53980028Y-75860786D01*
X53859715Y-76026386D01*
X53766781Y-76208776D01*
X53703522Y-76403465D01*
X53671500Y-76605648D01*
X53671500Y-76810351D01*
X53703522Y-77012534D01*
X53766781Y-77207223D01*
X53859715Y-77389613D01*
X53980028Y-77555213D01*
X54124786Y-77699971D01*
X54279749Y-77812556D01*
X54290390Y-77820287D01*
X54381840Y-77866883D01*
X54383080Y-77867515D01*
X54433876Y-77915490D01*
X54450671Y-77983311D01*
X54428134Y-78049446D01*
X54383080Y-78088485D01*
X54290386Y-78135715D01*
X54124786Y-78256028D01*
X53980028Y-78400786D01*
X53859715Y-78566386D01*
X53766781Y-78748776D01*
X53703522Y-78943465D01*
X53671500Y-79145648D01*
X53671500Y-79350351D01*
X53703522Y-79552534D01*
X53766781Y-79747223D01*
X53859715Y-79929613D01*
X53980028Y-80095213D01*
X54124786Y-80239971D01*
X54264240Y-80341288D01*
X54290390Y-80360287D01*
X54381840Y-80406883D01*
X54383080Y-80407515D01*
X54433876Y-80455490D01*
X54450671Y-80523311D01*
X54428134Y-80589446D01*
X54383080Y-80628485D01*
X54290386Y-80675715D01*
X54124786Y-80796028D01*
X53980028Y-80940786D01*
X53859715Y-81106386D01*
X53766781Y-81288776D01*
X53703522Y-81483465D01*
X53671500Y-81685648D01*
X53671500Y-81890351D01*
X53703522Y-82092534D01*
X53766781Y-82287223D01*
X53825173Y-82401821D01*
X53857484Y-82465236D01*
X53859715Y-82469613D01*
X53980028Y-82635213D01*
X54124786Y-82779971D01*
X54268500Y-82884383D01*
X54290390Y-82900287D01*
X54362424Y-82936990D01*
X54383629Y-82947795D01*
X54434425Y-82995770D01*
X54451220Y-83063591D01*
X54428682Y-83129726D01*
X54383629Y-83168765D01*
X54290650Y-83216140D01*
X54125105Y-83336417D01*
X54125104Y-83336417D01*
X53980417Y-83481104D01*
X53980417Y-83481105D01*
X53860140Y-83646650D01*
X53767244Y-83828970D01*
X53704009Y-84023586D01*
X53695391Y-84078000D01*
X55056314Y-84078000D01*
X55051920Y-84082394D01*
X54999259Y-84173606D01*
X54972000Y-84275339D01*
X54972000Y-84380661D01*
X54999259Y-84482394D01*
X55051920Y-84573606D01*
X55056314Y-84578000D01*
X53695390Y-84578000D01*
X53658265Y-84621468D01*
X53656135Y-84619649D01*
X53632945Y-84647192D01*
X53566192Y-84667825D01*
X53498880Y-84649092D01*
X53476753Y-84631518D01*
X52811590Y-83966355D01*
X52811588Y-83966352D01*
X52692717Y-83847481D01*
X52692716Y-83847480D01*
X52605904Y-83797360D01*
X52605904Y-83797359D01*
X52605900Y-83797358D01*
X52555785Y-83768423D01*
X52403057Y-83727499D01*
X52286500Y-83727499D01*
X52219461Y-83707814D01*
X52173706Y-83655010D01*
X52162500Y-83603499D01*
X52162500Y-67018500D01*
X52182185Y-66951461D01*
X52234989Y-66905706D01*
X52286500Y-66894500D01*
X54281588Y-66894500D01*
X54348627Y-66914185D01*
X54358903Y-66921555D01*
X54361736Y-66923814D01*
X54361738Y-66923816D01*
X54405735Y-66951461D01*
X54512426Y-67018500D01*
X54514478Y-67019789D01*
X54595372Y-67048095D01*
X54684745Y-67079368D01*
X54684750Y-67079369D01*
X54863996Y-67099565D01*
X54864000Y-67099565D01*
X54864004Y-67099565D01*
X55043249Y-67079369D01*
X55043252Y-67079368D01*
X55043255Y-67079368D01*
X55213522Y-67019789D01*
X55366262Y-66923816D01*
X55493816Y-66796262D01*
X55589789Y-66643522D01*
X55649368Y-66473255D01*
X55655594Y-66418000D01*
X55669565Y-66294003D01*
X55669565Y-66293996D01*
X55649369Y-66114750D01*
X55649368Y-66114745D01*
X55589788Y-65944476D01*
X55493815Y-65791737D01*
X55366262Y-65664184D01*
X55213523Y-65568211D01*
X55043254Y-65508631D01*
X55043249Y-65508630D01*
X54864004Y-65488435D01*
X54863996Y-65488435D01*
X54684750Y-65508630D01*
X54684745Y-65508631D01*
X54514476Y-65568211D01*
X54361736Y-65664185D01*
X54358903Y-65666445D01*
X54356724Y-65667334D01*
X54355842Y-65667889D01*
X54355744Y-65667734D01*
X54294217Y-65692855D01*
X54281588Y-65693500D01*
X52144412Y-65693500D01*
X52077373Y-65673815D01*
X52067097Y-65666445D01*
X52064263Y-65664185D01*
X52064262Y-65664184D01*
X52007496Y-65628515D01*
X51911523Y-65568211D01*
X51741254Y-65508631D01*
X51741249Y-65508630D01*
X51562004Y-65488435D01*
X51561996Y-65488435D01*
X51382750Y-65508630D01*
X51382745Y-65508631D01*
X51212476Y-65568211D01*
X51059737Y-65664184D01*
X50932184Y-65791737D01*
X50836211Y-65944476D01*
X50776631Y-66114745D01*
X50776630Y-66114750D01*
X50756435Y-66293996D01*
X50756435Y-66294003D01*
X50776630Y-66473249D01*
X50776631Y-66473254D01*
X50836211Y-66643523D01*
X50932185Y-66796263D01*
X50934445Y-66799097D01*
X50935334Y-66801275D01*
X50935889Y-66802158D01*
X50935734Y-66802255D01*
X50960855Y-66863783D01*
X50961500Y-66876412D01*
X50961500Y-83603500D01*
X50941815Y-83670539D01*
X50889011Y-83716294D01*
X50837500Y-83727500D01*
X49381602Y-83727500D01*
X49314563Y-83707815D01*
X49271117Y-83659795D01*
X49264284Y-83646385D01*
X49143971Y-83480786D01*
X48999213Y-83336028D01*
X48833614Y-83215715D01*
X48827006Y-83212348D01*
X48740917Y-83168483D01*
X48690123Y-83120511D01*
X48673328Y-83052690D01*
X48695865Y-82986555D01*
X48740917Y-82947516D01*
X48833610Y-82900287D01*
X48855500Y-82884383D01*
X48999213Y-82779971D01*
X48999215Y-82779968D01*
X48999219Y-82779966D01*
X49143966Y-82635219D01*
X49143968Y-82635215D01*
X49143971Y-82635213D01*
X49196732Y-82562590D01*
X49264287Y-82469610D01*
X49357220Y-82287219D01*
X49420477Y-82092534D01*
X49452500Y-81890352D01*
X49452500Y-81685648D01*
X49450542Y-81673284D01*
X49420477Y-81483465D01*
X49357218Y-81288776D01*
X49319342Y-81214442D01*
X49264287Y-81106390D01*
X49225846Y-81053480D01*
X49143971Y-80940786D01*
X48999213Y-80796028D01*
X48833614Y-80675715D01*
X48827006Y-80672348D01*
X48740917Y-80628483D01*
X48690123Y-80580511D01*
X48673328Y-80512690D01*
X48695865Y-80446555D01*
X48740917Y-80407516D01*
X48833610Y-80360287D01*
X48859760Y-80341288D01*
X48999213Y-80239971D01*
X48999215Y-80239968D01*
X48999219Y-80239966D01*
X49143966Y-80095219D01*
X49143968Y-80095215D01*
X49143971Y-80095213D01*
X49209706Y-80004735D01*
X49264287Y-79929610D01*
X49357220Y-79747219D01*
X49420477Y-79552534D01*
X49452500Y-79350352D01*
X49452500Y-79145648D01*
X49420477Y-78943466D01*
X49357220Y-78748781D01*
X49357218Y-78748778D01*
X49357218Y-78748776D01*
X49323503Y-78682607D01*
X49264287Y-78566390D01*
X49256556Y-78555749D01*
X49143971Y-78400786D01*
X48999213Y-78256028D01*
X48833614Y-78135715D01*
X48827006Y-78132348D01*
X48740917Y-78088483D01*
X48690123Y-78040511D01*
X48673328Y-77972690D01*
X48695865Y-77906555D01*
X48740917Y-77867516D01*
X48833610Y-77820287D01*
X48854770Y-77804913D01*
X48999213Y-77699971D01*
X48999215Y-77699968D01*
X48999219Y-77699966D01*
X49143966Y-77555219D01*
X49143968Y-77555215D01*
X49143971Y-77555213D01*
X49196732Y-77482590D01*
X49264287Y-77389610D01*
X49357220Y-77207219D01*
X49420477Y-77012534D01*
X49452500Y-76810352D01*
X49452500Y-76605648D01*
X49420477Y-76403466D01*
X49357220Y-76208781D01*
X49357218Y-76208778D01*
X49357218Y-76208776D01*
X49323503Y-76142607D01*
X49264287Y-76026390D01*
X49256556Y-76015749D01*
X49143971Y-75860786D01*
X48999213Y-75716028D01*
X48833614Y-75595715D01*
X48827006Y-75592348D01*
X48740917Y-75548483D01*
X48690123Y-75500511D01*
X48673328Y-75432690D01*
X48695865Y-75366555D01*
X48740917Y-75327516D01*
X48833610Y-75280287D01*
X48854770Y-75264913D01*
X48999213Y-75159971D01*
X48999215Y-75159968D01*
X48999219Y-75159966D01*
X49143966Y-75015219D01*
X49143968Y-75015215D01*
X49143971Y-75015213D01*
X49245247Y-74875816D01*
X49264287Y-74849610D01*
X49357220Y-74667219D01*
X49420477Y-74472534D01*
X49452500Y-74270352D01*
X49452500Y-74065648D01*
X49451877Y-74061713D01*
X49420477Y-73863465D01*
X49357218Y-73668776D01*
X49323503Y-73602607D01*
X49264287Y-73486390D01*
X49256556Y-73475749D01*
X49143971Y-73320786D01*
X48999213Y-73176028D01*
X48833614Y-73055715D01*
X48760218Y-73018318D01*
X48740917Y-73008483D01*
X48690123Y-72960511D01*
X48673328Y-72892690D01*
X48695865Y-72826555D01*
X48740917Y-72787516D01*
X48833610Y-72740287D01*
X48891669Y-72698105D01*
X48999213Y-72619971D01*
X48999215Y-72619968D01*
X48999219Y-72619966D01*
X49143966Y-72475219D01*
X49143968Y-72475215D01*
X49143971Y-72475213D01*
X49232190Y-72353788D01*
X49264287Y-72309610D01*
X49357220Y-72127219D01*
X49420477Y-71932534D01*
X49452500Y-71730352D01*
X49452500Y-71525648D01*
X49434896Y-71414500D01*
X49420477Y-71323465D01*
X49391127Y-71233137D01*
X49357220Y-71128781D01*
X49357218Y-71128778D01*
X49357218Y-71128776D01*
X49323503Y-71062607D01*
X49264287Y-70946390D01*
X49256556Y-70935749D01*
X49143971Y-70780786D01*
X48999219Y-70636034D01*
X48962930Y-70609669D01*
X48920264Y-70554339D01*
X48914285Y-70484726D01*
X48946890Y-70422931D01*
X49007728Y-70388573D01*
X49022562Y-70386060D01*
X49059483Y-70382091D01*
X49194328Y-70331797D01*
X49194327Y-70331797D01*
X49194331Y-70331796D01*
X49309546Y-70245546D01*
X49395796Y-70130331D01*
X49446091Y-69995483D01*
X49452500Y-69935873D01*
X49452499Y-68240128D01*
X49446091Y-68180517D01*
X49430194Y-68137896D01*
X49395797Y-68045671D01*
X49395793Y-68045664D01*
X49309547Y-67930455D01*
X49309544Y-67930452D01*
X49194335Y-67844206D01*
X49194328Y-67844202D01*
X49059482Y-67793908D01*
X49059483Y-67793908D01*
X48999883Y-67787501D01*
X48999881Y-67787500D01*
X48999873Y-67787500D01*
X48999864Y-67787500D01*
X46504129Y-67787500D01*
X46504123Y-67787501D01*
X46444516Y-67793908D01*
X46309671Y-67844202D01*
X46309664Y-67844206D01*
X46194455Y-67930452D01*
X46194452Y-67930455D01*
X46108206Y-68045664D01*
X46108202Y-68045671D01*
X46057908Y-68180517D01*
X46051501Y-68240116D01*
X46051501Y-68240123D01*
X46051500Y-68240135D01*
X23927193Y-68240135D01*
X24007557Y-68082412D01*
X24073246Y-67880243D01*
X24106500Y-67670287D01*
X24106500Y-67457713D01*
X24073246Y-67247757D01*
X24007557Y-67045588D01*
X23911051Y-66856184D01*
X23911049Y-66856181D01*
X23911048Y-66856179D01*
X23786109Y-66684213D01*
X23635786Y-66533890D01*
X23463820Y-66408951D01*
X23274414Y-66312444D01*
X23274413Y-66312443D01*
X23274412Y-66312443D01*
X23072243Y-66246754D01*
X23072241Y-66246753D01*
X23072240Y-66246753D01*
X22910957Y-66221208D01*
X22862287Y-66213500D01*
X22349713Y-66213500D01*
X22301042Y-66221208D01*
X22139760Y-66246753D01*
X21937585Y-66312444D01*
X21748179Y-66408951D01*
X21576213Y-66533890D01*
X21425890Y-66684213D01*
X21300951Y-66856179D01*
X21204444Y-67045585D01*
X21204443Y-67045587D01*
X21204443Y-67045588D01*
X21193467Y-67079368D01*
X21138753Y-67247760D01*
X21105500Y-67457713D01*
X19812000Y-67457713D01*
X19812000Y-63370000D01*
X19831685Y-63302961D01*
X19884489Y-63257206D01*
X19936000Y-63246000D01*
X53086000Y-63246000D01*
X53086000Y-54329713D01*
X67866500Y-54329713D01*
X67866500Y-54542286D01*
X67899753Y-54752239D01*
X67965444Y-54954414D01*
X68061951Y-55143820D01*
X68186890Y-55315786D01*
X68337209Y-55466105D01*
X68337214Y-55466109D01*
X68501793Y-55585682D01*
X68544459Y-55641011D01*
X68550438Y-55710625D01*
X68517833Y-55772420D01*
X68501793Y-55786318D01*
X68337214Y-55905890D01*
X68337209Y-55905894D01*
X68186890Y-56056213D01*
X68061951Y-56228179D01*
X67965444Y-56417585D01*
X67899753Y-56619760D01*
X67866500Y-56829713D01*
X67866500Y-57042286D01*
X67899753Y-57252239D01*
X67965444Y-57454414D01*
X68061951Y-57643820D01*
X68186890Y-57815786D01*
X68337209Y-57966105D01*
X68337214Y-57966109D01*
X68501793Y-58085682D01*
X68544459Y-58141011D01*
X68550438Y-58210625D01*
X68517833Y-58272420D01*
X68501793Y-58286318D01*
X68337214Y-58405890D01*
X68337209Y-58405894D01*
X68186890Y-58556213D01*
X68061951Y-58728179D01*
X67965444Y-58917585D01*
X67899753Y-59119760D01*
X67866500Y-59329713D01*
X67866500Y-59542286D01*
X67899753Y-59752239D01*
X67965444Y-59954414D01*
X68061951Y-60143820D01*
X68186890Y-60315786D01*
X68337213Y-60466109D01*
X68509179Y-60591048D01*
X68509181Y-60591049D01*
X68509184Y-60591051D01*
X68698588Y-60687557D01*
X68900757Y-60753246D01*
X69110713Y-60786500D01*
X69110714Y-60786500D01*
X69573286Y-60786500D01*
X69573287Y-60786500D01*
X69783243Y-60753246D01*
X69985412Y-60687557D01*
X70174816Y-60591051D01*
X70196789Y-60575086D01*
X70346786Y-60466109D01*
X70346788Y-60466106D01*
X70346792Y-60466104D01*
X70497104Y-60315792D01*
X70497106Y-60315788D01*
X70497109Y-60315786D01*
X70622048Y-60143820D01*
X70622047Y-60143820D01*
X70622051Y-60143816D01*
X70718557Y-59954412D01*
X70784246Y-59752243D01*
X70817500Y-59542287D01*
X70817500Y-59329713D01*
X70784246Y-59119757D01*
X70718557Y-58917588D01*
X70622051Y-58728184D01*
X70622049Y-58728181D01*
X70622048Y-58728179D01*
X70497109Y-58556213D01*
X70346792Y-58405896D01*
X70346784Y-58405890D01*
X70182204Y-58286316D01*
X70139540Y-58230989D01*
X70133561Y-58161376D01*
X70166166Y-58099580D01*
X70182199Y-58085686D01*
X70346792Y-57966104D01*
X70497104Y-57815792D01*
X70497106Y-57815788D01*
X70497109Y-57815786D01*
X70622048Y-57643820D01*
X70622047Y-57643820D01*
X70622051Y-57643816D01*
X70718557Y-57454412D01*
X70784246Y-57252243D01*
X70817500Y-57042287D01*
X70817500Y-56829713D01*
X70784246Y-56619757D01*
X70718557Y-56417588D01*
X70622051Y-56228184D01*
X70622049Y-56228181D01*
X70622048Y-56228179D01*
X70497109Y-56056213D01*
X70346792Y-55905896D01*
X70346784Y-55905890D01*
X70182204Y-55786316D01*
X70139540Y-55730989D01*
X70133561Y-55661376D01*
X70166166Y-55599580D01*
X70182199Y-55585686D01*
X70346792Y-55466104D01*
X70497104Y-55315792D01*
X70497106Y-55315788D01*
X70497109Y-55315786D01*
X70622048Y-55143820D01*
X70622047Y-55143820D01*
X70622051Y-55143816D01*
X70718557Y-54954412D01*
X70784246Y-54752243D01*
X70817500Y-54542287D01*
X70817500Y-54329713D01*
X70784246Y-54119757D01*
X70718557Y-53917588D01*
X70622051Y-53728184D01*
X70622049Y-53728181D01*
X70622048Y-53728179D01*
X70497109Y-53556213D01*
X70357931Y-53417035D01*
X70324446Y-53355712D01*
X70329430Y-53286020D01*
X70371302Y-53230087D01*
X70380516Y-53223815D01*
X70535343Y-53128317D01*
X70659315Y-53004345D01*
X70751356Y-52855124D01*
X70751358Y-52855119D01*
X70806505Y-52688697D01*
X70806506Y-52688690D01*
X70816999Y-52585986D01*
X70817000Y-52585973D01*
X70817000Y-52186000D01*
X69746146Y-52186000D01*
X69784630Y-52119343D01*
X69817000Y-51998535D01*
X69817000Y-51873465D01*
X69784630Y-51752657D01*
X69746146Y-51686000D01*
X70816999Y-51686000D01*
X70816999Y-51286028D01*
X70816998Y-51286013D01*
X70806505Y-51183302D01*
X70751358Y-51016880D01*
X70751356Y-51016875D01*
X70659315Y-50867654D01*
X70535345Y-50743684D01*
X70386124Y-50651643D01*
X70386119Y-50651641D01*
X70219697Y-50596494D01*
X70219690Y-50596493D01*
X70116986Y-50586000D01*
X69592000Y-50586000D01*
X69592000Y-51531854D01*
X69525343Y-51493370D01*
X69404535Y-51461000D01*
X69279465Y-51461000D01*
X69158657Y-51493370D01*
X69092000Y-51531854D01*
X69092000Y-50586000D01*
X68567028Y-50586000D01*
X68567012Y-50586001D01*
X68464302Y-50596494D01*
X68297880Y-50651641D01*
X68297875Y-50651643D01*
X68148654Y-50743684D01*
X68024684Y-50867654D01*
X67932643Y-51016875D01*
X67932641Y-51016880D01*
X67877494Y-51183302D01*
X67877493Y-51183309D01*
X67867000Y-51286013D01*
X67867000Y-51686000D01*
X68937854Y-51686000D01*
X68899370Y-51752657D01*
X68867000Y-51873465D01*
X68867000Y-51998535D01*
X68899370Y-52119343D01*
X68937854Y-52186000D01*
X67867001Y-52186000D01*
X67867001Y-52585986D01*
X67877494Y-52688697D01*
X67932641Y-52855119D01*
X67932643Y-52855124D01*
X68024684Y-53004345D01*
X68148654Y-53128315D01*
X68303484Y-53223815D01*
X68350208Y-53275763D01*
X68361431Y-53344726D01*
X68333587Y-53408808D01*
X68326069Y-53417035D01*
X68186889Y-53556215D01*
X68061951Y-53728179D01*
X67965444Y-53917585D01*
X67899753Y-54119760D01*
X67866500Y-54329713D01*
X53086000Y-54329713D01*
X53086000Y-43286213D01*
X61732000Y-43286213D01*
X61732000Y-43798786D01*
X61765253Y-44008739D01*
X61830944Y-44210914D01*
X61927451Y-44400320D01*
X62052390Y-44572286D01*
X62202713Y-44722609D01*
X62374679Y-44847548D01*
X62374681Y-44847549D01*
X62374684Y-44847551D01*
X62564088Y-44944057D01*
X62766257Y-45009746D01*
X62976213Y-45043000D01*
X62976214Y-45043000D01*
X63188786Y-45043000D01*
X63188787Y-45043000D01*
X63398743Y-45009746D01*
X63600912Y-44944057D01*
X63790316Y-44847551D01*
X63812289Y-44831586D01*
X63962286Y-44722609D01*
X63962288Y-44722606D01*
X63962292Y-44722604D01*
X64112604Y-44572292D01*
X64112606Y-44572288D01*
X64112609Y-44572286D01*
X64237548Y-44400320D01*
X64237547Y-44400320D01*
X64237551Y-44400316D01*
X64334057Y-44210912D01*
X64399746Y-44008743D01*
X64433000Y-43798787D01*
X64433000Y-43286213D01*
X64399746Y-43076257D01*
X64334057Y-42874088D01*
X64237551Y-42684684D01*
X64237549Y-42684681D01*
X64237548Y-42684679D01*
X64112609Y-42512713D01*
X63962286Y-42362390D01*
X63790320Y-42237451D01*
X63600914Y-42140944D01*
X63600913Y-42140943D01*
X63600912Y-42140943D01*
X63398743Y-42075254D01*
X63398741Y-42075253D01*
X63398740Y-42075253D01*
X63237457Y-42049708D01*
X63188787Y-42042000D01*
X62976213Y-42042000D01*
X62927542Y-42049708D01*
X62766260Y-42075253D01*
X62564085Y-42140944D01*
X62374679Y-42237451D01*
X62202713Y-42362390D01*
X62052390Y-42512713D01*
X61927451Y-42684679D01*
X61830944Y-42874085D01*
X61765253Y-43076260D01*
X61732000Y-43286213D01*
X53086000Y-43286213D01*
X53086000Y-28286253D01*
X61732500Y-28286253D01*
X61732500Y-28292500D01*
X62649488Y-28292500D01*
X62616575Y-28349507D01*
X62582500Y-28476674D01*
X62582500Y-28608326D01*
X62616575Y-28735493D01*
X62649488Y-28792500D01*
X61732500Y-28792500D01*
X61732500Y-28798746D01*
X61765742Y-29008627D01*
X61765742Y-29008630D01*
X61831404Y-29210717D01*
X61927879Y-29400057D01*
X62052772Y-29571959D01*
X62052776Y-29571964D01*
X62203035Y-29722223D01*
X62203040Y-29722227D01*
X62374942Y-29847120D01*
X62564282Y-29943595D01*
X62766371Y-30009257D01*
X62832500Y-30019731D01*
X62832500Y-28975512D01*
X62889507Y-29008425D01*
X63016674Y-29042500D01*
X63148326Y-29042500D01*
X63275493Y-29008425D01*
X63332500Y-28975512D01*
X63332500Y-30019730D01*
X63398626Y-30009257D01*
X63398629Y-30009257D01*
X63600717Y-29943595D01*
X63790057Y-29847120D01*
X63961959Y-29722227D01*
X63961964Y-29722223D01*
X64112223Y-29571964D01*
X64112227Y-29571959D01*
X64237120Y-29400057D01*
X64333595Y-29210717D01*
X64399257Y-29008630D01*
X64399257Y-29008627D01*
X64432500Y-28798746D01*
X64432500Y-28792500D01*
X63515512Y-28792500D01*
X63548425Y-28735493D01*
X63582500Y-28608326D01*
X63582500Y-28476674D01*
X63548425Y-28349507D01*
X63515512Y-28292500D01*
X64432500Y-28292500D01*
X64432500Y-28286253D01*
X64399257Y-28076372D01*
X64399257Y-28076369D01*
X64333595Y-27874282D01*
X64237120Y-27684942D01*
X64112227Y-27513040D01*
X64112223Y-27513035D01*
X63961964Y-27362776D01*
X63961959Y-27362772D01*
X63790057Y-27237879D01*
X63600715Y-27141403D01*
X63398624Y-27075741D01*
X63332500Y-27065268D01*
X63332500Y-28109488D01*
X63275493Y-28076575D01*
X63148326Y-28042500D01*
X63016674Y-28042500D01*
X62889507Y-28076575D01*
X62832500Y-28109488D01*
X62832500Y-27065268D01*
X62832499Y-27065268D01*
X62766375Y-27075741D01*
X62564284Y-27141403D01*
X62374942Y-27237879D01*
X62203040Y-27362772D01*
X62203035Y-27362776D01*
X62052776Y-27513035D01*
X62052772Y-27513040D01*
X61927879Y-27684942D01*
X61831404Y-27874282D01*
X61765742Y-28076369D01*
X61765742Y-28076372D01*
X61732500Y-28286253D01*
X53086000Y-28286253D01*
X53086000Y-24254000D01*
X53105685Y-24186961D01*
X53158489Y-24141206D01*
X53210000Y-24130000D01*
X71758000Y-24130000D01*
X71825039Y-24149685D01*
G37*
%TD.AperFunction*%
%TD*%
M02*
